<svg xmlns="http://www.w3.org/2000/svg" width="266.399" height="604.171" viewBox="0 0 266.399 604.171"><defs><style>.a{opacity:0.15;isolation:isolate;}.b{fill:#f6f4c7;}.c{fill:#e78700;}.d{fill:#ff9f00;}.e{fill:#b76900;}.f{fill:#403428;}.g{fill:#bdaa7c;}</style></defs><g class="a" transform="translate(-46.532 -37.719)"><path class="b" d="M127.773,620.638s-15.2,27.28-25.222,52.255c-4.758,11.862-2.936,23.315,2.4,28.585,32.48,32.058,93.318,27.43,93.318,27.43s51.66,10.111,90.173-24.477c23.689-21.275-20.879-79.2-20.879-79.2Z" transform="translate(-8.184 -89.547)"/><g transform="translate(79.796 105.115)"><path class="c" d="M125.495,557.807c-2.117,8.507.738,15.143,8.58,19.061,12.12,6.057,32.482,13.185,61.189,13.185,27.788,0,47.887-6.743,60.247-12.72,8.579-4.148,12.133-14.1,8.97-23.093-5.906-16.787-13.9-44.673-12.03-61.274,2.8-24.9,46.585-212.781,48.263-229.988s10.493-119.611,4.617-145.631c-59.176,1.259-219.5,0-219.5,0s2.378,174.169,33.716,268.179C143.74,458.1,132.45,529.853,125.495,557.807Z" transform="translate(-85.834 -117.347)"/></g><path class="d" d="M221,117.985l-4.135-.007C218.253,118,219.651,118.008,221,117.985Z" transform="translate(-26.166 -12.329)"/><path class="d" d="M317.528,262.978c1.679-17.207,10.493-119.611,4.617-145.631-22.667.482-89.2.6-126.851.55.566,26.862,1.013,128.012,1.893,145.081,7.083,137.411,16.207,176.217,12.9,291.262-.259,8.991-.04,18.945-.9,23.093-1.22,5.882-3.194,12.488-5.913,12.7,27.1-.212,56.894-6.818,69.055-12.7,8.579-4.148,12.133-14.1,8.97-23.093-5.906-16.788-13.9-44.674-12.03-61.274C272.063,468.064,315.85,280.185,317.528,262.978Z" transform="translate(-22.853 -12.232)"/><path class="e" d="M159.833,576.868c-4.61-3.918-7.468-10.812-5.044-19.061,14.032-47.746,10.726-99.709-3.5-172.281-18.009-91.9-19.749-260.382-19.818-267.89-26.957-.143-45.642-.289-45.642-.289s2.378,174.169,33.715,268.179c24.191,72.572,12.9,144.327,5.946,172.281-2.117,8.507.738,15.143,8.58,19.061,12.12,6.057,32.482,13.184,61.189,13.184.117,0,.229,0,.344-.005A54.833,54.833,0,0,1,159.833,576.868Z" transform="translate(-6.038 -12.232)"/><g transform="translate(68.233 101.337)"><path class="b" d="M72.172,112.884V157.79s54.791,16.577,119.14,19.523c48.344,2.212,85.88-8.284,104.055-14.688l7.34-44.286,1.616,41.1c2.091-.806,4.133-1.65,4.133-1.65V112.884Z" transform="translate(-72.172 -112.884)"/></g><g transform="translate(71.66 96.301)"><path class="b" d="M303.085,114.987c1.661,23.5,5.175,100.178-12.191,176.042-5.863,25.611-11.827,49.286-17.6,72.181-15.043,59.708-26.924,106.868-23.972,138.921,2.531,27.477,15.948,56.726,25.744,78.082,4.705,10.256,10.037,21.879,10.037,25.307,0,8.289-4.248,15.44-12.625,21.253-10.281,7.134-32.212,15.645-78.3,15.678-46.1-.033-68.033-8.544-78.313-15.678-8.377-5.813-12.625-12.963-12.625-21.253,0-3.428,5.332-15.051,10.036-25.307,9.8-21.356,23.215-50.605,25.745-78.082,2.952-32.052-8.929-79.213-23.972-138.921-5.768-22.9-11.733-46.57-17.6-72.181-17.348-75.785-13.845-152.522-12.19-176.042l108.384,7.525.523.036.523-.036,108.387-7.525Zm6.923-8.053-115.833,8.042L78.342,106.934s-9.512,92.89,11.751,185.781,45.326,166.2,41.409,208.723S95.689,592.3,95.689,605.52c0,13.975,9.5,44.422,98.486,44.486,88.99-.064,98.487-30.51,98.487-44.486,0-13.22-31.9-61.554-35.813-104.082S276.994,385.6,298.257,292.715s11.751-185.781,11.751-185.781Z" transform="translate(-76.221 -106.934)"/></g><path class="f" d="M289.855,689.239c-.491-4.252-5.221-14.713-9.067-22.67a10.268,10.268,0,0,0-14.134-4.542,142.513,142.513,0,0,1-135.005.207,10.278,10.278,0,0,0-14.223,4.885c-3.141,7.034-6.909,15.415-8.14,17.923-1.988,4.05-17.725,50.047,89.672,50.047C302.926,735.088,290.694,696.514,289.855,689.239ZM223.425,726.2a237.406,237.406,0,0,1-24.747,2.388s-13.953-1.159-24.188-2.388c-15.053-1.809-64.906-13.844-54.93-36.781,4.2-9.66,21-11.026,33.3-10.117-3.88.091-21.735,9.2-22.994,11.892,35.03-12.13,39.7-7.443,49.551-6.633-6.54.222-17.928,7.148-25.776,10.1s-10.772,2.653-10.772,2.653a18.311,18.311,0,0,0,3.934,0,44.8,44.8,0,0,0,12.94-2.869c18.923-7.276,31.8-8.113,38.928-8.113s20.582.838,39.506,8.113a44.792,44.792,0,0,0,12.94,2.869,18.311,18.311,0,0,0,3.934,0s-2.924.295-10.772-2.653-19.236-9.875-25.776-10.1c9.848-.81,15.586-4.657,49.551,6.633-1.259-2.695-19.114-11.8-22.994-11.892,12.67-.937,30.046.536,33.467,10.973C286.383,714.248,233.582,724.427,223.425,726.2Z" transform="translate(-9.343 -95.715)"/><g transform="translate(71.66 96.301)"><path class="b" d="M303.085,114.987c1.661,23.5,5.175,100.178-12.191,176.042-5.863,25.611-11.827,49.286-17.6,72.181-15.043,59.708-26.924,106.868-23.972,138.921,2.531,27.477,15.948,56.726,25.744,78.082,4.705,10.256,10.037,21.879,10.037,25.307,0,8.289-4.248,15.44-12.625,21.253-10.281,7.134-32.212,15.645-78.3,15.678-46.1-.033-68.033-8.544-78.313-15.678-8.377-5.813-12.625-12.963-12.625-21.253,0-3.428,5.332-15.051,10.036-25.307,9.8-21.356,23.215-50.605,25.745-78.082,2.952-32.052-8.929-79.213-23.972-138.921-5.768-22.9-11.733-46.57-17.6-72.181-17.348-75.785-13.845-152.522-12.19-176.042l108.384,7.525.523.036.523-.036,108.387-7.525Zm6.923-8.053-115.833,8.042L78.342,106.934s-9.512,92.89,11.751,185.781,45.326,166.2,41.409,208.723S95.689,592.3,95.689,605.52c0,13.975,9.5,44.422,98.486,44.486,88.99-.064,98.487-30.51,98.487-44.486,0-13.22-31.9-61.554-35.813-104.082S276.994,385.6,298.257,292.715s11.751-185.781,11.751-185.781Z" transform="translate(-76.221 -106.934)"/></g><g transform="translate(69.193 93.621)"><path class="f" d="M193.73,652.036c-87.885-.063-101.007-29.476-101.007-47,0-5.627,4.594-15.644,10.954-29.506,9.494-20.7,22.5-49.043,24.87-74.807,2.794-30.336-8.9-76.761-23.709-135.534-5.782-22.95-11.76-46.68-17.647-72.4-21.113-92.228-11.9-185.665-11.8-186.6l.249-2.424,118.09,8.2,118.09-8.2.249,2.424c.1.934,9.309,94.371-11.8,186.6-5.887,25.718-11.865,49.446-17.646,72.394-14.807,58.776-26.5,105.2-23.709,135.537,2.372,25.764,15.375,54.11,24.869,74.807,6.36,13.862,10.954,23.879,10.954,29.506C294.732,622.56,281.61,651.974,193.73,652.036ZM80.182,109.131c-1.281,15.225-7.114,99.4,11.918,182.536,5.876,25.665,11.847,49.367,17.622,72.29,14.924,59.241,26.713,106.033,23.84,137.225C131.11,527.8,117.9,556.6,108.254,577.627c-5.631,12.278-10.5,22.879-10.5,27.407,0,12.6,9.352,41.905,95.971,41.968,86.614-.063,95.965-29.371,95.965-41.968,0-4.527-4.863-15.129-10.494-27.407-9.645-21.027-22.856-49.824-25.308-76.444-2.873-31.194,8.916-77.986,23.841-137.227,5.775-22.923,11.746-46.624,17.621-72.289,19.032-83.137,13.2-167.312,11.92-182.536l-113.546,7.884-.175-.012Z" transform="translate(-73.306 -103.767)"/></g><g transform="translate(194.791 116.166)"><path class="b" d="M221.7,586.043c11.953-1.088,24.4-2.824,34.414-5.771,10.579-3.111,18.459-7.512,20.355-11.541,4.477-9.512-4.538-21.905-9.443-39.975-3.094-11.4-4.337-23.152-2.659-52.81S285.912,365.708,299.9,305.833,316.688,162.58,315.289,130.4l-23.782,4.477s2.378,94.849-8.114,153.6S254.435,443.35,252.337,470.21s.21,53.3,1.049,68.2,5.479,26.207,2.728,32.106C250.73,582.063,221.7,586.043,221.7,586.043Z" transform="translate(-221.7 -130.404)"/></g><g transform="translate(155.55 548.435)"><path class="f" d="M175.337,652.61a85.971,85.971,0,0,1,17.134-7.7,76.705,76.705,0,0,1,18.7-3.649,61.146,61.146,0,0,1,19.371,1.771,58.215,58.215,0,0,1,18.09,8.287l-5.15,6.628a50.864,50.864,0,0,0-14.844-8.914,55.871,55.871,0,0,0-17.425-3.576A73.551,73.551,0,0,0,193,646.944,84.935,84.935,0,0,0,175.337,652.61Z" transform="translate(-175.337 -641.131)"/></g><g transform="translate(226.457 122.763)"><path class="b" d="M287.447,138.2c1.21,21.891,1.031,43.691.14,65.435q-1.371,32.613-4.961,65.016-3.55,32.389-9.242,64.462c-3.844,21.354-8.464,42.572-14.268,63.452,4.991-21.089,8.776-42.427,11.782-63.851s5.191-42.955,6.713-64.514,2.354-43.159,2.425-64.735c.05-21.567-.619-43.144-2.628-64.47Z" transform="translate(-259.114 -138.198)"/></g><g transform="translate(209.982 482.727)"><path class="b" d="M239.648,649.393s8.738-3.254,8.738-8.649c0,0-.638-7.944-.765-10.906-.25-5.925-.373-11.837-.443-17.749s-.061-11.82.065-17.727c.146-5.9-.278-25,.411-30.866-.13,5.9.854,24.952,1.267,30.821.432,5.869.983,11.728,1.608,17.577s1.307,11.689,2.107,17.5c.4,2.9.829,5.8,1.3,8.669.059.347.183.97.337,1.723a6.523,6.523,0,0,1-5.11,7.7Z" transform="translate(-239.648 -563.496)"/></g><g transform="translate(82.6 54.752)"><g transform="translate(0)"><ellipse class="b" cx="113.735" cy="32.526" rx="113.735" ry="32.526"/></g></g><g transform="translate(108.843 320.602)"><path class="f" d="M120.152,371.945c20.7,81.979,30.645,122.869,32.39,150.794,2.932,46.923-18.121,71.941-14.554,81.279S168.661,620,183.245,622.2c-9.023-3.253-32.14-9.313-36.093-19.586-2.978-7.741,22.593-46.3,5.95-117.651C137.4,417.677,120.152,371.945,120.152,371.945Z" transform="translate(-120.152 -371.945)"/></g><g transform="translate(120.515 159.394)"><g transform="translate(68.352 319.031)"><g transform="translate(0 0)"><path class="e" d="M219.632,560.88a2.465,2.465,0,1,1-2.465-2.466A2.465,2.465,0,0,1,219.632,560.88Z" transform="translate(-214.701 -558.414)"/></g></g><g transform="translate(57.23 290.912)"><g transform="translate(0 0)"><circle class="e" cx="3.672" cy="3.672" r="3.672"/></g></g><g transform="translate(66.043 251.881)"><circle class="e" cx="2.387" cy="2.387" r="2.387"/></g><g transform="translate(66.043 237.612)"><circle class="e" cx="2.387" cy="2.387" r="2.387"/></g><g transform="translate(50.935 222.503)"><circle class="e" cx="4.407" cy="4.407" r="4.407"/></g><g transform="translate(34.147 182.004)"><path class="e" d="M179.744,399.244a2.728,2.728,0,1,1-2.728-2.728A2.728,2.728,0,0,1,179.744,399.244Z" transform="translate(-174.288 -396.516)"/></g><g transform="translate(60.902 162.908)"><path class="e" d="M215.814,378.911a4.958,4.958,0,1,1-4.958-4.957A4.958,4.958,0,0,1,215.814,378.911Z" transform="translate(-205.899 -373.954)"/></g><g transform="translate(70.817 151.367)"><path class="e" d="M222.7,362.862a2.544,2.544,0,1,1-2.544-2.544A2.544,2.544,0,0,1,222.7,362.862Z" transform="translate(-217.614 -360.318)"/></g><g transform="translate(85.139 178.017)"><circle class="e" cx="2.413" cy="2.413" r="2.413"/></g><g transform="translate(47.996 128.913)"><path class="e" d="M195.688,336.307a2.518,2.518,0,1,1-2.518-2.518A2.518,2.518,0,0,1,195.688,336.307Z" transform="translate(-190.651 -333.789)"/></g><g transform="translate(73.362 117.372)"><path class="e" d="M228.4,324.042a3.889,3.889,0,1,1-3.889-3.889A3.889,3.889,0,0,1,228.4,324.042Z" transform="translate(-220.62 -320.153)"/></g><g transform="translate(49.466 94.079)"><path class="e" d="M201.1,296.988a4.354,4.354,0,1,1-4.355-4.355A4.354,4.354,0,0,1,201.1,296.988Z" transform="translate(-192.387 -292.633)"/></g><g transform="translate(65.86 90.302)"><circle class="e" cx="1.889" cy="1.889" r="1.889"/></g><g transform="translate(85.139 72.465)"><path class="e" d="M239.991,269.824a2.728,2.728,0,1,1-2.728-2.728A2.728,2.728,0,0,1,239.991,269.824Z" transform="translate(-234.535 -267.096)"/></g><g transform="translate(73.362 63.862)"><circle class="e" cx="3.102" cy="3.102" r="3.102"/></g><g transform="translate(30.37 88.624)"><path class="e" d="M174.652,288.6a2.413,2.413,0,1,1-2.414-2.413A2.413,2.413,0,0,1,174.652,288.6Z" transform="translate(-169.825 -286.187)"/></g><g transform="translate(0 41.409)"><circle class="e" cx="3.553" cy="3.553" r="3.553"/></g><g transform="translate(28.901 22.523)"><path class="e" d="M174.385,211.237a3.148,3.148,0,1,1-3.148-3.148A3.148,3.148,0,0,1,174.385,211.237Z" transform="translate(-168.09 -208.089)"/></g><g transform="translate(23.623 4.865)"><path class="e" d="M166.953,189.775a2.55,2.55,0,1,1-2.549-2.549A2.549,2.549,0,0,1,166.953,189.775Z" transform="translate(-161.854 -187.226)"/></g><g transform="translate(11.736)"><circle class="e" cx="4.106" cy="4.106" r="4.106"/></g><g transform="translate(74.857 12.87)"><circle class="e" cx="3.253" cy="3.253" r="3.253"/></g><g transform="translate(83.041 27.769)"><path class="e" d="M236.567,216.543a2.256,2.256,0,1,1-2.256-2.256A2.256,2.256,0,0,1,236.567,216.543Z" transform="translate(-232.056 -214.287)"/></g><g transform="translate(113.678 12.87)"><circle class="e" cx="2.098" cy="2.098" r="2.098"/></g></g><g transform="translate(270.14 70.039)"><g transform="translate(0 2.219)"><path class="b" d="M337.829,78.527c8.194,4.493,12.826,9.6,12.826,15.02,0,9.909-15.494,18.782-39.931,24.748Z" transform="translate(-310.725 -78.527)"/></g><path class="f" d="M339.046,75.9a38.871,38.871,0,0,1,7.859,5.059,18.628,18.628,0,0,1,5.994,8.218,13.179,13.179,0,0,1-1.334,10.77,24.186,24.186,0,0,1-6.88,7.023,48.87,48.87,0,0,1-8.033,4.534,68.945,68.945,0,0,1-8.415,3.223,73.4,73.4,0,0,1-17.512,3.16c5.413-2.477,10.822-4.631,16.063-7.01,5.2-2.379,10.411-4.858,14.674-8.229a19,19,0,0,0,5.176-5.565c.212-.517.531-1.014.692-1.528a6.792,6.792,0,0,0,.352-1.534,6.42,6.42,0,0,0-.274-3.053,14.519,14.519,0,0,0-4.18-5.826,44.044,44.044,0,0,0-6.616-4.8Z" transform="translate(-310.725 -75.905)"/></g><g transform="translate(152.564 132.604)"><g transform="translate(26.846 25.114)"><path class="b" d="M213.651,183.7a5.1,5.1,0,1,1-5.921-4.123A5.1,5.1,0,0,1,213.651,183.7Z" transform="translate(-203.528 -179.499)"/><g transform="translate(0.003 1.682)"><path class="e" d="M211.983,185a4.259,4.259,0,1,1-4.943-3.441A4.259,4.259,0,0,1,211.983,185Z" transform="translate(-203.531 -181.486)"/></g></g><g transform="translate(62.205 25.954)"><path class="b" d="M255.427,184.694a5.1,5.1,0,1,1-5.921-4.123A5.1,5.1,0,0,1,255.427,184.694Z" transform="translate(-245.304 -180.491)"/><g transform="translate(0.003 1.682)"><path class="e" d="M253.759,185.987a4.259,4.259,0,1,1-4.943-3.441A4.259,4.259,0,0,1,253.759,185.987Z" transform="translate(-245.307 -182.478)"/></g></g><g transform="translate(75.382 26.923)"><g transform="translate(0.592)"><path class="b" d="M269.773,185.04a4.132,4.132,0,1,1-4.8-3.339A4.132,4.132,0,0,1,269.773,185.04Z" transform="translate(-261.573 -181.636)"/></g><g transform="translate(0 0.768)"><circle class="e" cx="3.45" cy="3.45" r="3.45" transform="matrix(0.191, -0.982, 0.982, 0.191, 0, 6.772)"/></g></g><g transform="translate(42.736 30.217)"><circle class="e" cx="3.289" cy="3.289" r="3.289"/></g><g transform="translate(8.652 28.286)"><path class="e" d="M190.236,187.348a4.1,4.1,0,1,1-4.1-4.1A4.1,4.1,0,0,1,190.236,187.348Z" transform="translate(-182.031 -183.246)"/></g><g transform="translate(1.308 28.286)"><path class="e" d="M178.574,185.856a2.61,2.61,0,1,1-2.61-2.61A2.61,2.61,0,0,1,178.574,185.856Z" transform="translate(-173.354 -183.246)"/></g><g transform="translate(0 16.892)"><circle class="e" cx="3.264" cy="3.264" r="3.264"/></g><g transform="translate(10.541 16.263)"><circle class="e" cx="1.416" cy="1.416" r="1.416"/></g><g transform="translate(8.967 23.419)"><circle class="e" cx="1.495" cy="1.495" r="1.495"/></g><g transform="translate(28.902 18.256)"><circle class="e" cx="2.098" cy="2.098" r="2.098"/></g><g transform="translate(19.878 22.453)"><path class="e" d="M200.479,178.946a2.592,2.592,0,1,1-2.592-2.592A2.592,2.592,0,0,1,200.479,178.946Z" transform="translate(-195.295 -176.354)"/></g><g transform="translate(71.395 17.679)"><path class="e" d="M258.639,171.952a1.238,1.238,0,1,1-1.238-1.238A1.238,1.238,0,0,1,258.639,171.952Z" transform="translate(-256.162 -170.714)"/></g><g transform="translate(75.974 19.095)"><path class="e" d="M267.227,175.215a2.827,2.827,0,1,1-2.827-2.828A2.827,2.827,0,0,1,267.227,175.215Z" transform="translate(-261.572 -172.387)"/></g><g transform="translate(104.973 11.014)"><circle class="e" cx="4.379" cy="4.379" r="4.379"/></g><g transform="translate(49.585 11.013)"><path class="e" d="M235.447,165.365a2.526,2.526,0,1,1-2.526-2.527A2.526,2.526,0,0,1,235.447,165.365Z" transform="translate(-230.394 -162.838)"/></g><g transform="translate(127.596)"><path class="e" d="M328.44,152.764a2.938,2.938,0,1,1-2.938-2.938A2.938,2.938,0,0,1,328.44,152.764Z" transform="translate(-322.564 -149.826)"/></g><g transform="translate(49.781 26.923)"><path class="e" d="M234.612,183.629a1.994,1.994,0,1,1-1.993-1.993A1.994,1.994,0,0,1,234.612,183.629Z" transform="translate(-230.625 -181.636)"/></g><g transform="translate(39.394 26.797)"><circle class="e" cx="2.098" cy="2.098" r="2.098"/></g><g transform="translate(16.857 2.938)"><circle class="e" cx="2.298" cy="2.298" r="2.298"/></g></g><g transform="translate(46.532 37.719)"><g transform="translate(4.218 4.201)"><path class="b" d="M302.687,69.364c-2.044-8.955-11-14.25-21.8-17.351a5.716,5.716,0,0,0-9.2-2.449,7.058,7.058,0,0,0-10.572-1.325,8.595,8.595,0,0,0-14.4-1.716,6.286,6.286,0,0,0-9.793,1.419c-1.945.077-3.067.156-3.067.156s-20.984-12.311-60.715.28c-20.7-1.678-44.766-9.793-67.429-3.077-28.433,8.425-46.725,25.741-49.243,60.714-3.533,5-5.421,14.444-.8,20.11a9.555,9.555,0,0,0-.839,15.109c-2.833,3.043-1.364,8.813,1.678,9.653-4.092,5.141-3.882,12.066,3.043,14.9-.1,7.134-.21,10.387-.21,10.387s-5.141,6.505,1.574,12.8c-1.889,7.659-5.142,25.077,10.387,33.89,1.259,4.581,2.658,16.752,2.658,16.752s-5.037,8.253.419,14.548c-5.6,4.757-4.616,13.011,1.12,18.466-.84,11.472,2.518,48.264,19.725,48.823s18.886-16.228,18.886-16.228h0a2.128,2.128,0,0,1,.918-2.384,4.367,4.367,0,0,0-.554-7.652,5.4,5.4,0,0,0-5.214-9.237c-.277-1.231-.84-3.823-.84-3.823l.172.018-1.747-7.718s-1.315-7.009-1.924-10.719A4.484,4.484,0,0,0,103.747,256q-.23-1.648-.444-3.315a5.568,5.568,0,0,0-1.179-10.913q-.207-2.406-.364-4.81c-.637-4.13,1.749-6.514.851-7.354a5.114,5.114,0,0,0,2.429-8.984l.052-6.572A4.65,4.65,0,0,0,107.467,210c0-2.533-3.5-8.43-1.473-15.845,1.1-4.035,3.338-7.472,5.327-10.8a8.417,8.417,0,0,0,10.139-13.382,95.308,95.308,0,0,1,12.856-11.314,6.575,6.575,0,0,1,6.7-.785,6.223,6.223,0,0,0,8.813-4.51,6.514,6.514,0,0,0,.1-1.154,6.2,6.2,0,0,1,3.258-5.344c1.975-1.114,3.734-2.112,5.206-3.024a10.7,10.7,0,0,1,5.964-1.73,5.476,5.476,0,0,0,1.54-.168,5.209,5.209,0,0,0,3.772-3.915,5.38,5.38,0,0,0,.012-2.247,8.127,8.127,0,0,1,1.554-6.68c5.242-6.729,12.179-13.691,22.25-15.432a3.683,3.683,0,0,1,3.667,1.579,5.971,5.971,0,0,0,9.617.318,3.721,3.721,0,0,1,3.623-1.422q.627.122,1.231.251A2.459,2.459,0,0,1,213.5,116.5l.008.059a7.068,7.068,0,0,0,6.623,5.956,6.992,6.992,0,0,0,6.576-3.91,3.471,3.471,0,0,1,2.758-1.882,44.759,44.759,0,0,0,6.35-1.2,50.3,50.3,0,0,0,9.43-3.48,3.652,3.652,0,0,1,3.489.181,6.429,6.429,0,0,0,9.631-6.7,1.814,1.814,0,0,1,.848-1.861l.026-.016a1.885,1.885,0,0,1,2.28.24,6.042,6.042,0,0,0,10.041-3.539,2.9,2.9,0,0,1,2.559-2.445l.027,0,.169-.016a3.005,3.005,0,0,1,2.575,1.073,5.881,5.881,0,0,0,9.015-.085,12.945,12.945,0,0,1,5.554-4.039C300.045,91.732,306.277,85.1,302.687,69.364Z" transform="translate(-51.515 -42.682)"/></g><path class="f" d="M95.3,324.925c-.322,0-.647-.005-.978-.015A16.719,16.719,0,0,1,82.188,318.9c-9.97-11.083-12.032-35.353-11.755-45.424a18.354,18.354,0,0,1-4.759-12.453A14.57,14.57,0,0,1,68.312,253c-2.65-5.4-1.266-11.3.534-14.973-.418-3.429-1.242-9.593-2.008-13.234-7.943-5.167-15.522-15.374-11.3-35.349a13.167,13.167,0,0,1-1.149-15.363c.031-1.211.081-3.362.134-6.538a12.256,12.256,0,0,1-5.305-7.2,13.746,13.746,0,0,1,1.036-9.349,10.585,10.585,0,0,1-1.486-3.182,11.3,11.3,0,0,1,.172-6.818,13.616,13.616,0,0,1-2.383-8.547,13.963,13.963,0,0,1,3-7.776c-2.976-6.538-1.6-14.989,2.029-20.827C54.32,70.366,70.921,50.223,103.751,40.5c17.076-5.057,34.958-2.147,50.736.423,6.1.994,11.886,1.935,17.42,2.427,35.678-11.084,56.9-2.8,62.092-.287l.02,0a10.507,10.507,0,0,1,11.474-2.513,12.8,12.8,0,0,1,16.033,1.481,11.5,11.5,0,0,1,10.17,1.594,9.935,9.935,0,0,1,11.378,4.116c13.164,4.146,20.886,10.844,22.96,19.927C309.58,83.2,304.9,93.421,292.129,98.04a8.681,8.681,0,0,0-3.73,2.752,10.1,10.1,0,0,1-14,1.559c-.027.071-.054.14-.083.209a10.216,10.216,0,0,1-12.677,5.875c-.015.063-.03.126-.047.189a10.643,10.643,0,0,1-15.559,6.6,54.421,54.421,0,0,1-9.928,3.63,49.408,49.408,0,0,1-6.589,1.264,11.213,11.213,0,0,1-20.622-2.216,10.188,10.188,0,0,1-15.815-.78c-8.862,1.674-14.958,8.244-19.291,13.8a3.919,3.919,0,0,0-.754,3.22,9.551,9.551,0,0,1-.014,4,9.452,9.452,0,0,1-9.59,7.415,6.678,6.678,0,0,0-3.589,1.1c-1.557.966-3.423,2.024-5.358,3.114a2.028,2.028,0,0,0-1.11,1.637,10.692,10.692,0,0,1-.161,1.915,10.441,10.441,0,0,1-14.791,7.586,2.374,2.374,0,0,0-2.366.376,93.382,93.382,0,0,0-9.78,8.256,12.639,12.639,0,0,1-13.951,18.3A27.941,27.941,0,0,0,109.3,194.5c-1.111,4.067-.07,7.611.765,10.458a15.509,15.509,0,0,1,.857,4.274,8.886,8.886,0,0,1-2.39,6.054l-.023,2.947a9.345,9.345,0,0,1-2.714,13.589c-.044.131-.086.253-.124.362a6.56,6.56,0,0,0-.5,3.369c.019.124.033.247.041.371q.06.932.129,1.86a9.773,9.773,0,0,1,2.5,15.79,8.711,8.711,0,0,1,.818,10.636c.647,3.714,1.566,8.617,1.577,8.676l1.716,7.565c.031.139.055.278.073.419.046.008.091.018.137.026a9.625,9.625,0,0,1,7.009,12.928,8.57,8.57,0,0,1-1.618,11.053v.005C116.837,311.906,111.273,324.925,95.3,324.925ZM57.16,146.153a4.218,4.218,0,0,1,1.882,6.6,6.575,6.575,0,0,0-1.659,5.459,4.554,4.554,0,0,0,3,2.91A4.216,4.216,0,0,1,63,165.087c-.1,7.186-.212,10.461-.212,10.461a4.218,4.218,0,0,1-.906,2.478c-.765,1.037-2.263,3.909,1.149,7.106a4.221,4.221,0,0,1,1.211,4.088c-3.561,14.438-.822,23.993,8.373,29.213a4.209,4.209,0,0,1,1.986,2.551c1.33,4.839,2.722,16.878,2.78,17.388a4.211,4.211,0,0,1-.589,2.678c-.124.211-3.33,5.74.006,9.591a4.216,4.216,0,0,1-.455,5.975,6.094,6.094,0,0,0-2.237,4.638,10.494,10.494,0,0,0,3.532,7.558,4.219,4.219,0,0,1,1.3,3.364c-.607,8.3,1.27,31.907,9.522,41.08a8.508,8.508,0,0,0,6.134,3.22c11.669.453,14.054-9.3,14.481-11.928a6.321,6.321,0,0,1,2.9-6.014c.076-.217,0-.26-.027-.272a4.219,4.219,0,0,1-.987-7.038,1.179,1.179,0,0,0,.4-1.1,1.214,1.214,0,0,0-.928-.969,1.135,1.135,0,0,0-.622.036,4.218,4.218,0,0,1-5.439-3.08c-.279-1.241-.846-3.854-.846-3.854a4.148,4.148,0,0,1-.09-1.134l-1.479-6.531c-.085-.442-1.363-7.252-1.971-10.967a4.217,4.217,0,0,1,1.529-3.975.288.288,0,0,0,.126-.219.3.3,0,0,0-.2-.268,4.218,4.218,0,0,1-2.647-3.345q-.235-1.671-.45-3.364a4.217,4.217,0,0,1,3.027-4.593,1.35,1.35,0,0,0-.284-2.647,4.219,4.219,0,0,1-3.94-3.848q-.2-2.368-.36-4.729a14.607,14.607,0,0,1,.879-7.158,4.221,4.221,0,0,1,3.483-4.8.9.9,0,0,0,.749-.881.889.889,0,0,0-.325-.692,4.216,4.216,0,0,1-1.527-3.281l.052-6.573a4.22,4.22,0,0,1,2.149-3.643.437.437,0,0,0,.226-.379c-.028-.235-.309-1.2-.515-1.9-.954-3.248-2.549-8.685-.808-15.058a42.66,42.66,0,0,1,5.134-10.786l.642-1.066a4.219,4.219,0,0,1,5.914-1.378,4.2,4.2,0,0,0,3.153.59,4.14,4.14,0,0,0,3.224-3.134,4.2,4.2,0,0,0-1.323-4.137,4.215,4.215,0,0,1-.279-6.051A98.574,98.574,0,0,1,131.045,154.5a10.739,10.739,0,0,1,11.023-1.2,2.04,2.04,0,0,0,1.252.16,2.005,2.005,0,0,0,1.584-1.593,2.232,2.232,0,0,0,.034-.4,10.392,10.392,0,0,1,5.4-9.048c1.857-1.044,3.638-2.055,5.056-2.934a14.7,14.7,0,0,1,8.339-2.36,1.316,1.316,0,0,0,.35-.041,1,1,0,0,0,.687-.712,1.176,1.176,0,0,0,.009-.488,12.329,12.329,0,0,1,2.353-10.146c4.907-6.3,12.824-14.916,24.858-17a7.933,7.933,0,0,1,7.861,3.346,1.751,1.751,0,0,0,2.83.094,7.937,7.937,0,0,1,7.734-2.95c.455.091.885.178,1.309.268a6.714,6.714,0,0,1,5.187,5.658,2.848,2.848,0,0,0,2.626,2.381,2.758,2.758,0,0,0,2.616-1.551,7.646,7.646,0,0,1,6.088-4.218A40.771,40.771,0,0,0,234,110.683a46.215,46.215,0,0,0,8.647-3.193,7.858,7.858,0,0,1,7.507.369,2.206,2.206,0,0,0,3.268-1.331,2.179,2.179,0,0,0,.037-.969,6.061,6.061,0,0,1,2.726-6.212c.022-.014.044-.03.067-.043a6.132,6.132,0,0,1,7.369.729,1.8,1.8,0,0,0,1.547.451,1.833,1.833,0,0,0,1.338-1.112,1.89,1.89,0,0,0,.122-.427,7.107,7.107,0,0,1,6.253-5.992c.044-.005.087-.01.13-.014a7.272,7.272,0,0,1,6.32,2.516,1.665,1.665,0,0,0,2.554-.025,17.235,17.235,0,0,1,7.375-5.325c6.05-2.186,11.8-6.34,8.548-20.565h0c-1.43-6.267-7.773-11.055-18.852-14.235a4.217,4.217,0,0,1-2.829-2.692,1.511,1.511,0,0,0-1.425-1.025,1.471,1.471,0,0,0-.989.377,4.22,4.22,0,0,1-6.29-.807,2.857,2.857,0,0,0-2.371-1.264,2.806,2.806,0,0,0-1.893.729,4.218,4.218,0,0,1-6.607-1.309,4.375,4.375,0,0,0-7.337-.877,4.218,4.218,0,0,1-6.169.379,2.042,2.042,0,0,0-1.43-.576,2.066,2.066,0,0,0-1.8,1.051,4.22,4.22,0,0,1-3.484,2.1c-1.833.072-2.9.146-2.939.15a4.244,4.244,0,0,1-2.431-.57c-.175-.1-20.148-11.11-57.305.663a4.237,4.237,0,0,1-1.616.185c-6.118-.5-12.33-1.507-18.906-2.579-15.613-2.544-31.758-5.172-46.984-.659-29.772,8.821-44.032,26.392-46.234,56.972a4.223,4.223,0,0,1-.761,2.131c-2.561,3.627-4.174,11.094-.98,15.012a4.218,4.218,0,0,1-.862,6.126,5.5,5.5,0,0,0-2.333,4.135,5.285,5.285,0,0,0,1.9,4.372,4.218,4.218,0,0,1,.273,6.016A2.724,2.724,0,0,0,57.16,146.153Zm60.232,157.129,0,.007Zm91.18-186.863,0,.025ZM273.4,97.295l.04.224-.054-.379Z" transform="translate(-46.532 -37.719)"/><g transform="translate(1.699 1.668)"><g transform="translate(2.519 2.533)"><path class="b" d="M302.687,69.364c-2.044-8.955-11-14.25-21.8-17.351a5.716,5.716,0,0,0-9.2-2.449,7.058,7.058,0,0,0-10.572-1.325,8.595,8.595,0,0,0-14.4-1.716,6.286,6.286,0,0,0-9.793,1.419c-1.945.077-3.067.156-3.067.156s-20.984-12.311-60.715.28c-20.7-1.678-44.766-9.793-67.429-3.077-28.433,8.425-46.725,25.741-49.243,60.714-3.533,5-5.421,14.444-.8,20.11a9.555,9.555,0,0,0-.839,15.109c-2.833,3.043-1.364,8.813,1.678,9.653-4.092,5.141-3.882,12.066,3.043,14.9-.1,7.134-.21,10.387-.21,10.387s-5.141,6.505,1.574,12.8c-1.889,7.659-5.142,25.077,10.387,33.89,1.259,4.581,2.658,16.752,2.658,16.752s-5.037,8.253.419,14.548c-5.6,4.757-4.616,13.011,1.12,18.466-.84,11.472,2.518,48.264,19.725,48.823s18.886-16.228,18.886-16.228h0a2.128,2.128,0,0,1,.918-2.384,4.367,4.367,0,0,0-.554-7.652,5.4,5.4,0,0,0-5.214-9.237c-.277-1.231-.84-3.823-.84-3.823l.172.018-1.747-7.718s-1.315-7.009-1.924-10.719A4.484,4.484,0,0,0,103.747,256q-.23-1.648-.444-3.315a5.568,5.568,0,0,0-1.179-10.913q-.207-2.406-.364-4.81c-.637-4.13,1.749-6.514.851-7.354a5.114,5.114,0,0,0,2.429-8.984l.052-6.572A4.65,4.65,0,0,0,107.467,210c0-2.533-3.5-8.43-1.473-15.845,1.1-4.035,3.338-7.472,5.327-10.8a8.417,8.417,0,0,0,10.139-13.382,95.308,95.308,0,0,1,12.856-11.314,6.575,6.575,0,0,1,6.7-.785,6.223,6.223,0,0,0,8.813-4.51,6.514,6.514,0,0,0,.1-1.154,6.2,6.2,0,0,1,3.258-5.344c1.975-1.114,3.734-2.112,5.206-3.024a10.7,10.7,0,0,1,5.964-1.73,5.476,5.476,0,0,0,1.54-.168,5.209,5.209,0,0,0,3.772-3.915,5.38,5.38,0,0,0,.012-2.247,8.127,8.127,0,0,1,1.554-6.68c5.242-6.729,12.179-13.691,22.25-15.432a3.683,3.683,0,0,1,3.667,1.579,5.971,5.971,0,0,0,9.617.318,3.721,3.721,0,0,1,3.623-1.422q.627.122,1.231.251A2.459,2.459,0,0,1,213.5,116.5l.008.059a7.068,7.068,0,0,0,6.623,5.956,6.992,6.992,0,0,0,6.576-3.91,3.471,3.471,0,0,1,2.758-1.882,44.759,44.759,0,0,0,6.35-1.2,50.3,50.3,0,0,0,9.43-3.48,3.652,3.652,0,0,1,3.489.181,6.429,6.429,0,0,0,9.631-6.7,1.814,1.814,0,0,1,.848-1.861l.026-.016a1.885,1.885,0,0,1,2.28.24,6.042,6.042,0,0,0,10.041-3.539,2.9,2.9,0,0,1,2.559-2.445l.027,0,.169-.016a3.005,3.005,0,0,1,2.575,1.073,5.881,5.881,0,0,0,9.015-.085,12.945,12.945,0,0,1,5.554-4.039C300.045,91.732,306.277,85.1,302.687,69.364Z" transform="translate(-51.515 -42.682)"/></g><path class="f" d="M95.589,323.527c-.3,0-.6-.005-.906-.015a15.075,15.075,0,0,1-10.923-5.447c-9.864-10.964-11.692-35.559-11.3-44.917a16.8,16.8,0,0,1-4.781-11.778,12.86,12.86,0,0,1,2.956-7.91c-3.579-5.973-.883-12.53.267-14.8-.3-2.525-1.3-10.5-2.25-14.622C57.69,217.3,54,205.621,57.687,189.282a11.6,11.6,0,0,1-1.3-14.4c.033-1.184.1-3.789.163-7.988a10.779,10.779,0,0,1-5.376-6.68,12.322,12.322,0,0,1,1.4-9.118,8.486,8.486,0,0,1-1.864-3.446,9.46,9.46,0,0,1,.466-6.589,11.81,11.81,0,0,1-2.617-8.209,12.281,12.281,0,0,1,3.331-7.633c-3.359-6.182-1.972-14.913,1.66-20.517,2.57-32.934,18.788-52.732,50.989-62.272,16.7-4.948,33.619-2.193,49.98.47,6.26,1.018,12.181,1.982,17.88,2.471,36.49-11.425,57.461-2.372,61.558-.287.3-.018.692-.038,1.163-.061a8.843,8.843,0,0,1,6.8-3.215,8.753,8.753,0,0,1,4.076,1,11.119,11.119,0,0,1,15.4,1.516,9.581,9.581,0,0,1,10.3,1.529,8.235,8.235,0,0,1,10.555,3.616c12.925,3.937,20.47,10.285,22.431,18.876,3.325,14.566-.989,24.121-12.824,28.4a10.365,10.365,0,0,0-4.466,3.272,8.4,8.4,0,0,1-12.873.122.491.491,0,0,0-.409-.2l-.158.014-.037.005a.38.38,0,0,0-.322.322,8.537,8.537,0,0,1-13.053,5.926,8.96,8.96,0,0,1-7.587,8.907,8.85,8.85,0,0,1-5.976-1.18,1.138,1.138,0,0,0-1.09-.071,52.774,52.774,0,0,1-9.9,3.653,47.286,47.286,0,0,1-6.708,1.261.962.962,0,0,0-.771.489,9.512,9.512,0,0,1-17.948-2.786,4.437,4.437,0,0,0-1.122-.325,1.213,1.213,0,0,0-1.16.513,8.489,8.489,0,0,1-13.672-.455,1.163,1.163,0,0,0-1.16-.521c-9.625,1.664-16.114,8.623-20.692,14.5a5.613,5.613,0,0,0-1.076,4.615,7.879,7.879,0,0,1-.014,3.292,7.728,7.728,0,0,1-5.616,5.827,7.949,7.949,0,0,1-2.251.244,8.6,8.6,0,0,0-4.546,1.355c-1.53.947-3.379,2-5.3,3.077a3.71,3.71,0,0,0-1.975,3.131,8.931,8.931,0,0,1-.135,1.608,8.742,8.742,0,0,1-12.382,6.347,4.093,4.093,0,0,0-4.111.541,93.994,93.994,0,0,0-10.926,9.365,10.939,10.939,0,0,1-6.822,16.964,11.049,11.049,0,0,1-5.768-.4,33.466,33.466,0,0,0-3.874,8.2c-1.238,4.532-.074,8.493.774,11.386a14.128,14.128,0,0,1,.788,3.794,7.183,7.183,0,0,1-2.384,5.337l-.033,4.254a7.637,7.637,0,0,1-2.433,11.834c-.095.36-.209.689-.306.974a8.144,8.144,0,0,0-.577,4.184c.011.072.019.146.024.221q.094,1.452.208,2.908a8.084,8.084,0,0,1,1.56,14.49c.008.063.018.127.026.19a7,7,0,0,1,1.549,10.168c.647,3.78,1.69,9.346,1.7,9.408l1.728,7.628a2.54,2.54,0,0,1,.035.928c.042.2.091.416.14.642a8.079,8.079,0,0,1,1.349.165,7.923,7.923,0,0,1,5.4,11.455,6.874,6.874,0,0,1-1.374,10.042,2.528,2.528,0,0,1,.019.654C115.508,311.5,110.362,323.527,95.589,323.527ZM124.827,44.735a65.9,65.9,0,0,0-18.854,2.521c-30.14,8.931-45.218,27.514-47.447,58.481a2.518,2.518,0,0,1-.455,1.27c-2.811,3.983-4.753,12.351-.91,17.069a2.515,2.515,0,0,1-.513,3.656,7.2,7.2,0,0,0-3.059,5.428,7.043,7.043,0,0,0,2.461,5.74,2.518,2.518,0,0,1,.163,3.59,4.1,4.1,0,0,0-.653,3.787c.314,1.109.879,1.646,1.16,1.723a2.518,2.518,0,0,1,1.3,4,8.239,8.239,0,0,0-1.974,6.945,6.15,6.15,0,0,0,4,4.055,2.517,2.517,0,0,1,1.565,2.366c-.1,7.165-.212,10.433-.212,10.433a2.523,2.523,0,0,1-.541,1.479c-.6.781-3.391,4.984,1.32,9.4a2.519,2.519,0,0,1,.724,2.441c-3.768,15.279-.763,25.451,9.185,31.1a2.519,2.519,0,0,1,1.185,1.523c1.3,4.716,2.674,16.627,2.731,17.132a2.513,2.513,0,0,1-.352,1.6c-.16.267-3.988,6.787.174,11.589a2.518,2.518,0,0,1-.273,3.567,7.831,7.831,0,0,0-2.835,5.887,12.043,12.043,0,0,0,4.06,8.836,2.517,2.517,0,0,1,.775,2.008c-.623,8.511,1.357,32.784,9.953,42.34a10.112,10.112,0,0,0,7.342,3.783c13.535.405,15.909-11.348,16.252-13.617a4.631,4.631,0,0,1,2.107-4.6,1.849,1.849,0,0,0-.24-3.248,2.518,2.518,0,0,1-.589-4.2,2.865,2.865,0,0,0,.982-2.625,2.905,2.905,0,0,0-2.267-2.4,2.823,2.823,0,0,0-1.5.085,2.518,2.518,0,0,1-3.247-1.839c-.278-1.236-.844-3.841-.844-3.841a2.512,2.512,0,0,1-.033-.884l-1.538-6.8c-.073-.378-1.347-7.169-1.952-10.867a2.515,2.515,0,0,1,.912-2.372,1.966,1.966,0,0,0-.514-3.4,2.52,2.52,0,0,1-1.58-2q-.232-1.663-.449-3.343a2.521,2.521,0,0,1,1.808-2.743,3.05,3.05,0,0,0-.645-5.978,2.518,2.518,0,0,1-2.352-2.3q-.206-2.38-.361-4.757a13.133,13.133,0,0,1,.81-6.477c.05-.146.1-.277.141-.4a2.519,2.519,0,0,1,1.994-3.231,2.595,2.595,0,0,0,1.233-4.559,2.512,2.512,0,0,1-.912-1.959l.052-6.573A2.518,2.518,0,0,1,103.4,211.4a2.141,2.141,0,0,0,1.093-1.86,14.551,14.551,0,0,0-.584-2.376c-.961-3.275-2.415-8.223-.8-14.133a40.662,40.662,0,0,1,4.95-10.354l.645-1.075a2.521,2.521,0,0,1,3.53-.822,5.9,5.9,0,0,0,8.961-3.61,5.922,5.922,0,0,0-1.859-5.772,2.518,2.518,0,0,1-.166-3.612,96.749,96.749,0,0,1,13.194-11.611,9.039,9.039,0,0,1,9.279-1.032,3.8,3.8,0,0,0,2.272.3,3.705,3.705,0,0,0,2.972-2.976,3.945,3.945,0,0,0,.061-.7,8.688,8.688,0,0,1,4.537-7.555c1.872-1.055,3.67-2.074,5.116-2.971a13.092,13.092,0,0,1,7.382-2.106,3.515,3.515,0,0,0,.829-.092,2.691,2.691,0,0,0,1.931-2,2.883,2.883,0,0,0,.01-1.2,10.638,10.638,0,0,1,2.03-8.749c4.735-6.077,12.354-14.387,23.807-16.367a6.236,6.236,0,0,1,6.171,2.633,3.45,3.45,0,0,0,5.566.185A6.253,6.253,0,0,1,210.4,111.2c.441.087.863.174,1.279.262a4.944,4.944,0,0,1,3.855,4.23,4.54,4.54,0,0,0,4.241,3.846,4.441,4.441,0,0,0,4.212-2.5,5.955,5.955,0,0,1,4.746-3.275,42.157,42.157,0,0,0,5.995-1.132,47.907,47.907,0,0,0,8.962-3.309,6.167,6.167,0,0,1,5.888.293,3.911,3.911,0,0,0,5.854-4.074,4.354,4.354,0,0,1,1.993-4.476,4.426,4.426,0,0,1,5.345.516,3.487,3.487,0,0,0,2.966.883,3.58,3.58,0,0,0,2.876-2.957,5.407,5.407,0,0,1,4.765-4.565c.029,0,.058-.007.087-.008a5.572,5.572,0,0,1,4.879,1.928,3.471,3.471,0,0,0,5.158-.049,15.327,15.327,0,0,1,6.641-4.807c6.355-2.3,13.191-6.935,9.628-22.543h0c-1.578-6.916-8.322-12.127-20.041-15.49a2.517,2.517,0,0,1-1.689-1.608,3.2,3.2,0,0,0-5.149-1.373,2.517,2.517,0,0,1-3.755-.481,4.541,4.541,0,0,0-6.807-.854,2.519,2.519,0,0,1-3.944-.78,6.075,6.075,0,0,0-10.182-1.216,2.511,2.511,0,0,1-1.792.916,2.481,2.481,0,0,1-1.891-.688,3.762,3.762,0,0,0-2.6-1.047,3.8,3.8,0,0,0-3.275,1.9A2.518,2.518,0,0,1,236.568,50c-1.877.074-2.97.152-2.991.152a2.488,2.488,0,0,1-1.451-.339c-.194-.114-20.669-11.541-58.68.509a2.419,2.419,0,0,1-.964.109c-6.052-.492-12.229-1.5-18.77-2.561C144.187,46.317,134.464,44.735,124.827,44.735Z" transform="translate(-48.539 -39.69)"/></g><g transform="translate(138.787 18.592)"><path class="f" d="M210.509,76.383c1.873-4.374,4.887-8.61,9.46-11.082a15.58,15.58,0,0,1,7.567-1.91,15.9,15.9,0,0,1,7.672,2.1l-2.479.43a13.074,13.074,0,0,1,7.765-4.832,11.293,11.293,0,0,1,4.82.1,10.35,10.35,0,0,1,4.334,2.322l-2.463-.207a29,29,0,0,1,5.7-2.734,15.877,15.877,0,0,1,6.576-.809,11.771,11.771,0,0,1,6.213,2.609,16.283,16.283,0,0,1,3.981,4.982l-1.5-.462a11.782,11.782,0,0,1,6.712-.576,8.46,8.46,0,0,1,5.207,3.777,8.556,8.556,0,0,0-5.419-2.385,10.923,10.923,0,0,0-5.534,1.389l-.841.426-.66-.888a16.02,16.02,0,0,0-3.8-3.766,9.177,9.177,0,0,0-4.647-1.489,12.161,12.161,0,0,0-4.967.943,28.089,28.089,0,0,0-4.829,2.472l-1.28.808-1.184-1.015a6.952,6.952,0,0,0-5.673-1.444,9.884,9.884,0,0,0-5.526,3.242l-1.167,1.278-1.312-.848a13.424,13.424,0,0,0-5.859-2.036,13.845,13.845,0,0,0-6.294.907C216.936,69.28,213.443,72.61,210.509,76.383Z" transform="translate(-210.509 -59.685)"/></g><g transform="translate(176.629 30.353)"><path class="f" d="M255.219,79.986a7.815,7.815,0,0,1,6.34-6.248,8.92,8.92,0,0,1,5,.49,9.513,9.513,0,0,1,3.955,3l-2.507-.332a7.472,7.472,0,0,1,5.308-.835,5.292,5.292,0,0,1,3.727,3.227,6.576,6.576,0,0,0-3.923-.608,6.96,6.96,0,0,0-2.99,1.461l-1.12.906-1.387-1.238a8.537,8.537,0,0,0-5.64-2.332A11.073,11.073,0,0,0,255.219,79.986Z" transform="translate(-255.219 -73.582)"/></g><g transform="translate(51.804 47.041)"><path class="f" d="M112.882,93.3A14.036,14.036,0,0,0,110.5,98.07a6.06,6.06,0,0,0,.5,4.432,5.941,5.941,0,0,0,3.226,2.555,7.867,7.867,0,0,0,4.266.067l2.824-.709-.324,3.22c-.014.134-.014.265.232.589a2.9,2.9,0,0,0,1.177.835,3.014,3.014,0,0,0,2.849-.157l6.941-4.736-3.986,7.058a9.067,9.067,0,0,0-1.023,3.6,5.9,5.9,0,0,0,.827,3.512,7.123,7.123,0,0,0,3.078,2.515,20.2,20.2,0,0,0,4.356,1.331,13.318,13.318,0,0,1-4.8.136,7.807,7.807,0,0,1-6.823-7.41,11.12,11.12,0,0,1,.926-5.37l2.955,2.322a6.183,6.183,0,0,1-3.336,1.495,7.254,7.254,0,0,1-3.477-.429,7.026,7.026,0,0,1-2.945-2.086,4.9,4.9,0,0,1-1-4.184l2.5,2.51a10.574,10.574,0,0,1-6.63-.589,8.476,8.476,0,0,1-4.642-4.853,7.747,7.747,0,0,1,.572-6.357A10.711,10.711,0,0,1,112.882,93.3Z" transform="translate(-107.739 -93.298)"/></g><g transform="translate(84.648 28.904)"><path class="f" d="M146.543,79.723a8.571,8.571,0,0,1,1.994-4.856A8.318,8.318,0,0,1,153.392,72a7.508,7.508,0,0,1,5.6,1.213,7.679,7.679,0,0,1,3.083,4.3,22.651,22.651,0,0,0-4.267-1.939,8.052,8.052,0,0,0-3.832-.267,10.3,10.3,0,0,0-3.667,1.515A35.957,35.957,0,0,0,146.543,79.723Z" transform="translate(-146.543 -71.869)"/></g><g transform="translate(32.824 29.774)"><path class="f" d="M87.194,85.127a7.8,7.8,0,0,1-1.881-5.181,7.3,7.3,0,0,1,2.4-5.555,5.924,5.924,0,0,1,3.01-1.427,7.644,7.644,0,0,1,1.625-.047,11.152,11.152,0,0,1,1.506.339,8.543,8.543,0,0,1,4.256,3.527,28.086,28.086,0,0,0-4.8-.944,4.612,4.612,0,0,0-3.387,1.081,7.028,7.028,0,0,0-1.994,3.369A19.323,19.323,0,0,0,87.194,85.127Z" transform="translate(-85.313 -72.898)"/></g><g transform="translate(32.345 62.758)"><path class="f" d="M92.668,112.2a10.27,10.27,0,0,0-3.277,2.57,6.5,6.5,0,0,0-1.247,3.118,9.219,9.219,0,0,0,.225,3.558,7.7,7.7,0,0,0,2.025,3.59A5.045,5.045,0,0,1,86,122.623a7.465,7.465,0,0,1-1.185-5.2,6.588,6.588,0,0,1,2.858-4.652A5.665,5.665,0,0,1,92.668,112.2Z" transform="translate(-84.747 -111.867)"/></g><g transform="translate(26.747 67.418)"><path class="f" d="M79.376,128.472a6.993,6.993,0,0,1-.607-6.909,6.773,6.773,0,0,1,2.728-3.016,9.178,9.178,0,0,1,4.021-1.174l-.283,4.187a4.5,4.5,0,0,0-4.691,1.122A5.938,5.938,0,0,0,79.376,128.472Z" transform="translate(-78.134 -117.373)"/></g><g transform="translate(38.209 89.779)"><path class="f" d="M109.365,145.611a10.437,10.437,0,0,1-3.185,5.79,9.674,9.674,0,0,1-6.683,2.683A7.8,7.8,0,0,1,93,150.4a8.953,8.953,0,0,1-1.119-6.6,21.584,21.584,0,0,0,3.66,4.5,6.259,6.259,0,0,0,4.062,1.6,10.713,10.713,0,0,0,4.684-1.176A38.956,38.956,0,0,0,109.365,145.611Z" transform="translate(-91.676 -143.793)"/></g><g transform="translate(29.935 90.338)"><path class="f" d="M82.607,144.454a5.109,5.109,0,0,0,.479,3.931,4.829,4.829,0,0,0,2.686,2.355,4.3,4.3,0,0,0,3.194-.367,11.2,11.2,0,0,0,2.883-2.146L94.4,151.56a14.537,14.537,0,0,1-4.532,1.828,6.879,6.879,0,0,1-5.024-.768,6.424,6.424,0,0,1-2.737-3.865A5.621,5.621,0,0,1,82.607,144.454Z" transform="translate(-81.899 -144.454)"/></g><g transform="translate(17.548 139.619)"><path class="f" d="M77.5,203.376c-2.739.555-4.878,1.778-5.658,3.584a6.98,6.98,0,0,0,.1,5.717,4.588,4.588,0,0,0,4.3,2.853c2.129.1,4.58-.893,7.141-1.871a12.538,12.538,0,0,1-2.751,3.145,9.6,9.6,0,0,1-4,2,7.383,7.383,0,0,1-4.994-.611,8.144,8.144,0,0,1-3.49-3.741,8.974,8.974,0,0,1,1-9.363,6.864,6.864,0,0,1,4.139-2.341A7.56,7.56,0,0,1,77.5,203.376Z" transform="translate(-67.264 -202.679)"/></g><g transform="translate(27.034 153.538)"><path class="f" d="M89.151,225.872a6.977,6.977,0,0,1-9.485-2.942,12.585,12.585,0,0,1-1.193-3.623l3.353-.182a6.445,6.445,0,0,0,1.491,5.256A6.546,6.546,0,0,0,89.151,225.872Z" transform="translate(-78.473 -219.125)"/></g><g transform="translate(25.747 173.11)"><path class="f" d="M83.322,242.295a5.556,5.556,0,0,0-3.2,4.044,6.706,6.706,0,0,0,.77,4.493,5.546,5.546,0,0,0,3.589,2.6c1.651.452,3.559.171,5.691.057a9.151,9.151,0,0,1-5.94,2.571A7.11,7.11,0,0,1,78,252.538a7.717,7.717,0,0,1-.352-7.1,6.032,6.032,0,0,1,2.417-2.626,10.233,10.233,0,0,1,1.624-.554A12.668,12.668,0,0,1,83.322,242.295Z" transform="translate(-76.952 -242.248)"/></g><g transform="translate(65.342 111.882)"><g transform="translate(0)"><path class="f" d="M133.806,174.944a5.036,5.036,0,1,1-5.036-5.036A5.037,5.037,0,0,1,133.806,174.944Z" transform="translate(-123.733 -169.908)"/></g></g><g transform="translate(99.651 77.153)"><path class="f" d="M174.342,133.912a5.036,5.036,0,1,1-5.036-5.036A5.036,5.036,0,0,1,174.342,133.912Z" transform="translate(-164.27 -128.876)"/></g><g transform="translate(114.236 75.895)"><circle class="f" cx="3.671" cy="3.671" r="3.671"/></g><g transform="translate(151.536 66.615)"><circle class="f" cx="3.304" cy="3.304" r="3.304"/></g><g transform="translate(170.264 71.645)"><circle class="f" cx="3.304" cy="3.304" r="3.304"/></g><g transform="translate(160.611 51.92)"><circle class="f" cx="3.304" cy="3.304" r="3.304"/></g><g transform="translate(173.767 58.781)"><path class="f" d="M259.834,111.166a4,4,0,1,1-4-4A4,4,0,0,1,259.834,111.166Z" transform="translate(-251.838 -107.169)"/></g><g transform="translate(187.54 62.617)"><path class="f" d="M276.108,115.7a4,4,0,1,1-4-4A4,4,0,0,1,276.108,115.7Z" transform="translate(-268.111 -111.701)"/></g><g transform="translate(196.62 55.614)"><path class="f" d="M284.668,106.342a2.915,2.915,0,1,1-2.915-2.915A2.915,2.915,0,0,1,284.668,106.342Z" transform="translate(-278.839 -103.427)"/></g><g transform="translate(200.747 62.779)"><path class="f" d="M289.544,114.807a2.915,2.915,0,1,1-2.915-2.915A2.915,2.915,0,0,1,289.544,114.807Z" transform="translate(-283.715 -111.892)"/></g><g transform="translate(215.384 56.443)"><path class="f" d="M305.683,106.745a2.337,2.337,0,1,1-2.337-2.338A2.337,2.337,0,0,1,305.683,106.745Z" transform="translate(-301.008 -104.407)"/></g><g transform="translate(231.892 52.085)"><path class="f" d="M325.187,101.6a2.337,2.337,0,1,1-2.338-2.338A2.337,2.337,0,0,1,325.187,101.6Z" transform="translate(-320.512 -99.258)"/></g><g transform="translate(237.931 47.69)"><circle class="f" cx="1.893" cy="1.893" r="1.893"/></g><g transform="translate(91.204 87.662)"><path class="f" d="M159.642,143.968a2.677,2.677,0,1,1-2.676-2.676A2.677,2.677,0,0,1,159.642,143.968Z" transform="translate(-154.289 -141.292)"/></g><g transform="translate(96.136 96.685)"><path class="f" d="M165.469,154.629a2.676,2.676,0,1,1-2.676-2.676A2.677,2.677,0,0,1,165.469,154.629Z" transform="translate(-160.116 -151.953)"/></g><g transform="translate(93.36 110.277)"><path class="f" d="M161.655,170.421a2.409,2.409,0,1,1-2.409-2.409A2.409,2.409,0,0,1,161.655,170.421Z" transform="translate(-156.837 -168.012)"/></g><g transform="translate(114.432 95.459)"><path class="f" d="M185.635,152.455a1.951,1.951,0,1,1-1.951-1.951A1.951,1.951,0,0,1,185.635,152.455Z" transform="translate(-181.733 -150.504)"/></g><g transform="translate(49.812 121.798)"><circle class="f" cx="3.304" cy="3.304" r="3.304"/></g><g transform="translate(49.315 166.731)"><path class="b" d="M114.919,239.773a5.061,5.061,0,1,1-5.061-5.061A5.061,5.061,0,0,1,114.919,239.773Z" transform="translate(-104.797 -234.712)"/><g transform="translate(2.204 2.205)"><path class="f" d="M113.115,240.174a2.857,2.857,0,1,1-2.857-2.857A2.857,2.857,0,0,1,113.115,240.174Z" transform="translate(-107.401 -237.317)"/></g></g><g transform="translate(60.396 129.647)"><circle class="b" cx="8.15" cy="8.15" r="8.15"/><g transform="translate(3.55 3.55)"><circle class="f" cx="4.601" cy="4.601" r="4.601"/></g></g><g transform="translate(52.295 176.976)"><path class="b" d="M114.225,249.769a2.953,2.953,0,1,1-2.953-2.953A2.953,2.953,0,0,1,114.225,249.769Z" transform="translate(-108.318 -246.816)"/><g transform="translate(1.531 1.531)"><path class="f" d="M112.972,250.047a1.422,1.422,0,1,1-1.422-1.422A1.422,1.422,0,0,1,112.972,250.047Z" transform="translate(-110.127 -248.625)"/></g></g><g transform="translate(50.814 182.724)"><path class="b" d="M114.686,257.666a4.058,4.058,0,1,1-4.058-4.058A4.059,4.059,0,0,1,114.686,257.666Z" transform="translate(-106.569 -253.608)"/><g transform="translate(1.768 1.768)"><path class="f" d="M113.239,257.987a2.291,2.291,0,1,1-2.291-2.29A2.291,2.291,0,0,1,113.239,257.987Z" transform="translate(-108.658 -255.697)"/></g></g><g transform="translate(50.379 189.786)"><path class="b" d="M112.14,264.994a3.043,3.043,0,1,1-3.044-3.043A3.044,3.044,0,0,1,112.14,264.994Z" transform="translate(-106.054 -261.951)"/><g transform="translate(1.722 1.722)"><path class="f" d="M110.73,265.306a1.32,1.32,0,1,1-1.32-1.32A1.32,1.32,0,0,1,110.73,265.306Z" transform="translate(-108.089 -263.986)"/></g></g><g transform="translate(49.082 203.749)"><path class="b" d="M115.109,283.742a5.294,5.294,0,1,1-5.294-5.293A5.294,5.294,0,0,1,115.109,283.742Z" transform="translate(-104.522 -278.449)"/><g transform="translate(2.306 2.306)"><path class="f" d="M113.222,284.161a2.988,2.988,0,1,1-2.989-2.988A2.989,2.989,0,0,1,113.222,284.161Z" transform="translate(-107.246 -281.173)"/></g></g><g transform="translate(50.585 216.76)"><path class="b" d="M114.874,298.11a4.288,4.288,0,1,1-4.289-4.289A4.288,4.288,0,0,1,114.874,298.11Z" transform="translate(-106.298 -293.821)"/><g transform="translate(1.867 1.868)"><path class="f" d="M113.345,298.449a2.421,2.421,0,1,1-2.421-2.421A2.421,2.421,0,0,1,113.345,298.449Z" transform="translate(-108.504 -296.028)"/></g></g><g transform="translate(56.209 239.584)"><circle class="b" cx="2.952" cy="2.952" r="2.952"/><g transform="translate(1.617 1.617)"><circle class="f" cx="1.334" cy="1.334" r="1.334"/></g></g><g transform="translate(58.169 247.008)"><circle class="b" cx="5.189" cy="5.189" r="5.189"/><g transform="translate(2.26 2.26)"><path class="f" d="M123.787,335.158a2.929,2.929,0,1,1-2.929-2.928A2.93,2.93,0,0,1,123.787,335.158Z" transform="translate(-117.929 -332.23)"/></g></g><g transform="translate(60.834 256.528)"><path class="b" d="M126.812,345.01a4.2,4.2,0,1,1-4.2-4.2A4.2,4.2,0,0,1,126.812,345.01Z" transform="translate(-118.407 -340.807)"/><g transform="translate(1.831 1.831)"><path class="f" d="M125.315,345.342a2.372,2.372,0,1,1-2.372-2.372A2.372,2.372,0,0,1,125.315,345.342Z" transform="translate(-120.57 -342.97)"/></g></g><g transform="translate(55.429 258.552)"><path class="f" d="M116.336,344.947a2.179,2.179,0,1,1-2.565-1.706A2.179,2.179,0,0,1,116.336,344.947Z" transform="translate(-112.021 -343.198)"/></g><g transform="translate(48.77 232.928)"><path class="f" d="M109.9,315.252a2.9,2.9,0,1,1-3.414-2.271A2.9,2.9,0,0,1,109.9,315.252Z" transform="translate(-104.153 -312.924)"/></g><g transform="translate(40.647 224.084)"><path class="f" d="M99.209,304.361a2.349,2.349,0,1,1-2.766-1.839A2.35,2.35,0,0,1,99.209,304.361Z" transform="translate(-94.557 -302.475)"/></g><g transform="translate(42.778 209.091)"><path class="f" d="M100.842,286.288a1.9,1.9,0,1,1-2.24-1.49A1.9,1.9,0,0,1,100.842,286.288Z" transform="translate(-97.074 -284.76)"/></g><g transform="translate(41.31 197.979)"><path class="f" d="M102.015,274.338a3.37,3.37,0,1,1-3.969-2.639A3.37,3.37,0,0,1,102.015,274.338Z" transform="translate(-95.34 -271.632)"/></g></g><path class="g" d="M243.937,704.642c-8.464-2.211-26.95-10.023-42.241-10.023s-33.316,7.812-41.78,10.023-16.774,2.948-33.239-.442c22.005,18.719,74.9,18.276,74.9,18.276s53.59.443,75.6-18.276C260.711,707.59,252.4,706.853,243.937,704.642Z" transform="translate(-12.312 -100.912)"/><path class="f" d="M210.78,706.163a232.325,232.325,0,0,0-29.545,2.424c18.974-9.319,38.063-9,58.146,0C228.973,707.26,224.4,706.163,210.78,706.163Z" transform="translate(-20.693 -102.003)"/></g></svg>