<?xml version="1.0" encoding="iso-8859-1"?>
<!-- Generator: Adobe Illustrator 19.0.0, SVG Export Plug-In . SVG Version: 6.00 Build 0)  -->
<svg version="1.1" id="Layer_1" xmlns="http://www.w3.org/2000/svg" xmlns:xlink="http://www.w3.org/1999/xlink" x="0px" y="0px"
	 viewBox="0 0 512 512" style="enable-background:new 0 0 512 512;" xml:space="preserve">
<path style="fill:#E2E2E2;" d="M256,512c141.392,0,256-114.608,256-256S397.392,0,256,0S0,114.608,0,256S114.608,512,256,512z"/>
<path style="fill:#ED1C24;" d="M487.232,128.544l-91.04-7.216l-7.28-89.552l-77.2,36.832L258.544,0l-49.52,70.048L129.632,28.16
	l-4.368,91.712l-90.304,4.336l34.224,86.656L0,253.472l70.64,53.44l-35.68,75.824l88.128,10.112l5.104,86.656l82.304-38.992
	L264.368,512l48.064-72.208l75.744,36.832l6.56-89.552l88.128-2.16l-32.768-74.384L512,257.088l-67.728-54.88L487.232,128.544z
	 M231.792,337.472l-71.92-63.888l15.936-17.936l52.8,46.896l107.776-138l18.912,14.768L231.792,337.472z"/>
<polygon style="fill:#FFFFFF;" points="228.608,302.528 175.808,255.648 159.872,273.584 231.792,337.472 355.296,179.296 
	336.384,164.528 "/>
<g>
</g>
<g>
</g>
<g>
</g>
<g>
</g>
<g>
</g>
<g>
</g>
<g>
</g>
<g>
</g>
<g>
</g>
<g>
</g>
<g>
</g>
<g>
</g>
<g>
</g>
<g>
</g>
<g>
</g>
</svg>
