<svg xmlns="http://www.w3.org/2000/svg" width="680.091" height="276.904" viewBox="0 0 680.091 276.904"><defs><style>.a{fill:#f5f5f5;}.b{fill:#ebebeb;}.c{fill:#ffba00;}.d{fill:#263238;}.e{opacity:0.2;}.f{fill:#fff;}.g{fill:#455a64;}.h{fill:#e8505b;}.i{opacity:0.8;}.j{fill:#ffbe9d;}.k{opacity:0.6;}.l{fill:#e0e0e0;}.m{fill:#fafafa;}.n{fill:none;stroke:#4e585d;stroke-miterlimit:10;stroke-width:0.05px;}.o{opacity:0.4;}.p{fill:#eb996e;}</style></defs><g transform="translate(397.234 2.427)"><g transform="translate(-397.234 -2.427)"><g transform="translate(322.375 258.539)"><g transform="translate(0)"><path class="a" d="M167.884,430.8c.271-1.973-2.512-3.6-4.6-3.764a11.849,11.849,0,0,1-2.979-.257c-2.047-.714-2.865-3.359-4.863-4.2-1.494-.63-3.213-.069-4.662.66s-2.879,1.646-4.5,1.749c-1.407.09-2.935-.432-4.167.256-.917.513-1.4,1.569-2.244,2.193a5.35,5.35,0,0,1-2.933.795,8.269,8.269,0,0,0-3.024.494,2.391,2.391,0,0,0-1.514,2.426Z" transform="translate(-132.368 -422.305)"/></g></g><g transform="translate(585.118 78.729)"><g transform="translate(0)"><path class="a" d="M622.437,140.888c.447-3.246-4.133-5.915-7.575-6.192-1.641-.133-3.346.119-4.9-.424-3.369-1.174-4.714-5.526-8-6.913-2.457-1.037-5.287-.114-7.669,1.085s-4.737,2.708-7.4,2.879c-2.316.148-4.83-.71-6.855.42-1.509.843-2.3,2.582-3.691,3.608a8.806,8.806,0,0,1-4.825,1.308,13.593,13.593,0,0,0-4.975.813c-1.538.7-2.81,2.33-2.49,3.991Z" transform="translate(-564.006 -126.91)"/></g></g><g transform="translate(406.463 217.843)"><g transform="translate(0)"><path class="b" d="M308.041,374.837a5.309,5.309,0,0,1-.133-1.177,9.691,9.691,0,0,0-.158-1.413,13.842,13.842,0,0,0-.371-1.9,17.819,17.819,0,0,0-1.972-4.887,18.317,18.317,0,0,0-4.544-5.234,18.106,18.106,0,0,0-17.066-2.933,16.971,16.971,0,0,0-4.616,2.354,16.5,16.5,0,0,0-3.9,3.741,17.962,17.962,0,0,0-.519,21.291,16.489,16.489,0,0,0,3.711,3.926,16.944,16.944,0,0,0,4.5,2.577,18.243,18.243,0,0,0,21.981-7.109,17.786,17.786,0,0,0,2.207-4.784,13.8,13.8,0,0,0,.463-1.879,9.632,9.632,0,0,0,.226-1.4,5.29,5.29,0,0,1,.191-1.169,5.107,5.107,0,0,1,.014,1.187,8.287,8.287,0,0,1-.131,1.436,12.876,12.876,0,0,1-.38,1.935,17.415,17.415,0,0,1-2.107,4.982,18.768,18.768,0,0,1-12.863,8.693,18.944,18.944,0,0,1-9.941-1.013,17.784,17.784,0,0,1-4.753-2.683,17.354,17.354,0,0,1-3.931-4.122,18.873,18.873,0,0,1,.547-22.472,17.37,17.37,0,0,1,4.125-3.926A17.8,17.8,0,0,1,283.5,356.4a18.941,18.941,0,0,1,9.977-.53,18.769,18.769,0,0,1,12.426,9.306,17.424,17.424,0,0,1,1.863,5.079,12.849,12.849,0,0,1,.285,1.952,8.282,8.282,0,0,1,.062,1.44A5.127,5.127,0,0,1,308.041,374.837Z" transform="translate(-270.509 -355.448)"/></g><g transform="translate(4.767 7.108)"><path class="b" d="M307.4,367.838c.041.057-.293.348-.938.827l-1.192.855c-.236.162-.483.345-.758.517l-.912.477a20.892,20.892,0,0,1-10.885,2.741l-1.648-.073-1.581-.247c-.259-.044-.517-.079-.769-.129l-.738-.2c-.485-.135-.966-.249-1.423-.4a23.85,23.85,0,0,1-4.618-2.128c-2.481-1.5-3.689-2.865-3.6-2.952.1-.115,1.449,1.027,3.948,2.325a27.837,27.837,0,0,0,4.546,1.86c.443.128.906.226,1.373.346l.71.176.736.111,1.511.222,1.57.064a22.535,22.535,0,0,0,10.54-2.367l.922-.4c.281-.147.536-.3.782-.439l1.264-.7C306.949,367.962,307.361,367.781,307.4,367.838Z" transform="translate(-278.34 -367.125)"/></g><g transform="translate(4.205 24.905)"><path class="b" d="M277.42,401.79c-.041-.057.293-.348.938-.827l1.191-.855c.236-.161.483-.345.758-.517l.911-.477a20.9,20.9,0,0,1,10.885-2.741l1.648.074,1.581.247c.259.044.516.078.768.129l.738.2c.486.135.966.249,1.423.4a23.831,23.831,0,0,1,4.618,2.127c2.481,1.5,3.689,2.865,3.6,2.953-.1.114-1.449-1.028-3.948-2.325a27.823,27.823,0,0,0-4.546-1.86c-.443-.128-.906-.226-1.373-.346l-.71-.176-.736-.111-1.511-.222-1.57-.063a22.545,22.545,0,0,0-10.54,2.367l-.922.4c-.281.147-.536.3-.781.44l-1.264.7C277.872,401.666,277.461,401.846,277.42,401.79Z" transform="translate(-277.417 -396.362)"/></g><g transform="translate(0.5 18.69)"><path class="b" d="M308.352,387.281c-.007.281-8.3.308-18.522.06s-18.506-.677-18.5-.958,8.3-.308,18.524-.06S308.359,387,308.352,387.281Z" transform="translate(-271.331 -386.153)"/></g><g transform="translate(17.928 0.423)"><path class="b" d="M300.191,393.153c-.281-.007-.307-8.3-.059-18.516s.677-18.5.958-18.493.307,8.3.059,18.518S300.472,393.16,300.191,393.153Z" transform="translate(-299.962 -356.144)"/></g><g transform="translate(8.948 0.413)"><path class="b" d="M294.419,393.118c-.069.108-2.109-1.275-4.463-4.406a24.889,24.889,0,0,1-3.309-6.008,22.33,22.33,0,0,1-1.433-8.3,21.24,21.24,0,0,1,1.869-8.212,25.729,25.729,0,0,1,3.616-5.824c2.493-3.013,4.55-4.348,4.618-4.241.1.116-1.763,1.631-4.052,4.685a27.736,27.736,0,0,0-3.322,5.752,21.333,21.333,0,0,0-1.712,7.859,22.542,22.542,0,0,0,1.3,7.954,26.705,26.705,0,0,0,3.015,5.914C292.686,391.451,294.522,393.006,294.419,393.118Z" transform="translate(-285.21 -356.126)"/></g><g transform="translate(18.569 0.423)"><path class="b" d="M301.916,356.148c.07-.107,2.11,1.275,4.464,4.406a24.908,24.908,0,0,1,3.309,6.009,22.314,22.314,0,0,1,1.432,8.3,21.221,21.221,0,0,1-1.869,8.212,25.731,25.731,0,0,1-3.616,5.823c-2.493,3.013-4.55,4.349-4.618,4.241-.1-.116,1.762-1.631,4.051-4.685a27.7,27.7,0,0,0,3.322-5.752,21.328,21.328,0,0,0,1.712-7.858,22.527,22.527,0,0,0-1.3-7.954,26.722,26.722,0,0,0-3.016-5.914C303.65,357.816,301.813,356.26,301.916,356.148Z" transform="translate(-301.015 -356.143)"/></g></g><g transform="translate(0 37.172)"><path class="b" d="M201.066,130c.683-4.96-6.317-9.04-11.576-9.464-2.508-.2-5.114.181-7.49-.646-5.148-1.794-7.205-8.446-12.229-10.565-3.756-1.584-8.079-.174-11.72,1.658s-7.239,4.139-11.307,4.4c-3.538.226-7.381-1.085-10.477.643-2.306,1.288-3.515,3.946-5.642,5.514-2.08,1.535-4.793,1.859-7.374,2s-5.253.166-7.6,1.242-4.294,3.561-3.806,6.1Z" transform="translate(198.068 -78.204)"/><path class="b" d="M201.066,130c.683-4.96-6.317-9.04-11.576-9.464-2.508-.2-5.114.181-7.49-.646-5.148-1.794-7.205-8.446-12.229-10.565-3.756-1.584-8.079-.174-11.72,1.658s-7.239,4.139-11.307,4.4c-3.538.226-7.381-1.085-10.477.643-2.306,1.288-3.515,3.946-5.642,5.514-2.08,1.535-4.793,1.859-7.374,2s-5.253.166-7.6,1.242-4.294,3.561-3.806,6.1Z" transform="translate(-111.766 -108.639)"/></g><g transform="translate(458.289 262.963)"><g transform="translate(0)"><path class="b" d="M411.623,442.962c.428-3.109-3.96-5.667-7.256-5.932-1.572-.127-3.2.113-4.694-.405-3.227-1.125-4.516-5.294-7.665-6.622-2.354-.993-5.064-.109-7.347,1.04s-4.537,2.594-7.087,2.758c-2.217.142-4.626-.681-6.566.4-1.446.808-2.2,2.474-3.536,3.456a8.431,8.431,0,0,1-4.623,1.253,13.027,13.027,0,0,0-4.766.779,3.766,3.766,0,0,0-2.386,3.823Z" transform="translate(-355.65 -429.572)"/></g></g><g transform="translate(197.521)"><g transform="translate(0)"><path class="a" d="M395.688,94.551c.447-3.245-4.133-5.915-7.575-6.192-1.641-.132-3.346.119-4.9-.423-3.369-1.174-4.714-5.526-8-6.913-2.457-1.036-5.287-.114-7.669,1.085s-4.737,2.708-7.4,2.879c-2.316.148-4.83-.71-6.855.421-1.51.842-2.3,2.582-3.691,3.608a8.8,8.8,0,0,1-4.825,1.309,13.6,13.6,0,0,0-4.975.813c-1.538.7-2.81,2.33-2.491,3.991Z" transform="translate(-87.685 -30.05)"/><path class="a" d="M395.688,94.551c.447-3.245-4.133-5.915-7.575-6.192-1.641-.132-3.346.119-4.9-.423-3.369-1.174-4.714-5.526-8-6.913-2.457-1.036-5.287-.114-7.669,1.085s-4.737,2.708-7.4,2.879c-2.316.148-4.83-.71-6.855.421-1.51.842-2.3,2.582-3.691,3.608a8.8,8.8,0,0,1-4.825,1.309,13.6,13.6,0,0,0-4.975.813c-1.538.7-2.81,2.33-2.491,3.991Z" transform="translate(-337.257 -80.573)"/></g></g></g><g transform="translate(-103.841 18.86)"><g transform="translate(0)"><g transform="translate(4.389)"><g transform="translate(275.373)"><path class="c" d="M100.972,331.879a9.013,9.013,0,1,0-9.847,11.608l.676,2.171,7.542-2.349s-.334-1.233-.656-2.325A9.011,9.011,0,0,0,100.972,331.879Z" transform="translate(-83.352 -325.544)"/></g><g transform="translate(0 187.229)"><path class="d" d="M99.976,349.828s-.01-.037-.024-.109-.035-.184-.061-.321c-.052-.283-.128-.7-.214-1.24s-.179-1.2-.24-1.977a13.384,13.384,0,0,1,.035-2.638,8.523,8.523,0,0,1,.307-1.508,1.654,1.654,0,0,1,.424-.712.928.928,0,0,1,.825-.228.613.613,0,0,1,.378.256.626.626,0,0,1,.1.452,1.277,1.277,0,0,1-.486.78,2.463,2.463,0,0,1-1.828.431,2.5,2.5,0,0,1-1.662-1.057,1.885,1.885,0,0,1-.36-.977.81.81,0,0,1,.6-.841.583.583,0,0,1,.533.167.817.817,0,0,1,.234.509,1.763,1.763,0,0,1-.338,1.044,2.688,2.688,0,0,1-1.825,1.206,2.344,2.344,0,0,1-2.05-.722,1.363,1.363,0,0,1-.383-1.024.69.69,0,0,1,.259-.5.675.675,0,0,1,.545-.116.9.9,0,0,1,.481.264,1.407,1.407,0,0,1,.285.455,2.6,2.6,0,0,1,.175,1.024,2.681,2.681,0,0,1-.763,1.821,2.733,2.733,0,0,1-1.7.8,1.433,1.433,0,0,1-.9-.17.7.7,0,0,1-.306-.814.59.59,0,0,1,.327-.31.854.854,0,0,1,.435-.048,1.3,1.3,0,0,1,.711.427c.362.4.676.8.987,1.177,1.228,1.52,2.162,2.8,2.8,3.685.318.444.559.793.721,1.031l.183.271c.041.061.059.095.059.095s-.024-.029-.068-.088l-.192-.265-.738-1.018c-.646-.88-1.588-2.149-2.823-3.661-.31-.375-.632-.778-.988-1.167a1.22,1.22,0,0,0-.662-.4.54.54,0,0,0-.393,1,1.339,1.339,0,0,0,.843.152,2.637,2.637,0,0,0,1.64-.774,2.583,2.583,0,0,0,.73-1.752,2.5,2.5,0,0,0-.169-.981.98.98,0,0,0-.687-.653.568.568,0,0,0-.459.1.579.579,0,0,0-.216.422,1.255,1.255,0,0,0,.356.94,2.234,2.234,0,0,0,1.952.686A2.581,2.581,0,0,0,98.1,341.8a1.663,1.663,0,0,0,.322-.974.707.707,0,0,0-.2-.441.472.472,0,0,0-.434-.139.632.632,0,0,0-.385.271.777.777,0,0,0-.125.462,1.781,1.781,0,0,0,.34.919,2.377,2.377,0,0,0,3.342.61,1.187,1.187,0,0,0,.453-.716.532.532,0,0,0-.408-.607.842.842,0,0,0-.744.2,1.58,1.58,0,0,0-.4.674,8.5,8.5,0,0,0-.31,1.49,13.427,13.427,0,0,0-.051,2.624c.055.772.144,1.435.221,1.975s.148.954.193,1.243l.051.323C99.973,349.79,99.976,349.828,99.976,349.828Z" transform="translate(-91.966 -340.126)"/></g><g transform="translate(3.467 196.699)"><path class="d" d="M104.8,356.679,98.322,358.7a.509.509,0,0,1-.637-.335h0a.509.509,0,0,1,.334-.637l6.475-2.017a.509.509,0,0,1,.637.335h0A.509.509,0,0,1,104.8,356.679Z" transform="translate(-97.662 -355.684)"/></g><g transform="translate(3.902 198.095)"><path class="d" d="M105.209,358l-6.475,2.017a.509.509,0,1,0,.3.972l.711-.222,1.5,1.5a.655.655,0,0,0,.657.161l2.314-.721a.653.653,0,0,0,.45-.513l.359-2.074.483-.15a.509.509,0,0,0-.3-.972Z" transform="translate(-98.376 -357.978)"/></g></g><g class="e" transform="translate(0 180.995)"><path class="f" d="M85.681,332.5a6.649,6.649,0,0,1,1.367-1.682,4.791,4.791,0,0,1,1.206-.8c.315-.135.51-.161.547-.1.086.144-.494.579-1.191,1.44a7.413,7.413,0,0,0-1.061,7.953c.446,1.013.892,1.585.771,1.7-.052.052-.234-.025-.5-.238a4.8,4.8,0,0,1-.954-1.087,6.629,6.629,0,0,1-.878-1.982,7.01,7.01,0,0,1-.172-2.675" transform="translate(-84.756 -329.885)"/></g><g class="e" transform="translate(4.98 179.612)"><path class="f" d="M94.187,328.756c-.547.164-1.074.166-1.22-.106a.467.467,0,0,1,.145-.5,1.806,1.806,0,0,1,1.628-.5c.234.06.381.183.4.334" transform="translate(-92.937 -327.612)"/></g><g transform="translate(11.471 201.427)"><path class="g" d="M106.641,363.531c0,.018-.189-.005-.488,0a3.777,3.777,0,0,0-2.168.744,4.831,4.831,0,0,1-.385.3,1.394,1.394,0,0,1,.337-.36,3.306,3.306,0,0,1,2.217-.762A1.361,1.361,0,0,1,106.641,363.531Z" transform="translate(-103.6 -363.451)"/></g><g transform="translate(9.735 199.257)"><path class="g" d="M105.978,359.888c.009.029-1.154.418-2.6.867s-2.622.791-2.631.761,1.154-.418,2.6-.867S105.969,359.859,105.978,359.888Z" transform="translate(-100.749 -359.886)"/></g><g transform="translate(10.451 200.151)"><path class="g" d="M106.272,361.357a3.877,3.877,0,0,1-.618.264c-.387.148-.926.34-1.527.537s-1.15.36-1.549.469a3.938,3.938,0,0,1-.654.152,4.232,4.232,0,0,1,.631-.228l1.537-.5,1.535-.505A4.214,4.214,0,0,1,106.272,361.357Z" transform="translate(-101.925 -361.355)"/></g></g></g><g transform="translate(36.874 41.963)"><g transform="translate(0 71.876)"><g transform="translate(0 45.136)"><path class="h" d="M384.081,266.955c-6.7-6.206-18.568-5.478-24.457,1.5-2.323,2.753-3.9,6.355-7.088,8.025-4.893,2.56-10.813-.672-16.315-.2-6.452.551-11.749,7.1-10.944,13.521.363,2.894,1.735,5.985.375,8.565-1.737,3.293-6.757,3.423-8.868,6.49-1.906,2.768-.421,6.855,2.344,8.766s6.34,2.144,9.7,1.992,6.768-.621,10.046.123c3.607.819,6.723,3.033,10.156,4.409,8.263,3.312,17.936,1.467,25.589-3.078s13.572-11.5,18.736-18.751" transform="translate(-315.925 -262.726)"/><g class="i"><path class="f" d="M384.081,266.955c-6.7-6.206-18.568-5.478-24.457,1.5-2.323,2.753-3.9,6.355-7.088,8.025-4.893,2.56-10.813-.672-16.315-.2-6.452.551-11.749,7.1-10.944,13.521.363,2.894,1.735,5.985.375,8.565-1.737,3.293-6.757,3.423-8.868,6.49-1.906,2.768-.421,6.855,2.344,8.766s6.34,2.144,9.7,1.992,6.768-.621,10.046.123c3.607.819,6.723,3.033,10.156,4.409,8.263,3.312,17.936,1.467,25.589-3.078s13.572-11.5,18.736-18.751" transform="translate(-315.925 -262.726)"/></g><g transform="translate(22.154 9.094)"><path class="c" d="M396.7,281.247c-5.448-5.344-15.582-4.592-20.181,1.5-2.809,3.719-4.418,9.4-9.037,10.028-3.132.424-6.1-1.934-9.251-1.692-4.2.323-6.74,5.437-5.661,9.5s4.659,7,8.411,8.9c13.01,6.607,30.347,3.115,39.785-8.012" transform="translate(-352.321 -277.667)"/></g></g><g transform="translate(52.182)"><g transform="translate(111.617 20.761)"><g transform="translate(19.692 34.179)"><path class="j" d="M624.411,295.31l-7.043-9.982,9.16-6.5,6.416,13.032-8.11,3.357" transform="translate(-617.368 -278.832)"/></g><g transform="translate(26.34 45.426)"><path class="h" d="M636.836,297.308l4.983,8.992s10.813-2.045,11.9-.473l-17.088,10.288-8.339-13.692Z" transform="translate(-628.288 -297.308)"/><g class="k" transform="translate(7.592 11.209)"><path class="f" d="M640.969,315.946a.814.814,0,0,0,0,1.087.784.784,0,0,0,1.077.013.86.86,0,0,0,0-1.151.812.812,0,0,0-1.122.111" transform="translate(-640.76 -315.723)"/></g><g class="k" transform="translate(7.552 8.047)"><path class="f" d="M641.481,321.287l-.786-1.413,16.677-9.335s.96-.127,1.2.461Z" transform="translate(-640.695 -310.527)"/></g><g transform="translate(12.678 8.719)"><path class="d" d="M650.192,311.651c.047.085-.347.374-.6.89s-.256,1-.353,1.01c-.087.03-.263-.544.05-1.162S650.164,311.564,650.192,311.651Z" transform="translate(-649.115 -311.632)"/></g><g transform="translate(15.361 8.389)"><path class="d" d="M654.156,311.1c.068.069-.208.429-.279.953-.086.522.072.946-.013.992s-.422-.393-.322-1.043S654.106,311.023,654.156,311.1Z" transform="translate(-653.524 -311.09)"/></g><g transform="translate(17.8 8.105)"><path class="d" d="M658.033,312.45c-.065.064-.432-.283-.493-.869s.22-1,.3-.954-.017.438.04.919S658.111,312.392,658.033,312.45Z" transform="translate(-657.531 -310.623)"/></g><g transform="translate(10.661 6.757)"><path class="d" d="M647.533,308.467c.011.1-.441.212-.894.528s-.73.686-.817.641.088-.556.626-.921S647.535,308.377,647.533,308.467Z" transform="translate(-645.802 -308.408)"/></g><g transform="translate(8.098 4.641)"><path class="d" d="M644.848,305.311c.021.034-.277.284-.859.511a4.469,4.469,0,0,1-1.061.264,4.739,4.739,0,0,1-.648.035,1.245,1.245,0,0,1-.379-.046.425.425,0,0,1-.306-.421.535.535,0,0,1,.251-.411,1.3,1.3,0,0,1,.348-.149,3.6,3.6,0,0,1,.642-.138,3.524,3.524,0,0,1,1.1.043,1.666,1.666,0,0,1,.922.392c-.021.05-.371-.095-.957-.155a3.981,3.981,0,0,0-1.022.03,3.715,3.715,0,0,0-.583.144c-.209.061-.364.153-.362.261,0,.041.007.054.077.085a1.013,1.013,0,0,0,.278.032,5.236,5.236,0,0,0,.607-.013,5.493,5.493,0,0,0,1.018-.181A7.031,7.031,0,0,1,644.848,305.311Z" transform="translate(-641.592 -304.932)"/></g><g transform="translate(10.051 2.032)"><path class="d" d="M646.066,303.819c-.022.031-.368-.169-.724-.69a3.263,3.263,0,0,1-.447-1.007,3.321,3.321,0,0,1-.095-.651.826.826,0,0,1,.286-.761.465.465,0,0,1,.5.024,1.354,1.354,0,0,1,.277.261,2.234,2.234,0,0,1,.348.576,2.3,2.3,0,0,1,.167,1.1c-.068.644-.355.953-.38.93a8.066,8.066,0,0,0,.14-.941,2.3,2.3,0,0,0-.213-.967,2.062,2.062,0,0,0-.313-.485c-.136-.166-.293-.271-.349-.212a.571.571,0,0,0-.13.461,3.278,3.278,0,0,0,.067.591,3.592,3.592,0,0,0,.348.954C645.826,303.52,646.1,303.779,646.066,303.819Z" transform="translate(-644.799 -300.647)"/></g></g><g transform="translate(0.654)"><path class="d" d="M586.092,237.856l21.874,34.38,11.965-8.134-20.154-41.421" transform="translate(-586.092 -222.682)"/></g><g transform="translate(1.077 7.63)"><path class="g" d="M588.133,235.217c.089.04-.562,1.435-.875,3.283-.329,1.846-.186,3.379-.284,3.386a9.59,9.59,0,0,1,1.159-6.67Z" transform="translate(-586.786 -235.216)"/></g><g transform="translate(0 7.73)"><path class="g" d="M585.194,235.38c.1.007,0,1.51.25,3.334s.708,3.254.617,3.286a11.344,11.344,0,0,1-.867-6.62Z" transform="translate(-585.017 -235.38)"/></g></g><g transform="translate(0 31.202)"><path class="d" d="M428.613,244.464l-15.008-4.63c-18.1,23.051-16.894,48.378,12.248,63.369l16.169-18.126Z" transform="translate(-401.651 -239.834)"/></g><g transform="translate(14.97 6.7)"><g transform="translate(0.07 0.117)"><path class="l" d="M439.743,225.115c-9.6,5.6-14.379,17.411-13.21,28.958,1.283,12.675,9.658,25.03,25.008,28.446l103.2-20.63a31.358,31.358,0,0,0,23.966-39.5h0a31.358,31.358,0,0,0-37.461-21.737Z" transform="translate(-426.359 -199.774)"/></g><path class="d" d="M439.7,225.04s.322-.089.956-.247l2.82-.7,10.853-2.646,39.941-9.678,27.588-6.669,15.371-3.713,3.992-.961,2.047-.39c.343-.063.684-.136,1.03-.189l1.046-.095c.7-.057,1.4-.142,2.1-.175l2.126.015a16.3,16.3,0,0,1,2.133.15l1.069.111.536.058.529.107,2.125.427c.7.165,1.393.406,2.093.607.348.108.7.2,1.046.323l1.018.414,1.02.415a7.932,7.932,0,0,1,1.006.453l1.969,1.023c.649.357,1.257.792,1.889,1.186.31.207.635.393.935.617l.884.693.886.7.443.349.411.389a31.7,31.7,0,0,1,9.473,15.538,31.32,31.32,0,0,1-.925,18.811,31.67,31.67,0,0,1-11.969,15.246,30.724,30.724,0,0,1-7.468,3.691,62.919,62.919,0,0,1-8.019,1.88l-15.829,3.162-30.241,6.039L451.52,282.566l-.027.005-.025-.006a37.367,37.367,0,0,1-7.836-2.782,34.129,34.129,0,0,1-6.55-4.431,34.536,34.536,0,0,1-4.963-5.6,35.694,35.694,0,0,1-3.344-6.2c-.223-.523-.393-1.063-.589-1.586a15.284,15.284,0,0,1-.516-1.58q-.224-.793-.443-1.572-.167-.792-.331-1.569a14.494,14.494,0,0,1-.271-1.549q-.1-.772-.207-1.53c-.055-.506-.074-1.01-.113-1.508a14.769,14.769,0,0,1-.058-1.48,33.132,33.132,0,0,1,1.5-10.559,30.082,30.082,0,0,1,3.666-7.723,24.673,24.673,0,0,1,4.091-4.774c.319-.283.606-.565.9-.8l.835-.639.712-.542.623-.4c.741-.469,1.125-.7,1.125-.7s-.374.255-1.106.733l-.615.4-.7.548-.827.643c-.289.239-.573.521-.889.806a24.793,24.793,0,0,0-4.05,4.78,30.055,30.055,0,0,0-3.621,7.705,33.038,33.038,0,0,0-1.465,10.514,14.636,14.636,0,0,0,.062,1.472c.04.495.06,1,.116,1.5s.139,1.009.209,1.521a14.5,14.5,0,0,0,.273,1.541l.332,1.56.444,1.563a15.106,15.106,0,0,0,.516,1.57c.2.52.366,1.056.588,1.576a35.565,35.565,0,0,0,3.335,6.152,34.379,34.379,0,0,0,4.937,5.556,33.934,33.934,0,0,0,6.507,4.388,37.176,37.176,0,0,0,7.784,2.752h-.052l53.058-10.632,30.238-6.052,15.828-3.166a62.692,62.692,0,0,0,7.98-1.871,30.416,30.416,0,0,0,7.393-3.654,31.357,31.357,0,0,0,11.85-15.092,31.012,31.012,0,0,0,.92-18.624,31.394,31.394,0,0,0-9.374-15.39l-.406-.385-.439-.346-.878-.688-.875-.687c-.3-.222-.618-.407-.925-.612-.627-.391-1.228-.821-1.871-1.176l-1.95-1.015a8,8,0,0,0-1-.45l-1.011-.411L559,201.658c-.342-.119-.692-.213-1.037-.321-.693-.2-1.375-.439-2.073-.6l-2.1-.425-.525-.105-.53-.058-1.06-.11a16.219,16.219,0,0,0-2.113-.15l-2.107-.016c-.7.032-1.393.116-2.085.172l-1.037.093c-.342.052-.681.126-1.02.187l-2.029.384-3.99.957-15.369,3.7-27.59,6.629-39.964,9.579-10.873,2.59-2.831.666C440.028,224.971,439.7,225.04,439.7,225.04Z" transform="translate(-426.244 -199.582)"/></g><g transform="translate(26.613 79.99)"><path class="c" d="M458.979,329.556l-13.608,30.951s64.217-6.194,61.481-40.522Z" transform="translate(-445.371 -319.985)"/></g><g transform="translate(6.894)"><path class="c" d="M483.105,209.021s-30.877-29.964-70.129-17.342l21.53,29.055Z" transform="translate(-412.976 -188.575)"/></g><g transform="translate(133.399 5.863)"><path class="c" d="M620.8,199.613c13.25,9.774,21.354,47.824,14.969,59.918C673.329,248.542,681.2,216.3,681.2,216.3,654.053,191.027,620.8,199.613,620.8,199.613Z" transform="translate(-620.801 -198.208)"/></g><g transform="translate(11.448 75.406)"><path class="g" d="M429.922,312.454c.066.058-2,2.527-4.612,5.516s-4.786,5.365-4.851,5.307,2-2.527,4.613-5.516S429.856,312.4,429.922,312.454Z" transform="translate(-420.458 -312.453)"/></g><g transform="translate(27.271 23.954)"><path class="d" d="M612.981,227.928s-.074.141-.232.409l-.71,1.183-1.164,1.921-.745,1.224L609.2,234c-.666.942-1.39,2-2.214,3.135l-2.865,3.556c-.541.616-1.125,1.231-1.715,1.877s-1.179,1.333-1.86,1.967c-1.349,1.279-2.737,2.673-4.355,3.958a58.821,58.821,0,0,1-11.246,7.421,56.58,56.58,0,0,1-6.913,2.958c-1.213.445-2.473.828-3.708,1.28a37.445,37.445,0,0,1-3.924,1.007c-10.641,2.353-22.374,4.766-34.684,7.323-24.635,5.092-46.948,9.627-63.1,12.893l-19.135,3.845-5.206,1.027-1.356.259c-.306.057-.464.078-.464.078s.153-.043.457-.11l1.35-.29,5.194-1.087,19.115-3.944,63.083-12.984c12.31-2.556,24.046-4.962,34.684-7.3a37.01,37.01,0,0,0,3.885-.989c1.259-.458,2.506-.834,3.717-1.276a56.569,56.569,0,0,0,6.889-2.931,58.888,58.888,0,0,0,11.221-7.358c1.616-1.275,3.005-2.66,4.355-3.929.682-.629,1.258-1.325,1.863-1.953s1.177-1.253,1.719-1.864l2.879-3.532c.83-1.128,1.561-2.179,2.233-3.113l.943-1.329.756-1.215,1.189-1.9.737-1.167C612.889,228.058,612.981,227.928,612.981,227.928Z" transform="translate(-446.452 -227.928)"/></g><g transform="translate(80.896 18.707)"><path class="d" d="M549.713,279.043a.616.616,0,0,1-.11-.121l-.3-.376-1.117-1.466-.8-1.065c-.282-.4-.565-.844-.882-1.317-.618-.954-1.373-2.011-2.062-3.267l-1.125-1.946c-.387-.679-.729-1.418-1.116-2.166-.8-1.486-1.485-3.151-2.244-4.886a71.776,71.776,0,0,1-5.331-23.949c-.049-1.894-.131-3.693-.04-5.377.033-.841.029-1.656.092-2.435s.132-1.526.194-2.24c.091-1.43.326-2.706.481-3.833.086-.562.153-1.087.24-1.566s.191-.91.274-1.3c.165-.763.295-1.365.389-1.8l.109-.466a.659.659,0,0,1,.047-.156.621.621,0,0,1-.016.163c-.021.125-.046.281-.078.473-.08.438-.19,1.043-.331,1.811q-.112.592-.247,1.306c-.078.48-.136,1.005-.214,1.567-.138,1.126-.357,2.4-.433,3.828q-.082,1.068-.173,2.233c-.056.777-.046,1.589-.073,2.427-.08,1.678.012,3.47.069,5.356a73.192,73.192,0,0,0,5.31,23.853c.749,1.731,1.426,3.393,2.21,4.879.38.747.715,1.487,1.1,2.166l1.1,1.95c.674,1.26,1.413,2.321,2.016,3.282.309.476.584.927.858,1.328l.777,1.078,1.068,1.5.271.4A.661.661,0,0,1,549.713,279.043Z" transform="translate(-534.547 -219.307)"/></g><g transform="translate(2.331 46.415)"><path class="c" d="M470.221,264.915l-64.721,13.4s-.29,6.32,1.3,6.373c1.33.044,49.449-8.641,65.057-11.466a4.217,4.217,0,0,0,3.226-5.539h0A4.233,4.233,0,0,0,470.221,264.915Z" transform="translate(-405.48 -264.827)"/></g><g transform="translate(101.018 26.013)"><g transform="translate(0.138 0.111)"><ellipse class="m" cx="14.38" cy="15.47" rx="14.38" ry="15.47" transform="matrix(0.001, -1, 1, 0.001, 0, 28.761)"/></g><path class="d" d="M598.7,245.845a1.392,1.392,0,0,1-.029-.241c-.013-.175-.03-.409-.053-.708-.011-.157-.023-.331-.036-.521-.033-.19-.069-.4-.108-.62s-.081-.466-.125-.724-.144-.521-.221-.806a13.929,13.929,0,0,0-.664-1.846,14.763,14.763,0,0,0-5.135-6.029,15.609,15.609,0,0,0-6.342-2.532,14.111,14.111,0,0,0-1.875-.2c-.319-.01-.641-.04-.965-.035l-.98.047-.5.024-.494.071-1,.142-.995.236-.5.121-.492.167a15.251,15.251,0,0,0-7.121,4.809,13.371,13.371,0,0,0-.026,17.206,15.25,15.25,0,0,0,7.109,4.83l.491.169.5.122.994.239,1,.145.494.072.5.026.98.05c.324,0,.646-.023.965-.033a14.22,14.22,0,0,0,1.875-.192,15.62,15.62,0,0,0,6.349-2.515,14.873,14.873,0,0,0,4-3.986,14.692,14.692,0,0,0,1.149-2.028,13.814,13.814,0,0,0,.669-1.844c.078-.284.167-.55.223-.805s.088-.5.127-.723.077-.43.111-.62q.02-.285.036-.52c.024-.3.042-.533.055-.707a1.437,1.437,0,0,1,.03-.242,1.375,1.375,0,0,1,0,.242l-.024.712q-.01.237-.022.525-.044.288-.1.626t-.114.731c-.052.259-.137.527-.211.816a13.7,13.7,0,0,1-.65,1.873,14.708,14.708,0,0,1-1.14,2.065,14.962,14.962,0,0,1-4.022,4.074,15.794,15.794,0,0,1-6.433,2.588,14.347,14.347,0,0,1-1.905.2c-.324.011-.651.041-.981.037l-1-.046-.5-.024-.5-.071-1.017-.144-1.013-.24-.511-.123-.5-.17a15.514,15.514,0,0,1-7.258-4.911,13.659,13.659,0,0,1,.026-17.6,15.514,15.514,0,0,1,7.27-4.89l.5-.169.511-.122,1.013-.237,1.017-.141.5-.069.5-.023,1-.043c.33,0,.657.027.981.039a14.434,14.434,0,0,1,1.9.209,15.783,15.783,0,0,1,6.425,2.606,14.964,14.964,0,0,1,4.011,4.084,14.677,14.677,0,0,1,1.135,2.068,13.741,13.741,0,0,1,.645,1.874c.074.289.157.558.209.817s.077.5.112.732.065.435.094.626q.011.288.021.525c.009.3.016.536.022.712A1.346,1.346,0,0,1,598.7,245.845Z" transform="translate(-567.605 -231.311)"/></g><g transform="translate(128.496 46.445)"><path class="n" d="M612.745,264.876" transform="translate(-612.745 -264.876)"/></g></g></g><g transform="translate(67.362)"><g transform="translate(0.515 69.564)"><g transform="translate(0 0)"><path class="g" d="M475.973,190.629c-4.977-.247-7.426,3.507-10.209,4.264a13.4,13.4,0,0,1-8.493-.2c-3.468-1.408-5.84-4.6-8.877-6.791a17.772,17.772,0,0,0-20.954.6c-.138,3.317,2.7,5.937,5.449,7.8s10.367,4.543,11.339,7.717c.727,2.377-4.394,4.372-3.107,6.5,1.237,2.044,5.557,1.908,7.911,1.5,14.865-2.56,9.652,1.988,14.254,1.566,0,0,9.636-2.453,17.19-3.689" transform="translate(-427.434 -184.777)"/></g></g><g transform="translate(44.865 75.791)"><g transform="translate(49.463 71.461)"><path class="j" d="M586.38,328.09l-4.828-11.222,10.3-4.463,3.585,14.077-8.628,1.608" transform="translate(-581.551 -312.406)"/></g><g transform="translate(53.928 83.712)"><path class="h" d="M598.307,332.532l3.017,9.828s11,.234,11.737,2l-18.844,6.535-5.329-15.12Z" transform="translate(-588.887 -332.532)"/><g class="k" transform="translate(5.99 10.905)"><path class="f" d="M599.065,350.574a.813.813,0,0,0-.228,1.062.782.782,0,0,0,1.051.235.858.858,0,0,0,.235-1.127.813.813,0,0,0-1.121-.123" transform="translate(-598.728 -350.447)"/></g><g class="k" transform="translate(4.851 11.125)"><path class="f" d="M597.335,358.041l-.478-1.545,18.247-5.687s.965.074,1.076.7Z" transform="translate(-596.857 -350.809)"/></g><g transform="translate(11.325 9.594)"><path class="d" d="M608.876,348.325c.029.093-.417.295-.767.747s-.457.923-.555.916c-.091.012-.145-.586.289-1.127S608.866,348.233,608.876,348.325Z" transform="translate(-607.491 -348.293)"/></g><g transform="translate(14.085 9.74)"><path class="d" d="M612.911,348.55c.052.082-.293.377-.47.874-.192.492-.125.94-.218.968-.082.044-.332-.472-.1-1.087S612.878,348.463,612.911,348.55Z" transform="translate(-612.026 -348.533)"/></g><g transform="translate(16.601 9.902)"><path class="d" d="M616.47,350.631c-.077.049-.364-.366-.3-.953s.422-.936.488-.872-.107.425-.15.906S616.558,350.59,616.47,350.631Z" transform="translate(-616.159 -348.799)"/></g><g transform="translate(9.845 7.341)"><path class="d" d="M606.989,344.713c-.01.1-.475.117-.984.332s-.856.52-.932.458.2-.526.8-.772S607.009,344.626,606.989,344.713Z" transform="translate(-605.061 -344.592)"/></g><g transform="translate(7.858 4.715)"><path class="d" d="M605.066,341.054a1.876,1.876,0,0,1-.945.322,4.476,4.476,0,0,1-1.093.039,4.708,4.708,0,0,1-.642-.1,1.227,1.227,0,0,1-.362-.124.424.424,0,0,1-.212-.475.534.534,0,0,1,.33-.35,1.284,1.284,0,0,1,.371-.074,3.586,3.586,0,0,1,.656,0,3.519,3.519,0,0,1,1.068.27c.578.253.846.545.821.574-.032.044-.344-.17-.9-.349a3.989,3.989,0,0,0-1.006-.183,3.718,3.718,0,0,0-.6.021c-.218.017-.388.074-.408.181-.007.041,0,.055.057.1a1.015,1.015,0,0,0,.266.089,5.234,5.234,0,0,0,.6.112,5.557,5.557,0,0,0,1.034.033A6.854,6.854,0,0,1,605.066,341.054Z" transform="translate(-601.796 -340.277)"/></g><g transform="translate(10.257 2.394)"><path class="d" d="M606.534,339.736c-.027.026-.324-.241-.565-.825a3.247,3.247,0,0,1-.229-1.078,3.283,3.283,0,0,1,.041-.656.827.827,0,0,1,.437-.685.467.467,0,0,1,.486.127,1.375,1.375,0,0,1,.217.312,2.234,2.234,0,0,1,.221.635,2.3,2.3,0,0,1-.065,1.115c-.2.616-.545.859-.563.831a8.183,8.183,0,0,0,.331-.892,2.287,2.287,0,0,0-.009-.99,2.053,2.053,0,0,0-.206-.539c-.1-.19-.23-.325-.3-.279-.094.031-.2.237-.223.424a3.3,3.3,0,0,0-.057.592,3.594,3.594,0,0,0,.144,1.006C606.362,339.394,606.579,339.7,606.534,339.736Z" transform="translate(-605.737 -336.465)"/></g></g><path class="d" d="M505.295,195.008s-8.928,17.685-2.927,21.829,34.031,25.21,34.031,25.21l14.3,38.158,13.387-5.486-11.158-44.692-28.166-25.3Z" transform="translate(-500.293 -195.008)"/><g transform="translate(36.856 40.023)"><path class="g" d="M563.381,260.76c.079.058-.847,1.288-1.535,3.031-.7,1.738-.88,3.268-.978,3.255a9.589,9.589,0,0,1,2.512-6.286Z" transform="translate(-560.841 -260.758)"/></g><g transform="translate(36.375 39.656)"><path class="g" d="M560.853,260.156c.093.027-.307,1.478-.444,3.313s.02,3.331-.075,3.342a11.332,11.332,0,0,1,.519-6.656Z" transform="translate(-560.051 -260.155)"/></g><g transform="translate(2.056 8.854)"><path class="g" d="M553.372,285.342a1.091,1.091,0,0,1-.088-.189c-.057-.142-.133-.33-.231-.569l-.861-2.207c-.74-1.924-1.8-4.722-3.1-8.218s-2.82-7.686-4.419-12.421q-.6-1.776-1.187-3.659a39.266,39.266,0,0,0-1.269-3.806c-1.016-2.535-2.245-5.109-3.579-7.714l.037.047c-1.5-1.275-3.092-2.609-4.72-3.948-1.273-1.043-2.534-2.071-3.806-3.041l-3.773-2.864c-2.471-1.881-4.86-3.685-7.186-5.334s-4.613-3.1-6.708-4.542a39.615,39.615,0,0,1-5.526-4.414,13.564,13.564,0,0,1-1.957-2.4,8.8,8.8,0,0,1-1.07-2.549,10.431,10.431,0,0,1-.055-4.4,15.773,15.773,0,0,1,.777-2.673c.109-.3.213-.519.275-.67a1.482,1.482,0,0,1,.106-.223,1.332,1.332,0,0,1-.076.235c-.052.155-.146.378-.245.679a17.264,17.264,0,0,0-.715,2.674,10.413,10.413,0,0,0,.107,4.33,8.666,8.666,0,0,0,1.068,2.486,13.481,13.481,0,0,0,1.944,2.347,39.873,39.873,0,0,0,5.516,4.355c2.093,1.427,4.4,2.862,6.728,4.52s4.732,3.447,7.206,5.325l3.776,2.86c1.28.974,2.542,2,3.817,3.047,1.63,1.341,3.221,2.676,4.722,3.954l.024.02.014.027c1.337,2.617,2.563,5.194,3.581,7.749a39.357,39.357,0,0,1,1.267,3.831q.578,1.879,1.173,3.656c1.58,4.736,3.091,8.932,4.351,12.438l3.005,8.25c.347.956.618,1.7.808,2.226l.2.579A1.117,1.117,0,0,1,553.372,285.342Z" transform="translate(-503.671 -209.553)"/></g></g><g transform="translate(60.88 81.45)"><g transform="translate(0 0)"><path class="d" d="M526.6,204.3l17.258,2.448L552.715,209,540.6,213.347Z" transform="translate(-526.604 -204.304)"/></g></g><g transform="translate(27.279 80.198)"><path class="d" d="M483.867,202.249c.015.016-.112.162-.357.415a12.3,12.3,0,0,1-1.107,1,17.519,17.519,0,0,1-8.969,3.746,12.222,12.222,0,0,1-1.486.087,1.808,1.808,0,0,1-.545-.037c0-.054.772-.082,2-.272a19.938,19.938,0,0,0,8.862-3.7C483.265,202.741,483.83,202.21,483.867,202.249Z" transform="translate(-471.403 -202.247)"/></g><g transform="translate(48.809 27.767)"><path class="f" d="M510.1,143.271,506.772,168.3s11.068-.72,18.874,1.871,12.6,2.52,12.6,2.52l-1.631-15.573,5.824-12.757L545,159.3l11.967,12.321,7.8-1.765-8.081-13.54-5.612-27.585-.007-.032a10.3,10.3,0,0,0-3.531-5.857l-.223-.186-11.751-6.548-3.943.079a61.893,61.893,0,0,0-9.938,1.019,10.056,10.056,0,0,0-5.374,2.881h0a12.46,12.46,0,0,0-2.742,5.121Z" transform="translate(-506.772 -116.113)"/><g transform="translate(31.947 16.692)"><path class="d" d="M567.954,143.535a4.407,4.407,0,0,1-.288.8l-.892,2.146c-.766,1.806-1.843,4.293-3.048,7.032-1.205,2.707-2.3,5.155-3.119,7l-.968,2.112a6.2,6.2,0,0,1-.381.763,3.575,3.575,0,0,1,.267-.811c.2-.513.5-1.248.876-2.153.757-1.81,1.829-4.3,3.035-7.04s2.314-5.212,3.132-7l.984-2.1A4.342,4.342,0,0,1,567.954,143.535Z" transform="translate(-559.255 -143.535)"/></g><g transform="translate(7.161 2.698)"><path class="f" d="M518.838,130.18c2.289,6.376,6.688,20.946,8.84,26.559a10.205,10.205,0,0,0,3.188,4.344l23.753,16.793,5.488-7.129-17.793-17.163-9.59-28.42c-1.351-3.8-6.959-5.85-10.442-3.823h0C519.6,122.9,517.789,127.258,518.838,130.18Z" transform="translate(-518.536 -120.546)"/><g transform="translate(1.852 5.796)"><path class="d" d="M534.33,130.067s.07.165.188.491l.508,1.445,1.894,5.508,6.713,19.755-.034-.054,17.808,17.146.1.1-.086.112-3.945,5.127-1.542,2-.094.122-.124-.09L537.493,168.6l-4.075-2.94-.982-.709a7.968,7.968,0,0,1-.944-.747,9.171,9.171,0,0,1-1.513-1.805,10.435,10.435,0,0,1-.992-2.04l-.783-2.02c-.5-1.324-.975-2.6-1.412-3.817-1.752-4.876-3.037-8.855-3.912-11.6l-.984-3.171-.245-.827c-.054-.187-.073-.285-.073-.285s.04.092.1.275l.274.818c.242.733.592,1.793,1.04,3.153.91,2.737,2.227,6.7,4,11.566q.665,1.824,1.429,3.805.387.988.791,2.014a10.21,10.21,0,0,0,.978,1.992,8.922,8.922,0,0,0,1.476,1.749,7.866,7.866,0,0,0,.927.729l.984.706,4.082,2.928,18.236,13.1-.218.032,1.542-2,3.946-5.126.015.209L543.41,157.407l-.024-.023-.01-.031-6.605-19.791-1.824-5.531-.47-1.458C534.373,130.241,534.33,130.067,534.33,130.067Z" transform="translate(-521.578 -130.067)"/></g></g><g transform="translate(10.255 2.795)"><path class="d" d="M532.862,122.935c-.038.039-.435-.379-1.209-.858a6.868,6.868,0,0,0-6.748-.324c-.816.4-1.251.78-1.285.738a3.49,3.49,0,0,1,1.18-.936,6.528,6.528,0,0,1,6.975.335A3.481,3.481,0,0,1,532.862,122.935Z" transform="translate(-523.619 -120.704)"/></g><g transform="translate(45.688 40.384)"><path class="d" d="M586.572,182.628c-.01.1-1.124-.021-2.435.306-1.316.31-2.253.924-2.305.842a5.31,5.31,0,0,1,4.741-1.148Z" transform="translate(-581.829 -182.456)"/></g><g transform="translate(4.771 20.462)"><path class="m" d="M520.4,151.19a.88.88,0,0,1-.237.063,6.414,6.414,0,0,1-.658.1,6.48,6.48,0,0,1-2.193-.139,6.336,6.336,0,0,1-2-.911,6.087,6.087,0,0,1-.531-.4c-.119-.1-.183-.161-.177-.169a8.938,8.938,0,0,0,2.738,1.36A9.3,9.3,0,0,0,520.4,151.19Z" transform="translate(-514.609 -149.729)"/></g><g transform="translate(3.792 25.752)"><path class="m" d="M521.626,160.022a10.72,10.72,0,0,0-1.125-.665,8.58,8.58,0,0,0-3.034-.775,18.944,18.944,0,0,0-3.156.072l-.957.088a1.856,1.856,0,0,1-.353.018,1.885,1.885,0,0,1,.347-.066c.225-.035.55-.081.954-.128a16.436,16.436,0,0,1,3.176-.11,8.1,8.1,0,0,1,3.064.822,5.459,5.459,0,0,1,.818.513A1.552,1.552,0,0,1,521.626,160.022Z" transform="translate(-513.001 -158.418)"/></g><g class="o" transform="translate(9.349 18.132)"><path d="M522.131,145.9s.639,9.522,1.32,13.919,2.1,8.883,5.252,12.027c3.174,3.169,7.685,4.572,12.082,5.458q-2.129-1.6-4.178-3.311c-1.758-1.465-4.343-2.893-5.758-4.691-2.728-3.466-3.318-7.841-4.722-12.022-1.295-3.854-2.7-7.525-3.995-11.379" transform="translate(-522.131 -145.901)"/></g><g transform="translate(12.421 21.758)"><path class="m" d="M540.64,151.969a1.985,1.985,0,0,1-.5.251,4.055,4.055,0,0,1-1.519.226c-1.309.018-3.046-.616-5.015-.429a10.741,10.741,0,0,0-4.742,1.52,11.4,11.4,0,0,0-1.248.877l-.317.269a.659.659,0,0,1-.117.088,7.807,7.807,0,0,1,1.636-1.309,10.483,10.483,0,0,1,4.78-1.57c2-.187,3.743.463,5.027.466a4.239,4.239,0,0,0,1.5-.183C540.462,152.065,540.631,151.951,540.64,151.969Z" transform="translate(-527.177 -151.857)"/></g><g transform="translate(10.819 17.248)"><path class="m" d="M537.841,144.449a.589.589,0,0,1-.117.078l-.35.2c-.3.176-.754.409-1.322.677a24.024,24.024,0,0,1-9.479,2.252c-.627.016-1.135.011-1.485-.01l-.4-.023a.586.586,0,0,1-.14-.017.6.6,0,0,1,.141-.009h.4c.35.005.856,0,1.481-.03a25.837,25.837,0,0,0,9.444-2.244c.57-.256,1.026-.477,1.336-.639l.36-.181A.593.593,0,0,1,537.841,144.449Z" transform="translate(-524.545 -144.448)"/></g><g transform="translate(23.869 13.848)"><path class="m" d="M559.714,147.254a.844.844,0,0,1-.165-.038,2.882,2.882,0,0,1-.46-.158,5.237,5.237,0,0,1-1.488-.982c-1.158-.986-2.222-2.837-4.016-4.265a13.437,13.437,0,0,0-5.2-2.568,14.316,14.316,0,0,0-1.747-.31l-.482-.044a.9.9,0,0,1-.168-.024,10.01,10.01,0,0,1,2.417.292,13.112,13.112,0,0,1,5.263,2.557,14.575,14.575,0,0,1,2.255,2.325,18.879,18.879,0,0,0,1.742,1.972,5.464,5.464,0,0,0,1.448,1C559.489,147.191,559.721,147.235,559.714,147.254Z" transform="translate(-545.985 -138.862)"/></g><g transform="translate(25.442 19.675)"><path class="m" d="M560.01,153.9a4,4,0,0,1-.508-.146,4.692,4.692,0,0,1-1.232-.747,12.919,12.919,0,0,1-1.491-1.528,14.238,14.238,0,0,0-1.813-1.852,4.9,4.9,0,0,0-2.34-1.006,8.834,8.834,0,0,0-2.112-.04c-.6.051-1.087.125-1.423.172l-.387.054a.588.588,0,0,1-.136.011.507.507,0,0,1,.132-.036l.383-.077c.333-.061.818-.149,1.422-.212a8.623,8.623,0,0,1,2.138.013,4.96,4.96,0,0,1,2.4,1.021,13.7,13.7,0,0,1,1.824,1.875,13.8,13.8,0,0,0,1.46,1.536,5,5,0,0,0,1.194.769C559.833,153.836,560.013,153.892,560.01,153.9Z" transform="translate(-548.568 -148.436)"/></g><g transform="translate(37.243 22.955)"><path class="m" d="M576.925,154.052a4.055,4.055,0,0,0-1.353-.135,5.734,5.734,0,0,0-1.44.325c-.527.184-1.084.45-1.676.718a9.173,9.173,0,0,1-1.731.622,4.263,4.263,0,0,1-1.5.077,2.778,2.778,0,0,1-.964-.315,1.441,1.441,0,0,1-.3-.216,3.234,3.234,0,0,0,1.278.442,4.334,4.334,0,0,0,1.465-.1,9.548,9.548,0,0,0,1.705-.624c.59-.266,1.152-.531,1.69-.713a5.494,5.494,0,0,1,1.473-.3,3.305,3.305,0,0,1,1.009.094A1.655,1.655,0,0,1,576.925,154.052Z" transform="translate(-567.956 -153.823)"/></g><g transform="translate(35.769 25.807)"><path class="m" d="M576.937,159.2a3.008,3.008,0,0,0-1.678-.589,4.621,4.621,0,0,0-1.91.345,10.823,10.823,0,0,0-2.077,1.209,15.136,15.136,0,0,1-2.063,1.284,5.227,5.227,0,0,1-1.919.514,3.169,3.169,0,0,1-1.324-.2,1.837,1.837,0,0,1-.433-.231,3.323,3.323,0,0,0,1.752.338,5.271,5.271,0,0,0,1.874-.531,15.776,15.776,0,0,0,2.041-1.283,10.61,10.61,0,0,1,2.107-1.213,4.613,4.613,0,0,1,1.958-.325,2.9,2.9,0,0,1,1.283.377A1.737,1.737,0,0,1,576.937,159.2Z" transform="translate(-565.533 -158.508)"/></g><g class="o" transform="translate(35.652 20.78)"><path class="c" d="M566.739,165.767c1.244-4.984,1.486-10.383,1.664-15.516-.433,1.8-1.535,3.35-2.216,5.067-.326.821-.845,2.305-.845,2.305l1.377,8.024" transform="translate(-565.342 -150.251)"/></g></g><g transform="translate(72.589)"><g transform="translate(1.064 5.42)"><path class="d" d="M551.757,79.4a2.525,2.525,0,0,1-1.682,2.023c-.5.163-1.047.164-1.54.351a1.154,1.154,0,0,0-.84,1.182c.083.386.441.637.734.9s.559.673.391,1.031c-.184.393-.749.425-1.042.746a1.014,1.014,0,0,0,.069,1.261,4.5,4.5,0,0,0,1.076.844,1.766,1.766,0,0,1,.825,1.052" transform="translate(-547.587 -79.4)"/></g><g transform="translate(3.025)"><path class="d" d="M571.073,83.823c1.34-2.829.363-6.358-1.723-8.692a16.869,16.869,0,0,0-8.088-4.523c-.432-.124-.968-.214-1.27.119a.849.849,0,0,0,.076,1.082,2.47,2.47,0,0,0,1.009.6,9.4,9.4,0,0,0-3.918-1.069,2.484,2.484,0,0,0-1.379.3,1.131,1.131,0,0,0-.542,1.216.743.743,0,0,0,1.133.386,5.763,5.763,0,0,0-3.716.871,2.382,2.382,0,0,0-1.3,2.272,13.343,13.343,0,0,0,.684,1.481,4.364,4.364,0,0,1-.51,2.879,8.934,8.934,0,0,0-.638,4.55,5.276,5.276,0,0,0,2.423,3.786" transform="translate(-550.808 -70.497)"/></g><g transform="translate(0 3.852)"><path class="j" d="M550.462,110.166a6.23,6.23,0,0,1-4.367-7.782l5.587-18.924A8.939,8.939,0,0,1,562.863,77.2l.438.159a9,9,0,0,1,5.624,10.829c-1.149,4.21-2.473,8.848-3.294,11.032-1.7,4.523-6.5,3.586-6.5,3.586l-1.179,3.391a6.229,6.229,0,0,1-7.493,3.972Z" transform="translate(-545.838 -76.824)"/><g transform="translate(8.014 22.091)"><path class="p" d="M564.316,116.941A11.234,11.234,0,0,1,559,113.116s.217,3.775,4.9,5Z" transform="translate(-559.003 -113.116)"/></g></g><g transform="translate(4.215 3.318)"><path class="d" d="M561.014,79.6c-.371-.817-.841-2.6-1.473-3.235s-1.661-.427-2.526-.182A2.92,2.92,0,0,0,555.075,78c-1.192,3.274-1.341,6.362-2.232,9.581a1.176,1.176,0,0,0-.053.652c.168.547.768.74,1.334.823,1.395.2,2.107-.813,2.765-2.039a14.469,14.469,0,0,0,.483-2.263,6.159,6.159,0,0,1,3.424-5.05Z" transform="translate(-552.762 -75.948)"/><g transform="translate(8.362 3.971)"><path class="d" d="M566.5,82.472" transform="translate(-566.499 -82.472)"/></g></g><g transform="translate(2.627 12.418)"><path class="j" d="M554.159,91.576c-.065-.062-2.787-2.052-3.811,1.089s2.341,3.521,2.376,3.433S554.159,91.576,554.159,91.576Z" transform="translate(-550.154 -90.898)"/><g transform="translate(0.878 0.992)"><path class="p" d="M552.716,95.233c-.01-.015-.067.021-.174.033a.574.574,0,0,1-.411-.125,1.424,1.424,0,0,1-.231-1.419,1.9,1.9,0,0,1,.408-.733.664.664,0,0,1,.548-.286.293.293,0,0,1,.274.255c.013.1-.027.158-.012.169s.085-.03.1-.169a.369.369,0,0,0-.059-.237.436.436,0,0,0-.277-.178.809.809,0,0,0-.73.3,1.963,1.963,0,0,0-.475.814,1.494,1.494,0,0,0,.356,1.617.616.616,0,0,0,.528.08C552.686,95.307,552.725,95.243,552.716,95.233Z" transform="translate(-551.597 -92.528)"/></g></g><g transform="translate(10.059 2.002)"><path class="d" d="M563.56,79.464a3.792,3.792,0,0,1,4.2.083c1.065.62,1.969,1.5,3.063,2.061a2.856,2.856,0,0,0,4.607-2.408,6.635,6.635,0,0,0-1.592-4.864c-.3-.345-.761-.684-1.179-.5-.517.232-.437.982-.27,1.525,0,0-5.283-1.952-8.507-.826S563.56,79.464,563.56,79.464Z" transform="translate(-562.363 -73.786)"/></g><g transform="translate(13.237 0.053)"><path class="g" d="M567.59,70.584c.029,0,.061.226.223.6a4.81,4.81,0,0,0,1.006,1.406,7.8,7.8,0,0,0,2.107,1.472,6.139,6.139,0,0,0,1.435.483c.519.114,1.071.2,1.632.351a3.792,3.792,0,0,1,1.524.771,3.366,3.366,0,0,1,.92,1.3,2.937,2.937,0,0,1,.192,1.433,2.753,2.753,0,0,1-1.886,2.241,2.006,2.006,0,0,1-.483.079c-.111,0-.169,0-.17-.014,0-.026.234-.028.619-.166a2.7,2.7,0,0,0,1.3-1.073,2.537,2.537,0,0,0,.39-1.093,2.744,2.744,0,0,0-.2-1.312,3.159,3.159,0,0,0-.861-1.193,3.579,3.579,0,0,0-1.422-.71c-.537-.149-1.087-.232-1.616-.352a6.244,6.244,0,0,1-1.487-.517,7.6,7.6,0,0,1-2.136-1.566,4.453,4.453,0,0,1-.966-1.5,2.432,2.432,0,0,1-.115-.474C567.584,70.644,567.581,70.586,567.59,70.584Z" transform="translate(-567.585 -70.584)"/></g><g transform="translate(9.748 0.997)"><path class="g" d="M561.857,72.135c.024-.005.077.232.256.625A4.657,4.657,0,0,0,563.2,74.2a6.586,6.586,0,0,0,2.331,1.318,22.363,22.363,0,0,0,3.249.755,12.537,12.537,0,0,1,3.257.936,2.233,2.233,0,0,1,1.063,1.082,2.1,2.1,0,0,1,.073,1.321,2.606,2.606,0,0,1-1.125,1.487,2.754,2.754,0,0,1-.449.24c-.107.044-.167.06-.17.051s.214-.12.558-.379a2.594,2.594,0,0,0,1-1.445,1.927,1.927,0,0,0-.094-1.185,2.023,2.023,0,0,0-.972-.947,13.04,13.04,0,0,0-3.189-.889,20.758,20.758,0,0,1-3.283-.786,6.543,6.543,0,0,1-2.379-1.416,4.378,4.378,0,0,1-1.049-1.545,3.037,3.037,0,0,1-.141-.489C561.854,72.2,561.848,72.137,561.857,72.135Z" transform="translate(-561.853 -72.135)"/></g><g transform="translate(11.065 10.359)"><g transform="translate(0 2.841)"><g transform="translate(7.527 2.458)"><g transform="translate(0 0.817)"><path class="d" d="M577.851,98.486a.749.749,0,0,1-.931.477.717.717,0,0,1-.508-.892.749.749,0,0,1,.93-.477A.717.717,0,0,1,577.851,98.486Z" transform="translate(-576.382 -97.563)"/></g><g transform="translate(0.03)"><path class="d" d="M579.217,97.561c-.12.061-.518-.521-1.28-.783s-1.453-.076-1.5-.2c-.026-.055.121-.191.426-.284a2.051,2.051,0,0,1,1.242.044,1.968,1.968,0,0,1,.979.739C579.254,97.34,579.275,97.535,579.217,97.561Z" transform="translate(-576.431 -96.221)"/></g></g><g transform="translate(0 1.108)"><path class="d" d="M565.485,94.926a.749.749,0,0,1-.93.477.717.717,0,0,1-.508-.892.749.749,0,0,1,.93-.477A.716.716,0,0,1,565.485,94.926Z" transform="translate(-564.017 -94.003)"/></g><g transform="translate(0.022)"><path class="d" d="M566.839,93.523c-.12.061-.519-.522-1.281-.784s-1.452-.075-1.5-.2c-.026-.055.121-.191.426-.284a2.057,2.057,0,0,1,1.243.044,1.977,1.977,0,0,1,.979.739C566.874,93.3,566.9,93.5,566.839,93.523Z" transform="translate(-564.052 -92.183)"/></g><g transform="translate(3.61 1.482)"><path class="d" d="M569.947,101.084a5.281,5.281,0,0,1,1.314.206c.2.047.4.072.478-.049a1.044,1.044,0,0,0,.071-.622q-.029-.8-.061-1.681a26.891,26.891,0,0,1,.054-4.321,27,27,0,0,1,.294,4.316q.017.88.033,1.681a1.19,1.19,0,0,1-.164.8.518.518,0,0,1-.418.173,1.361,1.361,0,0,1-.346-.069A5.274,5.274,0,0,1,569.947,101.084Z" transform="translate(-569.947 -94.618)"/></g><g transform="translate(0.832 7.694)"><path class="d" d="M565.738,104.825c.127.036-.16.863.344,1.7s1.415,1.048,1.381,1.165c-.006.056-.252.093-.627-.027a2.174,2.174,0,0,1-1.169-.926,1.9,1.9,0,0,1-.236-1.4C565.52,104.973,565.683,104.8,565.738,104.825Z" transform="translate(-565.384 -104.822)"/></g></g><g transform="translate(0.443)"><path class="d" d="M568.343,88.781c-.147.181-.873-.181-1.8-.384-.927-.221-1.738-.21-1.792-.436-.022-.107.172-.259.533-.358a3.2,3.2,0,0,1,2.739.626C568.3,88.474,568.41,88.694,568.343,88.781Z" transform="translate(-564.745 -87.515)"/></g><g transform="translate(8.276 2.976)"><path class="d" d="M580.165,93.767c-.194.126-.656-.236-1.284-.463-.62-.25-1.205-.289-1.266-.512-.023-.107.121-.251.411-.334a1.978,1.978,0,0,1,2.054.786C580.242,93.5,580.254,93.7,580.165,93.767Z" transform="translate(-577.613 -92.403)"/></g></g></g><g transform="translate(0 69.692)"><g transform="translate(77.034 12.543)"><path class="g" d="M556.246,205.594a3.008,3.008,0,0,1,1.945,3.433l-4.111,1.626-.939-3.96Z" transform="translate(-553.141 -205.594)"/></g><g transform="translate(0 0)"><g transform="translate(45.599 5.909)"><path class="g" d="M501.5,201.316s8.234-.853,13.415.968,11.609,3.174,14.451,2.537a7.242,7.242,0,0,0,3.878-2.418s-8.206-.984-12.07-2.234c-2.6-.841-7.736-6.662-17.243-5.257Z" transform="translate(-501.5 -194.695)"/></g><g transform="translate(72.317 13.524)"><path class="g" d="M551.671,209.194a5.558,5.558,0,0,0-1.327-1.989l.075.094a12.636,12.636,0,0,0-2.554.373,4.236,4.236,0,0,0-2.163,1.34,1.139,1.139,0,0,0-.307.766,1.4,1.4,0,0,0,.647.89,7.712,7.712,0,0,0,2.587,1.537,2.622,2.622,0,0,0,2.764-.712A2.5,2.5,0,0,0,551.671,209.194Z" transform="translate(-545.393 -207.205)"/><g transform="translate(0.303 0.22)"><path class="d" d="M545.891,209.046a1.192,1.192,0,0,1,.261-.467,2.715,2.715,0,0,1,1.235-.77,4.5,4.5,0,0,1,2.153-.184,3.163,3.163,0,0,1,2.193,1.421,2.218,2.218,0,0,1-.11,2.548,2.013,2.013,0,0,1-.944.688,2.573,2.573,0,0,1-1.01.121,4.867,4.867,0,0,1-1.416-.354c-.161-.063-.282-.119-.364-.157a.61.61,0,0,1-.122-.066.54.54,0,0,1,.132.042l.371.135a5.218,5.218,0,0,0,1.4.31,2.091,2.091,0,0,0,1.855-.79,2.122,2.122,0,0,0,.095-2.412,3.068,3.068,0,0,0-2.1-1.372,4.5,4.5,0,0,0-2.106.155,2.763,2.763,0,0,0-1.225.718A2.361,2.361,0,0,0,545.891,209.046Z" transform="translate(-545.891 -207.567)"/></g><g transform="translate(0.978 1.094)"><path class="m" d="M548.067,209.746a5.249,5.249,0,0,0-.492-.431A5.181,5.181,0,0,0,547,209a1.608,1.608,0,0,1,1.067.741Z" transform="translate(-547 -209.002)"/></g><g transform="translate(2.46 1.126)"><path class="m" d="M550.353,209.827c-.015.012-.192-.19-.446-.4s-.482-.353-.473-.369a1.614,1.614,0,0,1,.514.321A1.6,1.6,0,0,1,550.353,209.827Z" transform="translate(-549.434 -209.055)"/></g><g transform="translate(2.563 2.699)"><path class="m" d="M550.958,213.658c-.011,0-.032-.138-.1-.354a2.986,2.986,0,0,0-.966-1.44c-.175-.143-.3-.215-.29-.225a1.628,1.628,0,0,1,.318.19,2.679,2.679,0,0,1,.981,1.463A1.63,1.63,0,0,1,550.958,213.658Z" transform="translate(-549.604 -211.639)"/></g><g transform="translate(4.85 1.343)"><path class="m" d="M553.778,211.748c-.01,0,.006-.136.013-.353a4.181,4.181,0,0,0-.06-.843,4.265,4.265,0,0,0-.234-.813c-.082-.2-.144-.321-.135-.326s.023.026.055.078a2.329,2.329,0,0,1,.12.231,3.413,3.413,0,0,1,.3,1.676,2.362,2.362,0,0,1-.034.258A.284.284,0,0,1,553.778,211.748Z" transform="translate(-553.361 -209.412)"/></g><g transform="translate(1.914 1.138)"><path class="d" d="M551.9,209.077a7.267,7.267,0,0,0-3.358,2.385,2.079,2.079,0,0,1,.342-.516,5.549,5.549,0,0,1,2.416-1.717A2.064,2.064,0,0,1,551.9,209.077Z" transform="translate(-548.538 -209.075)"/></g><g transform="translate(1.632 0.48)"><path class="d" d="M549.679,207.994a3.706,3.706,0,0,0-1.57,2.915,1.3,1.3,0,0,1-.027-.513,3.083,3.083,0,0,1,1.154-2.141A1.316,1.316,0,0,1,549.679,207.994Z" transform="translate(-548.074 -207.993)"/></g><g transform="translate(3.149 2.279)"><path class="d" d="M552.911,213.414c-.022,0-.037-.2-.158-.491a2.765,2.765,0,0,0-.723-.984c-.741-.624-1.494-.939-1.463-.988a1.969,1.969,0,0,1,.483.2,4.845,4.845,0,0,1,1.064.691,2.51,2.51,0,0,1,.723,1.047A1.026,1.026,0,0,1,552.911,213.414Z" transform="translate(-550.566 -210.949)"/></g></g><g transform="translate(41.246 12.118)"><path class="d" d="M513.635,206.694a4.416,4.416,0,0,1-.81-.152c-.516-.114-1.262-.278-2.19-.455a50.824,50.824,0,0,0-7.311-.856,13.474,13.474,0,0,0-3.994.327,8.276,8.276,0,0,0-2.913,1.44,11.247,11.247,0,0,0-2.068,2.208,2.846,2.846,0,0,1,.4-.723,7.943,7.943,0,0,1,1.528-1.661,8.2,8.2,0,0,1,2.975-1.546,13.243,13.243,0,0,1,4.083-.362,42.764,42.764,0,0,1,7.344.954c.925.206,1.667.4,2.175.556A3.863,3.863,0,0,1,513.635,206.694Z" transform="translate(-494.349 -204.895)"/></g><g transform="translate(0 3.918)"><path class="d" d="M426.589,193.168a3.337,3.337,0,0,1,.418-.327,7.8,7.8,0,0,1,1.335-.732,8.806,8.806,0,0,1,5.522-.426,8.25,8.25,0,0,1,3.439,1.776,17.767,17.767,0,0,1,2.891,3.373,47.706,47.706,0,0,0,2.911,3.9,34.911,34.911,0,0,0,3.657,3.717,25.607,25.607,0,0,0,8.547,5.2,13.511,13.511,0,0,0,4.3.714,6.753,6.753,0,0,0,3.625-.9,8.538,8.538,0,0,0,2.262-2.15c.567-.738,1.012-1.409,1.373-1.959l.834-1.266a3.278,3.278,0,0,1,.308-.43,3.364,3.364,0,0,1-.254.464l-.784,1.3c-.346.561-.777,1.243-1.336,2a8.6,8.6,0,0,1-2.285,2.234,6.961,6.961,0,0,1-3.741.969,13.667,13.667,0,0,1-4.39-.7,25.585,25.585,0,0,1-8.665-5.236,34.667,34.667,0,0,1-3.686-3.756A46.765,46.765,0,0,1,439.954,197a17.714,17.714,0,0,0-2.823-3.341,8.056,8.056,0,0,0-3.322-1.759,8.845,8.845,0,0,0-5.42.323A12.3,12.3,0,0,0,426.589,193.168Z" transform="translate(-426.589 -191.425)"/></g><g transform="translate(5.191 0.256)"><path class="m" d="M445.091,185.414s-.153.012-.429.022-.676.035-1.166.09a15.2,15.2,0,0,0-7.121,2.743c-.4.288-.716.534-.925.715s-.333.271-.333.271a11.768,11.768,0,0,1,1.231-1.023,14.7,14.7,0,0,1,7.143-2.751A11.682,11.682,0,0,1,445.091,185.414Z" transform="translate(-435.117 -185.409)"/></g><g transform="translate(14.791 6.18)"><path class="m" d="M461.03,195.14s-.159.027-.447.063-.7.1-1.212.2a16.514,16.514,0,0,0-7.238,3.473c-.4.332-.711.614-.917.818s-.329.309-.329.309a12.753,12.753,0,0,1,1.217-1.161,15.963,15.963,0,0,1,7.258-3.483A12.816,12.816,0,0,1,461.03,195.14Z" transform="translate(-450.887 -195.14)"/></g><g transform="translate(24.493 9.485)"><path class="m" d="M466.967,211.124s-.042-.164-.085-.467a6.739,6.739,0,0,1-.044-1.294,9.628,9.628,0,0,1,1.251-4.056,19.973,19.973,0,0,1,2.526-3.437c.726-.816,1.2-1.3,1.2-1.3s-.108.13-.31.359l-.854.971a20.852,20.852,0,0,0-2.5,3.438,9.786,9.786,0,0,0-1.261,4.028,7.124,7.124,0,0,0,.024,1.288c.012.152.037.268.046.348S466.967,211.124,466.967,211.124Z" transform="translate(-466.826 -200.57)"/></g><g transform="translate(35.024 10.59)"><path class="m" d="M484.45,205.7a3.016,3.016,0,0,1-.16-.467,5.078,5.078,0,0,1-.044-2.37,3.11,3.11,0,0,1,.142-.474c.01,0-.043.184-.1.483a5.776,5.776,0,0,0,.043,2.35C484.4,205.514,484.46,205.693,484.45,205.7Z" transform="translate(-484.127 -202.385)"/></g><g transform="translate(33.022 14.452)"><path class="m" d="M485.04,215.6a7.46,7.46,0,0,1-.976-.726,9.58,9.58,0,0,1-3.024-4.945,7.438,7.438,0,0,1-.2-1.2s.026.114.06.321.093.505.186.867a9.92,9.92,0,0,0,3.01,4.922c.28.248.517.439.688.561S485.04,215.6,485.04,215.6Z" transform="translate(-480.838 -208.73)"/></g><g transform="translate(40.687 9.139)"><path class="m" d="M498.179,203.762s-.312-.14-.79-.417a15.239,15.239,0,0,1-3.372-2.671c-.379-.4-.587-.673-.587-.673s.063.058.168.171l.451.471a17.293,17.293,0,0,0,3.363,2.663l.562.331C498.108,203.714,498.179,203.762,498.179,203.762Z" transform="translate(-493.43 -200.001)"/></g><g transform="translate(50.459 6.047)"><path class="m" d="M510.3,200.967s-.01-.086-.015-.24c-.009-.222-.018-.439-.027-.654-.027-.552-.085-1.314-.2-2.15s-.259-1.586-.379-2.126l-.147-.638c-.035-.151-.049-.236-.049-.236s.03.08.073.229.1.366.166.635a21.49,21.49,0,0,1,.4,2.127,21.191,21.191,0,0,1,.179,2.157c.009.277.011.5.008.656S510.3,200.967,510.3,200.967Z" transform="translate(-509.483 -194.922)"/></g><g transform="translate(57.833 7.946)"><path class="m" d="M522.618,198.042a1.086,1.086,0,0,1-.007.2q-.027.282-.051.539c-.051.455-.142,1.081-.283,1.765s-.306,1.3-.44,1.732q-.08.247-.167.516a1.318,1.318,0,0,1-.072.185,1.131,1.131,0,0,1,.048-.193l.147-.52c.122-.44.28-1.051.421-1.733s.239-1.305.3-1.757c.023-.171.046-.349.071-.536A1.231,1.231,0,0,1,522.618,198.042Z" transform="translate(-521.597 -198.042)"/></g><g transform="translate(64.012 10.981)"><path class="m" d="M531.751,205a16.039,16.039,0,0,1,.41-1.974,8.089,8.089,0,0,1-.174.993A7.9,7.9,0,0,1,531.751,205Z" transform="translate(-531.748 -203.028)"/></g><g transform="translate(72.544 12.967)"><path class="m" d="M545.766,209.111c-.01,0,.024-.157.05-.41s.047-.606.055-1c0-.271,0-.563.005-1,0-.09,0-.192,0-.3a.413.413,0,0,1,.007-.112,2.229,2.229,0,0,1,.039.413c.013.256.023.611.014,1a8.318,8.318,0,0,1-.075,1A2.251,2.251,0,0,1,545.766,209.111Z" transform="translate(-545.764 -206.291)"/></g><g transform="translate(50.801 12.639)"><path class="g" d="M533.427,210.883c-.659-2.651-3.378-4.353-6.076-4.781s-5.439.132-8.149.474-5.6.435-8.025-.824a9.327,9.327,0,0,0-1.13,4.654l1.426.032a5.279,5.279,0,0,0,4.2,4.073,7.481,7.481,0,0,0,5.268-.374c1.995-.872,4.58-2.2,6.539-2.885a9.581,9.581,0,0,1,6.105-.38" transform="translate(-510.045 -205.752)"/><g transform="translate(1.398 0.632)"><path class="d" d="M513.479,206.791a4.819,4.819,0,0,1-.242.572,11.718,11.718,0,0,0-.5,1.4,9.485,9.485,0,0,0-.3,1.459c-.045.379-.047.617-.067.617a2.042,2.042,0,0,1-.023-.625,7.063,7.063,0,0,1,.264-1.486,8.242,8.242,0,0,1,.541-1.408A2.252,2.252,0,0,1,513.479,206.791Z" transform="translate(-512.342 -206.791)"/></g><g transform="translate(0.029 3.284)"><path class="d" d="M511.6,211.365a20.271,20.271,0,0,1-1.5-.167,2.582,2.582,0,0,1,1.5.167Z" transform="translate(-510.093 -211.148)"/></g><g transform="translate(0.488 1.338)"><path class="d" d="M512.192,208.466c-.024.029-.281-.171-.651-.3s-.693-.141-.694-.179a1.427,1.427,0,0,1,1.345.479Z" transform="translate(-510.847 -207.951)"/></g><g transform="translate(1.429 0.127)"><path class="d" d="M515.632,206.815s.145,0,.421,0,.684.013,1.211,0a23.976,23.976,0,0,0,4.445-.453,18.881,18.881,0,0,1,6.677-.186,9.04,9.04,0,0,1,3.689,1.481,6.734,6.734,0,0,1,2.533,3.439l.04.134-.13-.063a5.2,5.2,0,0,0-1.844-.5,11.764,11.764,0,0,0-4.516.807,38.507,38.507,0,0,0-4,1.63c-.625.291-1.234.577-1.833.838a10.724,10.724,0,0,1-1.791.653,8.933,8.933,0,0,1-3.406.135,6.294,6.294,0,0,1-2.625-1,5.063,5.063,0,0,1-1.469-1.53,4.754,4.754,0,0,1-.539-1.231,4.059,4.059,0,0,1-.1-.457,5.685,5.685,0,0,0,.685,1.661,5.046,5.046,0,0,0,1.467,1.5,6.263,6.263,0,0,0,2.6.967,8.9,8.9,0,0,0,3.367-.149,10.611,10.611,0,0,0,1.771-.653c.6-.262,1.2-.548,1.829-.841a38.229,38.229,0,0,1,4.007-1.642,11.834,11.834,0,0,1,4.567-.816,5.288,5.288,0,0,1,1.889.511l-.089.071a6.632,6.632,0,0,0-2.482-3.37,8.947,8.947,0,0,0-3.638-1.468,18.945,18.945,0,0,0-6.642.159,23.1,23.1,0,0,1-4.459.416C516.21,206.863,515.632,206.815,515.632,206.815Z" transform="translate(-512.392 -205.96)"/></g><g transform="translate(4.056 1.066)"><path class="m" d="M517.223,214.83a1.346,1.346,0,0,1-.105-.277,7.123,7.123,0,0,1-.205-.782,9.69,9.69,0,0,1,.368-5.262,6.927,6.927,0,0,1,.312-.745,1.35,1.35,0,0,1,.142-.26c.021.01-.159.391-.37,1.034a10.67,10.67,0,0,0-.365,5.216C517.12,214.421,517.245,214.823,517.223,214.83Z" transform="translate(-516.709 -207.504)"/></g><g transform="translate(9.824 4.808)"><path class="m" d="M526.2,213.651a2.771,2.771,0,0,1,.1.513c.052.317.141.749.264,1.223.253.945.5,1.7.458,1.717a2.1,2.1,0,0,1-.2-.481c-.109-.3-.251-.726-.376-1.2a8.121,8.121,0,0,1-.231-1.242A1.746,1.746,0,0,1,526.2,213.651Z" transform="translate(-526.185 -213.651)"/></g><g transform="translate(9.012 2.744)"><path class="m" d="M524.926,210.26c.037,0,.02.447.066.99s.133.978.1.987a3.537,3.537,0,0,1-.164-1.978Z" transform="translate(-524.851 -210.26)"/></g><g transform="translate(9.998 0.618)"><path class="m" d="M526.866,206.768c.034.015-.128.407-.22.915s-.083.931-.121.933a2.582,2.582,0,0,1,.341-1.848Z" transform="translate(-526.47 -206.767)"/></g><g transform="translate(14.162 0.267)"><path class="m" d="M533.746,207.726a1.659,1.659,0,0,1-.372-1.535c.037,0,.01.363.114.785S533.777,207.7,533.746,207.726Z" transform="translate(-533.311 -206.191)"/></g><g transform="translate(16.29 1.528)"><path class="m" d="M538.387,211.956a2.253,2.253,0,0,1-.351-.479,9.262,9.262,0,0,1-1.122-2.63,2.3,2.3,0,0,1-.1-.585,3.423,3.423,0,0,1,.189.561c.11.347.273.822.49,1.333s.449.956.624,1.275A3.55,3.55,0,0,1,538.387,211.956Z" transform="translate(-536.806 -208.262)"/></g><g transform="translate(18.376 0.797)"><path class="m" d="M540.639,207.068c.019.03-.087.13-.189.27s-.166.27-.2.261-.02-.175.1-.336S540.623,207.038,540.639,207.068Z" transform="translate(-540.234 -207.061)"/></g><g transform="translate(1.889 3.858)"><path class="m" d="M534.853,213.57s-.061-.052-.175-.155a4.915,4.915,0,0,0-.531-.4,5.594,5.594,0,0,0-2.3-.814,8.4,8.4,0,0,0-3.593.393,39.417,39.417,0,0,0-4.13,1.706,13.411,13.411,0,0,1-4.29,1.236,10.443,10.443,0,0,1-3.631-.317,10.13,10.13,0,0,1-2.287-.911c-.256-.139-.449-.257-.576-.344s-.195-.129-.195-.129.071.039.2.119.324.2.581.332a10.609,10.609,0,0,0,5.9,1.191,13.453,13.453,0,0,0,4.27-1.235,38.571,38.571,0,0,1,4.138-1.7,8.408,8.408,0,0,1,3.616-.382,5.536,5.536,0,0,1,2.3.838A3.765,3.765,0,0,1,534.853,213.57Z" transform="translate(-513.148 -212.09)"/></g><g transform="translate(1.85 2.471)"><path class="m" d="M524.678,209.812s-.151.07-.43.187-.685.277-1.2.453a12.606,12.606,0,0,1-4.149.687,15.486,15.486,0,0,1-4.153-.7c-1.037-.3-1.666-.527-1.666-.527s.162.041.451.128l1.227.356a16.018,16.018,0,0,0,4.141.679,12.946,12.946,0,0,0,4.134-.667c.512-.17.923-.317,1.2-.433S524.678,209.812,524.678,209.812Z" transform="translate(-513.084 -209.812)"/></g><g transform="translate(2.656 0.671)"><path class="m" d="M531.372,208.007s-.052-.031-.148-.095-.24-.153-.43-.26a6.1,6.1,0,0,0-1.742-.6,9.646,9.646,0,0,0-2.733-.087c-1.029.1-2.144.334-3.319.552a17.987,17.987,0,0,1-6.1.167,24.812,24.812,0,0,1-2.494-.455l.669.122c.43.079,1.054.189,1.83.288a18.3,18.3,0,0,0,6.08-.184c1.174-.219,2.291-.452,3.325-.548a9.567,9.567,0,0,1,2.747.1,5.967,5.967,0,0,1,1.745.623A4.079,4.079,0,0,1,531.372,208.007Z" transform="translate(-514.408 -206.854)"/></g><g transform="translate(8.359 1.321)"><path class="d" d="M538.874,211.627a10.591,10.591,0,0,0-1.673-1.833,6.941,6.941,0,0,0-5.575-1.458,8.9,8.9,0,0,0-3.029,1.216c-.882.513-1.67,1.011-2.381,1.344a6.392,6.392,0,0,1-1.759.586,3,3,0,0,1-.5.049c-.115,0-.175,0-.177-.012a9,9,0,0,0,2.339-.825c.684-.351,1.449-.863,2.333-1.4a8.848,8.848,0,0,1,3.124-1.276,7.132,7.132,0,0,1,3.37.239,6.924,6.924,0,0,1,2.4,1.36,6.552,6.552,0,0,1,1.219,1.4A2.089,2.089,0,0,1,538.874,211.627Z" transform="translate(-523.777 -207.923)"/></g><g transform="translate(7.495 1.904)"><path class="d" d="M529.865,208.893a12.971,12.971,0,0,1-7.507.537c.013-.1,1.7.127,3.771-.029S529.838,208.8,529.865,208.893Z" transform="translate(-522.358 -208.881)"/></g></g><g transform="translate(1.251 1.719)"><path class="m" d="M490.184,198.779l-.686-.291c-.451-.188-1.117-.464-1.989-.779a25.149,25.149,0,0,0-7.658-1.59,16.52,16.52,0,0,0-5.351.693,12.8,12.8,0,0,0-5.31,3.113c-1.583,1.515-2.909,3.433-4.733,4.994a7.876,7.876,0,0,1-3.2,1.7,6.936,6.936,0,0,1-3.713-.22,10.14,10.14,0,0,1-3.266-1.824,16.152,16.152,0,0,1-2.5-2.645c-1.46-1.895-2.621-3.893-3.952-5.637a27.868,27.868,0,0,0-4.217-4.56,17.164,17.164,0,0,0-4.587-2.845,12.975,12.975,0,0,0-7.691-.768,10.74,10.74,0,0,0-2.02.678l-.666.335.66-.346a10.635,10.635,0,0,1,2.02-.691,12.967,12.967,0,0,1,7.714.751,17.165,17.165,0,0,1,4.6,2.846,27.91,27.91,0,0,1,4.23,4.565c1.334,1.746,2.5,3.745,3.954,5.635a16.079,16.079,0,0,0,2.493,2.634,10.064,10.064,0,0,0,3.245,1.813,6.88,6.88,0,0,0,3.679.22,7.829,7.829,0,0,0,3.173-1.687c1.816-1.552,3.143-3.47,4.732-4.988a12.846,12.846,0,0,1,5.335-3.121,16.518,16.518,0,0,1,5.368-.688,25.011,25.011,0,0,1,7.666,1.612C489.258,198.33,490.184,198.779,490.184,198.779Z" transform="translate(-428.644 -187.812)"/></g><g transform="translate(14.01)"><path class="m" d="M468.517,199.45a3.87,3.87,0,0,1-.962-.036,5.953,5.953,0,0,1-2.414-1,11.143,11.143,0,0,1-2.693-2.8c-.855-1.192-1.712-2.561-2.824-3.836a23.625,23.625,0,0,0-6.737-5.355,25.223,25.223,0,0,0-2.383-1.1l-.9-.341s.326.105.909.319a23.649,23.649,0,0,1,2.394,1.079,23.38,23.38,0,0,1,6.764,5.354,46.88,46.88,0,0,1,2.824,3.843,11.174,11.174,0,0,0,2.671,2.8,6,6,0,0,0,2.392,1.012,4.99,4.99,0,0,0,.709.059C468.431,199.448,468.517,199.45,468.517,199.45Z" transform="translate(-449.605 -184.988)"/></g><g transform="translate(41.278 6.594)"><path class="m" d="M514.067,198.549s-.065-.034-.185-.1-.294-.179-.527-.3a17.833,17.833,0,0,0-18.269.569c-.225.138-.39.26-.507.335s-.178.115-.178.115.232-.178.672-.471a16.837,16.837,0,0,1,1.945-1.1,17.5,17.5,0,0,1,14.339-.447,16.931,16.931,0,0,1,2.011.979C513.824,198.386,514.067,198.549,514.067,198.549Z" transform="translate(-494.4 -195.82)"/></g><g transform="translate(45.747 6.366)"><path class="m" d="M504.568,201.113s-.032-.084-.077-.239-.113-.378-.2-.652a15.572,15.572,0,0,0-2-4.016c-.164-.237-.3-.426-.4-.555s-.145-.2-.145-.2a9.226,9.226,0,0,1,.58.733,14.041,14.041,0,0,1,2.009,4.028C504.5,200.761,504.568,201.113,504.568,201.113Z" transform="translate(-501.742 -195.446)"/></g><g transform="translate(54.196 6.379)"><path class="m" d="M516.476,195.468s.041.338.049.887a14.072,14.072,0,0,1-.607,4.232c-.161.525-.3.838-.3.838s.019-.083.066-.229c.063-.211.125-.417.186-.621a15.8,15.8,0,0,0,.605-4.22c0-.213,0-.429,0-.648C516.472,195.553,516.476,195.468,516.476,195.468Z" transform="translate(-515.622 -195.468)"/></g><g transform="translate(36.994 12.659)"><path class="m" d="M491.378,209.829a7.692,7.692,0,0,1-.712-.452,11.734,11.734,0,0,1-2.857-2.877,7.852,7.852,0,0,1-.446-.715s.051.063.131.184.2.295.352.5a13.029,13.029,0,0,0,2.846,2.868c.209.153.381.275.5.355S491.378,209.829,491.378,209.829Z" transform="translate(-487.363 -205.785)"/></g><g transform="translate(31.377 10.458)"><path class="m" d="M478.375,206.523a4.48,4.48,0,0,1-.147-.632,6.991,6.991,0,0,1,.191-3.111,4.518,4.518,0,0,1,.223-.61,1,1,0,0,1-.047.168c-.035.106-.082.261-.133.454a7.764,7.764,0,0,0-.19,3.092c.028.2.055.357.077.467A.928.928,0,0,1,478.375,206.523Z" transform="translate(-478.135 -202.169)"/></g><g transform="translate(30.107 15.51)"><path class="m" d="M477.529,217.657a10.184,10.184,0,0,1-.45-.987,14.439,14.439,0,0,1-1.029-5.116,10.363,10.363,0,0,1,.034-1.085s.005.1,0,.292,0,.458.008.793a15.612,15.612,0,0,0,1.026,5.1c.12.312.223.563.3.734S477.529,217.657,477.529,217.657Z" transform="translate(-476.049 -210.468)"/></g><g transform="translate(38.723 10.018)"><path class="m" d="M490.221,201.446a3.842,3.842,0,0,0,.111.475,4.009,4.009,0,0,0,.225.433,1.009,1.009,0,0,1-.336-.909Z" transform="translate(-490.203 -201.446)"/></g><g transform="translate(18.428 7.743)"><path class="m" d="M465.293,197.708s-.139.082-.4.218-.624.341-1.068.611a21.428,21.428,0,0,0-5.991,5.4c-.313.414-.558.757-.717,1s-.258.371-.258.371a16.173,16.173,0,0,1,.939-1.4,20.536,20.536,0,0,1,6-5.413A16.165,16.165,0,0,1,465.293,197.708Z" transform="translate(-456.863 -197.708)"/></g><g transform="translate(10.574 1.64)"><path class="m" d="M452.92,187.682s-.135.037-.38.093-.6.142-1.034.262a21.488,21.488,0,0,0-6.359,2.933c-.373.253-.67.464-.87.617s-.318.228-.318.228.422-.366,1.163-.882a20.283,20.283,0,0,1,6.373-2.939C452.368,187.765,452.92,187.682,452.92,187.682Z" transform="translate(-443.959 -187.682)"/></g><g transform="translate(69.025 12.362)"><path class="m" d="M540.168,205.3a2.334,2.334,0,1,1-.12.363A1.166,1.166,0,0,1,540.168,205.3Z" transform="translate(-539.983 -205.296)"/></g></g></g><g transform="translate(93.132 81.782)"><g transform="translate(0 0)"><path class="j" d="M583.31,204.85s2.748.57,3.92.83c.38.085.772.027,1.156.092a14.354,14.354,0,0,0,5.08-.091c1.166-.429,1.214,1.059-.042,1.7a6.279,6.279,0,0,1-2.026.709l3.022,2.431a.793.793,0,0,1,.289.506l.774,5.356a.915.915,0,0,1-.592,1.058.454.454,0,0,1-.578-.209l.085.72a.945.945,0,0,1-1.862.315c0-.015-.005-.03-.008-.045l-1.062.6s-.706.732-1.466-.284c-.628-.84-2.513-4.175-2.513-4.175s-8.025-3.38-7.9-4.73Z" transform="translate(-579.588 -204.85)"/></g><g transform="translate(9.772 5.703)"><path class="p" d="M598.817,221.93a8,8,0,0,1-.216-1.3c-.124-.79-.352-1.905-.513-3.121-.111-.592-.25-1.19-.383-1.671a.956.956,0,0,0-.432-.5l-.56-.356a5.442,5.442,0,0,1-1.071-.768,5.476,5.476,0,0,1,1.186.575l.58.323a1.215,1.215,0,0,1,.568.613,15.133,15.133,0,0,1,.424,1.723c.164,1.239.352,2.329.422,3.15A4.151,4.151,0,0,1,598.817,221.93Z" transform="translate(-595.642 -214.219)"/></g><g transform="translate(11.362 5.005)"><path class="p" d="M601.616,220.446c-.124.023-.324-1.922-.818-4.246a3.7,3.7,0,0,0-.516-1.508,9.226,9.226,0,0,0-.984-.928,5.055,5.055,0,0,0-.744-.523c-.187-.1-.3-.129-.3-.155s.133-.032.35.041a3.506,3.506,0,0,1,.83.457,7.442,7.442,0,0,1,1.065.911,3.636,3.636,0,0,1,.609,1.635,24.261,24.261,0,0,1,.458,3.042A5.831,5.831,0,0,1,601.616,220.446Z" transform="translate(-598.254 -213.073)"/></g><g transform="translate(8.163 7.303)"><path class="p" d="M593,216.853a4.233,4.233,0,0,1,1.05.5l.511.282a1.846,1.846,0,0,1,.577.42,1.76,1.76,0,0,1,.338.71l.236.761a24.648,24.648,0,0,1,1,3.825,24.726,24.726,0,0,1-1.305-3.723l-.229-.76a1.57,1.57,0,0,0-.27-.626,1.694,1.694,0,0,0-.487-.38l-.491-.316A4.25,4.25,0,0,1,593,216.853Z" transform="translate(-592.997 -216.848)"/></g><g transform="translate(8.375 1.502)"><path class="p" d="M593.346,207.339a6.522,6.522,0,0,1,2.442,1.06,7.146,7.146,0,0,1,2.144,1.579c-.049.057-1.031-.586-2.3-1.3l-1.62-.928A3.614,3.614,0,0,1,593.346,207.339Z" transform="translate(-593.346 -207.318)"/></g></g></g></g></g></svg>