<svg xmlns="http://www.w3.org/2000/svg" width="35" height="35" viewBox="0 0 35 35"><defs><style>.a{fill:#ffba00;}</style></defs><path class="a" d="M25.5,8A17.5,17.5,0,1,0,43,25.5,17.5,17.5,0,0,0,25.5,8Zm0,31.613A14.113,14.113,0,1,1,39.613,25.5,14.105,14.105,0,0,1,25.5,39.613Zm7.575-7.132A10.446,10.446,0,0,1,25.732,35.4a9.659,9.659,0,0,1-9.913-9.99,9.655,9.655,0,0,1,9.862-9.837,10.215,10.215,0,0,1,6.887,2.454.844.844,0,0,1,.137,1.081L31.423,21.1a.847.847,0,0,1-1.235.206,7.318,7.318,0,0,0-4.354-1.59,5.331,5.331,0,0,0-5.5,5.651c0,2.935,1.9,5.906,5.524,5.906A7.1,7.1,0,0,0,30.5,29.346a.847.847,0,0,1,1.257.123l1.4,1.917a.843.843,0,0,1-.081,1.1Z" transform="translate(-8 -8)"/></svg>