<?xml version="1.0" encoding="iso-8859-1"?>
<!-- Generator: Adobe Illustrator 19.0.0, SVG Export Plug-In . SVG Version: 6.00 Build 0)  -->
<svg version="1.1" id="Capa_1" xmlns="http://www.w3.org/2000/svg" xmlns:xlink="http://www.w3.org/1999/xlink" x="0px" y="0px"
	 viewBox="0 0 511.999 511.999" style="enable-background:new 0 0 511.999 511.999;" xml:space="preserve">
<path style="fill:#414B82;" d="M289.134,382.09l28.916-68.427h-39.136l-25.226,59.695c-1.458,3.448-1.805,7.265-0.994,10.919
	l17.044,76.857c1.865,8.405,9.315,14.127,17.58,14.126c1.292,0,2.605-0.14,3.919-0.431c9.719-2.155,15.851-11.781,13.696-21.5
	L289.134,382.09z"/>
<path style="fill:#1E2D64;" d="M320.934,313.663v152.371c0,10.117,8.202,18.318,18.319,18.318s18.319-8.201,18.319-18.318V313.663
	H320.934z"/>
<path style="fill:#96A5D7;" d="M405.304,154.893l-10.717-71.975c-1.222-8.206-8.859-13.868-17.069-12.646
	c-8.206,1.222-13.867,8.864-12.646,17.07l9.638,64.731l-34.656,36.508h-43.816l-38.288-47.89l-16.696-61.474
	c-2.174-8.007-10.43-12.732-18.433-10.559c-8.005,2.174-12.733,10.427-10.559,18.433l17.513,64.482
	c0.539,1.985,1.479,3.837,2.763,5.443l44.373,55.5V319.61h80.859V213.554l43.768-46.107
	C404.523,164.094,405.984,159.464,405.304,154.893z"/>
<path style="fill:#8093CF;" d="M405.304,154.893l-10.717-71.975c-1.222-8.206-8.859-13.868-17.069-12.646
	c-8.206,1.222-13.867,8.864-12.646,17.07l9.638,64.731l-34.656,36.508h-22.734v131.029h40.452V213.554l43.768-46.107
	C404.523,164.094,405.984,159.464,405.304,154.893z"/>
<polygon style="fill:#FFFFFF;" points="298.662,199.554 317.14,248.048 324.52,228.69 335.58,199.554 335.487,188.583 
	298.799,188.583 "/>
<path style="fill:#838387;" d="M326.996,208.826l-5.034-9.155l4.338-7.89c0.789-1.435-0.251-3.197-1.891-3.197h-14.544
	c-1.638,0-2.68,1.759-1.891,3.197l4.353,7.917l-5.02,9.13c-0.695,1.264-0.921,2.733-0.639,4.148l3.096,15.719l7.373,19.355
	l7.38-19.358l3.114-15.714C327.917,211.561,327.692,210.09,326.996,208.826z"/>
<path style="fill:#68686B;" d="M326.996,208.826l-5.034-9.155l4.338-7.89c0.789-1.435-0.251-3.197-1.891-3.197h-7.27v59.453v0.012
	l7.38-19.358l3.114-15.714C327.917,211.561,327.692,210.091,326.996,208.826z"/>
<rect x="329.215" y="230.968" style="fill:#96A5D7;" width="20.068" height="6.189"/>
<path style="fill:#373C41;" d="M427.17,94.299l17.829,17.809c4.802,4.797,4.807,12.605,0.009,17.408l-11.831,11.845
	c-4.797,4.803-12.606,4.807-17.408,0.01l-17.829-17.809c-4.803-4.797-4.807-12.606-0.01-17.409l11.831-11.845
	C414.559,89.507,422.367,89.503,427.17,94.299z M435.961,120.818l-17.49-17.47l-11.493,11.506l17.49,17.47L435.961,120.818z"/>
<path style="fill:#80391B;" d="M451.166,30.763l57.707,57.643c4.164,4.159,4.168,10.907,0.008,15.071l-40.915,40.96
	c-4.159,4.164-10.907,4.168-15.071,0.008l-57.707-57.643c-4.164-4.159-4.168-10.907-0.008-15.071l40.915-40.96
	C440.255,26.608,447.002,26.604,451.166,30.763z"/>
<path style="fill:#FFB69E;" d="M394.587,82.918c-1.222-8.206-8.859-13.868-17.069-12.646c-8.206,1.222-13.867,8.864-12.646,17.07
	L394.587,82.918z"/>
<path style="fill:#BA6746;" d="M241.054,79.22c-2.174-8.007-10.43-12.732-18.433-10.559c-8.005,2.174-12.733,10.427-10.559,18.433
	L241.054,79.22z"/>
<circle style="fill:#FFB69E;" cx="317.166" cy="147.636" r="31.135"/>
<g>
	<polygon style="fill:#FFFFFF;" points="243.585,88.537 241.054,79.22 212.063,87.094 214.596,96.419 	"/>
	<polygon style="fill:#FFFFFF;" points="366.307,96.976 396.014,92.5 394.587,82.918 364.873,87.343 	"/>
</g>
<path style="fill:#5F6E9B;" d="M87.84,484.353c-10.348,0-18.737-8.388-18.737-18.736V315.851c0-10.348,8.389-18.736,18.737-18.736
	s18.737,8.388,18.737,18.736v149.765C106.577,475.965,98.188,484.353,87.84,484.353z"/>
<g>
	<path style="fill:#414B82;" d="M236.663,71.845c-6.614-5.533-16.461-4.658-21.995,1.956l-90.383,108.03H69.353L32.88,161.806
		v-53.91c0-9.08-7.36-16.441-16.44-16.441C7.36,91.456,0,98.816,0,107.896v63.639c0,5.999,3.269,11.524,8.528,14.411l60.575,30.863
		v99.041h82.705V197.601L238.619,93.84C244.153,87.225,243.276,77.379,236.663,71.845z"/>
	<path style="fill:#414B82;" d="M133.07,484.353c-10.348,0-18.737-8.388-18.737-18.736V315.851c0-10.348,8.389-18.736,18.737-18.736
		s18.737,8.388,18.737,18.736v149.765C151.808,475.965,143.419,484.353,133.07,484.353z"/>
</g>
<path style="fill:#1E2D64;" d="M236.663,71.845c-6.614-5.533-16.461-4.658-21.995,1.956l-90.383,108.03h-13.831v134.02h41.355
	v-118.25L238.619,93.84C244.153,87.225,243.277,77.379,236.663,71.845z"/>
<path style="fill:#FFB69E;" d="M233.358,100.128l5.261-6.288c5.533-6.614,4.657-16.461-1.956-21.995
	c-6.614-5.533-16.461-4.658-21.995,1.956l-5.069,6.06L233.358,100.128z"/>
<polygon style="fill:#FFFFFF;" points="233.358,100.128 238.619,93.839 214.668,73.801 209.598,79.861 "/>
<circle style="fill:#FFB69E;" cx="110.457" cy="123.538" r="32.358"/>
<polygon style="fill:#FFFFFF;" points="87.276,181.832 110.453,242.654 118.001,222.854 129.313,193.053 124.284,181.832 
	96.626,181.832 "/>
<path style="fill:#FF3C3C;" d="M120.533,202.537l-5.148-9.365l4.438-8.07c0.807-1.468-0.257-3.27-1.934-3.27h-14.876
	c-1.675,0-2.742,1.8-1.934,3.27l4.453,8.098l-5.134,9.339c-0.711,1.293-0.942,2.796-0.654,4.242l3.168,16.078l7.541,19.796
	l7.548-19.8l3.185-16.073C121.475,205.334,121.245,203.83,120.533,202.537z"/>
<path style="fill:#DC1428;" d="M120.533,202.537l-5.148-9.365l4.438-8.07c0.807-1.468-0.257-3.27-1.934-3.27h-7.436v60.81v0.013
	l7.548-19.8l3.185-16.073C121.475,205.334,121.245,203.83,120.533,202.537z"/>
<rect x="122.807" y="225.184" style="fill:#414B82;" width="20.527" height="6.33"/>
<path style="fill:#FFFFFF;" d="M0,117.767v-9.871c0-9.08,7.36-16.441,16.441-16.441s16.441,7.361,16.441,16.441v9.871H0z"/>
<path style="fill:#FFB69E;" d="M0,107.896c0-9.08,7.36-16.441,16.441-16.441s16.441,7.361,16.441,16.441H0z"/>
<g>
</g>
<g>
</g>
<g>
</g>
<g>
</g>
<g>
</g>
<g>
</g>
<g>
</g>
<g>
</g>
<g>
</g>
<g>
</g>
<g>
</g>
<g>
</g>
<g>
</g>
<g>
</g>
<g>
</g>
</svg>
