<?xml version="1.0" encoding="iso-8859-1"?>
<!-- Generator: Adobe Illustrator 19.0.0, SVG Export Plug-In . SVG Version: 6.00 Build 0)  -->
<svg version="1.1" id="Capa_1" xmlns="http://www.w3.org/2000/svg" xmlns:xlink="http://www.w3.org/1999/xlink" x="0px" y="0px"
	 viewBox="0 0 512 512" style="enable-background:new 0 0 512 512;" xml:space="preserve">
<path style="fill:#414B82;" d="M375.309,512c-13.703,0-25.215-10.668-26.075-24.532l-8.233-132.751
	c-0.209-3.362,0.235-6.732,1.305-9.927l36.078-107.681c4.589-13.694,19.408-21.075,33.103-16.488
	c13.694,4.589,21.076,19.409,16.487,33.104L393.517,356.57l7.918,127.66c0.894,14.415-10.067,26.825-24.482,27.719
	C376.403,511.983,375.854,512,375.309,512z"/>
<path style="fill:#1E2D64;" d="M458.042,258.659c-2.735,0.211-5.555-0.124-8.312-1.079c-10.753-3.722-16.452-15.455-12.731-26.208
	l24.269-70.108l-71.851-47.399c-9.498-6.266-12.118-19.045-5.852-28.542c6.265-9.498,19.045-12.118,28.543-5.853l85.21,56.211
	c7.859,5.185,11.204,15.039,8.124,23.937l-29.503,85.232C473.171,252.846,465.973,258.048,458.042,258.659z"/>
<path style="fill:#5F6E9B;" d="M503.298,479.259l-32.424-124.641l6.253-84.984c0.47-6.389,0.031-12.812-1.303-19.078L442.71,95.033
	c-4.109-20.517-24.278-33.65-44.704-29.106l-35.512,7.899c-16.075,3.629-26.898,20.771-24.174,38.288l26.994,164.004l55.709-10.98
	l-2.595,90.696c-0.147,2.695,0.124,5.397,0.804,8.01l33.45,128.583c3.062,11.77,13.669,19.573,25.29,19.573
	c2.18,0,4.395-0.275,6.602-0.849C498.55,507.515,506.934,493.237,503.298,479.259z"/>
<path style="fill:#1E2D64;" d="M442.71,95.032c-4.109-20.517-24.278-33.649-44.703-29.106l-35.512,7.899
	c-16.075,3.629-26.898,20.771-24.174,38.288l26.994,164.004l111.179-21.912L442.71,95.032z"/>
<circle style="fill:#FFB69E;" cx="333.21" cy="63.69" r="48.1"/>
<path style="fill:#414B82;" d="M364.116,281.723c2.17-0.953,4.219-2.277,6.054-3.98l63.835-59.206
	c5.351-4.963,7.862-12.273,6.69-19.477L423.653,94.308c-1.932-11.879-13.13-19.942-25.009-18.01
	c-11.881,1.926-19.942,13.13-18.01,25.009l15.166,93.22l-55.268,51.261c-8.824,8.185-9.343,21.972-1.159,30.797
	C345.856,283.574,355.855,285.352,364.116,281.723z"/>
<path style="fill:#FFB69E;" d="M340.533,245.788c-8.824,8.185-9.343,21.972-1.159,30.797c8.174,8.813,21.966,9.351,30.797,1.158
	L340.533,245.788z"/>
<polygon style="fill:#FFFFFF;" points="377.761,270.702 370.17,277.743 340.532,245.788 348.184,238.692 "/>
<path style="fill:#823214;" d="M219.992,319.074h-4.68v-48.003h-25.067v48.003h-4.565c-4.385,0-7.939,3.554-7.939,7.94v87.476
	c0,4.385,3.555,7.939,7.939,7.939h34.312c4.385,0,7.939-3.554,7.939-7.939v-87.476C227.931,322.629,224.377,319.074,219.992,319.074
	z"/>
<path style="fill:#692810;" d="M219.992,319.074h-4.68v-48.003h-12.533v151.357h17.213c4.385,0,7.939-3.554,7.939-7.939v-87.476
	C227.931,322.629,224.377,319.074,219.992,319.074z"/>
<path style="fill:#93CBFF;" d="M83.747,512c-14.26,0-25.82-11.56-25.82-25.82V279.802c0-14.26,11.56-25.82,25.82-25.82
	s25.82,11.56,25.82,25.82V486.18C109.567,500.44,98.007,512,83.747,512z"/>
<rect x="190.25" y="271.07" style="fill:#373C41;" width="25.07" height="48"/>
<path style="fill:#919196;" d="M224.376,123.825c-0.14-27.935-23.338-50.662-51.711-50.662H57.154
	c-28.373,0-51.571,22.726-51.711,50.662c-0.001,0.036-0.001,0.073-0.001,0.108v158.072c0,11.883,9.633,21.517,21.516,21.517
	s21.516-9.633,21.516-21.517v-158c0.045-4.092,4.171-7.809,8.679-7.809h0.774v163.606h113.968V116.196h0.769
	c4.508,0,8.634,3.717,8.679,7.809v158.001c0,11.883,9.633,21.517,21.516,21.517c11.883,0,21.516-9.633,21.516-21.517V123.934
	C224.377,123.898,224.377,123.862,224.376,123.825z"/>
<path style="fill:#78BEFF;" d="M146.076,512c-14.26,0-25.82-11.56-25.82-25.82V279.802c0-14.26,11.56-25.82,25.82-25.82
	s25.82,11.56,25.82,25.82V486.18C171.896,500.44,160.336,512,146.076,512z"/>
<path style="fill:#838387;" d="M181.344,124.005v147.389h43.033v-147.46c0-0.036,0-0.072-0.001-0.108
	c-0.14-27.935-23.338-50.662-51.711-50.662h-57.753v206.638h56.984V116.196h0.769C177.173,116.196,181.299,119.913,181.344,124.005z
	"/>
<g>
	<rect x="5.435" y="271" style="fill:#FFFFFF;" width="43.03" height="10.442"/>
	<rect x="181.32" y="271" style="fill:#FFFFFF;" width="43.03" height="10.442"/>
	<polygon style="fill:#FFFFFF;" points="114.923,73.163 82.071,73.163 114.923,159.367 147.775,73.163 	"/>
</g>
<path style="fill:#414B82;" d="M129.179,102.639l-7.313-13.3l6.346-11.542c1.144-2.081-0.363-4.634-2.74-4.634h-21.097
	c-2.374,0-3.886,2.551-2.74,4.634l6.346,11.542l-7.313,13.3c-1.008,1.833-1.335,3.962-0.926,6.013l3.843,20.961l11.339,29.753
	l11.339-29.753l3.843-20.961C130.514,106.601,130.186,104.472,129.179,102.639z"/>
<path style="fill:#1E2D64;" d="M125.472,73.163c2.374,0,3.886,2.551,2.74,4.634l-6.346,11.542l7.313,13.3
	c1.008,1.833,1.335,3.962,0.926,6.013l-3.843,20.961l-11.339,29.753V73.163H125.472z"/>
<g>
	<path style="fill:#BA6746;" d="M5.423,281.441v0.554c0,11.89,9.638,21.528,21.528,21.528s21.528-9.638,21.528-21.528v-0.554H5.423z
		"/>
	<path style="fill:#BA6746;" d="M181.308,281.441v0.554c0,11.89,9.638,21.528,21.528,21.528s21.528-9.638,21.528-21.528v-0.554
		H181.308z"/>
</g>
<rect x="132.68" y="143.57" style="fill:#373C41;" width="25.501" height="7.438"/>
<circle style="fill:#BA6746;" cx="114.9" cy="44.593" r="44.593"/>
<g>
</g>
<g>
</g>
<g>
</g>
<g>
</g>
<g>
</g>
<g>
</g>
<g>
</g>
<g>
</g>
<g>
</g>
<g>
</g>
<g>
</g>
<g>
</g>
<g>
</g>
<g>
</g>
<g>
</g>
</svg>
