<?xml version="1.0" encoding="iso-8859-1"?>
<!-- Generator: Adobe Illustrator 19.0.0, SVG Export Plug-In . SVG Version: 6.00 Build 0)  -->
<svg version="1.1" id="Capa_1" xmlns="http://www.w3.org/2000/svg" xmlns:xlink="http://www.w3.org/1999/xlink" x="0px" y="0px"
	 viewBox="0 0 512 512" style="enable-background:new 0 0 512 512;" xml:space="preserve">
<path style="fill:#695A6E;" d="M143.994,240.337c-1.255,0-2.531-0.253-3.754-0.789c-4.741-2.076-6.903-7.603-4.827-12.344
	l27.607-63.052c2.076-4.742,7.603-6.903,12.344-4.827c4.741,2.076,6.903,7.603,4.827,12.344l-27.607,63.052
	C151.043,238.24,147.603,240.337,143.994,240.337z"/>
<rect x="214.34" y="98.806" transform="matrix(-0.9617 -0.274 0.274 -0.9617 399.5721 321.3521)" style="fill:#91CDFF;" width="15.777" height="67.929"/>
<circle style="fill:#64AFFF;" cx="211.145" cy="171.674" r="12.159"/>
<polygon style="fill:#6E7B85;" points="420.506,382.387 358.818,368.055 416.668,119.075 232.546,64.303 250.603,3.602 
	491.841,75.365 "/>
<circle style="fill:#C8D2DC;" cx="454.254" cy="97.222" r="51.692"/>
<circle style="fill:#5F6E9B;" cx="454.254" cy="97.222" r="22.337"/>
<path style="fill:#C8D2DC;" d="M258.361,132.036l-66.442-18.934L217,25.086c5.228-18.347,24.341-28.983,42.688-23.754
	s28.983,24.341,23.754,42.688L258.361,132.036z"/>
<path style="fill:#414B82;" d="M26.283,511.55c-11.016,0-19.954-8.923-19.971-19.942l-0.22-153.78
	c-0.016-11.029,8.913-19.984,19.942-19.999c0.01,0,0.02,0,0.029,0c11.016,0,19.954,8.923,19.971,19.942l0.22,153.779
	c0.016,11.029-8.913,19.984-19.942,19.999C26.302,511.55,26.292,511.55,26.283,511.55z"/>
<path style="fill:#5F6E9B;" d="M86.653,511.551c-0.772,0-1.551-0.044-2.337-0.136c-10.956-1.276-18.802-11.193-17.525-22.148
	l10.688-91.715l-26.166-71.341c-3.798-10.355,1.517-21.829,11.873-25.626c10.354-3.8,21.828,1.516,25.626,11.873l27.804,75.806
	c1.077,2.936,1.45,6.083,1.087,9.189l-11.24,96.438C105.279,504.06,96.648,511.551,86.653,511.551z"/>
<path id="SVGCleanerId_0" style="fill:#78BEFF;" d="M97.867,337.801H6.054V213.289c0-13.403,10.865-24.268,24.268-24.268H73.6
	c13.403,0,24.268,10.865,24.268,24.268L97.867,337.801L97.867,337.801z"/>
<g>
	<path id="SVGCleanerId_0_1_" style="fill:#78BEFF;" d="M97.867,337.801H6.054V213.289c0-13.403,10.865-24.268,24.268-24.268H73.6
		c13.403,0,24.268,10.865,24.268,24.268L97.867,337.801L97.867,337.801z"/>
</g>
<circle style="fill:#FFB69E;" cx="53.778" cy="140.95" r="35.922"/>
<path style="fill:#FFB69E;" d="M98.857,274.683c-3.256,0-6.494-0.994-9.247-2.947l-54.006-38.324
	c-7.196-5.107-8.89-15.08-3.783-22.276c5.108-7.195,15.08-8.89,22.276-3.783l46.092,32.709l45.374-23.309
	c7.847-4.031,17.479-0.938,21.511,6.911c4.032,7.848,0.938,17.48-6.911,21.511l-54.006,27.743
	C103.855,274.099,101.352,274.683,98.857,274.683z"/>
<path style="fill:#64AFFF;" d="M35.604,233.41l26.543,18.836l19.92-25.045l-27.972-19.851c-7.196-5.106-17.168-3.412-22.276,3.784
	C26.714,218.332,28.408,228.304,35.604,233.41z"/>
<path style="fill:#C8D2DC;" d="M440.93,511.747H338.394v-135.92c0-28.314,22.953-51.267,51.267-51.267s51.267,22.953,51.267,51.267
	L440.93,511.747L440.93,511.747z"/>
<circle style="fill:#5F6E9B;" cx="389.659" cy="375.218" r="22.695"/>
<circle style="fill:#BA6746;" cx="268.562" cy="255.515" r="34.179"/>
<path style="fill:#5F6E9B;" d="M249.017,512c-6.047,0-12.011-2.786-15.854-8.041c-6.397-8.747-4.491-21.023,4.256-27.42
	l40.478-29.599l-28.839,0.084c-0.02,0-0.04,0-0.059,0c-10.81,0-19.588-8.746-19.62-19.564c-0.032-10.836,8.728-19.646,19.563-19.678
	l89.211-0.261c0.02,0,0.039,0,0.058,0c8.477,0,15.997,5.444,18.642,13.503c2.65,8.075-0.2,16.94-7.061,21.957l-89.211,65.234
	C257.09,510.77,253.035,512,249.017,512z"/>
<path id="SVGCleanerId_1" style="fill:#CD2D23;" d="M277.514,447.014l-50.229,0.372c-7.284,0.054-14.289-2.797-19.465-7.921
	c-5.176-5.124-8.098-12.101-8.118-19.385l-0.217-79.381c-0.03-10.873,4.289-21.306,11.994-28.977
	c7.705-7.671,18.158-11.943,29.03-11.866l11.702,0.084c7.303,0.052,14.281,3.02,19.386,8.242s7.911,12.268,7.796,19.57
	L277.514,447.014z"/>
<g>
	<path id="SVGCleanerId_1_1_" style="fill:#CD2D23;" d="M277.514,447.014l-50.229,0.372c-7.284,0.054-14.289-2.797-19.465-7.921
		c-5.176-5.124-8.098-12.101-8.118-19.385l-0.217-79.381c-0.03-10.873,4.289-21.306,11.994-28.977
		c7.705-7.671,18.158-11.943,29.03-11.866l11.702,0.084c7.303,0.052,14.281,3.02,19.386,8.242s7.911,12.268,7.796,19.57
		L277.514,447.014z"/>
</g>
<path style="fill:#5F6E9B;" d="M199.668,407.849l0.034,12.231c0.02,7.284,2.941,14.26,8.118,19.384
	c5.176,5.124,12.181,7.975,19.465,7.921l52.22-0.372l0.616-39.165h-80.454V407.849z"/>
<path style="fill:#BA6746;" d="M288.839,367.171c-1.997,0-3.984-0.366-5.863-1.087L227.304,344.7
	c-8.43-3.238-12.638-12.696-9.401-21.126c3.238-8.43,12.697-12.639,21.126-9.401l51.632,19.831l62.113-9.442
	c8.928-1.353,17.265,4.78,18.623,13.708c1.357,8.928-4.78,17.265-13.708,18.623l-66.393,10.094
	C290.48,367.11,289.658,367.171,288.839,367.171z"/>
<path style="fill:#BE1E14;" d="M267.781,325.217l-28.752-11.043c-8.429-3.239-17.888,0.971-21.126,9.4
	c-3.238,8.431,0.971,17.889,9.401,21.127l29.705,11.409L267.781,325.217z"/>
<g>
</g>
<g>
</g>
<g>
</g>
<g>
</g>
<g>
</g>
<g>
</g>
<g>
</g>
<g>
</g>
<g>
</g>
<g>
</g>
<g>
</g>
<g>
</g>
<g>
</g>
<g>
</g>
<g>
</g>
</svg>
