<svg xmlns="http://www.w3.org/2000/svg" width="778.213" height="528.51" viewBox="0 0 778.213 528.51"><defs><style>.a{fill:#f5f5f5;}.b{fill:#ebebeb;}.c{fill:#e0e0e0;}.d{fill:#fafafa;}.e{fill:#263238;}.f{fill:#e8505b;}.g{fill:#455a64;}.h{fill:#d17d59;}.i{fill:#a05135;}.j{fill:#291563;}.k{fill:#f6fcff;}.l{fill:#ffbe9d;}.m{fill:#eb996e;}.n{fill:#fff;}.o{fill:#ffba00;}.p{fill:#f99746;}.q{opacity:0.2;}</style></defs><g transform="translate(-70.063 -68.292)"><g transform="translate(105.881 68.292)"><g transform="translate(96.149 248.574)"><rect class="a" width="586.592" height="260.087"/></g><g transform="translate(350.753 303.146)"><g transform="translate(44.776 18.92)"><rect class="b" width="9.393" height="188.916"/></g><g transform="translate(1.812)"><path class="c" d="M11.212,0H86.993A11.212,11.212,0,0,1,98.206,11.212v8.468a0,0,0,0,1,0,0H0a0,0,0,0,1,0,0V11.212A11.212,11.212,0,0,1,11.212,0Z"/></g><g transform="translate(3.624 26.051)"><rect class="c" width="94.381" height="3.211"/></g><g transform="translate(0 155.887)"><path class="b" d="M471.958,481.469h-2.552V469.45a38.913,38.913,0,0,0-38.869-38.869h-16.1a38.912,38.912,0,0,0-38.868,38.869v12.019h-2.552V469.45a41.467,41.467,0,0,1,41.42-41.421h16.1a41.466,41.466,0,0,1,41.421,41.421Z" transform="translate(-373.013 -428.029)"/></g></g><g transform="translate(81.146 241.427)"><rect class="c" width="618.05" height="18.837"/></g><g transform="translate(93.904 4.796)"><g transform="translate(0 56.312)"><rect class="b" width="155.853" height="12.05"/><g transform="translate(12.373 8.034)"><rect class="b" width="6.753" height="26.511"/></g><g transform="translate(135.65 8.034)"><rect class="b" width="5.469" height="26.511"/></g></g><g transform="translate(18.351)"><g transform="translate(0 2.641)"><path class="c" d="M191.913,74.12l-.609,9.7a11.819,11.819,0,0,1-1.573,5.893l-3.286,5.714a2.556,2.556,0,0,0-.339,1.272v30.186a.775.775,0,0,0,.776.776h16.983a.776.776,0,0,0,.776-.776V96.869a2.553,2.553,0,0,0-.375-1.332l-3.3-5.87a13.636,13.636,0,0,1-1.521-5.8L198.3,74.12Z" transform="translate(-186.106 -74.12)"/></g><g transform="translate(7.09 30.123)"><path class="d" d="M203.106,95.657H191.662v20.1h11.444" transform="translate(-191.662 -95.657)"/></g><g transform="translate(4.748)"><rect class="c" width="8.508" height="2.704" rx="0.928"/></g><g transform="translate(5.223 6.496)"><path class="d" d="M195.5,83.088h-5.3l.343-5.947H195.5Z" transform="translate(-190.199 -77.141)"/></g><g transform="translate(9.881 35.729)"><path class="c" d="M202.5,104.5a9.251,9.251,0,0,1-.257-.985,4.149,4.149,0,0,0-1.53-2.135,3.94,3.94,0,0,0-3.686-.5,3.862,3.862,0,0,0,0,7.239,3.943,3.943,0,0,0,3.688-.5,4.153,4.153,0,0,0,1.529-2.135,9.165,9.165,0,0,1,.257-.984,1.921,1.921,0,0,1-.005,1.046,4.141,4.141,0,0,1-1.5,2.446,4.376,4.376,0,0,1-4.182.7,4.447,4.447,0,0,1,0-8.39A4.377,4.377,0,0,1,201,101a4.141,4.141,0,0,1,1.5,2.446A1.929,1.929,0,0,1,202.5,104.5Z" transform="translate(-193.85 -100.05)"/></g><g transform="translate(7.54 30.679)"><path class="c" d="M203.009,96.39a18.186,18.186,0,0,1-2.946.174c-1.871.051-4.536.093-7.716.12l.295-.293c.011,2.735.024,5.853.038,9.163-.014,3.31-.027,6.43-.038,9.164l-.295-.293c3.18.028,5.845.069,7.716.12a18.369,18.369,0,0,1,2.946.174,18.072,18.072,0,0,1-2.946.175c-1.871.051-4.536.092-7.716.12l-.292,0v-.3c-.012-2.735-.024-5.854-.038-9.164.014-3.31.027-6.429.038-9.163v-.3l.292,0c3.18.028,5.845.07,7.716.12A18.255,18.255,0,0,1,203.009,96.39Z" transform="translate(-192.015 -96.093)"/></g><g transform="translate(5.58 7.726)"><path class="c" d="M194.108,78.437c0,.184-.812.333-1.814.333s-1.815-.149-1.815-.333.813-.332,1.815-.332S194.108,78.254,194.108,78.437Z" transform="translate(-190.479 -78.105)"/></g><g transform="translate(5.58 9.882)"><path class="c" d="M194.108,80.126c0,.184-.812.333-1.814.333s-1.815-.149-1.815-.333.813-.332,1.815-.332S194.108,79.942,194.108,80.126Z" transform="translate(-190.479 -79.794)"/></g></g><g transform="translate(46.319)"><g transform="translate(0 2.641)"><path class="c" d="M213.832,74.12l-.61,9.7a11.819,11.819,0,0,1-1.573,5.893l-3.286,5.714a2.556,2.556,0,0,0-.339,1.272v30.186a.775.775,0,0,0,.776.776h16.983a.775.775,0,0,0,.776-.776V96.869a2.553,2.553,0,0,0-.375-1.332l-3.3-5.87a13.618,13.618,0,0,1-1.52-5.8l-1.141-9.749Z" transform="translate(-208.024 -74.12)"/></g><g transform="translate(7.09 30.123)"><path class="d" d="M225.024,95.657H213.581v20.1h11.444" transform="translate(-213.581 -95.657)"/></g><g transform="translate(4.749)"><rect class="c" width="8.508" height="2.704" rx="0.928"/></g><g transform="translate(5.223 6.496)"><path class="d" d="M217.416,83.088h-5.3l.343-5.947h4.956Z" transform="translate(-212.117 -77.141)"/></g><g transform="translate(9.883 35.729)"><path class="c" d="M224.42,104.5a9.108,9.108,0,0,1-.255-.985,4.164,4.164,0,0,0-1.53-2.135,3.943,3.943,0,0,0-3.688-.5,3.863,3.863,0,0,0,0,7.239,3.943,3.943,0,0,0,3.688-.5,4.164,4.164,0,0,0,1.53-2.135,9.024,9.024,0,0,1,.255-.984,1.921,1.921,0,0,1-.005,1.046,4.141,4.141,0,0,1-1.5,2.446,4.374,4.374,0,0,1-4.18.7,4.447,4.447,0,0,1,0-8.39,4.374,4.374,0,0,1,4.18.7,4.141,4.141,0,0,1,1.5,2.446A1.928,1.928,0,0,1,224.42,104.5Z" transform="translate(-215.769 -100.05)"/></g><g transform="translate(7.54 30.679)"><path class="c" d="M224.928,96.39a18.213,18.213,0,0,1-2.948.174c-1.871.051-4.536.093-7.715.12l.293-.293c.012,2.735.024,5.853.038,9.163-.014,3.31-.027,6.43-.038,9.164l-.293-.293c3.18.028,5.844.069,7.715.12a18.4,18.4,0,0,1,2.948.174,18.1,18.1,0,0,1-2.948.175c-1.871.051-4.535.092-7.715.12l-.294,0v-.3c-.011-2.735-.024-5.854-.038-9.164.014-3.31.027-6.429.038-9.163v-.3l.294,0c3.179.028,5.844.07,7.715.12A18.282,18.282,0,0,1,224.928,96.39Z" transform="translate(-213.933 -96.093)"/></g><g transform="translate(5.581 7.726)"><path class="c" d="M216.027,78.437c0,.184-.813.333-1.815.333s-1.815-.149-1.815-.333.812-.332,1.815-.332S216.027,78.254,216.027,78.437Z" transform="translate(-212.398 -78.105)"/></g><g transform="translate(5.581 9.882)"><path class="c" d="M216.027,80.126c0,.184-.813.333-1.815.333s-1.815-.149-1.815-.333.812-.332,1.815-.332S216.027,79.942,216.027,80.126Z" transform="translate(-212.398 -79.794)"/></g></g><g transform="translate(67.375)"><g transform="translate(0 2.641)"><path class="c" d="M230.333,74.12l-.61,9.7a11.819,11.819,0,0,1-1.573,5.893l-3.284,5.714a2.544,2.544,0,0,0-.341,1.272v30.186a.775.775,0,0,0,.776.776h16.983a.775.775,0,0,0,.776-.776V96.869a2.553,2.553,0,0,0-.375-1.332l-3.3-5.87a13.617,13.617,0,0,1-1.52-5.8L236.72,74.12Z" transform="translate(-224.525 -74.12)"/></g><g transform="translate(7.091 30.123)"><path class="d" d="M241.526,95.657H230.082v20.1h11.444" transform="translate(-230.082 -95.657)"/></g><g transform="translate(4.749)"><rect class="c" width="8.508" height="2.704" rx="0.928"/></g><g transform="translate(5.224 6.496)"><path class="d" d="M233.918,83.088h-5.3l.343-5.947h4.956Z" transform="translate(-228.619 -77.141)"/></g><g transform="translate(9.883 35.729)"><path class="c" d="M240.921,104.5a9.1,9.1,0,0,1-.255-.985,4.156,4.156,0,0,0-1.53-2.135,3.941,3.941,0,0,0-3.686-.5,3.862,3.862,0,0,0,0,7.239,3.941,3.941,0,0,0,3.686-.5,4.156,4.156,0,0,0,1.53-2.135,9.012,9.012,0,0,1,.255-.984,1.927,1.927,0,0,1,0,1.046,4.144,4.144,0,0,1-1.5,2.446,4.374,4.374,0,0,1-4.18.7,4.447,4.447,0,0,1,0-8.39,4.374,4.374,0,0,1,4.18.7,4.144,4.144,0,0,1,1.5,2.446A1.935,1.935,0,0,1,240.921,104.5Z" transform="translate(-232.27 -100.05)"/></g><g transform="translate(7.541 30.679)"><path class="c" d="M241.429,96.39a18.194,18.194,0,0,1-2.948.174c-1.871.051-4.536.093-7.715.12l.295-.293c.01,2.735.024,5.853.037,9.163-.013,3.31-.027,6.43-.037,9.164l-.295-.293c3.18.028,5.845.069,7.716.12a18.369,18.369,0,0,1,2.946.174,18.072,18.072,0,0,1-2.946.175c-1.871.051-4.536.092-7.716.12l-.294,0v-.3c-.011-2.735-.024-5.854-.037-9.164.013-3.31.026-6.429.037-9.163v-.3l.294,0c3.179.028,5.844.07,7.715.12A18.264,18.264,0,0,1,241.429,96.39Z" transform="translate(-230.435 -96.093)"/></g><g transform="translate(5.581 7.726)"><path class="c" d="M232.528,78.437c0,.184-.813.333-1.815.333s-1.814-.149-1.814-.333.812-.332,1.814-.332S232.528,78.254,232.528,78.437Z" transform="translate(-228.899 -78.105)"/></g><g transform="translate(5.581 9.882)"><path class="c" d="M232.528,80.126c0,.184-.813.333-1.815.333s-1.814-.149-1.814-.333.812-.332,1.814-.332S232.528,79.942,232.528,80.126Z" transform="translate(-228.899 -79.794)"/></g></g><g transform="translate(108.14)"><g transform="translate(0 2.641)"><path class="c" d="M262.28,74.12l-.61,9.7a11.818,11.818,0,0,1-1.573,5.893l-3.286,5.714a2.556,2.556,0,0,0-.339,1.272v30.186a.775.775,0,0,0,.776.776H274.23a.775.775,0,0,0,.776-.776V96.869a2.553,2.553,0,0,0-.375-1.332l-3.3-5.87a13.617,13.617,0,0,1-1.52-5.8l-1.141-9.749Z" transform="translate(-256.472 -74.12)"/></g><g transform="translate(7.09 30.123)"><path class="d" d="M273.472,95.657H262.028v20.1h11.444" transform="translate(-262.028 -95.657)"/></g><g transform="translate(4.748)"><rect class="c" width="8.508" height="2.704" rx="0.928"/></g><g transform="translate(5.223 6.496)"><path class="d" d="M265.864,83.088h-5.3l.343-5.947h4.956Z" transform="translate(-260.565 -77.141)"/></g><g transform="translate(9.883 35.729)"><path class="c" d="M272.868,104.5a9.238,9.238,0,0,1-.257-.985,4.153,4.153,0,0,0-1.529-2.135,3.943,3.943,0,0,0-3.688-.5,3.862,3.862,0,0,0,0,7.239,3.943,3.943,0,0,0,3.688-.5,4.164,4.164,0,0,0,1.53-2.135,9,9,0,0,1,.255-.984,1.921,1.921,0,0,1-.005,1.046,4.141,4.141,0,0,1-1.5,2.446,4.374,4.374,0,0,1-4.18.7,4.447,4.447,0,0,1,0-8.39,4.374,4.374,0,0,1,4.18.7,4.141,4.141,0,0,1,1.5,2.446A1.929,1.929,0,0,1,272.868,104.5Z" transform="translate(-264.217 -100.05)"/></g><g transform="translate(7.54 30.679)"><path class="c" d="M273.375,96.39a18.186,18.186,0,0,1-2.946.174c-1.871.051-4.536.093-7.715.12l.293-.293c.011,2.735.024,5.853.038,9.163-.014,3.31-.027,6.43-.038,9.164l-.293-.293c3.179.028,5.844.069,7.715.12a18.369,18.369,0,0,1,2.946.174,18.072,18.072,0,0,1-2.946.175c-1.871.051-4.536.092-7.715.12l-.294,0v-.3c-.011-2.735-.024-5.854-.038-9.164.014-3.31.027-6.429.038-9.163v-.3l.294,0c3.179.028,5.844.07,7.715.12A18.255,18.255,0,0,1,273.375,96.39Z" transform="translate(-262.381 -96.093)"/></g><g transform="translate(5.58 7.726)"><path class="c" d="M264.474,78.437c0,.184-.812.333-1.815.333s-1.814-.149-1.814-.333.813-.332,1.814-.332S264.474,78.254,264.474,78.437Z" transform="translate(-260.845 -78.105)"/></g><g transform="translate(5.58 9.882)"><path class="c" d="M264.474,80.126c0,.184-.812.333-1.815.333s-1.814-.149-1.814-.333.813-.332,1.814-.332S264.474,79.942,264.474,80.126Z" transform="translate(-260.845 -79.794)"/></g></g></g><g transform="translate(578.791 183.408)"><g transform="translate(0 2.641)"><path class="c" d="M557.531,214.1l-.61,9.7a11.819,11.819,0,0,1-1.573,5.893l-3.286,5.714a2.556,2.556,0,0,0-.339,1.272v30.187a.775.775,0,0,0,.776.775h16.983a.775.775,0,0,0,.776-.775V236.845a2.552,2.552,0,0,0-.375-1.332l-3.3-5.868a13.63,13.63,0,0,1-1.52-5.8l-1.142-9.749Z" transform="translate(-551.723 -214.096)"/></g><g transform="translate(7.09 30.123)"><path class="d" d="M568.723,235.633H557.279v20.1h11.444" transform="translate(-557.279 -235.633)"/></g><g transform="translate(4.748 0)"><rect class="c" width="8.508" height="2.704" rx="0.928"/></g><g transform="translate(5.223 6.496)"><path class="d" d="M561.115,223.064h-5.3l.343-5.947h4.956Z" transform="translate(-555.816 -217.117)"/></g><g transform="translate(9.883 35.729)"><path class="c" d="M568.119,244.472a9.325,9.325,0,0,1-.256-.984,4.155,4.155,0,0,0-1.529-2.136,3.94,3.94,0,0,0-3.688-.5,3.861,3.861,0,0,0,0,7.238,3.94,3.94,0,0,0,3.688-.5,4.153,4.153,0,0,0,1.529-2.135,9.207,9.207,0,0,1,.256-.984,1.922,1.922,0,0,1-.005,1.046,4.141,4.141,0,0,1-1.5,2.446,4.374,4.374,0,0,1-4.18.7,4.447,4.447,0,0,1,0-8.39,4.375,4.375,0,0,1,4.18.7,4.141,4.141,0,0,1,1.5,2.446A1.926,1.926,0,0,1,568.119,244.472Z" transform="translate(-559.468 -240.026)"/></g><g transform="translate(7.54 30.679)"><path class="c" d="M568.626,236.366a18.249,18.249,0,0,1-2.946.175c-1.871.05-4.536.092-7.715.12l.294-.295c.011,2.735.024,5.854.038,9.163-.014,3.31-.027,6.43-.038,9.166l-.294-.295c3.179.028,5.844.069,7.715.12a18.069,18.069,0,0,1,2.946.175,18.37,18.37,0,0,1-2.946.174c-1.871.051-4.536.092-7.715.12l-.293,0v-.3c-.011-2.736-.024-5.856-.038-9.166.014-3.309.027-6.429.038-9.163v-.3l.293,0c3.179.028,5.844.07,7.715.12A18.258,18.258,0,0,1,568.626,236.366Z" transform="translate(-557.632 -236.069)"/></g><g transform="translate(5.58 7.726)"><path class="c" d="M559.725,218.414c0,.182-.811.332-1.814.332s-1.814-.149-1.814-.332.813-.333,1.814-.333S559.725,218.23,559.725,218.414Z" transform="translate(-556.096 -218.081)"/></g><g transform="translate(5.58 9.881)"><path class="c" d="M559.725,220.1c0,.184-.811.333-1.814.333s-1.814-.149-1.814-.333.813-.332,1.814-.332S559.725,219.919,559.725,220.1Z" transform="translate(-556.096 -219.77)"/></g></g><g transform="translate(354.738)"><g transform="translate(0 56.312)"><rect class="b" width="293.53" height="12.05"/><g transform="translate(12.373 8.034)"><rect class="b" width="6.753" height="26.511"/></g><g transform="translate(138.384 8.034)"><rect class="b" width="5.469" height="26.511"/></g><g transform="translate(273.438 8.034)"><rect class="b" width="5.469" height="26.511"/></g></g><g transform="translate(21.626)"><g transform="translate(0 2.642)"><path class="c" d="M398.892,70.362l-.61,9.7a11.819,11.819,0,0,1-1.573,5.893l-3.286,5.714a2.556,2.556,0,0,0-.339,1.272v30.186a.775.775,0,0,0,.776.776h16.983a.776.776,0,0,0,.776-.776V93.11a2.552,2.552,0,0,0-.375-1.331l-3.3-5.87a13.617,13.617,0,0,1-1.52-5.8l-1.141-9.749Z" transform="translate(-393.084 -70.362)"/></g><g transform="translate(7.09 30.123)"><path class="d" d="M410.084,91.9H398.641V112h11.444" transform="translate(-398.641 -91.899)"/></g><g transform="translate(4.748)"><rect class="c" width="8.508" height="2.704" rx="0.928"/></g><g transform="translate(5.223 6.496)"><path class="d" d="M402.476,79.33h-5.3l.343-5.947h4.956Z" transform="translate(-397.177 -73.383)"/></g><g transform="translate(9.883 35.729)"><path class="c" d="M409.481,100.736a8.979,8.979,0,0,1-.255-.984,4.164,4.164,0,0,0-1.53-2.135,3.943,3.943,0,0,0-3.688-.5,3.861,3.861,0,0,0,0,7.238,3.94,3.94,0,0,0,3.688-.5,4.169,4.169,0,0,0,1.53-2.135,9.066,9.066,0,0,1,.255-.985,1.927,1.927,0,0,1-.005,1.048,4.145,4.145,0,0,1-1.5,2.446,4.374,4.374,0,0,1-4.18.7,4.447,4.447,0,0,1,0-8.39,4.374,4.374,0,0,1,4.18.7,4.141,4.141,0,0,1,1.5,2.446A1.923,1.923,0,0,1,409.481,100.736Z" transform="translate(-400.829 -96.292)"/></g><g transform="translate(7.54 30.68)"><path class="c" d="M409.987,92.632a18.374,18.374,0,0,1-2.946.174c-1.871.051-4.536.092-7.715.12l.294-.293c.011,2.735.024,5.853.038,9.163-.014,3.31-.027,6.43-.038,9.164l-.294-.295c3.179.028,5.844.07,7.715.121a18.184,18.184,0,0,1,2.946.174,18.254,18.254,0,0,1-2.946.175c-1.871.05-4.536.092-7.715.12l-.293,0v-.3c-.011-2.735-.024-5.854-.038-9.164.014-3.31.027-6.429.038-9.163v-.3l.293,0c3.179.028,5.844.069,7.715.12A18.068,18.068,0,0,1,409.987,92.632Z" transform="translate(-398.993 -92.335)"/></g><g transform="translate(5.58 7.727)"><path class="c" d="M401.087,74.679c0,.184-.813.333-1.814.333s-1.816-.149-1.816-.333.813-.332,1.816-.332S401.087,74.5,401.087,74.679Z" transform="translate(-397.457 -74.347)"/></g><g transform="translate(5.58 9.88)"><path class="c" d="M401.087,76.368c0,.184-.813.332-1.814.332s-1.816-.148-1.816-.332.813-.333,1.816-.333S401.087,76.184,401.087,76.368Z" transform="translate(-397.457 -76.035)"/></g></g><g transform="translate(48.721)"><g transform="translate(0 2.642)"><path class="c" d="M420.125,70.362l-.609,9.7a11.831,11.831,0,0,1-1.573,5.893l-3.286,5.714a2.543,2.543,0,0,0-.339,1.272v30.186a.775.775,0,0,0,.775.776h16.984a.775.775,0,0,0,.775-.776V93.11a2.54,2.54,0,0,0-.375-1.331l-3.3-5.87a13.635,13.635,0,0,1-1.52-5.8l-1.141-9.749Z" transform="translate(-414.318 -70.362)"/></g><g transform="translate(7.09 30.123)"><path class="d" d="M431.318,91.9H419.874V112h11.444" transform="translate(-419.874 -91.899)"/></g><g transform="translate(4.748)"><rect class="c" width="8.508" height="2.704" rx="0.928"/></g><g transform="translate(5.223 6.496)"><path class="d" d="M423.71,79.33h-5.3l.343-5.947h4.956Z" transform="translate(-418.411 -73.383)"/></g><g transform="translate(9.881 35.729)"><path class="c" d="M430.713,100.736a9.816,9.816,0,0,1-.255-.984,4.148,4.148,0,0,0-1.53-2.135,3.941,3.941,0,0,0-3.686-.5,3.861,3.861,0,0,0,0,7.238,3.937,3.937,0,0,0,3.686-.5,4.153,4.153,0,0,0,1.53-2.135,9.917,9.917,0,0,1,.255-.985,1.9,1.9,0,0,1,0,1.048,4.144,4.144,0,0,1-1.5,2.446,4.376,4.376,0,0,1-4.181.7,4.447,4.447,0,0,1,0-8.39,4.374,4.374,0,0,1,4.18.7,4.137,4.137,0,0,1,1.5,2.446A1.9,1.9,0,0,1,430.713,100.736Z" transform="translate(-422.062 -96.292)"/></g><g transform="translate(7.54 30.68)"><path class="c" d="M431.221,92.632a18.373,18.373,0,0,1-2.946.174c-1.871.051-4.536.092-7.716.12l.295-.293c.012,2.735.024,5.853.038,9.163-.014,3.31-.027,6.43-.038,9.164l-.295-.295c3.18.028,5.845.07,7.716.121a18.183,18.183,0,0,1,2.946.174,18.253,18.253,0,0,1-2.946.175c-1.871.05-4.536.092-7.716.12l-.292,0v-.3c-.012-2.735-.024-5.854-.038-9.164.014-3.31.027-6.429.038-9.163v-.3l.292,0c3.18.028,5.845.069,7.716.12A18.067,18.067,0,0,1,431.221,92.632Z" transform="translate(-420.227 -92.335)"/></g><g transform="translate(5.58 7.727)"><path class="c" d="M422.32,74.679c0,.184-.813.333-1.815.333s-1.814-.149-1.814-.333.813-.332,1.814-.332S422.32,74.5,422.32,74.679Z" transform="translate(-418.691 -74.347)"/></g><g transform="translate(5.58 9.88)"><path class="c" d="M422.32,76.368c0,.184-.813.332-1.815.332s-1.814-.148-1.814-.332.813-.333,1.814-.333S422.32,76.184,422.32,76.368Z" transform="translate(-418.691 -76.035)"/></g></g><g transform="translate(101.279)"><g transform="translate(0 2.642)"><path class="c" d="M461.315,70.362l-.61,9.7a11.819,11.819,0,0,1-1.573,5.893l-3.284,5.714a2.544,2.544,0,0,0-.341,1.272v30.186a.776.776,0,0,0,.776.776h16.983a.776.776,0,0,0,.776-.776V93.11a2.54,2.54,0,0,0-.375-1.331l-3.3-5.87a13.617,13.617,0,0,1-1.52-5.8L467.7,70.362Z" transform="translate(-455.507 -70.362)"/></g><g transform="translate(7.091 30.123)"><path class="d" d="M472.508,91.9H461.064V112h11.444" transform="translate(-461.064 -91.899)"/></g><g transform="translate(4.749)"><rect class="c" width="8.508" height="2.704" rx="0.928"/></g><g transform="translate(5.224 6.496)"><path class="d" d="M464.9,79.33h-5.3l.343-5.947H464.9Z" transform="translate(-459.601 -73.383)"/></g><g transform="translate(9.883 35.729)"><path class="c" d="M471.9,100.736a8.993,8.993,0,0,1-.255-.984,4.157,4.157,0,0,0-1.53-2.135,3.941,3.941,0,0,0-3.686-.5,3.861,3.861,0,0,0,0,7.238,3.937,3.937,0,0,0,3.686-.5,4.162,4.162,0,0,0,1.53-2.135,9.08,9.08,0,0,1,.255-.985,1.933,1.933,0,0,1,0,1.048,4.151,4.151,0,0,1-1.5,2.446,4.377,4.377,0,0,1-4.182.7,4.447,4.447,0,0,1,0-8.39,4.374,4.374,0,0,1,4.18.7,4.144,4.144,0,0,1,1.5,2.446A1.929,1.929,0,0,1,471.9,100.736Z" transform="translate(-463.252 -96.292)"/></g><g transform="translate(7.541 30.68)"><path class="c" d="M472.411,92.632a18.373,18.373,0,0,1-2.946.174c-1.872.051-4.536.092-7.716.12l.295-.293c.012,2.735.024,5.853.037,9.163-.013,3.31-.026,6.43-.037,9.164l-.295-.295c3.18.028,5.845.07,7.716.121a18.183,18.183,0,0,1,2.946.174,18.253,18.253,0,0,1-2.946.175c-1.871.05-4.536.092-7.716.12l-.294,0v-.3c-.012-2.735-.024-5.854-.037-9.164.013-3.31.026-6.429.037-9.163v-.3l.294,0c3.18.028,5.844.069,7.716.12A18.068,18.068,0,0,1,472.411,92.632Z" transform="translate(-461.417 -92.335)"/></g><g transform="translate(5.581 7.727)"><path class="c" d="M463.51,74.679c0,.184-.813.333-1.815.333s-1.815-.149-1.815-.333.812-.332,1.815-.332S463.51,74.5,463.51,74.679Z" transform="translate(-459.881 -74.347)"/></g><g transform="translate(5.581 9.88)"><path class="c" d="M463.51,76.368c0,.184-.813.332-1.815.332s-1.815-.148-1.815-.332.812-.333,1.815-.333S463.51,76.184,463.51,76.368Z" transform="translate(-459.881 -76.035)"/></g></g><g transform="translate(126.745)"><g transform="translate(0 2.642)"><path class="c" d="M481.271,70.362l-.609,9.7a11.819,11.819,0,0,1-1.573,5.893L475.8,91.665a2.556,2.556,0,0,0-.339,1.272v30.186a.776.776,0,0,0,.776.776h16.983a.776.776,0,0,0,.776-.776V93.11a2.552,2.552,0,0,0-.375-1.331l-3.3-5.87a13.617,13.617,0,0,1-1.52-5.8l-1.142-9.749Z" transform="translate(-475.464 -70.362)"/></g><g transform="translate(7.09 30.123)"><path class="d" d="M492.464,91.9H481.02V112h11.444" transform="translate(-481.02 -91.899)"/></g><g transform="translate(4.748)"><rect class="c" width="8.508" height="2.704" rx="0.928"/></g><g transform="translate(5.223 6.496)"><path class="d" d="M484.856,79.33h-5.3l.343-5.947h4.956Z" transform="translate(-479.557 -73.383)"/></g><g transform="translate(9.881 35.729)"><path class="c" d="M491.861,100.736a9.156,9.156,0,0,1-.256-.984,4.149,4.149,0,0,0-1.53-2.135,3.94,3.94,0,0,0-3.686-.5,3.861,3.861,0,0,0,0,7.238,3.94,3.94,0,0,0,3.688-.5,4.158,4.158,0,0,0,1.529-2.135,9.246,9.246,0,0,1,.256-.985,1.926,1.926,0,0,1-.005,1.048,4.144,4.144,0,0,1-1.5,2.446,4.376,4.376,0,0,1-4.181.7,4.447,4.447,0,0,1,0-8.39,4.376,4.376,0,0,1,4.181.7,4.14,4.14,0,0,1,1.5,2.446A1.922,1.922,0,0,1,491.861,100.736Z" transform="translate(-483.208 -96.292)"/></g><g transform="translate(7.54 30.68)"><path class="c" d="M492.367,92.632a18.373,18.373,0,0,1-2.946.174c-1.871.051-4.536.092-7.715.12l.294-.293c.011,2.735.024,5.853.038,9.163-.014,3.31-.027,6.43-.038,9.164l-.294-.295c3.179.028,5.844.07,7.715.121a18.183,18.183,0,0,1,2.946.174,18.253,18.253,0,0,1-2.946.175c-1.871.05-4.536.092-7.715.12l-.293,0v-.3c-.011-2.735-.024-5.854-.038-9.164.014-3.31.027-6.429.038-9.163v-.3l.293,0c3.179.028,5.844.069,7.715.12A18.068,18.068,0,0,1,492.367,92.632Z" transform="translate(-481.373 -92.335)"/></g><g transform="translate(5.58 7.727)"><path class="c" d="M483.466,74.679c0,.184-.812.333-1.815.333s-1.814-.149-1.814-.333.813-.332,1.814-.332S483.466,74.5,483.466,74.679Z" transform="translate(-479.837 -74.347)"/></g><g transform="translate(5.58 9.88)"><path class="c" d="M483.466,76.368c0,.184-.812.332-1.815.332s-1.814-.148-1.814-.332.813-.333,1.814-.333S483.466,76.184,483.466,76.368Z" transform="translate(-479.837 -76.035)"/></g></g><g transform="translate(155.228)"><g transform="translate(0 2.642)"><path class="c" d="M503.595,70.362l-.61,9.7a11.819,11.819,0,0,1-1.573,5.893l-3.284,5.714a2.544,2.544,0,0,0-.341,1.272v30.186a.775.775,0,0,0,.776.776h16.983a.775.775,0,0,0,.776-.776V93.11a2.552,2.552,0,0,0-.375-1.331l-3.3-5.87a13.616,13.616,0,0,1-1.52-5.8l-1.141-9.749Z" transform="translate(-497.786 -70.362)"/></g><g transform="translate(7.091 30.123)"><path class="d" d="M514.787,91.9H503.343V112h11.444" transform="translate(-503.343 -91.899)"/></g><g transform="translate(4.749)"><rect class="c" width="8.508" height="2.704" rx="0.928"/></g><g transform="translate(5.223 6.496)"><path class="d" d="M507.179,79.33h-5.3l.343-5.947h4.956Z" transform="translate(-501.879 -73.383)"/></g><g transform="translate(9.883 35.729)"><path class="c" d="M514.182,100.736a9.053,9.053,0,0,1-.255-.984,4.164,4.164,0,0,0-1.53-2.135,3.941,3.941,0,0,0-3.686-.5,3.861,3.861,0,0,0,0,7.238,3.937,3.937,0,0,0,3.686-.5,4.162,4.162,0,0,0,1.53-2.135,9.141,9.141,0,0,1,.255-.985,1.925,1.925,0,0,1-.005,1.048,4.138,4.138,0,0,1-1.5,2.446,4.374,4.374,0,0,1-4.18.7,4.447,4.447,0,0,1,0-8.39,4.374,4.374,0,0,1,4.18.7,4.141,4.141,0,0,1,1.5,2.446A1.921,1.921,0,0,1,514.182,100.736Z" transform="translate(-505.531 -96.292)"/></g><g transform="translate(7.541 30.68)"><path class="c" d="M514.69,92.632a18.382,18.382,0,0,1-2.948.174c-1.871.051-4.536.092-7.715.12l.295-.293c.01,2.735.024,5.853.037,9.163-.013,3.31-.027,6.43-.037,9.164l-.295-.295c3.18.028,5.845.07,7.716.121a18.183,18.183,0,0,1,2.946.174,18.253,18.253,0,0,1-2.946.175c-1.871.05-4.536.092-7.716.12l-.293,0v-.3c-.012-2.735-.024-5.854-.037-9.164.013-3.31.025-6.429.037-9.163v-.3l.293,0c3.179.028,5.844.069,7.715.12A18.077,18.077,0,0,1,514.69,92.632Z" transform="translate(-503.696 -92.335)"/></g><g transform="translate(5.581 7.727)"><path class="c" d="M505.789,74.679c0,.184-.813.333-1.815.333s-1.815-.149-1.815-.333.812-.332,1.815-.332S505.789,74.5,505.789,74.679Z" transform="translate(-502.16 -74.347)"/></g><g transform="translate(5.581 9.88)"><path class="c" d="M505.789,76.368c0,.184-.813.332-1.815.332s-1.815-.148-1.815-.332.812-.333,1.815-.333S505.789,76.184,505.789,76.368Z" transform="translate(-502.16 -76.035)"/></g></g><g transform="translate(200.172)"><g transform="translate(0 2.642)"><path class="c" d="M538.815,70.362l-.609,9.7a11.818,11.818,0,0,1-1.573,5.893l-3.286,5.714a2.556,2.556,0,0,0-.339,1.272v30.186a.776.776,0,0,0,.776.776h16.983a.776.776,0,0,0,.776-.776V93.11a2.552,2.552,0,0,0-.375-1.331l-3.3-5.87a13.617,13.617,0,0,1-1.52-5.8L545.2,70.362Z" transform="translate(-533.008 -70.362)"/></g><g transform="translate(7.09 30.123)"><path class="d" d="M550.008,91.9H538.564V112h11.444" transform="translate(-538.564 -91.899)"/></g><g transform="translate(4.748)"><rect class="c" width="8.508" height="2.704" rx="0.928"/></g><g transform="translate(5.223 6.496)"><path class="d" d="M542.4,79.33h-5.3l.343-5.947H542.4Z" transform="translate(-537.101 -73.383)"/></g><g transform="translate(9.881 35.729)"><path class="c" d="M549.4,100.736a9.109,9.109,0,0,1-.257-.984,4.149,4.149,0,0,0-1.53-2.135,3.94,3.94,0,0,0-3.686-.5,3.861,3.861,0,0,0,0,7.238,3.94,3.94,0,0,0,3.688-.5,4.158,4.158,0,0,0,1.529-2.135,9.2,9.2,0,0,1,.257-.985,1.929,1.929,0,0,1-.005,1.048,4.145,4.145,0,0,1-1.5,2.446,4.374,4.374,0,0,1-4.18.7,4.447,4.447,0,0,1,0-8.39,4.375,4.375,0,0,1,4.18.7,4.141,4.141,0,0,1,1.5,2.446A1.925,1.925,0,0,1,549.4,100.736Z" transform="translate(-540.752 -96.292)"/></g><g transform="translate(7.54 30.68)"><path class="c" d="M549.911,92.632a18.374,18.374,0,0,1-2.946.174c-1.871.051-4.536.092-7.715.12l.294-.293c.011,2.735.024,5.853.038,9.163-.014,3.31-.027,6.43-.038,9.164l-.294-.295c3.179.028,5.844.07,7.715.121a18.185,18.185,0,0,1,2.946.174,18.255,18.255,0,0,1-2.946.175c-1.871.05-4.536.092-7.715.12l-.293,0v-.3c-.012-2.735-.024-5.854-.038-9.164.014-3.31.027-6.429.038-9.163v-.3l.293,0c3.179.028,5.844.069,7.715.12A18.069,18.069,0,0,1,549.911,92.632Z" transform="translate(-538.917 -92.335)"/></g><g transform="translate(5.58 7.727)"><path class="c" d="M541.01,74.679c0,.184-.812.333-1.814.333s-1.815-.149-1.815-.333.813-.332,1.815-.332S541.01,74.5,541.01,74.679Z" transform="translate(-537.381 -74.347)"/></g><g transform="translate(5.58 9.88)"><path class="c" d="M541.01,76.368c0,.184-.812.332-1.814.332s-1.815-.148-1.815-.332.813-.333,1.815-.333S541.01,76.184,541.01,76.368Z" transform="translate(-537.381 -76.035)"/></g></g><g transform="translate(227.961)"><g transform="translate(0 2.642)"><path class="c" d="M560.593,70.362l-.609,9.7a11.819,11.819,0,0,1-1.573,5.893l-3.286,5.714a2.556,2.556,0,0,0-.339,1.272v30.186a.775.775,0,0,0,.776.776h16.983a.775.775,0,0,0,.776-.776V93.11a2.552,2.552,0,0,0-.375-1.331l-3.3-5.87a13.618,13.618,0,0,1-1.52-5.8l-1.142-9.749Z" transform="translate(-554.786 -70.362)"/></g><g transform="translate(7.09 30.123)"><path class="d" d="M571.786,91.9H560.342V112h11.444" transform="translate(-560.342 -91.899)"/></g><g transform="translate(4.748)"><rect class="c" width="8.508" height="2.704" rx="0.928"/></g><g transform="translate(5.223 6.496)"><path class="d" d="M564.178,79.33h-5.3l.343-5.947h4.956Z" transform="translate(-558.879 -73.383)"/></g><g transform="translate(9.883 35.729)"><path class="c" d="M571.182,100.736a9.192,9.192,0,0,1-.256-.984,4.148,4.148,0,0,0-1.53-2.135,3.94,3.94,0,0,0-3.687-.5,3.861,3.861,0,0,0,0,7.238,3.94,3.94,0,0,0,3.688-.5,4.157,4.157,0,0,0,1.529-2.135,9.283,9.283,0,0,1,.256-.985,1.926,1.926,0,0,1-.005,1.048,4.144,4.144,0,0,1-1.5,2.446,4.374,4.374,0,0,1-4.18.7,4.447,4.447,0,0,1,0-8.39,4.375,4.375,0,0,1,4.18.7,4.14,4.14,0,0,1,1.5,2.446A1.922,1.922,0,0,1,571.182,100.736Z" transform="translate(-562.531 -96.292)"/></g><g transform="translate(7.54 30.68)"><path class="c" d="M571.689,92.632a18.373,18.373,0,0,1-2.946.174c-1.871.051-4.536.092-7.715.12l.293-.293c.011,2.735.024,5.853.038,9.163-.014,3.31-.027,6.43-.038,9.164l-.293-.295c3.179.028,5.844.07,7.715.121a18.183,18.183,0,0,1,2.946.174,18.253,18.253,0,0,1-2.946.175c-1.871.05-4.536.092-7.715.12l-.294,0v-.3c-.011-2.735-.024-5.854-.038-9.164.014-3.31.027-6.429.038-9.163v-.3l.294,0c3.179.028,5.844.069,7.715.12A18.067,18.067,0,0,1,571.689,92.632Z" transform="translate(-560.695 -92.335)"/></g><g transform="translate(5.58 7.727)"><path class="c" d="M562.788,74.679c0,.184-.812.333-1.815.333s-1.815-.149-1.815-.333.813-.332,1.815-.332S562.788,74.5,562.788,74.679Z" transform="translate(-559.159 -74.347)"/></g><g transform="translate(5.58 9.88)"><path class="c" d="M562.788,76.368c0,.184-.812.332-1.815.332s-1.815-.148-1.815-.332.813-.333,1.815-.333S562.788,76.184,562.788,76.368Z" transform="translate(-559.159 -76.035)"/></g></g></g><g transform="translate(494.748 174.484)"><g transform="translate(2.857 0)"><path class="d" d="M488.926,219.473a4.984,4.984,0,0,1,5.835-7.479,7.067,7.067,0,0,1,13.055-3.666,10.787,10.787,0,0,1,9.564-1.618c3.45,1.095,6.094,3.854,8.363,6.675a15.52,15.52,0,0,1,3.462,6.261c.5,2.356-.182,5.116-2.2,6.423" transform="translate(-488.099 -205.033)"/></g><g transform="translate(0 12.515)"><path class="c" d="M0,0H46.786a0,0,0,0,1,0,0V40.307A12.994,12.994,0,0,1,33.792,53.3h-20.8A12.994,12.994,0,0,1,0,40.307V0A0,0,0,0,1,0,0Z"/></g><g transform="translate(38.727 16.361)"><path class="c" d="M516.394,239.627c.38-.285,1.187.139,2.446.766a16.944,16.944,0,0,0,5.284,1.728,11.112,11.112,0,0,0,7.2-1.364,10.555,10.555,0,0,0,5.127-6.737A10.852,10.852,0,0,0,535,225.667a6.325,6.325,0,0,0-2.44-2.241,6.1,6.1,0,0,0-2.989-.5,14.659,14.659,0,0,0-5.213,1.623c-1.321.619-2.19.957-2.528.632-.323-.308-.107-1.24.845-2.6a11.482,11.482,0,0,1,5.935-4.259,10.242,10.242,0,0,1,5.7-.125,11.178,11.178,0,0,1,5.533,3.717,15.861,15.861,0,0,1,3.085,13.6,15.253,15.253,0,0,1-3.392,6.653,15.986,15.986,0,0,1-5.487,4.071,15.07,15.07,0,0,1-6,1.341,14.069,14.069,0,0,1-5.173-.93A12.19,12.19,0,0,1,517.1,242.3C516.152,240.876,516.041,239.884,516.394,239.627Z" transform="translate(-516.209 -217.855)"/></g></g><g transform="translate(634.914 188.613)"><g transform="translate(4.604)"><path class="c" d="M599.314,230.478A12.722,12.722,0,0,1,614.9,224a11.96,11.96,0,0,1,21.727-1.71A8.316,8.316,0,0,1,645,234.884" transform="translate(-599.314 -216.105)"/></g><g transform="translate(0 14.219)"><path class="a" d="M625.237,263.685h0a29.531,29.531,0,0,1-29.531-29.531v-6.9h59.062v6.9A29.531,29.531,0,0,1,625.237,263.685Z" transform="translate(-595.706 -227.249)"/></g></g><g transform="translate(105.602 209.921)"><path class="b" d="M203.641,264.31H187.029L180.891,232.8h29.152Z" transform="translate(-180.891 -232.804)"/></g><g transform="translate(212.26 209.921)"><g transform="translate(13.513)"><path class="c" d="M297.818,264.31H281.205L275.068,232.8H304.22Z" transform="translate(-275.068 -232.804)"/></g><path class="a" d="M287.228,264.31H270.615L264.478,232.8H293.63Z" transform="translate(-264.478 -232.804)"/></g><g transform="translate(153.698 151.733)"><g transform="translate(0 0)"><path class="c" d="M218.584,276.9V211.5a9.138,9.138,0,0,1,9.138-9.139h.37V187.2H239.8v14.788h0a9.139,9.139,0,0,1,9.138,9.139V276.9Z" transform="translate(-218.584 -187.203)"/></g></g><g transform="translate(81.146 274.794)"><rect class="c" width="618.05" height="7.487"/></g><g transform="translate(613.799 303.146)"><g transform="translate(44.776 18.92)"><rect class="b" width="9.393" height="188.916"/></g><g transform="translate(1.812)"><path class="c" d="M11.212,0H86.994A11.212,11.212,0,0,1,98.206,11.212v8.468a0,0,0,0,1,0,0H0a0,0,0,0,1,0,0V11.212A11.212,11.212,0,0,1,11.212,0Z"/></g><g transform="translate(3.624 26.051)"><rect class="c" width="94.381" height="3.211"/></g><g transform="translate(0 155.887)"><path class="b" d="M678.1,481.469h-2.552V469.45a38.912,38.912,0,0,0-38.868-38.869h-16.1A38.913,38.913,0,0,0,581.71,469.45v12.019h-2.552V469.45a41.466,41.466,0,0,1,41.421-41.421h16.1A41.467,41.467,0,0,1,678.1,469.45Z" transform="translate(-579.158 -428.029)"/></g></g><g transform="translate(154.757 303.146)"><g transform="translate(44.776 18.92)"><rect class="b" width="9.393" height="188.916"/></g><g transform="translate(1.811)"><path class="c" d="M11.212,0H86.994A11.212,11.212,0,0,1,98.206,11.212v8.468a0,0,0,0,1,0,0H0a0,0,0,0,1,0,0V11.212A11.212,11.212,0,0,1,11.212,0Z"/></g><g transform="translate(3.624 26.051)"><rect class="c" width="94.381" height="3.211"/></g><g transform="translate(0 155.887)"><path class="b" d="M318.359,481.469h-2.552V469.45a38.913,38.913,0,0,0-38.869-38.869h-16.1a38.913,38.913,0,0,0-38.869,38.869v12.019h-2.552V469.45a41.467,41.467,0,0,1,41.421-41.421h16.1a41.467,41.467,0,0,1,41.421,41.421Z" transform="translate(-219.414 -428.029)"/></g></g><g transform="translate(0 303.146)"><g transform="translate(44.776 18.92)"><rect class="b" width="9.393" height="188.916"/></g><g transform="translate(1.812)"><path class="c" d="M11.212,0H86.993A11.212,11.212,0,0,1,98.206,11.212v8.468a0,0,0,0,1,0,0H0a0,0,0,0,1,0,0V11.212A11.212,11.212,0,0,1,11.212,0Z"/></g><g transform="translate(3.624 26.051)"><rect class="c" width="94.381" height="3.211"/></g><g transform="translate(0 155.887)"><path class="b" d="M197.078,481.469h-2.552V469.45a38.912,38.912,0,0,0-38.868-38.869H139.553a38.912,38.912,0,0,0-38.868,38.869v12.019H98.133V469.45a41.466,41.466,0,0,1,41.42-41.421h16.106a41.467,41.467,0,0,1,41.42,41.421Z" transform="translate(-98.133 -428.029)"/></g></g></g><g transform="translate(70.063 577.745)"><path class="e" d="M848.276,467.876c0,.182-174.223.332-389.087.332-214.94,0-389.125-.149-389.125-.332s174.186-.333,389.125-.333C674.053,467.543,848.276,467.692,848.276,467.876Z" transform="translate(-70.063 -467.543)"/></g><g transform="translate(259.98 136.822)"><g transform="translate(0 1.236)"><g transform="translate(62.713 429.775)"><path class="f" d="M291.956,459.775l-2.282,9.579s-15.667,20.35-20.5,19.355c-3.167-.652.725-5.962,6.685-21.418l1.25-6.384Z" transform="translate(-268.045 -459.775)"/><path class="e" d="M268.432,484.13a.874.874,0,0,0,.125.287,1.748,1.748,0,0,0,.658.612,2.579,2.579,0,0,0,1.392.3,3.7,3.7,0,0,0,1.771-.651,76.456,76.456,0,0,0,7.892-7.36,100.889,100.889,0,0,0,7-8.2c.834-1.1,1.49-2,1.931-2.637.179-.262.343-.5.5-.735a1.292,1.292,0,0,0,.158-.268,1.247,1.247,0,0,0-.205.235c-.171.221-.351.452-.544.7-.577.744-1.242,1.6-2,2.579-1.714,2.156-4.151,5.085-7.053,8.128a87.262,87.262,0,0,1-7.8,7.389,2.9,2.9,0,0,1-3,.417A2.022,2.022,0,0,1,268.432,484.13Z" transform="translate(-267.939 -458.201)"/><path class="e" d="M270.17,475c.009.05.5-.05,1.267.06a7.439,7.439,0,0,1,2.825,1.067,5.761,5.761,0,0,1,2.116,2.117c.37.685.47,1.174.519,1.16a2.779,2.779,0,0,0-.337-1.253,5.407,5.407,0,0,0-2.146-2.27,6.723,6.723,0,0,0-2.955-1.025A2.516,2.516,0,0,0,270.17,475Z" transform="translate(-267.459 -455.615)"/><path class="e" d="M281.92,473.313c.051-.014-.168-.685-.295-1.8a7.37,7.37,0,0,1,.785-4.2,6.924,6.924,0,0,1,3-3.025,11.386,11.386,0,0,1,1.7-.612,1.452,1.452,0,0,0-.5.029,5.245,5.245,0,0,0-1.294.4,6.738,6.738,0,0,0-3.17,3.078,7.129,7.129,0,0,0-.73,4.359,8.466,8.466,0,0,0,.31,1.313A1.572,1.572,0,0,0,281.92,473.313Z" transform="translate(-264.377 -458.701)"/><path class="e" d="M286.305,461.048a10.062,10.062,0,0,0-.859,3c-.286,1.7-.6,3.042-.535,3.066a10.272,10.272,0,0,0,.819-3.013C286.023,462.412,286.377,461.074,286.305,461.048Z" transform="translate(-263.392 -459.424)"/><path class="e" d="M273.952,466.751c.006.085.895.054,1.945.3s1.836.656,1.88.581a4.664,4.664,0,0,0-3.824-.882Z" transform="translate(-266.415 -457.883)"/><path class="e" d="M273.7,468.046c.011.086.755,0,1.627.217s1.5.609,1.552.538a3.167,3.167,0,0,0-3.179-.755Z" transform="translate(-266.485 -457.538)"/><path class="e" d="M272.72,469.69a4.419,4.419,0,0,1,3.237.736,2.554,2.554,0,0,0-3.237-.736Z" transform="translate(-266.756 -457.122)"/><path class="e" d="M274.8,467.039a1.635,1.635,0,0,0,.524-.061,10.934,10.934,0,0,0,1.386-.376,12.336,12.336,0,0,0,1.95-.87,12.091,12.091,0,0,0,1.074-.667,1.572,1.572,0,0,0,.78-1.2.917.917,0,0,0-1.184-.74,2.477,2.477,0,0,0-1.087.729,20.266,20.266,0,0,0-1.441,1.567c-.384.468-.672.865-.863,1.146a1.779,1.779,0,0,0-.264.455c.036.027.482-.573,1.282-1.467.4-.447.893-.965,1.47-1.508a2.268,2.268,0,0,1,.966-.644c.359-.092.824.1.832.48s-.338.715-.657.951c-.346.245-.7.468-1.04.665a14.062,14.062,0,0,1-1.888.91C275.521,466.841,274.787,466.992,274.8,467.039Z" transform="translate(-266.182 -458.859)"/><path class="e" d="M276.066,467.146a1.561,1.561,0,0,0,.014-.48c-.012-.306-.032-.752-.1-1.3a6.876,6.876,0,0,0-.494-1.89,4.029,4.029,0,0,0-.616-1,1.042,1.042,0,0,0-1.242-.394,1.2,1.2,0,0,0-.43,1.239,4.449,4.449,0,0,0,.342,1.124,5.784,5.784,0,0,0,1.117,1.608,7.055,7.055,0,0,0,1,.852,1.348,1.348,0,0,0,.415.242c.032-.041-.535-.429-1.261-1.234a6.026,6.026,0,0,1-1.022-1.577,4.325,4.325,0,0,1-.3-1.05c-.045-.355,0-.8.287-.951.291-.171.653.06.892.331a3.908,3.908,0,0,1,.584.921,7.353,7.353,0,0,1,.533,1.811A16.757,16.757,0,0,0,276.066,467.146Z" transform="translate(-266.628 -459.164)"/><path d="M289.669,468.278l1.1-4.6s-3.84.711-4.835,3.584a12.049,12.049,0,0,0-.749,4.918l-8.345,8.987s-2.094-4.091-5.885-3.108c0,0-2.983,6.561-2.891,8.206.1,1.807,2,1.446,2.684,1.137a33.641,33.641,0,0,0,7.472-5.9C282.645,476.914,287.529,471.1,289.669,468.278Z" transform="translate(-268.04 -458.699)"/></g><g transform="translate(140.017 421.55)"><path class="f" d="M353.05,466.4l.073-12.777-23.931-.29-.3,18.69,1.483.114c6.6.447,33.585,1.806,38.015.522C373.327,471.22,353.05,466.4,353.05,466.4Z" transform="translate(-328.557 -453.329)"/><path d="M337.559,469.419a8.3,8.3,0,0,0-2.991-5.14A8.07,8.07,0,0,0,329,462.471l-.087,6.689Z" transform="translate(-328.55 -450.81)"/><path d="M362.953,465.694s7.1,2.142,6.2,3.3-28.226.815-40.264-.393l.045-.533,31.866.676S361.56,465.735,362.953,465.694Z" transform="translate(-328.557 -449.916)"/><path class="e" d="M328.628,467.544a2.038,2.038,0,0,0,.411.05l1.18.087,4.347.242c3.671.179,8.748.359,14.357.435s10.692.032,14.367-.047l4.351-.126,1.183-.054a2.233,2.233,0,0,0,.412-.04,2.181,2.181,0,0,0-.413-.019h-1.184l-4.351.033c-3.675.027-8.752.037-14.36-.037s-10.679-.223-14.353-.35l-4.35-.151-1.183-.032A2.45,2.45,0,0,0,328.628,467.544Z" transform="translate(-328.628 -449.408)"/><path class="e" d="M353.9,469.185a6.323,6.323,0,0,1,2.343-3.713,3.867,3.867,0,0,0-2.343,3.713Z" transform="translate(-321.664 -449.979)"/><path class="e" d="M348.392,465.93c.066.043.41-.364.766-.909s.591-1.023.523-1.067-.41.362-.766.909S348.324,465.887,348.392,465.93Z" transform="translate(-323.176 -450.397)"/><path class="e" d="M346.882,464.968c.052.06.433-.188.85-.553s.712-.711.66-.771-.434.188-.851.553S346.829,464.907,346.882,464.968Z" transform="translate(-323.591 -450.484)"/><path class="e" d="M345.943,462.923a5.468,5.468,0,0,0,2.5.06,5.468,5.468,0,0,0-2.5-.06Z" transform="translate(-323.849 -450.714)"/><path class="e" d="M345.629,461.65a3.522,3.522,0,0,0,2.83.249,104.343,104.343,0,0,1-2.83-.249Z" transform="translate(-323.936 -451.039)"/><path class="e" d="M349.046,464.331a4.446,4.446,0,0,0,1.538.01,9.057,9.057,0,0,0,1.642-.341,4.513,4.513,0,0,0,.942-.374.831.831,0,0,0,.387-.473.6.6,0,0,0-.226-.618,2.82,2.82,0,0,0-3.5.781,2.766,2.766,0,0,0-.514,1.02c-.065.263-.063.412-.045.415a4.318,4.318,0,0,1,.717-1.3,2.777,2.777,0,0,1,1.323-.837,2.391,2.391,0,0,1,1.832.148c.241.185.143.471-.131.629a4.556,4.556,0,0,1-.869.357,10.565,10.565,0,0,1-1.589.393C349.633,464.289,349.046,464.284,349.046,464.331Z" transform="translate(-322.992 -450.875)"/><path class="e" d="M349.785,464.586a1.518,1.518,0,0,0,.191-1.065,2.524,2.524,0,0,0-.406-1.129,1.542,1.542,0,0,0-1.27-.8.612.612,0,0,0-.484.7,1.678,1.678,0,0,0,.253.69,4.648,4.648,0,0,0,.715.939,2.233,2.233,0,0,0,.872.634c.028-.037-.3-.281-.721-.772a5.453,5.453,0,0,1-.632-.931c-.207-.328-.343-.912.042-.979.387-.032.775.356,1.005.666a2.542,2.542,0,0,1,.422,1.006A5.563,5.563,0,0,1,349.785,464.586Z" transform="translate(-323.334 -451.049)"/><path class="e" d="M329.076,462.447c0,.054.687-.056,1.766.084a7.5,7.5,0,0,1,6.2,5.076c.352,1.031.379,1.72.433,1.715a1.369,1.369,0,0,0,.008-.484,6.356,6.356,0,0,0-.245-1.294,7.272,7.272,0,0,0-6.376-5.216,6.319,6.319,0,0,0-1.317.017A1.36,1.36,0,0,0,329.076,462.447Z" transform="translate(-328.504 -450.852)"/><path class="e" d="M331.188,454.636a83.176,83.176,0,0,0-.25,9.833,83.175,83.175,0,0,0,.25-9.833Z" transform="translate(-328.009 -452.968)"/><path class="e" d="M338.072,466.119a19.632,19.632,0,0,0,6.993.156c-.008-.084-1.571-.009-3.5-.055S338.082,466.036,338.072,466.119Z" transform="translate(-326.021 -449.806)"/><path class="e" d="M334.4,466.063c-.059.057.124.333.279.693s.237.68.32.675.128-.376-.055-.791S334.451,466.006,334.4,466.063Z" transform="translate(-327.038 -449.817)"/><path class="e" d="M333.036,464.321c-.057.056.093.307.338.561s.489.415.546.36-.093-.308-.337-.561S333.093,464.267,333.036,464.321Z" transform="translate(-327.415 -450.298)"/><path class="e" d="M331.061,463.534c.015.082.333.083.684.212s.6.318.664.264-.131-.385-.568-.538S331.038,463.46,331.061,463.534Z" transform="translate(-327.957 -450.548)"/><path class="e" d="M329.656,463.129c-.031.074.106.2.3.278s.383.084.412.01-.106-.2-.3-.279S329.685,463.054,329.656,463.129Z" transform="translate(-328.345 -450.639)"/></g><g transform="translate(61.2 180.882)"><path class="e" d="M386.454,264.721,375.285,512.95l-37.266.783,6.189-207.814-41.917,209.4H266.86l47.32-250.6" transform="translate(-266.86 -264.721)"/><path class="g" d="M333.783,267.188a6.319,6.319,0,0,0-.235,1.517c-.1.98-.231,2.4-.373,4.155-.282,3.509-.624,8.362-.956,13.722-.154,2.672-.3,5.218-.439,7.562a23.285,23.285,0,0,1-.72,6.038,5.12,5.12,0,0,1-2.515,2.988,7.476,7.476,0,0,1-1.434.412c0,.022.134.056.4.063a3.135,3.135,0,0,0,1.145-.216,5.234,5.234,0,0,0,2.884-3.069c.69-1.714.729-3.875.9-6.176.154-2.343.322-4.887.5-7.558.332-5.361.592-10.218.744-13.736.077-1.758.126-3.182.143-4.168A6.276,6.276,0,0,0,333.783,267.188Z" transform="translate(-250.229 -264.04)"/><path class="g" d="M329.816,269.835c-.056.093.313.339.346.926a1.121,1.121,0,0,1-.287.849.988.988,0,0,1-1.578-.642,1.123,1.123,0,0,1,.385-.808c.434-.4.869-.318.894-.422.065-.068-.461-.42-1.194.008a1.555,1.555,0,0,0-.752,1.2,1.6,1.6,0,0,0,2.735,1.111,1.554,1.554,0,0,0,.3-1.387C330.439,269.856,329.815,269.742,329.816,269.835Z" transform="translate(-250.087 -263.392)"/><path class="g" d="M301.86,276.141a7.17,7.17,0,0,0,3.1,1.18,13.1,13.1,0,0,0,13.891-6.209,7.145,7.145,0,0,0,1.185-3.093c-.119-.043-.5,1.166-1.618,2.82a13.62,13.62,0,0,1-13.374,5.977C303.065,276.544,301.907,276.024,301.86,276.141Z" transform="translate(-257.199 -263.811)"/><path class="g" d="M350.451,267.189a5.279,5.279,0,0,0,.133,2.69,10.573,10.573,0,0,0,9.306,8.154,5.268,5.268,0,0,0,2.683-.222c-.011-.121-1.031-.011-2.615-.285a11.1,11.1,0,0,1-8.881-7.781C350.6,268.21,350.572,267.184,350.451,267.189Z" transform="translate(-243.815 -264.04)"/></g><g transform="translate(173.897 29.819)"><path class="h" d="M368.009,187.828l34.724,9.019s28.719-31.876,30.062-32.99,18.968,4.475,18.968,4.475l-20.458,37.89c-4.887,12.362-12.146,19.328-19.213,19.634l-56.913-11.3Z" transform="translate(-355.179 -141.539)"/><path class="h" d="M415.113,170.063s3.972-7.956,4.517-9.162a106.846,106.846,0,0,0,3.449-10.651s2.366-.522,2.216,4.765.915,3.818.915,3.818,10.978-13.338,13.638-12.455c.994.329-.378,3.5-2.188,5.209a37.117,37.117,0,0,0-3.789,4.48s10.326-9.309,12.694-7.844c0,0,1.155.916-2.126,3.66a73.732,73.732,0,0,0-7.641,7.375s10.24-7.218,11.395-6.441c1.919,1.293-8.461,8.657-10.18,11.4,0,0,7.72-5.921,7.928-4.019s-9.4,8.57-13.786,18.26Z" transform="translate(-338.636 -146.335)"/><path class="i" d="M421.582,157.155c-.06.106.7.509,1.576,1.507a7.391,7.391,0,0,1,1.862,4.649l.018.907.619-.678.038-.042a8.924,8.924,0,0,1,4.351-2.69c1.3-.355,2.159-.332,2.163-.45a3.938,3.938,0,0,0-2.276-.05,8.38,8.38,0,0,0-4.785,2.715l-.041.046.637.23a7.178,7.178,0,0,0-2.218-4.992C422.479,157.332,421.606,157.084,421.582,157.155Z" transform="translate(-336.851 -143.352)"/></g><g transform="translate(6.845 33.798)"><path class="h" d="M231.053,155.127" transform="translate(-222.389 -147.887)"/><path class="h" d="M315.333,193.25l-34.724,9.019s-24.146-26.8-29.181-32.1c-.882-1.767-3.8-7.622-4.259-8.642a107.086,107.086,0,0,1-3.448-10.652s-2.366-.521-2.216,4.765-.915,3.818-.915,3.818c-8.827-16.382-15.214-8.073-15.812-6.554s-.508,11.387-.508,11.387c-.163,1.5,3.633,3.808,7.4,9.435l-.087.028,20.457,37.89c4.887,12.362,12.148,19.328,19.214,19.633l56.913-11.3Z" transform="translate(-224.263 -149.453)"/><path class="i" d="M241.585,158.321c-.025-.071-.9.175-1.943,1.152a7.171,7.171,0,0,0-2.218,4.991l.637-.228-.042-.046a8.358,8.358,0,0,0-4.785-2.715,3.919,3.919,0,0,0-2.275.05c0,.119.866.094,2.163.449a8.933,8.933,0,0,1,4.351,2.69l.038.042.619.679.018-.907a7.388,7.388,0,0,1,1.862-4.65C240.885,158.831,241.645,158.426,241.585,158.321Z" transform="translate(-222.415 -147.008)"/></g><g transform="translate(112.453 1.057)"><path class="f" d="M1.034,0H1.84A1.035,1.035,0,0,1,2.875,1.035V2.428a0,0,0,0,1,0,0H0a0,0,0,0,1,0,0V1.034A1.034,1.034,0,0,1,1.034,0Z" transform="translate(27.141 0.512) rotate(-10.258)"/><path d="M1.034,0H1.84A1.035,1.035,0,0,1,2.875,1.035V2.428a0,0,0,0,1,0,0H0a0,0,0,0,1,0,0V1.034A1.034,1.034,0,0,1,1.034,0Z" transform="translate(27.141 0.512) rotate(-10.258)"/><path class="e" d="M335.18,170.119c.068.151.138.3.213.447a8.752,8.752,0,0,0,12.5,3.4c1.813-1.156,3.233-3.267,2.811-5.373a2.537,2.537,0,0,0,3.393.419,4.137,4.137,0,0,0,1.6-3.283,12.278,12.278,0,0,0-.624-3.72,2.985,2.985,0,0,0,3.783.092,3.8,3.8,0,0,0,1.25-3.715,5.283,5.283,0,0,0-2.359-3.258,3.3,3.3,0,0,0,3.352-4.253c-.563-1.863-2.592-2.84-4.474-3.338s-3.938-.794-5.381-2.1a6.413,6.413,0,0,1-1.874-3.879,19.044,19.044,0,0,1,.048-4.387l-6.841.181Z" transform="translate(-299.255 -120.102)"/><path class="e" d="M320.349,140.591c-.242,1.47-2.213,5.258-3.466,6.065a19.179,19.179,0,0,1-4.1,1.757,12.112,12.112,0,0,0-3.957,2.028,4.679,4.679,0,0,0-1.777,3.912,2.949,2.949,0,0,0,3.014,2.663,13.4,13.4,0,0,0-2.384,3.811,4.532,4.532,0,0,0,.51,4.3,2.781,2.781,0,0,0,3.976.393,5.539,5.539,0,0,0,8.192,6.711,6.116,6.116,0,0,0,11.566,1.586" transform="translate(-307.026 -119.159)"/><path class="h" d="M322.1,192.4l23.007-1.837c.144-2.686-.048-13.079-.048-13.079s9.573-1.488,9.691-11.059-1.541-31.548-1.541-31.548h0a33.261,33.261,0,0,0-33.424,4.2l-1.419,1.091Z" transform="translate(-303.896 -121.482)"/><path class="e" d="M346.812,145.94c-.149.166-1.09-.558-2.408-.563-1.318-.026-2.275.674-2.421.505-.071-.075.079-.375.5-.692a3.25,3.25,0,0,1,3.854.046C346.743,145.565,346.885,145.867,346.812,145.94Z" transform="translate(-297.382 -118.057)"/><path class="e" d="M335.591,146.483c-.149.166-1.09-.558-2.407-.564-1.319-.025-2.275.675-2.422.505-.071-.075.079-.374.5-.692a3.247,3.247,0,0,1,3.854.047C335.522,146.107,335.664,146.409,335.591,146.483Z" transform="translate(-300.479 -117.908)"/><path class="e" d="M338.859,157.383a6.4,6.4,0,0,1,2.131-.452c.346-.037.616-.116.641-.3a1.875,1.875,0,0,0-.246-.988l-1.043-2.678c-1.441-3.817-2.45-6.968-2.257-7.041s1.518,2.96,2.959,6.777c.341.931.666,1.82.986,2.7a2.189,2.189,0,0,1,.189,1.433.9.9,0,0,1-.593.551,2.227,2.227,0,0,1-.588.077A6.385,6.385,0,0,1,338.859,157.383Z" transform="translate(-298.46 -117.687)"/><path class="i" d="M342,168.343a22.253,22.253,0,0,1-12.478-3.546s2.949,6.888,12.5,6.027Z" transform="translate(-300.818 -112.477)"/><path class="e" d="M353.831,137.791s-5.6,3.241-13.438.028c-5.144-2.108-11.015-2.89-12.215-1.8s4.456-1.122.791,6.711c0,0-3.9,19.6-9.54,11.034-2.13-3.237-2.6-15.316-2.6-15.342l9.167-5.349,10.234-2.729,9.882.655,7.721,1.512Z" transform="translate(-304.321 -121.987)"/><path class="h" d="M320.669,146.276c-.163-.071-6.577-1.946-6.367,4.6s6.735,4.984,6.74,4.8S320.669,146.276,320.669,146.276Z" transform="translate(-305.019 -117.673)"/><path class="i" d="M318.6,152.791c-.029-.02-.112.083-.3.177a1.137,1.137,0,0,1-.851.045,2.82,2.82,0,0,1-1.387-2.488,3.759,3.759,0,0,1,.268-1.642,1.315,1.315,0,0,1,.828-.9.58.58,0,0,1,.684.291c.093.18.056.311.091.322.019.017.137-.114.075-.383a.724.724,0,0,0-.27-.4.859.859,0,0,0-.635-.145,1.6,1.6,0,0,0-1.159,1.053,3.884,3.884,0,0,0-.337,1.836,2.963,2.963,0,0,0,1.753,2.773,1.225,1.225,0,0,0,1.037-.207C318.6,152.95,318.627,152.8,318.6,152.791Z" transform="translate(-304.659 -117.209)"/><path class="e" d="M340.746,143.017c.2.36,1.452.025,2.963-.026,1.511-.084,2.787.138,2.954-.239.184-.342-1.125-1.3-3.018-1.207S340.533,142.691,340.746,143.017Z" transform="translate(-297.725 -118.897)"/><path class="e" d="M329.239,143.144c.2.36,1.452.025,2.963-.026,1.511-.083,2.787.138,2.954-.237.184-.343-1.125-1.3-3.018-1.208S329.025,142.818,329.239,143.144Z" transform="translate(-300.902 -118.862)"/><path class="f" d="M321.1,143.362s48.4-6.4,50.006-8.128c1.273-1.373-5.544-2.888-17.758-1.913C350.114,136.983,334.754,140.213,321.1,143.362Z" transform="translate(-303.14 -121.251)"/><path class="j" d="M316.695,146.945l38.564-7.2s.8-10.151-11-13.329c-7.673-2.065-15.995-.6-21.871,4.753A17.541,17.541,0,0,0,316.695,146.945Z" transform="translate(-304.399 -123.319)"/><path class="e" d="M339.784,157.167c.114.144-.929.829-2.319.5s-2.033-1.384-1.868-1.465c.145-.122.872.572,2.016.817C338.751,157.3,339.706,156.993,339.784,157.167Z" transform="translate(-299.147 -114.852)"/><path d="M316.662,144.882s6.54-1.3,8.108-1.515c1.253-.172,4.983-.93,4.983-.93,13.73-1.918,41.842-6.064,42.583-7.2,1.023-1.568-5.544-2.888-17.758-1.913C351.34,136.988,330.313,141.733,316.662,144.882Z" transform="translate(-304.366 -121.256)"/><path class="e" d="M331.146,125.678c.078.1-.888.745-2.026,2.154a12.935,12.935,0,0,0-1.644,2.7,17.6,17.6,0,0,0-1.12,3.714,27.1,27.1,0,0,0-.219,7.1,21.383,21.383,0,0,1,.264,2.973,9.841,9.841,0,0,1-.731-2.917,22.515,22.515,0,0,1,.032-7.275,16.373,16.373,0,0,1,1.22-3.852,11.723,11.723,0,0,1,1.841-2.746,8.5,8.5,0,0,1,1.668-1.464C330.869,125.778,331.12,125.64,331.146,125.678Z" transform="translate(-301.958 -123.277)"/><path class="e" d="M345.863,137.931c-.107.034-.463-1.132-1.4-2.824a17.734,17.734,0,0,0-11.64-8.8c-1.883-.44-3.1-.466-3.1-.577a8.1,8.1,0,0,1,3.191.116,16.427,16.427,0,0,1,11.963,9.044A8.157,8.157,0,0,1,345.863,137.931Z" transform="translate(-300.76 -123.286)"/><path class="e" d="M316.563,138.909l2.923-1.013.956,3.439-3.879,1.21A20.243,20.243,0,0,1,316.563,138.909Z" transform="translate(-304.42 -119.903)"/></g><g transform="translate(74.261 66.297)"><path class="k" d="M277.1,191.661l5.84,34.048,30.391-6.125-1.053,34.056-3.151,39.239,78.87,5.193c.191-7.932-6.51-78.621-6.51-78.621l18.791,6.324,10.24-38.19-31.1-8.41a119.426,119.426,0,0,0-22.3-4.136,40.7,40.7,0,0,1-24.532-.015h0a33.4,33.4,0,0,0-10.157,1.947Z" transform="translate(-277.096 -174.894)"/><path class="e" d="M318.026,174.932a4.158,4.158,0,0,0,1.022.729,21.493,21.493,0,0,0,3.04,1.563,29.051,29.051,0,0,0,4.823,1.591,30.761,30.761,0,0,0,12.382.356,28.966,28.966,0,0,0,4.908-1.312,21.435,21.435,0,0,0,3.124-1.384,4.18,4.18,0,0,0,1.062-.669c-.06-.119-1.638.707-4.35,1.57a33.416,33.416,0,0,1-4.851,1.138,33.117,33.117,0,0,1-12.129-.35,33.539,33.539,0,0,1-4.777-1.415C319.623,175.732,318.094,174.817,318.026,174.932Z" transform="translate(-265.799 -174.922)"/><path class="e" d="M369.663,221.175a6.244,6.244,0,0,0,.665-1.378c.384-.9.911-2.22,1.54-3.857,1.259-3.273,2.912-7.828,4.6-12.906s3.1-9.717,4.054-13.092c.478-1.687.846-3.057,1.081-4.011a6.18,6.18,0,0,0,.294-1.5,6.268,6.268,0,0,0-.564,1.42l-1.3,3.942-4.252,13.013c-1.689,4.977-3.217,9.477-4.4,12.959q-.779,2.314-1.323,3.934A6.276,6.276,0,0,0,369.663,221.175Z" transform="translate(-251.548 -172.298)"/><path class="e" d="M301.86,264.6c-.011.2,18.356,1.448,41.019,2.789s41.055,2.268,41.066,2.068-18.352-1.448-41.023-2.791S301.871,264.4,301.86,264.6Z" transform="translate(-270.261 -150.176)"/><path class="d" d="M315.233,289.975c-.184,0-.333-25.385-.333-56.691s.149-56.7.333-56.7.332,25.38.332,56.7S315.415,289.975,315.233,289.975Z" transform="translate(-266.661 -174.463)"/><path class="d" d="M326.308,289.874c-.184,0-.333-25.006-.333-55.846s.149-55.851.333-55.851.332,25,.332,55.851S326.491,289.874,326.308,289.874Z" transform="translate(-263.604 -174.024)"/><path class="d" d="M337.845,289.121c-.184,0-.332-25.006-.332-55.845s.148-55.851.332-55.851.333,25,.333,55.851S338.029,289.121,337.845,289.121Z" transform="translate(-260.42 -174.232)"/><path class="d" d="M348.63,291c-.182,0-.332-25.651-.332-57.286s.149-57.292.332-57.292.333,25.647.333,57.292S348.814,291,348.63,291Z" transform="translate(-257.443 -174.509)"/><path class="d" d="M358.161,220.492c-.182,0-.332-9.529-.332-21.281s.149-21.285.332-21.285.333,9.528.333,21.285S358.344,220.492,358.161,220.492Z" transform="translate(-254.812 -174.094)"/><path class="d" d="M368.4,207.863c-.184,0-.359-5.8-.389-12.959s.092-12.963.276-12.964.357,5.8.389,12.961S368.581,207.861,368.4,207.863Z" transform="translate(-252.004 -172.986)"/><path class="d" d="M302.48,218.883c-.184,0-.333-8.608-.333-19.225s.149-19.225.333-19.225.332,8.605.332,19.225S302.664,218.883,302.48,218.883Z" transform="translate(-270.181 -173.401)"/><path class="d" d="M289.186,221.184c-.182,0-.332-8.169-.332-18.242s.149-18.245.332-18.245.333,8.167.333,18.245S289.37,221.184,289.186,221.184Z" transform="translate(-273.851 -172.224)"/><path class="d" d="M387.689,207.621c-.111.145-2.269-1.309-4.817-3.249s-4.526-3.63-4.415-3.777,2.268,1.308,4.817,3.249S387.8,207.474,387.689,207.621Z" transform="translate(-249.119 -167.839)"/><path class="e" d="M380.7,232.79a6.6,6.6,0,0,1-.383-1.469c-.23-1.09-.513-2.438-.849-4.036-.721-3.4-1.784-8.093-3.163-13.217s-2.824-9.713-3.914-13.018c-.513-1.549-.945-2.858-1.3-3.915a6.638,6.638,0,0,1-.408-1.462,6.68,6.68,0,0,1,.651,1.372c.382.9.895,2.214,1.5,3.851,1.206,3.273,2.722,7.855,4.111,13s2.378,9.865,2.982,13.3c.3,1.718.521,3.112.643,4.081A6.723,6.723,0,0,1,380.7,232.79Z" transform="translate(-251.266 -169.195)"/><path class="e" d="M287.073,222.206a5.9,5.9,0,0,1-.549-1.321c-.315-.864-.734-2.126-1.219-3.7-.974-3.139-2.173-7.522-3.235-12.425s-1.775-9.393-2.185-12.653c-.205-1.63-.346-2.953-.416-3.869a6,6,0,0,1-.046-1.43,5.88,5.88,0,0,1,.3,1.4q.257,1.57.625,3.833c.527,3.235,1.314,7.693,2.368,12.58s2.181,9.27,3.036,12.434q.6,2.211,1.014,3.749A5.978,5.978,0,0,1,287.073,222.206Z" transform="translate(-276.46 -171.64)"/></g><g transform="translate(0 16.288)"><g transform="translate(0 2.438)"><path class="j" d="M240.814,137.642l-3.656,7.475a10.125,10.125,0,0,1-3.173,4.15l-4.471,3.448a2.194,2.194,0,0,0-.685.9L218.949,177.5a.665.665,0,0,0,.36.868l13.444,5.558a.665.665,0,0,0,.868-.36l9.822-23.758a2.183,2.183,0,0,0,.139-1.176l-.694-5.727a11.675,11.675,0,0,1,.694-5.087l2.288-8.09Z" transform="translate(-218.898 -137.642)"/></g><g transform="translate(7.358 24.611)"><path class="d" d="M240.3,158.764l-9.059-3.745-6.578,15.911,9.059,3.745" transform="translate(-224.665 -155.018)"/></g><g transform="translate(21.056 0)"><rect class="j" width="7.287" height="2.316" rx="0.833" transform="matrix(0.924, 0.382, -0.382, 0.924, 0.885, 0)"/></g><g transform="translate(18.245 5.41)"><path class="d" d="M237.391,146.3l-4.195-1.734,2.218-4.6,3.923,1.622Z" transform="translate(-233.196 -139.971)"/></g><g transform="translate(12.849 31.387)"><path class="j" d="M235.825,165.253a3.563,3.563,0,1,1-1.932-4.654A3.565,3.565,0,0,1,235.825,165.253Z" transform="translate(-228.968 -160.328)"/></g><g transform="translate(7.894 25.155)"><path class="c" d="M239.907,159.322a13.37,13.37,0,0,1-2.4-.8c-1.5-.565-3.626-1.4-6.153-2.413l.384-.16c-.888,2.177-1.895,4.647-2.964,7.267-1.094,2.611-2.125,5.071-3.034,7.24l-.16-.384c2.506,1.067,4.6,1.977,6.062,2.636a13.391,13.391,0,0,1,2.265,1.125,13.538,13.538,0,0,1-2.4-.8c-1.5-.565-3.625-1.4-6.153-2.414l-.272-.108.112-.276c.888-2.178,1.895-4.649,2.964-7.27l3.033-7.239.116-.274.269.115c2.506,1.067,4.6,1.977,6.061,2.636A13.568,13.568,0,0,1,239.907,159.322Z" transform="translate(-225.085 -155.445)"/></g><g transform="translate(19.957 6.577)"><path class="c" d="M237.417,142.147c-.07.17-.769.042-1.563-.286s-1.379-.731-1.309-.9.769-.042,1.563.286S237.487,141.979,237.417,142.147Z" transform="translate(-234.539 -140.885)"/></g><g transform="translate(19.252 8.282)"><path class="c" d="M236.864,143.484c-.07.17-.769.041-1.563-.287s-1.379-.731-1.309-.9.769-.041,1.563.287S236.934,143.314,236.864,143.484Z" transform="translate(-233.986 -142.222)"/></g></g><g transform="translate(4.009 33.835)"><path class="h" d="M227.978,149.516q1.487,2.907,2.976,5.817c.332.649.653,1.475.217,2.06a1.323,1.323,0,0,1-1.485.342,3.378,3.378,0,0,1-1.285-.981,17.029,17.029,0,0,1-3.056-4.723,1.8,1.8,0,0,1,.5-1.982A2.819,2.819,0,0,1,227.978,149.516Z" transform="translate(-221.159 -149.482)"/><path class="h" d="M224.786,154.605q1.489,2.909,2.976,5.817c.332.65.655,1.475.217,2.059a1.323,1.323,0,0,1-1.485.342,3.378,3.378,0,0,1-1.285-.981,17.03,17.03,0,0,1-3.056-4.723,1.8,1.8,0,0,1,.5-1.982A2.816,2.816,0,0,1,224.786,154.605Z" transform="translate(-222.04 -148.078)"/><path class="h" d="M226.6,152.386l2.974,5.819c.332.65.655,1.474.217,2.058a1.321,1.321,0,0,1-1.485.342,3.375,3.375,0,0,1-1.285-.98,17.022,17.022,0,0,1-3.055-4.724s-1.041-2.228.758-3.41S226.6,152.386,226.6,152.386Z" transform="translate(-221.592 -149.028)"/></g><g transform="translate(25.96)"><g transform="translate(2.447 5.879)"><path class="g" d="M241.161,134.97a12.856,12.856,0,0,1,.741-4.591,4.366,4.366,0,0,1,3.454-2.8c1.555-.111,3.175,1.309,2.889,2.843-.249,1.337-1.652,2.1-2.937,2.552s-3.43.838-4.147,2" transform="translate(-241.161 -127.573)"/></g><path class="g" d="M240.656,131.855a10.8,10.8,0,0,1-1.363-6.361,2.9,2.9,0,0,1,1.09-2.287,1.9,1.9,0,0,1,2.017.106,2.573,2.573,0,0,1,1.037,1.8,5.573,5.573,0,0,1-1.039,3.461,10.164,10.164,0,0,0-1.57,3.307" transform="translate(-239.243 -122.966)"/></g></g><g transform="translate(177.917)"><path class="l" d="M457.142,188.993l34.724,9.019s28.719-31.876,30.062-32.989S540.9,169.5,540.9,169.5l-20.457,37.89c-4.887,12.362-12.148,19.328-19.214,19.633l-56.913-11.3Z" transform="translate(-334.596 -110.162)"/><g transform="translate(186.193 32.542)"><path class="l" d="M534.392,155.494c.209,1.9-8.714,14.437-13.1,24.126l-17.042-8.391s3.972-7.957,4.518-9.162a107.065,107.065,0,0,0,3.448-10.652s2.366-.521,2.217,4.765.915,3.818.915,3.818,10.978-13.337,13.638-12.455Z" transform="translate(-504.246 -147.5)"/><path class="m" d="M510.715,158.321c.026-.071.9.175,1.943,1.152a7.171,7.171,0,0,1,2.218,4.991l-.637-.228.042-.046a8.359,8.359,0,0,1,4.784-2.715,3.923,3.923,0,0,1,2.276.05c0,.119-.866.094-2.163.449a8.933,8.933,0,0,0-4.351,2.69l-.038.042-.619.679-.018-.907a7.4,7.4,0,0,0-1.862-4.65C511.414,158.831,510.655,158.426,510.715,158.321Z" transform="translate(-502.461 -144.516)"/></g><g transform="translate(55.193)"><path class="e" d="M438.622,153.754a2.158,2.158,0,0,0,2.9,2.714c1.46-.643,1.747-2.594,1.553-4.178s-.635-3.286.1-4.7a10.672,10.672,0,0,1,2.59-2.555,6.886,6.886,0,0,0,2.227-5.728,5.787,5.787,0,0,0-3.726-4.762c-2.057-.7-4.664-.2-6.135-1.793-1.068-1.156-1.039-2.955-1.839-4.309-1.243-2.1-4.086-2.581-6.52-2.382s-4.937.84-7.272.121c-1.95-.6-3.5-2.068-5.3-3.016a10.692,10.692,0,0,0-14.7,13.9,6.833,6.833,0,0,0,3.134,3.458" transform="translate(-401.583 -121.998)"/><path class="l" d="M435.771,192.4l-23.008-1.837c-.143-2.686.05-13.079.05-13.079s-9.573-1.488-9.691-11.059,1.541-31.548,1.541-31.548h0a33.261,33.261,0,0,1,33.424,4.2l1.418,1.091Z" transform="translate(-401.16 -119.189)"/><path class="e" d="M404.441,146.754c.151.166,1.09-.558,2.408-.563,1.318-.027,2.275.674,2.421.505.071-.075-.078-.375-.5-.692a3.252,3.252,0,0,0-3.855.046C404.51,146.379,404.368,146.681,404.441,146.754Z" transform="translate(-400.799 -115.54)"/><path class="e" d="M415.662,147.3c.151.166,1.09-.558,2.408-.564,1.318-.026,2.275.675,2.421.505.071-.075-.078-.374-.5-.692a3.249,3.249,0,0,0-3.855.047C415.731,146.921,415.589,147.223,415.662,147.3Z" transform="translate(-397.702 -115.39)"/><path class="e" d="M412.055,157.383a6.4,6.4,0,0,0-2.132-.452c-.345-.037-.615-.116-.639-.3a1.875,1.875,0,0,1,.246-.988l1.043-2.678c1.441-3.817,2.45-6.968,2.256-7.041s-1.517,2.96-2.958,6.777l-.988,2.7a2.2,2.2,0,0,0-.188,1.433.9.9,0,0,0,.593.551,2.227,2.227,0,0,0,.588.077A6.385,6.385,0,0,0,412.055,157.383Z" transform="translate(-399.638 -115.394)"/><path class="n" d="M416.771,155.756a27.371,27.371,0,0,1-7.161,2.081,4.035,4.035,0,0,0,4.762,1.605C417.544,158.281,416.771,155.756,416.771,155.756Z" transform="translate(-399.367 -112.68)"/><path class="m" d="M410.707,168.343a22.253,22.253,0,0,0,12.478-3.546s-2.949,6.888-12.5,6.027Z" transform="translate(-399.071 -110.184)"/><path class="e" d="M404.173,137.791s5.6,3.241,13.438.028c5.144-2.108,11.015-2.89,12.215-1.8s1.091,6.223,5.894,8.078c0,0-1.059,9.726,2.854,9.666s2.6-15.342,2.6-15.342l-9.167-5.349-10.234-2.729-9.883.655-7.72,1.512Z" transform="translate(-400.868 -119.694)"/><path class="l" d="M430.79,146.276c.163-.071,6.577-1.946,6.367,4.6s-6.735,4.984-6.741,4.8S430.79,146.276,430.79,146.276Z" transform="translate(-393.625 -115.38)"/><path class="m" d="M432.046,152.791c.029-.02.111.083.3.177a1.137,1.137,0,0,0,.851.045,2.817,2.817,0,0,0,1.386-2.488,3.74,3.74,0,0,0-.267-1.642,1.314,1.314,0,0,0-.829-.9.579.579,0,0,0-.683.291c-.093.18-.056.311-.091.322-.019.017-.137-.114-.075-.383a.725.725,0,0,1,.271-.4.859.859,0,0,1,.635-.145,1.6,1.6,0,0,1,1.159,1.053,3.885,3.885,0,0,1,.337,1.836,2.963,2.963,0,0,1-1.753,2.773,1.225,1.225,0,0,1-1.037-.207C432.053,152.95,432.023,152.8,432.046,152.791Z" transform="translate(-393.176 -114.916)"/><path class="e" d="M435.086,130.4c-.048.2-1.021.106-2.114.461-1.1.331-1.846.963-2,.824-.163-.1.466-1.108,1.786-1.515S435.161,130.225,435.086,130.4Z" transform="translate(-393.479 -119.787)"/><path class="e" d="M431.583,127.083c.172-.018.523,1.364.186,3.11-.343,1.774-1.451,2.834-1.581,2.692-.166-.131.573-1.254.873-2.839S431.36,127.091,431.583,127.083Z" transform="translate(-393.694 -120.594)"/><path class="e" d="M410.543,142.6c-.2.359-1.452.026-2.963-.026-1.511-.084-2.787.138-2.955-.239-.184-.343,1.125-1.3,3.019-1.207S410.756,142.275,410.543,142.6Z" transform="translate(-400.748 -116.719)"/><path class="e" d="M421.518,143.144c-.2.36-1.452.025-2.963-.026-1.511-.083-2.787.138-2.954-.237-.185-.343,1.125-1.3,3.018-1.208S421.731,142.818,421.518,143.144Z" transform="translate(-397.719 -116.569)"/></g><g transform="translate(133.838 431.011)"><path class="g" d="M463.216,459.775l2.28,9.579s15.667,20.35,20.5,19.355c3.167-.652-.725-5.962-6.685-21.418l-1.25-6.384Z" transform="translate(-463.216 -459.775)"/><path class="e" d="M486.2,484.13a.874.874,0,0,1-.125.287,1.749,1.749,0,0,1-.658.612,2.579,2.579,0,0,1-1.392.3,3.7,3.7,0,0,1-1.771-.651,76.45,76.45,0,0,1-7.892-7.36,100.877,100.877,0,0,1-7-8.2c-.835-1.1-1.49-2-1.931-2.637-.179-.262-.343-.5-.5-.735a1.294,1.294,0,0,1-.158-.268,1.248,1.248,0,0,1,.205.235l.544.7,2,2.579c1.715,2.156,4.152,5.085,7.054,8.128a87.249,87.249,0,0,0,7.8,7.389,2.9,2.9,0,0,0,3,.417A2.021,2.021,0,0,0,486.2,484.13Z" transform="translate(-462.787 -458.201)"/><path class="e" d="M481.286,475c-.008.05-.494-.05-1.267.06a7.434,7.434,0,0,0-2.824,1.067,5.761,5.761,0,0,0-2.116,2.117c-.37.685-.47,1.174-.519,1.16a2.757,2.757,0,0,1,.337-1.253,5.408,5.408,0,0,1,2.146-2.27A6.723,6.723,0,0,1,480,474.858,2.509,2.509,0,0,1,481.286,475Z" transform="translate(-460.087 -455.615)"/><path class="e" d="M469.329,473.313c-.052-.014.168-.685.295-1.8a7.369,7.369,0,0,0-.785-4.2,6.931,6.931,0,0,0-3-3.025,11.446,11.446,0,0,0-1.7-.612,1.452,1.452,0,0,1,.5.029,5.245,5.245,0,0,1,1.294.4,6.731,6.731,0,0,1,3.168,3.078,7.12,7.12,0,0,1,.73,4.359,8.343,8.343,0,0,1-.309,1.313A1.572,1.572,0,0,1,469.329,473.313Z" transform="translate(-462.961 -458.701)"/><path class="e" d="M464,461.048a10,10,0,0,1,.86,3c.285,1.7.6,3.042.535,3.066a10.274,10.274,0,0,1-.819-3.013C464.282,462.412,463.929,461.074,464,461.048Z" transform="translate(-463.002 -459.424)"/><path class="e" d="M476.876,466.751c-.006.085-.894.054-1.945.3s-1.837.656-1.88.581a4.664,4.664,0,0,1,3.824-.882Z" transform="translate(-460.502 -457.883)"/><path class="e" d="M476.988,468.046c-.013.086-.755,0-1.627.217s-1.5.609-1.552.538a3.167,3.167,0,0,1,3.179-.755Z" transform="translate(-460.293 -457.538)"/><path class="e" d="M477.982,469.69a4.419,4.419,0,0,0-3.237.736,2.554,2.554,0,0,1,3.237-.736Z" transform="translate(-460.036 -457.122)"/><path class="e" d="M476.439,467.039a1.635,1.635,0,0,1-.524-.061,10.877,10.877,0,0,1-1.386-.376,12.563,12.563,0,0,1-3.025-1.538,1.574,1.574,0,0,1-.778-1.2.917.917,0,0,1,1.184-.74,2.477,2.477,0,0,1,1.087.729,19.971,19.971,0,0,1,1.439,1.567c.385.468.674.865.863,1.146a1.764,1.764,0,0,1,.265.455c-.037.027-.482-.573-1.282-1.467-.4-.447-.893-.965-1.47-1.508a2.276,2.276,0,0,0-.966-.644c-.359-.092-.826.1-.832.48s.338.715.656.951c.347.245.7.468,1.04.665a14.146,14.146,0,0,0,1.89.91C475.715,466.841,476.449,466.992,476.439,467.039Z" transform="translate(-461.143 -458.859)"/><path class="e" d="M474.562,467.146a1.527,1.527,0,0,1-.015-.48c.013-.306.032-.752.1-1.3a6.877,6.877,0,0,1,.494-1.89,4.03,4.03,0,0,1,.616-1A1.042,1.042,0,0,1,477,462.08a1.2,1.2,0,0,1,.43,1.239,4.444,4.444,0,0,1-.342,1.124,5.783,5.783,0,0,1-1.117,1.608,7.055,7.055,0,0,1-1,.852,1.364,1.364,0,0,1-.415.242c-.032-.041.535-.429,1.261-1.234a6.024,6.024,0,0,0,1.022-1.577,4.324,4.324,0,0,0,.3-1.05c.045-.355,0-.8-.287-.951-.291-.171-.653.06-.892.331a3.908,3.908,0,0,0-.584.921,7.352,7.352,0,0,0-.533,1.811A17.184,17.184,0,0,1,474.562,467.146Z" transform="translate(-460.09 -459.164)"/></g><g transform="translate(39.836 422.786)"><path class="g" d="M405.662,466.4l-.073-12.777,23.931-.29.3,18.69-1.483.114c-6.6.447-33.585,1.806-38.015.522C385.385,471.22,405.662,466.4,405.662,466.4Z" transform="translate(-389.547 -453.329)"/><path class="e" d="M430.156,467.544a2.037,2.037,0,0,1-.411.05l-1.18.087-4.347.242c-3.671.179-8.748.359-14.357.435s-10.692.032-14.367-.047l-4.351-.126-1.183-.054a2.234,2.234,0,0,1-.412-.04,2.168,2.168,0,0,1,.413-.019h1.184l4.351.033c3.675.027,8.752.037,14.36-.037s10.679-.223,14.353-.35l4.349-.151,1.184-.032A2.45,2.45,0,0,1,430.156,467.544Z" transform="translate(-389.548 -449.408)"/><path class="e" d="M396.62,469.185a6.322,6.322,0,0,0-2.343-3.713,3.867,3.867,0,0,1,2.343,3.713Z" transform="translate(-388.243 -449.979)"/><path class="e" d="M401.892,465.93c-.068.043-.41-.364-.766-.909s-.591-1.023-.523-1.067.41.362.766.909S401.96,465.887,401.892,465.93Z" transform="translate(-386.5 -450.397)"/><path class="e" d="M403.447,464.968c-.052.06-.434-.188-.85-.553s-.712-.711-.66-.771.434.188.85.553S403.5,464.907,403.447,464.968Z" transform="translate(-386.13 -450.484)"/><path class="e" d="M404.6,462.923a5.468,5.468,0,0,1-2.5.06,2.811,2.811,0,0,1,1.247-.175A2.841,2.841,0,0,1,404.6,462.923Z" transform="translate(-386.084 -450.714)"/><path class="e" d="M404.983,461.65a3.522,3.522,0,0,1-2.83.249,104.343,104.343,0,0,0,2.83-.249Z" transform="translate(-386.069 -451.039)"/><path class="e" d="M401.933,464.331a4.446,4.446,0,0,1-1.538.01,9.056,9.056,0,0,1-1.642-.341,4.511,4.511,0,0,1-.942-.374.83.83,0,0,1-.387-.473.606.606,0,0,1,.225-.618,2.822,2.822,0,0,1,3.5.781,2.766,2.766,0,0,1,.514,1.02c.065.263.062.412.045.415a4.319,4.319,0,0,0-.717-1.3,2.775,2.775,0,0,0-1.325-.837,2.389,2.389,0,0,0-1.831.148c-.241.185-.143.471.131.629a4.554,4.554,0,0,0,.869.357,10.564,10.564,0,0,0,1.589.393C401.346,464.289,401.933,464.284,401.933,464.331Z" transform="translate(-387.379 -450.875)"/><path class="e" d="M400.687,464.586a1.518,1.518,0,0,1-.191-1.065,2.526,2.526,0,0,1,.406-1.129,1.542,1.542,0,0,1,1.27-.8.612.612,0,0,1,.484.7,1.679,1.679,0,0,1-.253.69,4.649,4.649,0,0,1-.715.939,2.234,2.234,0,0,1-.872.634c-.028-.037.3-.281.72-.772a5.382,5.382,0,0,0,.633-.931c.207-.328.343-.912-.043-.979-.385-.032-.773.356-1,.666a2.523,2.523,0,0,0-.422,1.006A5.561,5.561,0,0,0,400.687,464.586Z" transform="translate(-386.529 -451.049)"/><path class="e" d="M422.746,462.447c0,.054-.687-.056-1.766.084a7.5,7.5,0,0,0-6.2,5.076c-.352,1.031-.379,1.72-.434,1.715a1.432,1.432,0,0,1-.006-.484,6.266,6.266,0,0,1,.245-1.294,7.272,7.272,0,0,1,6.376-5.216,6.319,6.319,0,0,1,1.317.017A1.36,1.36,0,0,1,422.746,462.447Z" transform="translate(-382.709 -450.852)"/><path class="e" d="M418.9,454.636a83.194,83.194,0,0,1,.25,9.833,83.175,83.175,0,0,1-.25-9.833Z" transform="translate(-381.466 -452.968)"/><path class="e" d="M413.441,466.119a19.632,19.632,0,0,1-6.993.156c.008-.084,1.571-.009,3.5-.055S413.43,466.036,413.441,466.119Z" transform="translate(-384.883 -449.806)"/><path class="e" d="M415.749,466.063c.059.057-.124.333-.279.693s-.237.68-.32.675-.129-.376.055-.791S415.7,466.006,415.749,466.063Z" transform="translate(-382.501 -449.817)"/><path class="e" d="M417.161,464.321c.057.056-.093.307-.338.561s-.489.415-.547.36.094-.308.338-.561S417.1,464.267,417.161,464.321Z" transform="translate(-382.174 -450.298)"/><path class="e" d="M419.233,463.534c-.015.082-.334.083-.684.212s-.6.318-.664.264.131-.385.568-.538S419.256,463.46,419.233,463.534Z" transform="translate(-381.73 -450.548)"/><path class="e" d="M420.5,463.129c.031.074-.106.2-.3.278s-.382.084-.411.01.106-.2.3-.279S420.471,463.054,420.5,463.129Z" transform="translate(-381.203 -450.639)"/></g><g transform="translate(39.667 182.118)"><path class="e" d="M389.416,264.721,400.585,512.95l37.266.783-6.189-207.814,41.917,209.4H509.01l-47.32-250.6" transform="translate(-389.416 -264.721)"/><path class="g" d="M476.2,458.3c.2-.033.434.4.528.967s.013,1.054-.184,1.087-.434-.4-.53-.967S476,458.331,476.2,458.3Z" transform="translate(-365.524 -211.29)"/><path class="g" d="M475.113,451.929c.2-.033.51.85.7,1.972s.182,2.058-.015,2.091-.509-.85-.7-1.972S474.916,451.962,475.113,451.929Z" transform="translate(-365.804 -213.048)"/><path class="g" d="M474.043,445.559c.2-.033.51.85.7,1.973s.181,2.058-.015,2.091-.51-.85-.7-1.971S473.846,445.592,474.043,445.559Z" transform="translate(-366.099 -214.806)"/><path class="g" d="M472.972,439.189c.2-.033.51.85.7,1.973s.181,2.058-.015,2.091-.51-.85-.7-1.973S472.775,439.222,472.972,439.189Z" transform="translate(-366.394 -216.564)"/><path class="g" d="M471.9,432.818c.2-.033.51.85.7,1.973s.182,2.059-.014,2.093-.51-.85-.7-1.973S471.7,432.851,471.9,432.818Z" transform="translate(-366.691 -218.323)"/><path class="g" d="M470.824,426.448c.2-.033.51.85.7,1.971s.184,2.059-.013,2.093-.51-.85-.7-1.973S470.626,426.481,470.824,426.448Z" transform="translate(-366.987 -220.081)"/><path class="g" d="M469.746,420.077c.2-.033.51.85.7,1.973s.184,2.058-.013,2.093-.51-.85-.7-1.973S469.548,420.112,469.746,420.077Z" transform="translate(-367.285 -221.84)"/><path class="g" d="M468.664,413.708c.2-.034.512.85.7,1.973s.186,2.061-.01,2.094-.512-.85-.7-1.973S468.467,413.741,468.664,413.708Z" transform="translate(-367.583 -223.598)"/><path class="g" d="M467.579,407.338c.2-.033.512.85.7,1.971s.186,2.06-.01,2.093-.512-.849-.7-1.971S467.382,407.373,467.579,407.338Z" transform="translate(-367.883 -225.356)"/><path class="g" d="M466.49,400.97c.2-.033.512.849.7,1.97s.188,2.06-.009,2.093-.513-.849-.7-1.97S466.292,401,466.49,400.97Z" transform="translate(-368.184 -227.114)"/><path class="g" d="M465.394,394.6c.2-.034.513.847.707,1.969s.189,2.06-.008,2.093-.513-.847-.706-1.97S465.2,394.636,465.394,394.6Z" transform="translate(-368.485 -228.871)"/><path class="g" d="M464.3,388.236c.2-.034.513.847.707,1.969s.193,2.058-.005,2.093-.513-.847-.707-1.969S464.1,388.271,464.3,388.236Z" transform="translate(-368.789 -230.628)"/><path class="g" d="M463.189,381.87c.2-.034.516.847.71,1.969s.194,2.058,0,2.093-.514-.847-.709-1.969S462.993,381.9,463.189,381.87Z" transform="translate(-369.094 -232.386)"/><path class="g" d="M462.078,375.506c.2-.034.516.846.711,1.968s.2,2.058,0,2.093-.514-.847-.711-1.969S461.882,375.541,462.078,375.506Z" transform="translate(-369.4 -234.142)"/><path class="g" d="M460.959,369.142c.2-.034.517.846.715,1.968s.2,2.058,0,2.093-.516-.846-.713-1.968S460.762,369.177,460.959,369.142Z" transform="translate(-369.709 -235.899)"/><path class="g" d="M459.833,362.78c.2-.034.518.846.717,1.966s.2,2.058,0,2.093-.517-.846-.716-1.966S459.636,362.815,459.833,362.78Z" transform="translate(-370.02 -237.655)"/><path class="g" d="M458.7,356.419c.2-.034.518.845.718,1.966s.2,2.057.006,2.093-.518-.846-.718-1.966S458.5,356.455,458.7,356.419Z" transform="translate(-370.332 -239.411)"/><path class="g" d="M457.557,350.06c.2-.036.519.843.721,1.964s.205,2.058.009,2.093-.519-.843-.721-1.964S457.361,350.1,457.557,350.06Z" transform="translate(-370.647 -241.166)"/><path class="g" d="M456.4,343.7c.2-.036.522.843.725,1.964s.208,2.057.012,2.093-.521-.843-.723-1.964S456.21,343.738,456.4,343.7Z" transform="translate(-370.965 -242.921)"/><path class="g" d="M455.245,337.346c.2-.036.522.843.726,1.963s.212,2.057.015,2.093-.522-.842-.726-1.963S455.048,337.383,455.245,337.346Z" transform="translate(-371.285 -244.675)"/><path class="g" d="M454.074,330.993c.2-.037.523.841.73,1.96s.216,2.057.019,2.093-.524-.841-.731-1.961S453.877,331.029,454.074,330.993Z" transform="translate(-371.608 -246.429)"/><path class="g" d="M452.892,324.64c.2-.036.524.841.734,1.96s.218,2.056.022,2.093-.524-.841-.734-1.96S452.7,324.677,452.892,324.64Z" transform="translate(-371.934 -248.182)"/><path class="g" d="M451.7,318.291c.2-.037.526.84.736,1.957s.223,2.056.027,2.093-.527-.84-.738-1.959S451.5,318.327,451.7,318.291Z" transform="translate(-372.263 -249.935)"/><path class="g" d="M450.492,311.943c.2-.037.528.838.741,1.957s.226,2.054.031,2.091-.528-.838-.741-1.956S450.3,311.98,450.492,311.943Z" transform="translate(-372.596 -251.687)"/><path class="g" d="M449.274,305.6c.2-.038.53.837.745,1.955s.231,2.054.034,2.093-.53-.837-.745-1.955S449.077,305.635,449.274,305.6Z" transform="translate(-372.932 -253.438)"/><path class="g" d="M448.041,299.255c.2-.038.532.837.75,1.954s.235,2.054.038,2.093-.532-.836-.749-1.954S447.846,299.294,448.041,299.255Z" transform="translate(-373.271 -255.189)"/><path class="g" d="M446.8,292.916c.2-.039.533.835.754,1.951s.24,2.054.043,2.093-.533-.835-.754-1.952S446.6,292.955,446.8,292.916Z" transform="translate(-373.615 -256.939)"/><path class="g" d="M445.534,286.579c.2-.04.535.835.758,1.95s.245,2.053.049,2.093-.535-.835-.758-1.951S445.338,286.619,445.534,286.579Z" transform="translate(-373.963 -258.688)"/><path class="g" d="M444.256,280.246c.2-.041.538.832.764,1.947s.25,2.053.054,2.093-.537-.833-.763-1.948S444.06,280.285,444.256,280.246Z" transform="translate(-374.315 -260.436)"/><path class="g" d="M442.96,273.91c.2-.04.54.833.769,1.95s.256,2.054.06,2.1-.54-.832-.769-1.95S442.764,273.951,442.96,273.91Z" transform="translate(-374.673 -262.185)"/><path class="g" d="M441.989,269.145c.2-.041.449.383.565.946s.054,1.051-.142,1.092-.449-.383-.567-.946S441.792,269.184,441.989,269.145Z" transform="translate(-374.96 -263.501)"/><path class="g" d="M422.406,458.276c.2-.009.385.448.415,1.022s-.107,1.048-.306,1.059-.385-.447-.416-1.022S422.207,458.286,422.406,458.276Z" transform="translate(-380.396 -211.296)"/><path class="g" d="M422.133,451.8c.2-.006.4.912.44,2.054s-.083,2.072-.282,2.081-.4-.911-.44-2.054S421.934,451.8,422.133,451.8Z" transform="translate(-380.465 -213.084)"/><path class="g" d="M421.938,445.314c.2-.006.388.915.421,2.057s-.1,2.074-.3,2.079-.388-.915-.421-2.057S421.737,445.32,421.938,445.314Z" transform="translate(-380.524 -214.874)"/><path class="g" d="M421.774,438.83c.2-.005.384.917.412,2.06s-.111,2.072-.31,2.077-.385-.917-.413-2.059S421.575,438.835,421.774,438.83Z" transform="translate(-380.571 -216.663)"/><path class="g" d="M421.62,432.343c.2-.005.384.917.411,2.061s-.112,2.074-.313,2.079-.384-.919-.411-2.062S421.42,432.348,421.62,432.343Z" transform="translate(-380.614 -218.454)"/><path class="g" d="M421.45,425.854c.2-.005.387.917.419,2.061s-.106,2.074-.306,2.08-.387-.917-.417-2.061S421.251,425.86,421.45,425.854Z" transform="translate(-380.659 -220.245)"/><path class="g" d="M421.233,419.368c.2-.008.394.912.435,2.056s-.088,2.076-.288,2.082-.394-.915-.435-2.057S421.034,419.376,421.233,419.368Z" transform="translate(-380.715 -222.035)"/><path class="g" d="M420.958,412.888c.2-.009.4.91.449,2.052s-.075,2.074-.274,2.082-.4-.91-.449-2.052S420.758,412.9,420.958,412.888Z" transform="translate(-380.788 -223.824)"/><path class="g" d="M420.707,406.406c.2-.008.4.912.44,2.053s-.084,2.075-.283,2.082-.4-.912-.44-2.054S420.507,406.414,420.707,406.406Z" transform="translate(-380.859 -225.613)"/><path class="g" d="M420.483,399.923c.2-.006.392.914.431,2.056s-.092,2.074-.292,2.081-.393-.914-.431-2.057S420.282,399.931,420.483,399.923Z" transform="translate(-380.923 -227.402)"/><path class="g" d="M420.285,393.435c.2-.005.389.916.422,2.057s-.1,2.074-.3,2.079-.389-.915-.422-2.057S420.086,393.441,420.285,393.435Z" transform="translate(-380.98 -229.193)"/><path class="g" d="M420.117,386.951c.2-.005.385.918.415,2.06s-.111,2.072-.31,2.077-.385-.916-.413-2.059S419.918,386.956,420.117,386.951Z" transform="translate(-381.028 -230.983)"/><path class="g" d="M419.98,380.466c.2,0,.38.919.4,2.062s-.12,2.071-.319,2.076-.38-.919-.4-2.062S419.779,380.47,419.98,380.466Z" transform="translate(-381.069 -232.773)"/><path class="g" d="M419.872,373.981c.2,0,.376.92.394,2.063s-.129,2.071-.329,2.075-.376-.921-.394-2.065S419.672,373.984,419.872,373.981Z" transform="translate(-381.101 -234.563)"/><path class="g" d="M419.8,367.495c.2,0,.373.923.384,2.065s-.139,2.071-.339,2.074-.371-.923-.384-2.065S419.6,367.5,419.8,367.495Z" transform="translate(-381.124 -236.353)"/><path class="g" d="M419.752,361.009c.2,0,.367.925.374,2.067s-.149,2.07-.35,2.071-.367-.924-.374-2.067S419.553,361.01,419.752,361.009Z" transform="translate(-381.139 -238.144)"/><path class="g" d="M419.74,354.523c.2,0,.362.926.364,2.07s-.16,2.068-.36,2.068-.362-.925-.364-2.068S419.541,354.523,419.74,354.523Z" transform="translate(-381.145 -239.934)"/><path class="g" d="M419.761,348.037c.2,0,.357.928.352,2.071s-.17,2.068-.37,2.067-.357-.928-.353-2.071S419.561,348.036,419.761,348.037Z" transform="translate(-381.142 -241.724)"/><path class="g" d="M419.815,341.551c.2,0,.353.93.342,2.072s-.18,2.068-.38,2.066-.353-.929-.343-2.072S419.614,341.55,419.815,341.551Z" transform="translate(-381.131 -243.514)"/><path class="g" d="M419.9,335.065c.2,0,.348.932.332,2.075s-.191,2.066-.39,2.063-.35-.932-.333-2.075S419.7,335.062,419.9,335.065Z" transform="translate(-381.11 -245.305)"/><path class="g" d="M420.018,328.582c.2,0,.345.933.322,2.076s-.2,2.066-.4,2.062-.344-.933-.323-2.076S419.819,328.578,420.018,328.582Z" transform="translate(-381.08 -247.094)"/><path class="g" d="M420.167,322.093c.2.005.339.937.311,2.079s-.212,2.066-.412,2.062-.338-.935-.311-2.08S419.968,322.087,420.167,322.093Z" transform="translate(-381.043 -248.885)"/><path class="g" d="M420.4,315.6c.2.009.324.942.279,2.084s-.244,2.062-.444,2.056-.324-.94-.279-2.085S420.2,315.6,420.4,315.6Z" transform="translate(-380.988 -250.676)"/><path class="g" d="M420.8,309.125c.2.015.3.951.227,2.09s-.3,2.053-.5,2.042-.3-.947-.226-2.09S420.6,309.111,420.8,309.125Z" transform="translate(-380.898 -252.465)"/><path class="g" d="M421.412,302.666c.2.023.267.961.151,2.1s-.37,2.039-.569,2.021-.267-.956-.151-2.1S421.215,302.643,421.412,302.666Z" transform="translate(-380.757 -254.248)"/><path class="g" d="M422.019,297.845c.2.029.292.513.212,1.082s-.306,1.007-.505.98-.292-.51-.211-1.082S421.822,297.815,422.019,297.845Z" transform="translate(-380.564 -255.579)"/><path class="g" d="M417.672,267.188a6.319,6.319,0,0,1,.235,1.517c.1.98.231,2.4.373,4.155.282,3.509.623,8.362.956,13.722.154,2.672.3,5.218.439,7.562a23.286,23.286,0,0,0,.72,6.038,5.12,5.12,0,0,0,2.515,2.988,7.476,7.476,0,0,0,1.434.412c0,.022-.134.056-.4.063a3.135,3.135,0,0,1-1.145-.216,5.23,5.23,0,0,1-2.884-3.069c-.69-1.714-.729-3.875-.9-6.176-.154-2.343-.322-4.887-.5-7.558-.332-5.361-.592-10.218-.745-13.736-.075-1.758-.125-3.182-.142-4.168A6.274,6.274,0,0,1,417.672,267.188Z" transform="translate(-381.632 -264.04)"/><path class="g" d="M420.853,269.835c.056.093-.313.339-.346.926a1.121,1.121,0,0,0,.287.849.988.988,0,0,0,1.578-.642,1.123,1.123,0,0,0-.385-.808c-.434-.4-.869-.318-.894-.422-.065-.068.461-.42,1.194.008a1.555,1.555,0,0,1,.752,1.2,1.6,1.6,0,0,1-2.736,1.111,1.557,1.557,0,0,1-.3-1.387C420.23,269.856,420.854,269.742,420.853,269.835Z" transform="translate(-380.987 -263.392)"/><path class="g" d="M452.074,276.141a7.171,7.171,0,0,1-3.1,1.18,13.1,13.1,0,0,1-13.891-6.209,7.145,7.145,0,0,1-1.186-3.093c.119-.043.5,1.166,1.617,2.82a13.623,13.623,0,0,0,13.375,5.977C450.869,276.544,452.026,276.024,452.074,276.141Z" transform="translate(-377.14 -263.811)"/><path class="g" d="M402.193,267.189a5.278,5.278,0,0,1-.133,2.69,10.573,10.573,0,0,1-9.306,8.154,5.268,5.268,0,0,1-2.683-.222c.011-.121,1.031-.011,2.615-.285a11.1,11.1,0,0,0,8.881-7.781C402.045,268.21,402.072,267.184,402.193,267.189Z" transform="translate(-389.235 -264.04)"/></g><g transform="translate(12.782 67.533)"><g transform="translate(0 0.13)"><path class="o" d="M456.437,176.971a33.4,33.4,0,0,0-10.157-1.947h0a40.7,40.7,0,0,1-24.532.015l-.1.013A72.557,72.557,0,0,0,385.9,189.711l-17.553,13.65,9.717,36.686,14.284-8.223s-5.264,58.553-5.072,66.485l82.462-5.43-3.15-39.239-1.053-34.056,23.572,4.331,15.867-31.662" transform="translate(-368.346 -175.024)"/></g><g transform="translate(50.829)"><path class="e" d="M438.542,174.932a4.157,4.157,0,0,1-1.022.729,21.486,21.486,0,0,1-3.039,1.563,29.091,29.091,0,0,1-4.823,1.591,30.761,30.761,0,0,1-12.382.356,28.965,28.965,0,0,1-4.908-1.312,21.436,21.436,0,0,1-3.124-1.384,4.148,4.148,0,0,1-1.062-.669c.06-.119,1.638.707,4.35,1.57a33.414,33.414,0,0,0,4.851,1.138,33.116,33.116,0,0,0,12.129-.35,33.542,33.542,0,0,0,4.777-1.415C436.945,175.732,438.474,174.817,438.542,174.932Z" transform="translate(-408.18 -174.922)"/></g><g transform="translate(69.01 34.961)"><path class="e" d="M422.7,202.641a8.047,8.047,0,0,1,1.276-.074l3.752-.083,13.582-.16.315,0v.32c.01,2.541.022,5.288.033,8.187-.011,1.464.041,2.921-.024,4.492a9.508,9.508,0,0,1-1.5,4.541,9.631,9.631,0,0,1-6,4.2,9.592,9.592,0,0,1-10.925-5.572,10.011,10.011,0,0,1-.718-2.749c-.08-.915-.05-1.779-.042-2.6.057-3.193.1-5.816.139-7.754.026-.828.045-1.51.063-2.062a2.955,2.955,0,0,1,.054-.68,5.146,5.146,0,0,1,.054.778c.017.569.037,1.271.061,2.125.034,1.91.082,4.494.139,7.64.011.8,0,1.642.088,2.495a9.5,9.5,0,0,0,.713,2.571,8.99,8.99,0,0,0,10.22,5.121,8.956,8.956,0,0,0,5.552-3.9,8.854,8.854,0,0,0,1.392-4.2c.065-1.473.022-3,.04-4.442.013-2.9.024-5.646.034-8.187l.316.316-13.379-.161-3.823-.083A11.979,11.979,0,0,1,422.7,202.641Z" transform="translate(-422.429 -202.321)"/><g transform="translate(0.367 2.911)"><path class="e" d="M440.628,204.963c0-.041.184-.082.56-.119v.237c-1.253.142-4.793.244-8.955.244-5.256,0-9.517-.162-9.517-.362s4.261-.361,9.517-.361c4.162,0,7.7.1,8.955.242v.237C440.811,205.045,440.628,205.005,440.628,204.963Z" transform="translate(-422.716 -204.602)"/></g></g><g transform="translate(117.815 16.836)"><path class="e" d="M477.333,188.117a5.284,5.284,0,0,1-.579,1.285q-.75,1.415-1.8,3.38l-5.951,11.124-5.817,11.2q-1.034,1.973-1.774,3.39a5.34,5.34,0,0,1-.734,1.2,5.32,5.32,0,0,1,.48-1.326c.351-.835.886-2.028,1.568-3.494,1.365-2.932,3.335-6.943,5.636-11.311s4.5-8.256,6.147-11.038c.824-1.392,1.507-2.509,2-3.269A5.333,5.333,0,0,1,477.333,188.117Z" transform="translate(-460.676 -188.116)"/></g><g transform="translate(19.734 114.401)"><path class="e" d="M465.9,264.6c.011.2-18.356,1.448-41.02,2.789s-41.053,2.268-41.065,2.068,18.352-1.448,41.023-2.791S465.883,264.4,465.9,264.6Z" transform="translate(-383.811 -264.577)"/></g></g><path class="l" d="M372.546,201.477l-14.216,9.637L362,239.054l17.93-9.689Z" transform="translate(-358.329 -100.06)"/><g transform="translate(191.786 13.946)"><g transform="translate(0 0)"><g transform="translate(1.705 2.437)"><path class="j" d="M515.021,134.837l3.656,7.476a10.125,10.125,0,0,0,3.173,4.15l4.471,3.448a2.194,2.194,0,0,1,.685.9l9.879,23.895a.665.665,0,0,1-.36.868l-13.444,5.558a.666.666,0,0,1-.868-.361l-9.822-23.757a2.176,2.176,0,0,1-.139-1.178l.694-5.727a11.68,11.68,0,0,0-.694-5.087l-2.288-8.09Z" transform="translate(-509.965 -134.837)"/></g><g transform="translate(5.68 24.611)"><path class="d" d="M513.081,155.959l9.059-3.745,6.578,15.911-9.059,3.745" transform="translate(-513.081 -152.214)"/></g><rect class="j" width="7.287" height="2.316" rx="0.833" transform="matrix(-0.924, 0.382, -0.382, -0.924, 7.619, 2.14)"/><g transform="translate(4.29 5.409)"><path class="d" d="M513.937,143.5l4.195-1.734-2.218-4.6-3.923,1.622Z" transform="translate(-511.991 -137.166)"/></g><g transform="translate(8.698 31.387)"><path class="j" d="M515.717,162.449a3.563,3.563,0,1,0,1.932-4.654A3.565,3.565,0,0,0,515.717,162.449Z" transform="translate(-515.446 -157.524)"/></g><g transform="translate(5.958 25.156)"><path class="c" d="M513.3,156.518a13.381,13.381,0,0,1,2.266-1.125c1.461-.66,3.555-1.571,6.061-2.636l.269-.115.115.274c.91,2.169,1.941,4.629,3.034,7.239,1.069,2.621,2.076,5.091,2.964,7.27l.112.274-.272.11c-2.528,1.014-4.654,1.849-6.153,2.414a13.542,13.542,0,0,1-2.4.8,13.277,13.277,0,0,1,2.265-1.125c1.462-.66,3.556-1.571,6.062-2.636l-.16.384c-.91-2.169-1.941-4.629-3.034-7.24l-2.964-7.268.384.16c-2.527,1.016-4.652,1.849-6.153,2.414A13.542,13.542,0,0,1,513.3,156.518Z" transform="translate(-513.299 -152.641)"/></g><g transform="translate(5.835 6.576)"><path class="c" d="M513.207,139.343c-.07-.17.516-.573,1.309-.9s1.493-.456,1.563-.287-.515.573-1.309.9S513.277,139.513,513.207,139.343Z" transform="translate(-513.202 -138.081)"/></g><g transform="translate(6.54 8.282)"><path class="c" d="M513.76,140.68c-.07-.17.516-.573,1.309-.9s1.493-.457,1.563-.287-.517.573-1.309.9S513.83,140.85,513.76,140.68Z" transform="translate(-513.755 -139.417)"/></g></g><g transform="translate(14.443 17.546)"><path class="l" d="M523.352,146.711l-2.976,5.819c-.332.649-.653,1.474-.217,2.058a1.321,1.321,0,0,0,1.485.342,3.362,3.362,0,0,0,1.285-.98,17.05,17.05,0,0,0,3.056-4.723,1.8,1.8,0,0,0-.5-1.982A2.82,2.82,0,0,0,523.352,146.711Z" transform="translate(-519.948 -146.678)"/></g><g transform="translate(18.516 24.04)"><path class="l" d="M526.545,151.8q-1.489,2.909-2.976,5.819c-.332.649-.655,1.474-.217,2.06a1.32,1.32,0,0,0,1.485.341,3.361,3.361,0,0,0,1.285-.98,17.013,17.013,0,0,0,3.055-4.723,1.8,1.8,0,0,0-.5-1.982A2.821,2.821,0,0,0,526.545,151.8Z" transform="translate(-523.14 -151.767)"/></g><g transform="translate(16.259 19.647)"><path class="l" d="M524.774,149.582,521.8,155.4c-.332.649-.655,1.475-.217,2.06a1.323,1.323,0,0,0,1.485.342,3.364,3.364,0,0,0,1.284-.981,16.97,16.97,0,0,0,3.056-4.723s1.041-2.228-.759-3.41S524.774,149.582,524.774,149.582Z" transform="translate(-521.371 -148.324)"/></g></g><g transform="translate(40.027 78.427)"><path class="d" d="M390.143,196.881c-.175-.057.366-2.177,1.206-4.733s1.664-4.583,1.839-4.526-.366,2.177-1.207,4.734S390.318,196.939,390.143,196.881Z" transform="translate(-389.584 -182.311)"/><path class="d" d="M403.507,208.545c-.128.131-1.589-1.065-3.263-2.675s-2.93-3.02-2.8-3.153,1.587,1.064,3.263,2.675S403.633,208.412,403.507,208.545Z" transform="translate(-387.563 -178.147)"/><path class="d" d="M396,221.751c-.176.051-.792-1.541-1.378-3.556s-.917-3.692-.741-3.743.794,1.541,1.379,3.558S396.176,221.7,396,221.751Z" transform="translate(-388.557 -174.905)"/><path class="d" d="M398.863,234.022c-.049.177-2.1-.221-4.577-.889s-4.452-1.354-4.4-1.531,2.1.222,4.577.889S398.91,233.844,398.863,234.022Z" transform="translate(-389.648 -170.183)"/><path class="d" d="M417.287,218.47c.093.17-2.024,1.46-4.428,3.318s-4.2,3.563-4.344,3.429c-.13-.115,1.474-2.068,3.938-3.956S417.209,218.316,417.287,218.47Z" transform="translate(-384.506 -173.8)"/><path class="d" d="M412.3,206.2c-.182-.017-.065-2.911.264-6.462s.744-6.42.926-6.4.064,2.909-.264,6.463S412.484,206.212,412.3,206.2Z" transform="translate(-383.483 -180.735)"/><path class="d" d="M412.213,183.478c.08.165-2.081,1.386-4.828,2.727s-5.039,2.294-5.119,2.13,2.08-1.386,4.828-2.727S412.133,183.313,412.213,183.478Z" transform="translate(-386.23 -183.46)"/><path class="d" d="M430.042,192.005c-.134.126-1.876-1.507-3.889-3.648s-3.54-3.979-3.406-4.1,1.874,1.507,3.889,3.648S430.175,191.88,430.042,192.005Z" transform="translate(-380.578 -183.242)"/><path class="d" d="M431.49,210.251c.133.128-.9,1.424-2.313,2.9s-2.661,2.561-2.793,2.435.9-1.423,2.313-2.9S431.357,210.125,431.49,210.251Z" transform="translate(-379.575 -176.067)"/><path class="d" d="M429.1,233.706c-.154.1-1.557-1.793-3.133-4.226s-2.728-4.486-2.574-4.587,1.556,1.793,3.133,4.226S429.25,233.607,429.1,233.706Z" transform="translate(-380.403 -172.024)"/><path class="d" d="M416.38,239.555c-.107.142-2.008-1.147-4.035-3.111s-3.383-3.814-3.246-3.926,1.7,1.517,3.708,3.448S416.5,239.405,416.38,239.555Z" transform="translate(-384.346 -169.92)"/><path class="d" d="M403.718,245.466c.11.163-2.085,1.726-4.407,4.064-1.649,1.633-2.912,3.2-3.56,3.933l-.188-.223c.42-.147.655-.2.678-.151s-.168.2-.549.424l-.467.279.279-.5a20.924,20.924,0,0,1,3.337-4.23C401.224,246.665,403.634,245.32,403.718,245.466Z" transform="translate(-388.173 -166.347)"/><path class="d" d="M416.878,258.492c-.12.128-2.112-1.586-4.109-4.122s-3.209-4.867-3.057-4.952,1.605,2.049,3.579,4.54S417.012,258.354,416.878,258.492Z" transform="translate(-384.177 -165.255)"/><path class="d" d="M436.925,248.973c.111.145-2.294,2.171-5.372,4.521s-5.663,4.141-5.775,3.994,2.293-2.169,5.372-4.522S436.813,248.826,436.925,248.973Z" transform="translate(-379.74 -165.379)"/><path class="d" d="M429.283,246.324c.071.02.019.458-.133,1.2l-.083.4-.274-.343c-.66-.824-1.661-2.2-2.742-3.783-1.825-2.675-3.18-4.925-3.028-5.029s1.753,1.98,3.577,4.654c1.081,1.584,2,3.019,2.524,3.934l-.357.059C429.025,246.7,429.21,246.3,429.283,246.324Z" transform="translate(-380.503 -168.195)"/><path class="d" d="M444.639,241.394c-.122.114-2.224-2.177-3.891-5.594-1.686-3.408-2.211-6.472-2.047-6.5.194-.051,1,2.877,2.644,6.207C442.971,238.846,444.8,241.272,444.639,241.394Z" transform="translate(-376.18 -170.806)"/><path class="d" d="M403.3,265.4c-.066.171-3.166-.878-6.921-2.344s-6.748-2.792-6.68-2.963,3.165.878,6.921,2.344S403.368,265.233,403.3,265.4Z" transform="translate(-389.698 -162.311)"/><path class="d" d="M443.641,216.353c.14.119-1.244,1.982-3.091,4.161s-3.459,3.85-3.6,3.731,1.244-1.982,3.092-4.161S443.5,216.235,443.641,216.353Z" transform="translate(-376.658 -174.382)"/><path class="d" d="M444.334,206.53c-.148.084-1.807-2.717-3.059-6.51-1.267-3.791-1.612-7.027-1.442-7.047.194-.033.824,3.107,2.074,6.838C443.137,203.545,444.51,206.44,444.334,206.53Z" transform="translate(-375.871 -180.834)"/><path class="d" d="M447.968,185.615c-.005.176-3.272.217-7.263-.277s-7.153-1.316-7.115-1.487c.04-.188,3.236.346,7.2.827S447.976,185.425,447.968,185.615Z" transform="translate(-377.583 -183.362)"/><path class="d" d="M452.206,198.086c-.166-.08.846-2.533,2.26-5.478s2.695-5.269,2.86-5.19-.846,2.532-2.26,5.478S452.37,198.165,452.206,198.086Z" transform="translate(-372.45 -182.367)"/><path class="d" d="M461.853,205.576c.009.176-1.9.39-4.221.052s-4.095-1.069-4.036-1.235c.057-.182,1.869.259,4.13.578S461.848,205.385,461.853,205.576Z" transform="translate(-372.061 -177.693)"/><path class="d" d="M464.1,201.411c-.182-.018-.092-2.481.2-5.5s.683-5.454.865-5.436.092,2.481-.2,5.5S464.281,201.428,464.1,201.411Z" transform="translate(-369.188 -181.523)"/></g><g transform="translate(185.575 0)"><g transform="translate(0 5.878)"><path class="g" d="M510.881,134a12.89,12.89,0,0,0-.743-4.591,4.369,4.369,0,0,0-3.454-2.8c-1.556-.111-3.175,1.31-2.889,2.843.249,1.339,1.652,2.1,2.937,2.552s3.431.84,4.148,2" transform="translate(-503.762 -126.604)"/></g><g transform="translate(5.344)"><path class="g" d="M510.759,130.886a10.793,10.793,0,0,0,1.363-6.36,2.9,2.9,0,0,0-1.09-2.287,1.9,1.9,0,0,0-2.017.106,2.57,2.57,0,0,0-1.037,1.8,5.573,5.573,0,0,0,1.039,3.461,10.152,10.152,0,0,1,1.57,3.307" transform="translate(-507.95 -121.998)"/></g></g><g transform="translate(36.55 99.752)"><path class="e" d="M389.605,200.172c.182.019-.249,5.852-.965,13.028s-1.443,12.981-1.626,12.963.249-5.851.965-13.029S389.423,200.154,389.605,200.172Z" transform="translate(-386.973 -200.172)"/></g></g></g><g transform="translate(151.45 408.399)"><g transform="translate(518.578 93.56)"><g transform="translate(27.051)"><path class="p" d="M578.028,408.151a14.994,14.994,0,0,0-10.4,5.441,26.473,26.473,0,0,0-5.228,10.765c-1.947,7.54-.634,16.406,1.574,23.873,8.118-2.981,13.065-11.709,15.3-16.294,3.527-7.246,5.5-22.486-1.239-23.785" transform="translate(-561.447 -408.151)"/></g><g transform="translate(0 27.833)"><path class="p" d="M558.183,451.425a12.791,12.791,0,0,0,.489-12.834,16.984,16.984,0,0,0-10.3-8.136c-1.993-.593-4.3-.829-6.019.339a5.473,5.473,0,0,0-2.062,5.147,11.093,11.093,0,0,0,2.387,5.243c4.005,5.327,8.859,9.748,15.506,10.24" transform="translate(-540.247 -429.964)"/></g><g transform="translate(9.258 36.887)"><path class="e" d="M555.5,474.611a8.91,8.91,0,0,0,.351-1.566c.209-1.118.479-2.561.8-4.3.611-3.61,1.587-8.745.767-14.4a27.5,27.5,0,0,0-5.455-13.3,18.744,18.744,0,0,0-3.116-3.1,11.385,11.385,0,0,0-.976-.688c-.228-.148-.353-.218-.365-.2a29.171,29.171,0,0,1,4.142,4.231,28.381,28.381,0,0,1,5.213,13.133c.807,5.544-.091,10.632-.6,14.26-.274,1.823-.5,3.3-.624,4.326A8.525,8.525,0,0,0,555.5,474.611Z" transform="translate(-547.503 -437.059)"/></g><g transform="translate(16.874 11.471)"><path class="e" d="M577.7,417.141a3.267,3.267,0,0,0-.322.62l-.824,1.82c-.706,1.585-1.7,3.891-2.9,6.75-2.405,5.718-5.616,13.664-8.964,22.517s-6.194,16.943-8.173,22.822c-.99,2.939-1.771,5.325-2.289,6.98-.24.784-.435,1.416-.586,1.909a3.26,3.26,0,0,0-.168.679,3.312,3.312,0,0,0,.276-.642c.177-.485.4-1.106.686-1.876.6-1.7,1.438-4.048,2.459-6.92,2.074-5.843,4.979-13.9,8.323-22.751s6.495-16.812,8.8-22.566c1.134-2.828,2.061-5.14,2.733-6.815l.726-1.862A3.257,3.257,0,0,0,577.7,417.141Z" transform="translate(-553.471 -417.141)"/></g><g transform="translate(26.694 43.053)"><path class="p" d="M561.251,456.564a29.924,29.924,0,0,1,23.1-14.628c2.405-.2,5.3.185,6.4,2.338S590.425,449,588.8,450.8a25.566,25.566,0,0,1-27.632,6.417" transform="translate(-561.167 -441.891)"/></g><g transform="translate(18.083 49.556)"><path class="e" d="M582.6,447a7.839,7.839,0,0,0-1.507.069,14.369,14.369,0,0,0-1.756.219c-.678.131-1.466.212-2.3.453a26.537,26.537,0,0,0-2.738.786,29.653,29.653,0,0,0-3.049,1.189,33.209,33.209,0,0,0-6.411,3.875,32.576,32.576,0,0,0-5.281,5.317,28.351,28.351,0,0,0-1.854,2.7,24.378,24.378,0,0,0-1.374,2.5,21.769,21.769,0,0,0-.939,2.151,13.416,13.416,0,0,0-.584,1.672,7.486,7.486,0,0,0-.379,1.46c.12.041.681-2.044,2.258-5.1a26.089,26.089,0,0,1,1.415-2.428,29.928,29.928,0,0,1,1.866-2.626,33.839,33.839,0,0,1,5.221-5.193,34.646,34.646,0,0,1,6.281-3.847,31.041,31.041,0,0,1,2.983-1.219,27.868,27.868,0,0,1,2.682-.841C580.464,447.261,582.615,447.127,582.6,447Z" transform="translate(-554.419 -446.988)"/></g></g><g transform="translate(21.189)"><path class="o" d="M166.348,334.912c-7.229,1.162-10.46,10.044-9.828,17.337s3.63,14.424,2.828,21.7c-1.018,9.241-8,17.053-8.815,26.313-.96,10.923,6.763,20.61,9.07,31.329,1.122,5.215.965,10.73,2.907,15.7a19.626,19.626,0,0,0,37.9-6.771c.161-8.386-5.015-16.285-4.386-24.649.464-6.184,4.088-12.042,3.313-18.192-.924-7.318-7.706-12.517-10.1-19.494s-.094-14.67-.921-22c-1.481-13.153-8.775-22.324-21.971-21.267" transform="translate(-150.451 -334.829)"/></g><g transform="translate(0 63.775)"><path class="p" d="M134.021,384.809c-1.229,12.187,4.161,26.528,10.429,37.053a58.1,58.1,0,0,0,27.286,23.683c1.275.533,2.862.981,3.934.111a3.919,3.919,0,0,0,1-3.126,59.839,59.839,0,0,0-42.645-57.721" transform="translate(-133.845 -384.809)"/></g><g class="q" transform="translate(0 63.775)"><path class="p" d="M134.021,384.809c-1.229,12.187,4.161,26.528,10.429,37.053a58.1,58.1,0,0,0,27.286,23.683c1.275.533,2.862.981,3.934.111a3.919,3.919,0,0,0,1-3.126,59.839,59.839,0,0,0-42.645-57.721" transform="translate(-133.845 -384.809)"/></g><g transform="translate(15.723 85.751)"><path class="e" d="M183.717,466.277a3.185,3.185,0,0,1-.347-.679c-.23-.527-.518-1.187-.87-2-.732-1.74-1.827-4.247-3.222-7.322a260.474,260.474,0,0,0-12.1-23.429A260.665,260.665,0,0,0,152.7,410.806c-1.994-2.726-3.64-4.909-4.8-6.4-.532-.7-.965-1.277-1.312-1.737a3.156,3.156,0,0,1-.421-.635,3.1,3.1,0,0,1,.53.547l1.414,1.658c1.225,1.442,2.932,3.583,4.982,6.277A222.536,222.536,0,0,1,167.774,432.5a222.69,222.69,0,0,1,11.951,23.578c1.34,3.107,2.368,5.645,3.024,7.421.3.828.553,1.506.749,2.045A3.2,3.2,0,0,1,183.717,466.277Z" transform="translate(-146.167 -402.031)"/></g><g transform="translate(45.406 33.803)"><path class="e" d="M169.448,361.32a7.223,7.223,0,0,1,.133,1.169q.09,1.242.244,3.357c.191,2.981.462,7.184.794,12.351.658,10.429,1.584,24.835,2.7,40.74s2.223,30.3,3.032,40.722c.394,5.161.716,9.361.943,12.34q.144,2.113.228,3.356a7.225,7.225,0,0,1,.033,1.175,7.665,7.665,0,0,1-.171-1.162q-.134-1.237-.359-3.346c-.281-2.976-.676-7.169-1.164-12.323-.934-10.41-2.114-24.8-3.235-40.714s-1.966-30.322-2.5-40.761c-.24-5.17-.435-9.379-.574-12.363q-.073-2.121-.115-3.364A7.673,7.673,0,0,1,169.448,361.32Z" transform="translate(-169.429 -361.32)"/></g><g transform="translate(34.214 132.615)"><path class="e" d="M160.658,438.758h30.525v22.41a14.653,14.653,0,0,1-14.653,14.654h0a14.653,14.653,0,0,1-14.632-13.87Z" transform="translate(-160.658 -438.758)"/></g></g></g></svg>