<svg xmlns="http://www.w3.org/2000/svg" width="30.039" height="31.254" viewBox="0 0 30.039 31.254"><defs><style>.a{fill:#fff;}.b{fill:#ffba00;}</style></defs><path class="a" d="M315.182,247.682h0a2.489,2.489,0,0,0,0-3.519l-21.509-21.509a2.489,2.489,0,0,0-3.519,0h0a2.489,2.489,0,0,0,0,3.519l21.509,21.509A2.442,2.442,0,0,0,315.182,247.682Z" transform="translate(-286.07 -221.925)"/><path class="b" d="M281.443,295.841h0a2.362,2.362,0,0,0,3.335,0L297.2,283.419l-3.519-3.519-12.238,12.238A2.615,2.615,0,0,0,281.443,295.841Z" transform="translate(-280.675 -265.277)"/><path class="b" d="M358.84,230.464h0a2.362,2.362,0,0,0-3.335,0l-7.9,7.9,3.519,3.519,7.721-7.721A2.615,2.615,0,0,0,358.84,230.464Z" transform="translate(-329.57 -228.77)"/></svg>