<svg xmlns="http://www.w3.org/2000/svg" width="726.727" height="381.994" viewBox="0 0 726.727 381.994"><defs><style>.a-owner{fill:#ebf3fa;}.b-owner{fill:#ffb93e;}.c-owner{fill:#ffa412;}.d-owner{fill:#82b378;}.e-owner,.s-owner{fill:#e2810e;}.f-owner{fill:#ffb27d;}.g-owner{fill:#ed975d;}.h-owner{fill:#a9453d;}.i-owner{fill:#2c3a64;}.j-owner{fill:#291563;}.k-owner{fill:#372275;}.l-owner,.m-owner{fill:#ed9f4a;}.l-owner{opacity:0.2;}.m-owner{opacity:0.6;}.n-owner{fill:#2b478b;}.o-owner{fill:#233862;}.p-owner{fill:#f9ddbf;}.q-owner{fill:#f1a34f;}.r-owner{fill:#e5c1a1;}.s-owner{opacity:0.5;}.t-owner{fill:#ed985f;}.u-owner{fill:#ed7d2b;}.v-owner{fill:#f99746;}.w-owner{fill:#2e3552;}</style></defs><g transform="translate(-273.789 -142.209)"><path class="a-owner" d="M325.94,523.289S241.377,432.5,311.639,334.2c62.341-87.216,135.025-81.254,188.352-45.861,22.713,15.074,88.2,1.858,143.93-86.888,76.006-121.025,339.471-47.623,291.434,138.577-23.247,90.108,70.75,93.382,22.855,183.454Z" transform="translate(-7.152 0)"/><g transform="translate(700.628 426.412)"><path class="b-owner" d="M1812.516,1154.844l6.487,1.067a2.767,2.767,0,0,1,1.334.6,2.31,2.31,0,0,1,.766,1.181,1.9,1.9,0,0,1,.063.422,1.922,1.922,0,0,1-.024.393l-14.923,90.445a2.382,2.382,0,0,1-2.732,1.8l-.129-.018-6.487-1.067-.128-.024a2.378,2.378,0,0,1-2.01-2.576l14.923-90.446a1.9,1.9,0,0,1,.1-.379,1.877,1.877,0,0,1,.194-.379,2.32,2.32,0,0,1,1.105-.874A2.773,2.773,0,0,1,1812.516,1154.844Z" transform="translate(-1794.672 -1154.805)"/><path class="c-owner" d="M1814.088,1318.449l-7.995,48.455a2.285,2.285,0,0,1-2.693,1.561l-.129-.019-6.487-1.067-.128-.024a2.283,2.283,0,0,1-2.049-2.341l7.013-42.5C1805.114,1322.388,1810.051,1321.575,1814.088,1318.449Z" transform="translate(-1794.586 -1272.52)"/><g transform="translate(5.182 0.184)"><rect class="c-owner" width="1.042" height="11.64" transform="translate(8.177 11.473) rotate(-80.616)"/><rect class="c-owner" width="1.042" height="11.64" transform="translate(7.603 14.955) rotate(-80.643)"/><rect class="c-owner" width="1.042" height="11.64" transform="translate(6.914 19.126) rotate(-80.627)"/><rect class="c-owner" width="1.042" height="11.64" transform="translate(5.859 25.522) rotate(-80.631)"/><rect class="c-owner" width="1.042" height="11.64" transform="translate(4.743 32.286) rotate(-80.629)"/><rect class="c-owner" width="1.042" height="11.64" transform="translate(3.032 42.656) rotate(-80.642)"/><rect class="c-owner" width="1.042" height="11.64" transform="translate(1.43 52.361) rotate(-80.615)"/><rect class="c-owner" width="1.042" height="11.64" transform="translate(0 61.032) rotate(-80.631)"/><rect class="c-owner" width="1.042" height="11.64" transform="translate(8.723 8.163) rotate(-80.642)"/><rect class="c-owner" width="1.042" height="11.64" transform="translate(9.084 5.974) rotate(-80.629)"/><rect class="c-owner" width="1.042" height="11.64" transform="translate(9.433 3.862) rotate(-80.642)"/><path class="c-owner" d="M1847.592,1160.945l11.486,1.888.106-.642a1.922,1.922,0,0,0,.024-.393l-11.406-1.875a1.919,1.919,0,0,0-.1.379Z" transform="translate(-1837.897 -1158.67)"/><path class="c-owner" d="M1849.031,1156.333l11.149,1.833a2.313,2.313,0,0,0-.766-1.181l-9.278-1.526A2.321,2.321,0,0,0,1849.031,1156.333Z" transform="translate(-1838.932 -1155.46)"/></g></g><g transform="translate(712.396 426.412)"><path class="b-owner" d="M1854.442,1154.844l6.487,1.067a2.769,2.769,0,0,1,1.334.6,2.314,2.314,0,0,1,.766,1.181,2,2,0,0,1,.038.814l-14.923,90.445a2.382,2.382,0,0,1-2.732,1.8l-.129-.018-6.487-1.067-.128-.024a2.379,2.379,0,0,1-2.011-2.576l14.923-90.446a1.912,1.912,0,0,1,.1-.379,1.872,1.872,0,0,1,.194-.379,2.319,2.319,0,0,1,1.105-.874A2.772,2.772,0,0,1,1854.442,1154.844Z" transform="translate(-1836.598 -1154.805)"/><path class="c-owner" d="M1856.014,1318.449l-7.995,48.455a2.286,2.286,0,0,1-2.693,1.561l-.129-.019-6.486-1.067-.128-.024a2.283,2.283,0,0,1-2.049-2.341l7.013-42.5C1847.04,1322.388,1851.977,1321.575,1856.014,1318.449Z" transform="translate(-1836.512 -1272.52)"/><g transform="translate(5.182 0.184)"><rect class="c-owner" width="1.042" height="11.64" transform="translate(8.177 11.473) rotate(-80.616)"/><rect class="c-owner" width="1.042" height="11.64" transform="matrix(0.163, -0.987, 0.987, 0.163, 7.603, 14.955)"/><rect class="c-owner" width="1.042" height="11.64" transform="translate(6.914 19.126) rotate(-80.627)"/><rect class="c-owner" width="1.042" height="11.64" transform="translate(5.859 25.522) rotate(-80.629)"/><rect class="c-owner" width="1.042" height="11.64" transform="translate(4.743 32.286) rotate(-80.629)"/><rect class="c-owner" width="1.042" height="11.64" transform="translate(3.032 42.654) rotate(-80.627)"/><rect class="c-owner" width="1.042" height="11.64" transform="translate(1.43 52.362) rotate(-80.629)"/><rect class="c-owner" width="1.042" height="11.64" transform="translate(0 61.031) rotate(-80.629)"/><rect class="c-owner" width="1.042" height="11.64" transform="translate(8.723 8.161) rotate(-80.627)"/><rect class="c-owner" width="1.042" height="11.64" transform="matrix(0.163, -0.987, 0.987, 0.163, 9.084, 5.975)"/><rect class="c-owner" width="1.042" height="11.64" transform="translate(9.433 3.862) rotate(-80.642)"/><path class="c-owner" d="M1889.518,1160.945l11.486,1.888.106-.642a1.888,1.888,0,0,0,.024-.393l-11.406-1.875a1.9,1.9,0,0,0-.1.379Z" transform="translate(-1879.823 -1158.67)"/><path class="c-owner" d="M1890.957,1156.333l11.149,1.833a2.314,2.314,0,0,0-.766-1.181l-9.278-1.526A2.32,2.32,0,0,0,1890.957,1156.333Z" transform="translate(-1880.859 -1155.46)"/></g></g><g transform="translate(581.31 395.078)"><g transform="translate(9.78 115.446)"><path class="b-owner" d="M1500.424,1457.246l-.012,6.573a2.769,2.769,0,0,1-.383,1.414,2.314,2.314,0,0,1-1.042.945,1.877,1.877,0,0,1-.406.129,1.921,1.921,0,0,1-.391.04l-91.669-.218a2.383,2.383,0,0,1-2.211-2.408c0-.043,0-.087,0-.13l.012-6.574c0-.043,0-.086,0-.13a2.379,2.379,0,0,1,2.22-2.4l91.668.218a1.975,1.975,0,0,1,.8.173,2.314,2.314,0,0,1,1.039.951A2.762,2.762,0,0,1,1500.424,1457.246Z" transform="translate(-1404.308 -1454.489)"/><path class="c-owner" d="M1455.394,1466.245l-49.11-.116a2.286,2.286,0,0,1-1.974-2.408c0-.044,0-.087,0-.13l.012-6.574c0-.043,0-.086,0-.13a2.282,2.282,0,0,1,1.982-2.4l43.079.1C1450.065,1458.019,1451.661,1462.762,1455.394,1466.245Z" transform="translate(-1404.308 -1454.488)"/><g transform="translate(33.671 0.076)"><rect class="c-owner" width="11.64" height="1.042" transform="translate(50.229 11.759) rotate(-89.864)"/><rect class="c-owner" width="11.64" height="1.042" transform="translate(46.702 11.751) rotate(-89.864)"/><rect class="c-owner" width="11.64" height="1.042" transform="translate(42.471 11.741) rotate(-89.849)"/><rect class="c-owner" width="11.64" height="1.042" transform="matrix(0.002, -1, 1, 0.002, 35.991, 11.726)"/><rect class="c-owner" width="11.64" height="1.042" transform="translate(29.136 11.709) rotate(-89.864)"/><rect class="c-owner" width="11.64" height="1.042" transform="translate(18.627 11.685) rotate(-89.864)"/><rect class="c-owner" width="11.64" height="1.042" transform="translate(8.787 11.661) rotate(-89.864)"/><rect class="c-owner" width="11.64" height="1.042" transform="matrix(0.003, -1, 1, 0.003, 0, 11.64)"/><rect class="c-owner" width="11.64" height="1.042" transform="translate(53.586 11.768) rotate(-89.864)"/><rect class="c-owner" width="11.64" height="1.042" transform="translate(55.805 11.773) rotate(-89.88)"/><rect class="c-owner" width="11.64" height="1.042" transform="translate(57.945 11.778) rotate(-89.864)"/><path class="c-owner" d="M1736.5,1455.26l-.021,11.64.651,0a1.914,1.914,0,0,0,.391-.04l.021-11.559a1.9,1.9,0,0,0-.391-.041Z" transform="translate(-1676.922 -1455.119)"/><path class="c-owner" d="M1741.662,1455.881l-.021,11.3a2.311,2.311,0,0,0,1.042-.946l.017-9.4A2.312,2.312,0,0,0,1741.662,1455.881Z" transform="translate(-1680.634 -1455.566)"/></g></g><g transform="translate(0 103.782)"><path class="b-owner" d="M1465.579,1415.69l-.012,6.573a2.771,2.771,0,0,1-.383,1.414,2.314,2.314,0,0,1-1.043.946,1.987,1.987,0,0,1-.8.169l-91.668-.218a2.382,2.382,0,0,1-2.211-2.408c0-.043,0-.087,0-.13l.012-6.574c0-.043,0-.087,0-.13a2.379,2.379,0,0,1,2.22-2.4l91.668.218c.059,0,.118,0,.175.009a.6.6,0,0,1,.075.009.8.8,0,0,1,.082.012l.059.011a1.89,1.89,0,0,1,.405.131l.057.027c.019.009.038.018.056.028l.112.062.063.041c.02.013.038.024.056.038.036.023.07.049.1.075s.077.063.114.1.057.052.086.08c0,0,0,0,0,.005l.056.058a2.3,2.3,0,0,1,.161.189q.024.03.044.059c.015.02.028.041.042.062.028.042.056.086.082.129A2.764,2.764,0,0,1,1465.579,1415.69Z" transform="translate(-1369.463 -1412.933)"/><path class="c-owner" d="M1420.548,1424.689l-49.11-.117a2.284,2.284,0,0,1-1.973-2.408c0-.044,0-.087,0-.13l.012-6.574c0-.043,0-.087,0-.13a2.282,2.282,0,0,1,1.982-2.4l43.078.1c.02.095.039.19.06.287A21.534,21.534,0,0,0,1420.548,1424.689Z" transform="translate(-1369.463 -1412.932)"/><g transform="translate(33.674 0.075)"><rect class="c-owner" width="11.64" height="1.042" transform="translate(50.226 11.759) rotate(-89.866)"/><rect class="c-owner" width="11.64" height="1.042" transform="matrix(0.002, -1, 1, 0.002, 46.7, 11.751)"/><rect class="c-owner" width="11.64" height="1.042" transform="translate(42.47 11.741) rotate(-89.864)"/><rect class="c-owner" width="11.64" height="1.042" transform="translate(35.988 11.725) rotate(-89.864)"/><rect class="c-owner" width="11.64" height="1.042" transform="matrix(0.002, -1, 1, 0.002, 29.134, 11.709)"/><rect class="c-owner" width="11.64" height="1.042" transform="translate(18.623 11.684) rotate(-89.85)"/><rect class="c-owner" width="11.64" height="1.042" transform="translate(8.785 11.661) rotate(-89.864)"/><rect class="c-owner" width="11.64" height="1.042" transform="matrix(0.002, -1, 1, 0.002, 0, 11.64)"/><rect class="c-owner" width="11.64" height="1.042" transform="matrix(0.002, -1, 1, 0.002, 53.583, 11.767)"/><rect class="c-owner" width="11.64" height="1.042" transform="translate(55.801 11.773) rotate(-89.864)"/><rect class="c-owner" width="11.64" height="1.042" transform="translate(57.942 11.778) rotate(-89.864)"/><path class="c-owner" d="M1701.657,1413.7l-.021,11.641h.651a1.891,1.891,0,0,0,.391-.04l.021-11.559a1.9,1.9,0,0,0-.391-.042Z" transform="translate(-1642.08 -1413.561)"/><path class="c-owner" d="M1706.817,1414.324l-.021,11.3a2.315,2.315,0,0,0,1.043-.946l.017-9.4A2.312,2.312,0,0,0,1706.817,1414.324Z" transform="translate(-1645.792 -1414.009)"/></g></g><path class="b-owner" d="M1482.527,1375.279l-.012,6.574a2.765,2.765,0,0,1-.383,1.413,2.311,2.311,0,0,1-1.042.946,1.887,1.887,0,0,1-.406.129,1.919,1.919,0,0,1-.392.04l-91.668-.218a1.98,1.98,0,0,1-1.022-.289,2.576,2.576,0,0,1-1.182-2.006c0-.038-.006-.075-.007-.113s0-.087,0-.13l.012-6.574c0-.043,0-.087,0-.13a2.379,2.379,0,0,1,2.22-2.4l91.668.218a1.977,1.977,0,0,1,.391.042,1.876,1.876,0,0,1,.406.131,2.316,2.316,0,0,1,1.039.951A2.766,2.766,0,0,1,1482.527,1375.279Z" transform="translate(-1381.655 -1280.082)"/><path class="c-owner" d="M1437.5,1384.279l-49.11-.116a1.632,1.632,0,0,1-.912-.289,2.636,2.636,0,0,1-1.054-2.005c0-.038-.006-.075-.007-.113s0-.087,0-.13l.012-6.574c0-.043,0-.087,0-.13a2.282,2.282,0,0,1,1.982-2.4l43.079.1a21.915,21.915,0,0,0,5.709,11.367Q1437.345,1384.136,1437.5,1384.279Z" transform="translate(-1381.655 -1280.082)"/><path class="b-owner" d="M1490.426,1333.824l-.012,6.574a2.765,2.765,0,0,1-.383,1.413,2.31,2.31,0,0,1-1.042.946,1.882,1.882,0,0,1-.406.129,1.918,1.918,0,0,1-.391.04l-91.668-.218a2.382,2.382,0,0,1-2.211-2.408c0-.043,0-.087,0-.13l.012-6.574c0-.043,0-.086,0-.13a2.426,2.426,0,0,1,1.957-2.38,1.806,1.806,0,0,1,.263-.018l91.668.218a1.921,1.921,0,0,1,.391.041,1.889,1.889,0,0,1,.406.131,2.315,2.315,0,0,1,1.039.951A2.767,2.767,0,0,1,1490.426,1333.824Z" transform="translate(-1387.336 -1250.262)"/><path class="c-owner" d="M1445.4,1342.822l-49.11-.116a2.286,2.286,0,0,1-1.974-2.408c0-.043,0-.087,0-.131l.012-6.573c0-.043,0-.086,0-.13a2.37,2.37,0,0,1,1.748-2.381,1.462,1.462,0,0,1,.234-.018l43.079.1c0,.006,0,.013,0,.019C1440.074,1334.611,1441.669,1339.345,1445.4,1342.822Z" transform="translate(-1387.336 -1250.26)"/><path class="b-owner" d="M1466.49,1292.359l-.012,6.574a2.765,2.765,0,0,1-.383,1.413,2.308,2.308,0,0,1-1.043.946,1.9,1.9,0,0,1-.406.13c-.043.008-.086.016-.129.022l-.072.008c-.023,0-.048,0-.072.006s-.078,0-.118,0l-91.668-.218a2.382,2.382,0,0,1-2.211-2.408c0-.043,0-.087,0-.13l.012-6.573c0-.044,0-.087,0-.13s0-.071.006-.106a2.471,2.471,0,0,1,1.667-2.214c.022-.007.045-.013.067-.018a1.943,1.943,0,0,1,.48-.059l91.668.218c.068,0,.134,0,.2.01l.089.012h0c.034.005.068.013.1.02a1.867,1.867,0,0,1,.406.131,2.314,2.314,0,0,1,1.039.951A2.767,2.767,0,0,1,1466.49,1292.359Z" transform="translate(-1370.118 -1220.435)"/><path class="c-owner" d="M1421.459,1301.358l-49.11-.116a2.285,2.285,0,0,1-1.973-2.408c0-.043,0-.087,0-.13l.012-6.573c0-.044,0-.087,0-.13s0-.071.006-.106a2.423,2.423,0,0,1,1.54-2.23.686.686,0,0,1,.085-.022,1.529,1.529,0,0,1,.351-.04l43.079.1c0,.028.011.055.017.083a21.663,21.663,0,0,0,5.973,11.554Z" transform="translate(-1370.118 -1220.434)"/><path class="b-owner" d="M1465.879,1251.178l-.012,6.574a2.763,2.763,0,0,1-.383,1.413,2.313,2.313,0,0,1-1.043.946,1.843,1.843,0,0,1-.316.108h0c-.03.008-.058.015-.087.021a1.888,1.888,0,0,1-.391.04l-91.668-.217a1.759,1.759,0,0,1-.287-.023.941.941,0,0,1-.109-.02,2.455,2.455,0,0,1-1.815-2.365c0-.044,0-.087,0-.13l.012-6.574c0-.044,0-.087,0-.13a2.379,2.379,0,0,1,2.22-2.4l91.668.218c.059,0,.118,0,.175.009l.075.009c.027,0,.055.007.083.013s.039.007.059.011a1.858,1.858,0,0,1,.406.131l.058.027.056.028c.038.02.075.041.111.062s.081.051.12.079.07.049.1.076.077.063.113.1.057.052.086.08a.015.015,0,0,1,0,.005c.019.018.038.038.056.058a2.339,2.339,0,0,1,.161.189c.016.019.03.039.044.059l.043.062c.028.042.056.086.082.129A2.764,2.764,0,0,1,1465.879,1251.178Z" transform="translate(-1369.679 -1190.813)"/><path class="c-owner" d="M1420.848,1260.177l-49.11-.116c-.039,0-.078,0-.116,0a1.252,1.252,0,0,1-.127-.016,2.373,2.373,0,0,1-1.73-2.387c0-.044,0-.087,0-.13l.012-6.573c0-.044,0-.087,0-.13a2.281,2.281,0,0,1,1.982-2.4l43.078.1c.019.1.039.19.059.287a21.607,21.607,0,0,0,5.864,11.285Z" transform="translate(-1369.679 -1190.811)"/><path class="b-owner" d="M1482.827,1210.768l-.012,6.574a2.769,2.769,0,0,1-.383,1.413,2.312,2.312,0,0,1-1.043.946,1.976,1.976,0,0,1-.8.169l-91.668-.218a1.982,1.982,0,0,1-1.022-.289,2.577,2.577,0,0,1-1.182-2.005c0-.037-.006-.075-.007-.114s0-.086,0-.13l.012-6.573c0-.044,0-.087,0-.13a2.379,2.379,0,0,1,2.22-2.4l91.668.217a1.914,1.914,0,0,1,.391.042,1.859,1.859,0,0,1,.406.131,2.313,2.313,0,0,1,1.039.951A2.772,2.772,0,0,1,1482.827,1210.768Z" transform="translate(-1381.87 -1161.744)"/><path class="c-owner" d="M1437.8,1219.766l-49.11-.116a1.629,1.629,0,0,1-.912-.29,2.635,2.635,0,0,1-1.055-2c0-.038-.006-.075-.007-.114s0-.087,0-.13l.012-6.573c0-.043,0-.087,0-.13a2.283,2.283,0,0,1,1.982-2.4l43.079.1a21.919,21.919,0,0,0,5.708,11.367Q1437.645,1219.623,1437.8,1219.766Z" transform="translate(-1381.87 -1161.742)"/><path class="b-owner" d="M1509.593,1169.357l-.012,6.574a2.765,2.765,0,0,1-.383,1.414,2.31,2.31,0,0,1-1.043.945,1.974,1.974,0,0,1-.8.169l-91.668-.218a2.382,2.382,0,0,1-2.211-2.408c0-.043,0-.087,0-.13l.012-6.574c0-.043,0-.087,0-.13a2.428,2.428,0,0,1,1.958-2.38,1.853,1.853,0,0,1,.262-.018l91.668.218a1.981,1.981,0,0,1,.8.172,2.315,2.315,0,0,1,1.039.951A2.767,2.767,0,0,1,1509.593,1169.357Z" transform="translate(-1401.124 -1131.956)"/><path class="c-owner" d="M1464.563,1178.356l-49.11-.117a2.286,2.286,0,0,1-1.973-2.408c0-.043,0-.086,0-.13l.012-6.573c0-.043,0-.087,0-.13a2.371,2.371,0,0,1,1.748-2.381,1.415,1.415,0,0,1,.234-.017l43.079.1c0,.006,0,.013,0,.018C1459.24,1170.146,1460.836,1174.878,1464.563,1178.356Z" transform="translate(-1401.124 -1131.955)"/><path class="b-owner" d="M1466.789,1127.847l-.012,6.574a2.767,2.767,0,0,1-.383,1.413,2.312,2.312,0,0,1-1.043.946,1.867,1.867,0,0,1-.406.129c-.043.008-.086.017-.128.022s-.069.008-.1.011l-.051,0-.108,0-91.668-.218a2.382,2.382,0,0,1-2.211-2.408c0-.043,0-.087,0-.13l.012-6.574c0-.043,0-.087,0-.13a2.379,2.379,0,0,1,2.22-2.4l91.668.218c.039,0,.079,0,.118,0a1.909,1.909,0,0,1,.273.037,1.871,1.871,0,0,1,.406.131,1.923,1.923,0,0,1,.192.1c.039.022.077.045.114.07a.034.034,0,0,1,.012.008c.038.026.074.052.111.08a.11.11,0,0,1,.019.014,1.134,1.134,0,0,1,.1.083,1.99,1.99,0,0,1,.22.221c.022.024.043.049.062.074a.1.1,0,0,1,.011.014.551.551,0,0,1,.038.048l.007.01c.022.029.044.06.065.093s.06.089.088.137A2.765,2.765,0,0,1,1466.789,1127.847Z" transform="translate(-1370.333 -1102.097)"/><path class="c-owner" d="M1421.758,1136.845l-49.11-.116a2.285,2.285,0,0,1-1.973-2.408c0-.043,0-.087,0-.13l.012-6.574c0-.043,0-.087,0-.13a2.283,2.283,0,0,1,1.982-2.4l43.079.1c.017.088.035.178.056.269a21.552,21.552,0,0,0,5.934,11.367Z" transform="translate(-1370.333 -1102.094)"/><path class="b-owner" d="M1490.875,1087.388l-.012,6.574a2.765,2.765,0,0,1-.383,1.413,2.313,2.313,0,0,1-1.042.946,1.854,1.854,0,0,1-.406.129,1.887,1.887,0,0,1-.392.04l-91.668-.218a1.974,1.974,0,0,1-.99-.271,2.568,2.568,0,0,1-1.215-2.034c0-.034,0-.069-.005-.1s0-.087,0-.13l.012-6.573c0-.044,0-.087,0-.13a2.427,2.427,0,0,1,1.958-2.38,1.771,1.771,0,0,1,.263-.018l91.668.218a1.9,1.9,0,0,1,.391.041,1.914,1.914,0,0,1,.406.131,2.32,2.32,0,0,1,1.039.951A2.765,2.765,0,0,1,1490.875,1087.388Z" transform="translate(-1387.659 -1072.993)"/><path class="c-owner" d="M1445.845,1096.387l-49.11-.117a1.614,1.614,0,0,1-.884-.271,2.625,2.625,0,0,1-1.084-2.033c0-.034,0-.069-.005-.1s0-.086,0-.13l.012-6.573c0-.044,0-.087,0-.13a2.371,2.371,0,0,1,1.748-2.381,1.41,1.41,0,0,1,.234-.017l43.079.1c0,.006,0,.013,0,.019a21.886,21.886,0,0,0,5.725,11.367C1445.655,1096.209,1445.749,1096.3,1445.845,1096.387Z" transform="translate(-1387.659 -1072.992)"/><path class="b-owner" d="M1466.938,1045.922l-.012,6.574a2.766,2.766,0,0,1-.383,1.413,2.311,2.311,0,0,1-1.043.946,1.872,1.872,0,0,1-.406.129c-.043.008-.086.016-.129.022l-.073.008c-.023,0-.048,0-.072.005s-.078,0-.118,0l-91.669-.218a2.382,2.382,0,0,1-2.211-2.408c0-.044,0-.087,0-.13l.012-6.573c0-.043,0-.087,0-.131a2.379,2.379,0,0,1,2.22-2.4l91.668.218a1.917,1.917,0,0,1,.391.042,1.858,1.858,0,0,1,.406.131,2.313,2.313,0,0,1,1.039.95A2.767,2.767,0,0,1,1466.938,1045.922Z" transform="translate(-1370.44 -1043.165)"/><path class="c-owner" d="M1421.908,1054.921l-49.11-.116a2.286,2.286,0,0,1-1.973-2.408c0-.044,0-.087,0-.131l.012-6.573c0-.043,0-.087,0-.131a2.282,2.282,0,0,1,1.982-2.4l43.079.1c.681,3.423,2.271,8.155,5.99,11.637Z" transform="translate(-1370.44 -1043.164)"/><g transform="translate(33.76 0.076)"><rect class="c-owner" width="11.64" height="1.042" transform="translate(54.898 104.2) rotate(-89.864)"/><rect class="c-owner" width="11.64" height="1.042" transform="translate(51.372 104.191) rotate(-89.88)"/><rect class="c-owner" width="11.64" height="1.042" transform="matrix(0.002, -1, 1, 0.002, 47.143, 104.181)"/><rect class="c-owner" width="11.64" height="1.042" transform="translate(40.659 104.166) rotate(-89.864)"/><rect class="c-owner" width="11.64" height="1.042" transform="translate(33.804 104.149) rotate(-89.864)"/><rect class="c-owner" width="11.64" height="1.042" transform="translate(23.295 104.124) rotate(-89.864)"/><rect class="c-owner" width="11.64" height="1.042" transform="translate(13.458 104.101) rotate(-89.88)"/><rect class="c-owner" width="11.64" height="1.042" transform="translate(4.67 104.08) rotate(-89.864)"/><rect class="c-owner" width="11.64" height="1.042" transform="translate(58.254 104.207) rotate(-89.864)"/><rect class="c-owner" width="11.64" height="1.042" transform="translate(60.474 104.213) rotate(-89.88)"/><rect class="c-owner" width="11.64" height="1.042" transform="translate(62.614 104.218) rotate(-89.864)"/><path class="c-owner" d="M1718.607,1373.292l-.021,11.64.651,0a1.924,1.924,0,0,0,.391-.04l.021-11.559a1.942,1.942,0,0,0-.391-.042Z" transform="translate(-1654.358 -1280.711)"/><path class="c-owner" d="M1723.766,1373.913l-.02,11.3a2.313,2.313,0,0,0,1.043-.945l.017-9.4A2.316,2.316,0,0,0,1723.766,1373.913Z" transform="translate(-1658.07 -1281.158)"/><rect class="c-owner" width="11.64" height="1.042" transform="translate(25.512 92.489) rotate(-89.864)"/><rect class="c-owner" width="11.64" height="1.042" transform="matrix(0.002, -1, 1, 0.002, 15.673, 92.465)"/><rect class="c-owner" width="11.64" height="1.042" transform="translate(6.887 92.445) rotate(-89.864)"/><path class="c-owner" d="M1703.9,1254.926l.021-11.641-.914,0c.048-.006.1-.013.145-.022l.021-11.559q-.1-.02-.193-.031l.021-11.28h.406l-.02,11.182a2.311,2.311,0,0,0,1.042-.946l.017-9.4a2.361,2.361,0,0,0-.825-.833h.364l.021-11.64-1.042,0-.02,11.385a1.884,1.884,0,0,0-.333-.032l-.651,0-.021,11.641h.193l-.021,11.557.651,0c.04,0,.079,0,.118-.006l-.021,11.629Z" transform="translate(-1642.38 -1162.352)"/><rect class="c-owner" width="11.64" height="1.042" transform="translate(62.689 92.577) rotate(-89.864)"/><rect class="c-owner" width="11.64" height="1.042" transform="translate(64.829 92.582) rotate(-89.85)"/><path class="c-owner" d="M1726.505,1331.836l-.021,11.641h.651a1.91,1.91,0,0,0,.391-.04l.021-11.559a1.9,1.9,0,0,0-.391-.042Z" transform="translate(-1660.039 -1250.891)"/><path class="c-owner" d="M1731.665,1332.457l-.021,11.3a2.31,2.31,0,0,0,1.042-.946l.017-9.4A2.318,2.318,0,0,0,1731.665,1332.457Z" transform="translate(-1663.751 -1251.337)"/><path class="c-owner" d="M1667.7,1272.315l.021-11.64h-.192l.021-11.557-1.042,0-.021,11.64h.193l-.021,11.539-1.016,0-.021,11.64,1.042,0,.021-11.622Z" transform="translate(-1616.256 -1191.386)"/><path class="c-owner" d="M1642.305,1260.609h-.193l.021-11.557-1.042,0-.021,11.64h.193l-.021,11.557h.257l-.021,11.622,1.042,0,.021-11.64h-.257Z" transform="translate(-1598.598 -1191.339)"/><path class="c-owner" d="M1707.728,1290.991l-.021,11.3a2.312,2.312,0,0,0,1.043-.946l.017-9.4A2.315,2.315,0,0,0,1707.728,1290.991Z" transform="translate(-1646.532 -1221.509)"/><path class="c-owner" d="M1619.037,1249l-1.042,0-.021,11.64h.193l-.021,11.539h-.116l-.021,11.64,1.042,0,.021-11.622h.115l.021-11.64h-.193Z" transform="translate(-1581.984 -1191.3)"/><path class="c-owner" d="M1594.613,1248.938l-1.042,0-.021,11.64h.193l-.021,11.557,1.042,0,.021-11.64h-.193Z" transform="translate(-1564.415 -1191.258)"/><path class="c-owner" d="M1557.171,1248.85l-1.042,0-.021,11.64h.193l-.021,11.557,1.042,0,.021-11.64h-.193Z" transform="translate(-1537.482 -1191.194)"/><path class="c-owner" d="M1522.114,1248.766l-1.042,0-.021,11.64h.193l-.021,11.557,1.042,0,.021-11.64h-.193Z" transform="translate(-1512.265 -1191.134)"/><path class="c-owner" d="M1490.809,1248.692l-1.042,0-.021,11.64h.193l-.021,11.557,1.042,0,.021-11.64h-.193Z" transform="translate(-1489.746 -1191.081)"/><path class="c-owner" d="M1681.727,1249.146l-1.042,0-.021,11.64h.193l-.021,11.539h-.144l-.021,11.64,1.042,0,.021-11.622h.145l.021-11.64h-.193Z" transform="translate(-1627.079 -1191.407)"/><path class="c-owner" d="M1687.533,1220.062l-.838,0,.021-11.353-1.042,0-.021,11.64.838,0-.021,11.353h.193l-.021,11.557,1.042,0,.021-11.64h-.193Z" transform="translate(-1630.668 -1162.318)"/><rect class="c-owner" width="11.64" height="1.042" transform="translate(51.455 58.018) rotate(-89.864)"/><path class="c-owner" d="M1656.667,1219.992h-.507l-.021,11.64h.192l-.021,11.557,1.042,0,.021-11.64h-.193l.021-11.27h.507l.021-11.64-1.042,0Z" transform="translate(-1609.438 -1162.271)"/><rect class="c-owner" width="11.64" height="1.042" transform="translate(40.742 57.993) rotate(-89.849)"/><rect class="c-owner" width="11.64" height="1.042" transform="translate(33.888 57.976) rotate(-89.864)"/><rect class="c-owner" width="11.64" height="1.042" transform="translate(23.38 57.951) rotate(-89.866)"/><rect class="c-owner" width="11.64" height="1.042" transform="matrix(0.002, -1, 1, 0.002, 13.541, 57.928)"/><rect class="c-owner" width="11.64" height="1.042" transform="translate(4.754 57.907) rotate(-89.864)"/><path class="c-owner" d="M1694.476,1220.086h-.377l-.021,11.64h.193l-.021,11.539-.977,0-.021,11.64,1.042,0,.021-11.622.977,0,.021-11.64h-.193l.02-11.27h.377l.021-11.64-1.042,0Z" transform="translate(-1636.134 -1162.338)"/><rect class="c-owner" width="11.64" height="1.042" transform="translate(62.698 58.045) rotate(-89.864)"/><path class="c-owner" d="M1719.927,1220.383l.021-11.559a1.927,1.927,0,0,0-.391-.042l-.651,0-.021,11.64.651,0A1.9,1.9,0,0,0,1719.927,1220.383Z" transform="translate(-1654.573 -1162.373)"/><path class="c-owner" d="M1725.088,1219.755l.017-9.4a2.316,2.316,0,0,0-1.039-.951l-.021,11.3A2.312,2.312,0,0,0,1725.088,1219.755Z" transform="translate(-1658.285 -1162.82)"/><rect class="c-owner" width="11.64" height="1.042" transform="translate(62.494 46.404) rotate(-89.864)"/><rect class="c-owner" width="11.64" height="1.042" transform="translate(48.256 46.37) rotate(-89.864)"/><rect class="c-owner" width="11.64" height="1.042" transform="translate(41.401 46.354) rotate(-89.864)"/><rect class="c-owner" width="11.64" height="1.042" transform="translate(30.892 46.329) rotate(-89.864)"/><rect class="c-owner" width="11.64" height="1.042" transform="translate(21.053 46.305) rotate(-89.864)"/><rect class="c-owner" width="11.64" height="1.042" transform="translate(12.268 46.285) rotate(-89.88)"/><rect class="c-owner" width="11.64" height="1.042" transform="translate(65.851 46.412) rotate(-89.864)"/><rect class="c-owner" width="11.64" height="1.042" transform="translate(68.069 46.417) rotate(-89.864)"/><rect class="c-owner" width="11.64" height="1.042" transform="matrix(0.002, -1, 1, 0.002, 70.211, 46.422)"/><path class="c-owner" d="M1745.673,1167.371l-.021,11.64.651,0a1.915,1.915,0,0,0,.391-.04l.021-11.559a1.95,1.95,0,0,0-.391-.041Z" transform="translate(-1673.827 -1132.586)"/><path class="c-owner" d="M1750.833,1167.991l-.02,11.3a2.318,2.318,0,0,0,1.042-.946l.017-9.4A2.316,2.316,0,0,0,1750.833,1167.991Z" transform="translate(-1677.54 -1133.032)"/><path class="c-owner" d="M1667.063,1078.492l1.042,0,.021-11.64-1.016,0,.021-11.354,1.016,0,.021-11.64-1.042,0-.021,11.622-1.016,0-.021,11.641,1.016,0Z" transform="translate(-1616.58 -1043.739)"/><rect class="c-owner" width="11.64" height="1.042" transform="translate(46.952 34.744) rotate(-89.849)"/><rect class="c-owner" width="11.64" height="1.042" transform="translate(29.387 34.703) rotate(-89.864)"/><rect class="c-owner" width="11.64" height="1.042" transform="matrix(0.002, -1, 1, 0.002, 18.878, 34.678)"/><rect class="c-owner" width="11.64" height="1.042" transform="translate(9.039 34.655) rotate(-89.864)"/><rect class="c-owner" width="11.64" height="1.042" transform="translate(0.253 34.634) rotate(-89.866)"/><path class="c-owner" d="M1681.259,1078.521l.922,0-.021,11.622,1.042,0,.021-11.64-.923,0,.021-11.622h-.144l.021-11.354h.144l.021-11.64-1.042,0-.021,11.622h-.144l-.021,11.64h.144Z" transform="translate(-1627.418 -1043.76)"/><rect class="c-owner" width="11.64" height="1.042" transform="translate(56.058 34.767) rotate(-89.895)"/><path class="c-owner" d="M1697.915,1067.193h.184l.021-11.64-.914,0c.049-.006.1-.012.145-.023l.021-11.559a1.891,1.891,0,0,0-.391-.042l-.651,0-.021,11.641h.651c.04,0,.079,0,.118-.006l-.021,11.366c-.039,0-.078-.006-.118-.007l-.651,0-.021,11.623h-.569l.021-11.623-.977,0,.021-11.354.977,0,.021-11.64-1.042,0-.021,11.622-.977,0-.021,11.64.977,0-.021,11.372.792,0-.021,11.622,1.042,0,.021-11.622h.428a1.9,1.9,0,0,0,.391-.04l.021-11.331h.406l-.02,11.2a2.312,2.312,0,0,0,1.042-.946l.017-9.4A2.351,2.351,0,0,0,1697.915,1067.193Z" transform="translate(-1636.457 -1043.786)"/><rect class="c-owner" width="11.64" height="1.042" transform="translate(25.64 23.322) rotate(-89.88)"/><rect class="c-owner" width="11.64" height="1.042" transform="translate(15.799 23.299) rotate(-89.864)"/><rect class="c-owner" width="11.64" height="1.042" transform="translate(7.013 23.278) rotate(-89.864)"/><rect class="c-owner" width="11.64" height="1.042" transform="matrix(0.002, -1, 1, 0.002, 62.815, 23.411)"/><rect class="c-owner" width="11.64" height="1.042" transform="translate(64.956 23.416) rotate(-89.864)"/><path class="c-owner" d="M1726.954,1085.4l-.021,11.641h.651a1.9,1.9,0,0,0,.391-.04l.021-11.559a1.885,1.885,0,0,0-.391-.042Z" transform="translate(-1660.362 -1073.621)"/><path class="c-owner" d="M1733.135,1096.375l.017-9.4a2.319,2.319,0,0,0-1.039-.95l-.021,11.3A2.312,2.312,0,0,0,1733.135,1096.375Z" transform="translate(-1664.074 -1074.069)"/><rect class="c-owner" width="11.64" height="1.042" transform="translate(46.995 11.751) rotate(-89.864)"/><path class="c-owner" d="M1643.086,1043.8l-1.042,0-.021,11.64h.257l-.02,11.353H1642l-.021,11.64,1.042,0,.021-11.372h.257l.021-11.64h-.257Z" transform="translate(-1599.254 -1043.692)"/><path class="c-owner" d="M1618.684,1055.359h-.116l-.021,11.64h.115l-.021,11.372,1.042,0,.021-11.64h-.115l.021-11.353h.115l.021-11.64-1.042,0Z" transform="translate(-1582.397 -1043.652)"/><rect class="c-owner" width="11.64" height="1.042" transform="translate(29.429 11.71) rotate(-89.864)"/><rect class="c-owner" width="11.64" height="1.042" transform="translate(18.92 11.684) rotate(-89.864)"/><rect class="c-owner" width="11.64" height="1.042" transform="translate(9.079 11.661) rotate(-89.85)"/><rect class="c-owner" width="11.64" height="1.042" transform="matrix(0.002, -1, 1, 0.002, 0.296, 11.64)"/><rect class="c-owner" width="11.64" height="1.042" transform="translate(56.095 11.772) rotate(-89.849)"/><path class="c-owner" d="M1708.177,1044.557l-.021,11.3a2.313,2.313,0,0,0,1.043-.946l.017-9.4A2.313,2.313,0,0,0,1708.177,1044.557Z" transform="translate(-1646.855 -1044.242)"/></g></g><g transform="translate(687.905 426.458)"><path class="b-owner" d="M1768.373,1155.013l6.472,1.149a2.767,2.767,0,0,1,1.326.622,2.315,2.315,0,0,1,.751,1.19,1.875,1.875,0,0,1,.057.422,1.9,1.9,0,0,1-.029.392l-16.079,90.247a2.382,2.382,0,0,1-2.755,1.761l-.129-.02-6.472-1.15c-.043-.007-.085-.016-.128-.025a2.38,2.38,0,0,1-1.978-2.6l16.079-90.247c.011-.058.023-.115.039-.171a.722.722,0,0,1,.021-.072c.008-.026.017-.053.027-.079s.014-.037.021-.056a1.889,1.889,0,0,1,.2-.377c.011-.018.023-.034.036-.052s.025-.034.038-.051c.026-.033.053-.067.08-.1s.033-.038.051-.056.03-.033.047-.049c.03-.031.061-.06.093-.09s.076-.065.115-.095.061-.048.094-.071l.006,0,.066-.045a2.2,2.2,0,0,1,.214-.125l.066-.033.068-.031c.046-.02.094-.04.141-.058A2.768,2.768,0,0,1,1768.373,1155.013Z" transform="translate(-1749.344 -1154.968)"/><path class="c-owner" d="M1769.353,1318.7l-8.614,48.349a2.284,2.284,0,0,1-2.713,1.526l-.129-.02-6.473-1.15-.128-.025a2.282,2.282,0,0,1-2.019-2.368l7.556-42.41.293-.009A21.529,21.529,0,0,0,1769.353,1318.7Z" transform="translate(-1749.253 -1272.743)"/><g transform="translate(5.585 0.172)"><rect class="c-owner" width="1.042" height="11.64" transform="translate(8.81 11.432) rotate(-79.879)"/><rect class="c-owner" width="1.042" height="11.64" transform="matrix(0.175, -0.985, 0.985, 0.175, 8.192, 14.907)"/><rect class="c-owner" width="1.042" height="11.64" transform="translate(7.45 19.07) rotate(-79.896)"/><rect class="c-owner" width="1.042" height="11.64" transform="translate(6.313 25.451) rotate(-79.896)"/><rect class="c-owner" width="1.042" height="11.64" transform="matrix(0.175, -0.985, 0.985, 0.175, 5.11, 32.201)"/><rect class="c-owner" width="1.042" height="11.641" transform="translate(3.267 42.546) rotate(-79.894)"/><rect class="c-owner" width="1.042" height="11.64" transform="matrix(0.175, -0.985, 0.985, 0.175, 1.541, 52.234)"/><rect class="c-owner" width="1.042" height="11.64" transform="translate(0 60.881) rotate(-79.882)"/><rect class="c-owner" width="1.042" height="11.64" transform="translate(9.399 8.129) rotate(-79.896)"/><rect class="c-owner" width="1.042" height="11.64" transform="translate(9.788 5.946) rotate(-79.894)"/><rect class="c-owner" width="1.042" height="11.64" transform="translate(10.164 3.837) rotate(-79.896)"/><path class="c-owner" d="M1806.369,1161l11.461,2.035.114-.641a1.9,1.9,0,0,0,.029-.392l-11.381-2.022a1.9,1.9,0,0,0-.109.378Z" transform="translate(-1795.924 -1158.746)"/><path class="c-owner" d="M1807.873,1156.439l11.125,1.976a2.31,2.31,0,0,0-.751-1.191l-9.258-1.644A2.319,2.319,0,0,0,1807.873,1156.439Z" transform="translate(-1797.006 -1155.58)"/></g></g><path class="d-owner" d="M2492.892,1384.3H2453.5c-2.111-1.79,1.461-5.857,5.193-6.13a22.992,22.992,0,0,1,6.012.712c.542-7.2,3.638-39.567,15.3-38.266,13.119,1.456,0,14.254-3.708,21.831a180.361,180.361,0,0,0-6.969,17.458c1.065.231,2.167.457,3.293.665,1.739-5.339,8.208-23.3,16.436-22.25,9.66,1.225,5.777,8.425-1.069,12.7-5.023,3.143-11.191,7.61-14.122,9.768a41.846,41.846,0,0,0,7.7.617C2488.321,1381.238,2491.615,1383.227,2492.892,1384.3Z" transform="translate(-1567.482 -862.022)"/><path class="d-owner" d="M725.69,1417.594c-1.565-2.458-6.274-8.836-12.544-7.992-6.833.92,7.546,5.425,11.949,8.011a7.31,7.31,0,0,1-2.436-.285c-2.943-1.049-7.984.963-9.6,1.669h28.019a4.439,4.439,0,0,0-2-2.562,5,5,0,0,0-2.578-.23c1.666-1.964,2.823-8.238-1.815-6.623-3.388,1.18-3.379,5.013-3.046,7.281-.721.113-1.452.227-2.174.331-1.4-7.11-6.329-27.946-16.33-28.5-10.138-.563,8.6,21.609,14.835,28.7C727.172,1417.488,726.4,1417.561,725.69,1417.594Z" transform="translate(-313.913 -896.627)"/><g transform="translate(604.014 258.403)"><circle class="e-owner" cx="40.349" cy="40.349" r-owner="40.349" transform="translate(0 57.062) rotate(-45)"/><circle class="b-owner" cx="40.349" cy="40.349" r-owner="40.349" transform="translate(4.704 87.537) rotate(-75.284)"/><g transform="translate(17.43 22.4)"><path class="c-owner" d="M1549.3,709.545a36.752,36.752,0,1,1,17.685-4.561A36.791,36.791,0,0,1,1549.3,709.545Zm-.111-71.342a34.673,34.673,0,1,0,9.656,1.378A34.726,34.726,0,0,0,1549.188,638.2Z" transform="translate(-1512.459 -636.01)"/></g><g transform="translate(37.268 32.646)"><path class="c-owner" d="M1609.662,705.951a6.063,6.063,0,0,0-1.106-1.828,4.433,4.433,0,0,0-1.646-1.117,8.388,8.388,0,0,0-2.35-.523,22.092,22.092,0,0,0-3.205-.021,58.01,58.01,0,0,1-5.894.008,18.3,18.3,0,0,1-4.9-.888,10.77,10.77,0,0,1-3.847-2.253,12.148,12.148,0,0,1-3.575-8.52,10.212,10.212,0,0,1,.967-4.147,12.743,12.743,0,0,1,2.634-3.67,17.015,17.015,0,0,1,4.176-2.973l-2.3-5.654,4.55-1.848,2.328,5.732a15.26,15.26,0,0,1,4.962-.507,11.529,11.529,0,0,1,8.058,3.976,15.339,15.339,0,0,1,2.69,4.463l-8.219,3.337a7.472,7.472,0,0,0-3.333-4.171,5.192,5.192,0,0,0-4.406-.042,6.6,6.6,0,0,0-2.059,1.252,4.47,4.47,0,0,0-1.125,1.595,4.17,4.17,0,0,0-.286,1.825,6.122,6.122,0,0,0,.456,1.938,5.617,5.617,0,0,0,1,1.654,4.152,4.152,0,0,0,1.577,1.068,8.384,8.384,0,0,0,2.363.517,28.248,28.248,0,0,0,3.357.068q3.176-.089,5.878.075a18.508,18.508,0,0,1,4.9.92,10.394,10.394,0,0,1,6.551,6.342,11.108,11.108,0,0,1,.884,4.5,10.1,10.1,0,0,1-.991,4.126,12.314,12.314,0,0,1-2.689,3.616,18.383,18.383,0,0,1-4.221,2.945l2.135,5.257-4.522,1.836-2.124-5.231a20.587,20.587,0,0,1-4.982.823,13.058,13.058,0,0,1-4.839-.7,11.683,11.683,0,0,1-4.259-2.657,14.216,14.216,0,0,1-3.234-5.026l8.219-3.337a8.766,8.766,0,0,0,1.8,2.917,5.668,5.668,0,0,0,2.223,1.436,5.5,5.5,0,0,0,2.434.242,9.42,9.42,0,0,0,2.413-.626,7.873,7.873,0,0,0,2.207-1.3,5.239,5.239,0,0,0,1.306-1.639,4.179,4.179,0,0,0,.439-1.855A5.09,5.09,0,0,0,1609.662,705.951Z" transform="translate(-1583.137 -672.517)"/></g></g><g transform="translate(679.556 184.762)"><path class="f-owner" d="M1738.1,673.648c-1.688-1.192-5.516-3.814-5.714-3.23a2.57,2.57,0,0,0,.52,1.877c-2.316-.865-4.666-1.432-10.226-.364a4.164,4.164,0,0,0-2.735,1.8,1.837,1.837,0,0,0,.64,2.868c2.837,1.764,2.014.707,5.957,3.276s8.77,3.224,11.654,1.422l3.87-.645.48-6.366S1740.336,674.023,1738.1,673.648Z" transform="translate(-1719.507 -564.659)"/><path class="f-owner" d="M2086.8,439.675s-9.125,10.825-20.745,6.3c0,0-2.5-6.046-2.535-10.5,0-.549-.011-1.08-.02-1.586-.062-5.019-.231-7.835-.231-7.835l.012,0c.529-.22,17.763-7.3,17.749-6.709C2080.738,432.911,2086.8,439.675,2086.8,439.675Z" transform="translate(-1966.789 -384.085)"/><path class="g-owner" d="M2079.3,430.632c-1.662,3.081-7.365,9.108-15.8,11.31-.062-5.019-.231-7.835-.231-7.835l.012,0C2063.762,433.977,2079.8,429.724,2079.3,430.632Z" transform="translate(-1966.789 -392.142)"/><path class="f-owner" d="M2042.685,359.607s19.383,4.557,22.035-7.558,6.939-19.684-5.324-23.106-15.687.672-17.556,4.5S2037.711,358.11,2042.685,359.607Z" transform="translate(-1949.81 -318.164)"/><path class="h-owner" d="M2047.436,331.008c.265.169,4.435,1.45,12.333-14.284a13.7,13.7,0,0,0-.805-12.534c-2.89-4.721-13.138-8.433-21.652-10.049s-10.559,3.175-12.563,7.991c-2.1,5.055-8.184,9.216-8.184,9.216,7.342,4.1,16.185-1.765,19.249-.8s4.146,5.793,4.375,7.341.583,2.834,4.436,1.452,1.742,5.459,1.125,6.767C2045.75,326.107,2045.227,329.592,2047.436,331.008Z" transform="translate(-1933.19 -293.821)"/><g transform="translate(82.472 148.809)"><path class="i-owner" d="M2303.5,1428.379h11.736c2.46,0,5.194-2.464,5.878-6.974s5.742-6.973,6.837-10.665-4.513-8.89-4.513-8.89l-.938-1.2-.975-1.256-9.3,2.187s-.229,2.214-.373,5.033a64.246,64.246,0,0,0-.038,6.453c.273,4.924-1.379,10.224-5.752,11.182S2303.5,1428.379,2303.5,1428.379Z" transform="translate(-2221.8 -1237.901)"/><path class="i-owner" d="M2013.35,1459.264h31.11a2.806,2.806,0,0,0,.661-.192c2.077-1.04,1.427-8.992,1.177-11.449-.048-.455-.082-.722-.082-.722s-10.939-8.75-12.445-2.05c-.048.209-.1.414-.161.616v0c-1.9,6.269-10.388,9.116-15.292,9.91C2014.571,1455.989,2013.6,1458.172,2013.35,1459.264Z" transform="translate(-2013.35 -1268.786)"/><path class="j-owner" d="M2035.691,856.119s1.661,20.728,3.614,45.644c2.654,33.847,5.846,75.423,6.161,83.3.546,13.676,2.736,35.553,2.736,35.553s5.193,5.2,15.588,3.007c0,0,9.262-31.229,11.908-64.272.041-.541.082-1.087.123-1.633,2.461-33.638,6.288-104.469,6.288-104.469Z" transform="translate(-2029.421 -845.043)"/><path class="k-owner" d="M2035.691,856.119s1.661,20.728,3.614,45.644l36.394,57.586c.041-.541.082-1.087.123-1.633,2.461-33.638,6.288-104.469,6.288-104.469Z" transform="translate(-2029.421 -845.043)"/><path class="j-owner" d="M2062.723,837.553s29.946,75.069,49.636,110.348,25.843,45.124,25.843,45.124,11.281-4.513,12.307-7.589c0,0-7.53-68.107-20.716-84.71-7.45-9.382-16.2-37.535-16.614-47.38s-2.667-29.33-2.667-29.33Z" transform="translate(-2048.865 -824.016)"/></g><g transform="translate(112.242 56.79)"><path class="f-owner" d="M2305.438,819.124l.316,4.828a10.4,10.4,0,0,0,5.737,12.977s3.819,1.54,3.974-1.433-.334-1.854-.023-6.041-1.336-8.143-4.1-9.476l-2.272-2.622Z" transform="translate(-2253.058 -727.207)"/><path class="k-owner" d="M2175.28,591.592c-3.315,1.064-3.845.824-3.845.824s-16.133-29.371-17.767-32.06-34.253-32.937-34.253-32.937l8.382-31.258S2164.9,544.2,2168.9,551.1c6.62,11.392,10.5,37.849,10.5,37.849A9.706,9.706,0,0,1,2175.28,591.592Z" transform="translate(-2119.415 -496.16)"/></g><path class="j-owner" d="M2013.069,521.777c.116,6.419.489,13.636.992,20.965q.047.652.092,1.3c.322,4.54.671,9.091,1.071,13.529.161,1.779.332,3.538.51,5.266l.028.233c.013.646.092,1.348.164,1.988,1.635,16.623,3.349,29.755,3.668,29.957a1.866,1.866,0,0,0,1.276.325c4.359-.548,17.365.441,28.013-1.875,8.986-1.9,16.722-5.488,24.921-10.334,1.088-.643,3.569-2.347,3.367-3.62-.2-1.4-.565-3.422-1.03-5.964a322.731,322.731,0,0,1-5.355-41.851q-.277-4.973-.8-9.81a148.9,148.9,0,0,0-4.342-23.429c-3.651-13.146-9.016-23.213-15.747-27.151-.879-.493-5.611,2.518-9.957,5.307a19.186,19.186,0,0,1-12.349,2.926l-3.617,4c-4.38,5.092-9.043,11.87-10.316,21.506q-.144,1.068-.247,2.272A141.362,141.362,0,0,0,2013.069,521.777Z" transform="translate(-1930.648 -421.456)"/><path class="k-owner" d="M2013.069,595.289c.116,6.419.489,13.636.992,20.965q.047.652.092,1.3c24.9-15.586,28.736-44.106,28.736-44.106-12.25.537-21.981,3.353-29.482,7.38A141.361,141.361,0,0,0,2013.069,595.289Z" transform="translate(-1930.648 -494.969)"/><path class="j-owner" d="M1788.95,564.1c-.256-3.693,1.656-4.308,1.656-4.308s37.543-6.8,40.734-7.808,30.481-29.393,30.481-29.393,10.46-11.8,19.025-9.192c7.443,2.264,10.352,8.069,11.343,13.6a16.292,16.292,0,0,1-7.566,16.724c-12.812,7.858-38.462,23.341-44.5,25.112-13.445,3.942-49.568.316-49.568.316A11.653,11.653,0,0,1,1788.95,564.1Z" transform="translate(-1769.443 -451.499)"/></g><path class="l-owner" d="M1502.064,846.716V986.264a14.844,14.844,0,0,1-14.8,14.8H1343.822a15.064,15.064,0,0,1-10.186-3.967,15.244,15.244,0,0,1-3.241-4.21c-.045-.085-.087-.17-.13-.257a14.915,14.915,0,0,1-1.534-5.653c-.026-.344-.038-.691-.038-1.042V847.611a22.9,22.9,0,0,1,10.643-19.28l.017-.009a19.832,19.832,0,0,0,8.225-22.654h135.6a19.828,19.828,0,0,0,7.553,22.2s0,0,0,0c.342.238.691.467,1.047.682l0,0A21.282,21.282,0,0,1,1502.064,846.716Z" transform="translate(-758.826 -477.247)"/><path class="l-owner" d="M1707.821,846.716V986.264a14.849,14.849,0,0,1-13.754,14.764c-.344.026-.693.038-1.044.038h-63.161a15.173,15.173,0,0,1-15.129-15.129V847.611a22.9,22.9,0,0,1,10.643-19.28,19.826,19.826,0,0,0,8.244-22.663h55.318a19.831,19.831,0,0,0,8.606,22.889A21.282,21.282,0,0,1,1707.821,846.716Z" transform="translate(-964.583 -477.247)"/><path class="m-owner" d="M1518.053,827.871c-4.43-2.652-23.617-12.053-72.414-11.654-55.891.457-78.281,11.753-78.966,12.1a19.832,19.832,0,0,0,8.225-22.654h135.6a19.827,19.827,0,0,0,7.553,22.2Z" transform="translate(-786.146 -477.247)"/><path class="n-owner" d="M1526.777,799.285v6.329a1.135,1.135,0,0,1-1.131,1.134h-139.48a1.136,1.136,0,0,1-1.134-1.134v-6.329a1.138,1.138,0,0,1,1.134-1.134h139.48A1.137,1.137,0,0,1,1526.777,799.285Z" transform="translate(-799.352 -471.84)"/><path class="o-owner" d="M1748.943,799.285v6.329a1.135,1.135,0,0,1-1.131,1.134h-52.8a1.137,1.137,0,0,1-1.134-1.134v-6.329a1.139,1.139,0,0,1,1.134-1.134h52.8A1.137,1.137,0,0,1,1748.943,799.285Z" transform="translate(-1021.518 -471.84)"/><g transform="translate(587.498 351.932)"><path class="p-owner" d="M1515.216,896.289s-3.6,5.061-6.891,5.132-8.31-2.346-8.31-2.346-3.026-6.744-.974-9.383a4.406,4.406,0,0,1,4.211.692,6.454,6.454,0,0,1,1.114,1.067,3.535,3.535,0,0,0,1.73,1.173c2.352.716,5.143-.967,6.187.657a11.041,11.041,0,0,0,1.818,2.152A8.3,8.3,0,0,0,1515.216,896.289Z" transform="translate(-1468.348 -889.436)"/><path class="p-owner" d="M1391.512,963.51s12.707-30.789,35.579-31.375c0,0,21.113,2.346,22.286,31.375Z" transform="translate(-1391.512 -920.151)"/><path class="q-owner" d="M1495.836,925.271s9.168,2.039,12,.84c0,0,.427-3.833-3.433-3.3a8.1,8.1,0,0,1-5.376-1.417C1497.591,920.669,1495.456,923.667,1495.836,925.271Z" transform="translate(-1466.524 -912.347)"/><path class="r-owner" d="M1518.26,899.009c-.587.44-2.387-6.2-2.387-6.2a6.435,6.435,0,0,1,1.114,1.067,3.535,3.535,0,0,0,1.73,1.173C1518.723,895.244,1518.829,898.581,1518.26,899.009Z" transform="translate(-1480.969 -891.863)"/><path class="r-owner" d="M1541.7,905.284c-.129.076-4.369,2.616-4.944,2.616s3.126-4.768,3.126-4.768A11.04,11.04,0,0,0,1541.7,905.284Z" transform="translate(-1495.944 -899.288)"/><path class="r-owner" d="M1435.729,978.2c-.235-.2,8.992-13.586,11.534-13.684s8.251,2.932,12.385,3.323,8.141-.782,8.923,1.661,2.932,11.107,1.613,12.493S1440.8,982.535,1435.729,978.2Z" transform="translate(-1423.315 -943.442)"/></g><g transform="translate(352.409 252.96)"><path class="s-owner" d="M1348.464,1202.75c-.735.386-1.475.752-2.221,1.106-.709.41-1.431.813-2.166,1.2a59.135,59.135,0,0,1-10.44,4.274,15.243,15.243,0,0,1-3.241-4.21c-.566.3-1.131.592-1.7.875V1100.7a59.916,59.916,0,0,1,7.734,1.556,56.826,56.826,0,0,1,34.6,26.206C1386.326,1154.911,1376.225,1188.17,1348.464,1202.75Z" transform="translate(-1111.235 -942.435)"/><g transform="translate(134.779 152.181)"><path class="e-owner" d="M1157.423,1108.716a57.4,57.4,0,1,0-22.558,77.981A57.4,57.4,0,0,0,1157.423,1108.716Z" transform="translate(-1045.355 -1079.015)"/><path class="b-owner" d="M1121.395,1194.058q-1.061.647-2.157,1.251c-.247.137-.495.271-.742.4-.566.3-1.131.592-1.7.875a57.4,57.4,0,0,1-52.978-101.816q1.1-.608,2.223-1.162c.724-.361,1.455-.7,2.188-1.03a57.34,57.34,0,0,1,17.229-4.632,57.411,57.411,0,0,1,35.939,106.113Z" transform="translate(-1034.114 -1085.21)"/><g transform="translate(5.417 8.101)"><path class="c-owner" d="M1105.813,1212.524a52.513,52.513,0,0,1-14.608-2.084,51.983,51.983,0,1,1,14.608,2.084Zm-43.143-28.582a49.179,49.179,0,1,0-4.173-37.408A48.856,48.856,0,0,0,1062.669,1183.942Z" transform="translate(-1053.415 -1107.877)"/></g><g transform="translate(33.638 22.678)"><path class="c-owner" d="M1203.36,1202.556c-.113-.283-.234-.556-.356-.825a15.064,15.064,0,0,0-3.482-4.974,15.55,15.55,0,0,0-5.481-3.225,26.238,26.238,0,0,0-6.964-1.308q-3.844-.237-8.363-.109a40.334,40.334,0,0,1-4.776-.1,11.968,11.968,0,0,1-3.362-.735,5.892,5.892,0,0,1-2.244-1.52,8,8,0,0,1-1.426-2.353,8.727,8.727,0,0,1-.649-2.758,5.921,5.921,0,0,1,.408-2.6,6.347,6.347,0,0,1,1.6-2.268,9.35,9.35,0,0,1,2.928-1.782,7.387,7.387,0,0,1,6.27.059q2.91,1.425,4.74,5.933l11.695-4.748a21.861,21.861,0,0,0-3.828-6.348,16.4,16.4,0,0,0-11.464-5.655,21.657,21.657,0,0,0-7.058.721l-3.312-8.156-6.473,2.628,3.265,8.043a24.273,24.273,0,0,0-5.943,4.229,18.152,18.152,0,0,0-3.746,5.222,14.552,14.552,0,0,0-1.376,5.9,17.282,17.282,0,0,0,5.087,12.119,15.313,15.313,0,0,0,5.474,3.206,25.907,25.907,0,0,0,6.968,1.264,82.463,82.463,0,0,0,8.385-.009,30.972,30.972,0,0,1,4.561.03,11.9,11.9,0,0,1,3.343.743,6.324,6.324,0,0,1,2.341,1.589,8.613,8.613,0,0,1,1.574,2.6,7.214,7.214,0,0,1,.559,2.772,5.913,5.913,0,0,1-.625,2.64,7.453,7.453,0,0,1-1.857,2.331,11.214,11.214,0,0,1-3.14,1.844,13.509,13.509,0,0,1-3.432.891,7.836,7.836,0,0,1-3.463-.346,8.058,8.058,0,0,1-3.161-2.044,12.419,12.419,0,0,1-2.558-4.149l-11.692,4.748a20.188,20.188,0,0,0,4.6,7.149,16.6,16.6,0,0,0,6.058,3.779,18.536,18.536,0,0,0,6.884.992,29.2,29.2,0,0,0,7.09-1.172l3.019,7.442,6.433-2.612-3.036-7.477a26.129,26.129,0,0,0,6-4.191,17.719,17.719,0,0,0,3.623-4.731c.07-.137.139-.274.205-.413a14.386,14.386,0,0,0,1.41-5.869A15.8,15.8,0,0,0,1203.36,1202.556Z" transform="translate(-1153.962 -1159.814)"/></g></g><g transform="translate(0)"><path class="i-owner" d="M1033.209,571.692c.175-.7-15.289,6.989-16.074,7.859-7.252,8.045-5.184,18.543-1.035,18.644,2.661.064,2.146,4.49,2.146,4.49l29.651-12.543S1044.327,569.323,1033.209,571.692Z" transform="translate(-883.668 -561.765)"/><path class="i-owner" d="M993.711,548.356s1.059-11.55-11.846-11.55c0,0,3.911,1.061,5.934,3.182,0,0-8.232-4.833-17.189,2.593s-3.392,26.048-6.116,29.584-13.332,4.243-12.035,15.676,33.666,25.752,31.588,35.211c0,0,12.685-18.648,3.614-27.157,0,0,4.421,4.165,4.872,9.115,0,0,1.2-9.665-4.95-12.756-5.443-2.736-9.9-12.741-9.429-14.528S993.711,548.356,993.711,548.356Z" transform="translate(-840.52 -536.806)"/><path class="t-owner" d="M1000.526,747.977c-1.99-9.583-14.416-12.555-20.295-4.729a10.381,10.381,0,0,0-2.044,5.035c-1.342,10.878,16.05,55.184,18.541,59.2,4.535,7.3,31.237,32.34,31.237,32.34l4.921-2.982s-18.939-32.063-21.872-35.064C1007.623,798.3,1004.3,766.172,1000.526,747.977Z" transform="translate(-859.053 -682.085)"/><path class="t-owner" d="M1149.061,1076.878s7.182-4.716,9.9-4.412,10.588,2.568,10.684,3.725-8.768,1.879-9.363,2.511-6.614,4.651-8.8,3.391S1149.061,1076.878,1149.061,1076.878Z" transform="translate(-982.02 -922.113)"/><path class="n-owner" d="M783.265,1052.809l-6.417-.943s-21.574-17.145-24.787-49.135a57.193,57.193,0,0,1-.153-9.891,1.732,1.732,0,0,0-.224-1.091s0,0-.007-.01c-.691-1.059-2.409-3.711-4.736-7.482-2.293-3.715-6.218-10.74-10.537-18.623-7.779-14.2-16.836-31.173-19.943-36.58-9.9-17.234-5.127-28.822-5.127-28.822s27.613-2.73,35.18-9.349l2.725,4.2s5.982,26.486,5.7,26.609l.9,2.751c4.722,14.573,10.152,32.787,13.114,47.622,1.664,8.347,2.546,15.619,2.072,20.574a36.072,36.072,0,0,0,.488,7.536C774.184,1019.185,783.265,1052.809,783.265,1052.809Z" transform="translate(-666.322 -791.505)"/><path class="o-owner" d="M949.531,1458.563H922.762a14.7,14.7,0,0,1,.756-7.175c1.34-2.97,3.25-3.065.244-7.72,1.7,1.751,7.169,2.476,11.039,1.955.474.769,3.057,5.926,4.641,7.064C941.192,1453.945,948.993,1453.5,949.531,1458.563Z" transform="translate(-819.13 -1189.141)"/><path class="o-owner" d="M755.837,924.444c-2.339,12.9-7.862,34.36-19.433,41.191-7.779-14.2-16.836-31.173-19.943-36.58-9.9-17.234-5.127-28.822-5.127-28.822s27.613-2.73,35.18-9.349l2.725,4.2s5.982,26.486,5.7,26.609Z" transform="translate(-666.322 -791.505)"/><path class="u-owner" d="M1010.255,750.391a28.656,28.656,0,0,1,5.513,8.65s-6.038,17.338-20.149,19.513C995.62,778.554,1006.784,750.384,1010.255,750.391Z" transform="translate(-871.645 -690.445)"/><path class="n-owner" d="M633.742,887.906l.091-5.007c-9.975,1.258-34.395-11.92-34.395-11.92S589,877.92,587.574,897.742c-.7,9.675-5.109,50.592-5.6,62.81-.178,4.428-.237,7.589-.257,8.851a.032.032,0,0,1,0,.013,1.741,1.741,0,0,1-.424,1.03,57.157,57.157,0,0,0-5.405,8.285c-15.221,28.32-7.261,66.8-7.261,66.8l3.535-.9s12.87-39.893,21.282-57.148a36.153,36.153,0,0,1,3.81-6.521c3.163-3.841,6.5-10.365,9.785-18.216,6.214-14.843,12.247-34.43,16.549-49.6C623.9,913.21,633.742,887.906,633.742,887.906Z" transform="translate(-563.002 -777.187)"/><path class="f-owner" d="M990.638,713.739c-16.307-3.742-5.889-26.657-4.944-26.254,2.259-.46,7.222-4.428,11.661-12.176l.6.52,10.016,8.781s-2.315,3.415-4.263,6.76c-1.521,2.619-2.815,5.2-2.61,6.085C1001.9,698.09,994.988,714.739,990.638,713.739Z" transform="translate(-861.523 -636.436)"/><path class="t-owner" d="M1049.541,685.952s-2.316,3.411-4.263,6.76c-6.227-3.839-6.234-11.548-5.754-15.542Z" transform="translate(-903.093 -637.774)"/><path class="f-owner" d="M1048.754,644.466s-15.12-8.414-9.735-17.748,7.059-16.708,16.94-11.731,9.686,9.611,8.646,13.164S1052.826,646.414,1048.754,644.466Z" transform="translate(-902.029 -591.891)"/><path class="i-owner" d="M1063.086,619.465c-.692-4.145-2.8-4.541-4.266-4.264a12.093,12.093,0,0,0-14.706-5.63,20.587,20.587,0,0,1-11.917,7.158s1.755,3.264,8.984,5.286a12.352,12.352,0,0,0,7.132-.571,40.369,40.369,0,0,1-10.26,3.868c9.527.872,18.591-7.838,19.531-8.769.439,1.35,1.21,4.175.749,6.241-.627,2.807-3.119,7.892-1.6,8.55C1056.733,631.334,1064.124,625.681,1063.086,619.465Z" transform="translate(-897.956 -588.65)"/><path class="o-owner" d="M580.823,1458.068H554.054a14.7,14.7,0,0,1,.756-7.175c1.34-2.97,3.438-4.32,2.936-7.914a9.64,9.64,0,0,0,8.343,3.192c.474.769,3.061,4.883,4.645,6.021C572.484,1453.449,580.285,1453,580.823,1458.068Z" transform="translate(-553.907 -1188.645)"/><path class="v-owner" d="M778.324,751.775c-3.444,1.2-8.279,1.86-13.225,2.4-7.039.769-14.306,1.294-18.113,2.813-1.388.554-2.317,1.237-2.607,2.112-1.65,4.962-8.922,12.619-8.922,12.619-46.613-2.122-51.73-21.618-51.73-21.618,31.361-36.467,84.461-47.023,84.461-47.023s3.793-1.608,13.344,5.982c6.374,5.068,5.535,7.013,5.535,7.013S788.46,748.239,778.324,751.775Z" transform="translate(-647.29 -656.305)"/><path class="u-owner" d="M926.841,788.309c-7.039.769-14.306,1.294-18.113,2.813a74.229,74.229,0,0,1,9.415-40.734S925.3,779.512,926.841,788.309Z" transform="translate(-809.032 -690.442)"/><path class="f-owner" d="M950.427,734.362s-17.642,1.743-19.056,13.206,16.914,58.152,19.538,62.38c4.778,7.7,32.916,34.079,32.916,34.079l5.186-3.143s-19.959-33.788-23.049-36.95C961.112,798.971,956.4,738.333,950.427,734.362Z" transform="translate(-825.373 -678.914)"/><path class="v-owner" d="M923.9,747.424c.046.261,16.281,5.3,26.729,0,0,0,2.236-24.106-10.237-22.8s-19.86,5.237-20.174,11.208S923.9,747.424,923.9,747.424Z" transform="translate(-817.394 -671.874)"/><path class="f-owner" d="M1112.749,1097.869s6.328-5.812,9.061-5.95,10.864.828,11.145,1.955-8.351,3.267-8.836,3.987-5.778,5.655-8.135,4.764S1112.749,1097.869,1112.749,1097.869Z" transform="translate(-955.9 -936.107)"/></g></g><path class="w-owner" d="M.964,0h724.8a.964.964,0,0,1,.964.964v0a.964.964,0,0,1-.964.964H.964A.964.964,0,0,1,0,.964v0A.964.964,0,0,1,.964,0Z" transform="translate(273.789 522.275)"/></g></svg>