<?xml version="1.0" encoding="iso-8859-1"?>
<!-- Generator: Adobe Illustrator 19.0.0, SVG Export Plug-In . SVG Version: 6.00 Build 0)  -->
<svg version="1.1" id="Capa_1" xmlns="http://www.w3.org/2000/svg" xmlns:xlink="http://www.w3.org/1999/xlink" x="0px" y="0px"
	 viewBox="0 0 512 512" style="enable-background:new 0 0 512 512;" xml:space="preserve">
<path style="fill:#55696E;" d="M221.171,470.415c12.381,0,22.418-10.037,22.418-22.418V268.808
	c0-12.381-10.037-22.418-22.418-22.418c-12.381,0-22.418,10.037-22.418,22.418v179.189
	C198.754,460.378,208.791,470.415,221.171,470.415z"/>
<path style="fill:#415050;" d="M275.288,470.415c12.381,0,22.418-10.037,22.418-22.418V268.808
	c0-12.381-10.037-22.418-22.418-22.418c-12.381,0-22.418,10.037-22.418,22.418v179.189
	C252.871,460.378,262.908,470.415,275.288,470.415z"/>
<path style="fill:#414B82;" d="M366.334,83.272c-9.925-2.811-20.254,2.957-23.066,12.883L331.76,136.79l-20.044-32.905
	c-5.339-8.765-14.871-14.108-25.134-14.108c-25.941,0-74.693,0-88.796,0c-24.255,0-44.087,19.733-44.21,43.988l-0.69,137.247
	c-0.052,10.317,8.27,18.723,18.588,18.775c0.031,0,0.065,0,0.096,0c10.274,0,18.628-8.302,18.679-18.587l0.689-137.247
	c0.019-3.756,3.09-6.812,6.847-6.812h0.969v141.667h98.953v-111.08l24.41,35.051c8.515,13.98,29.509,10.976,33.929-4.627
	l23.172-81.813C382.029,96.41,376.261,86.084,366.334,83.272z"/>
<path style="fill:#1E2D64;" d="M366.334,83.272c-9.925-2.811-20.254,2.957-23.066,12.883L331.76,136.79l-20.044-32.905
	c-5.339-8.765-14.871-14.108-25.134-14.108c-10.477,0-24.674,0-38.807,0v179.031h49.933v-111.08l24.41,35.051
	c8.515,13.98,29.509,10.976,33.929-4.627l23.172-81.813C382.029,96.41,376.261,86.084,366.334,83.272z"/>
<g>
	<circle style="fill:#FFB69E;" cx="247.775" cy="38.718" r="38.718"/>
	<path style="fill:#FFB69E;" d="M376.376,116.369l-35.661-11.2l2.553-9.013c2.812-9.927,13.139-15.694,23.066-12.883
		c9.927,2.812,15.695,13.138,12.883,23.066L376.376,116.369z"/>
</g>
<polygon style="fill:#FFFFFF;" points="376.376,116.369 340.715,105.169 343.269,96.155 379.217,106.338 "/>
<path style="fill:#BA6746;" d="M190.284,264.158l-0.035,7.042c-0.052,10.286-8.405,18.588-18.679,18.588c-0.031,0-0.065,0-0.096,0
	c-10.317-0.052-18.639-8.458-18.588-18.775l0.034-6.854h37.365V264.158z"/>
<polygon style="fill:#FFFFFF;" points="276.474,89.777 247.774,165.088 219.073,89.777 "/>
<path style="fill:#FF3C3C;" d="M261.037,120.782c0.358-1.792,0.071-3.652-0.808-5.253l-6.357-11.563l5.513-10.027
	c0.999-1.817-0.317-4.048-2.395-4.048H238.57c-2.074,0-3.394,2.229-2.395,4.048l5.495,9.993l-6.375,11.595
	c-0.881,1.601-1.167,3.463-0.808,5.256l3.982,19.889l9.305,24.416l9.272-24.329L261.037,120.782z"/>
<path style="fill:#DC1428;" d="M260.228,115.529l-6.357-11.563l5.513-10.027c0.999-1.817-0.317-4.048-2.395-4.048h-9.228v75.165
	l0.012,0.031l9.272-24.329l3.992-19.977C261.395,118.99,261.108,117.131,260.228,115.529z"/>
<path style="fill:#C8D2DC;" d="M180.258,205.627c-0.724,0-1.46-0.082-2.195-0.256c-5.129-1.208-8.309-6.345-7.101-11.475
	l12.882-54.719c0.447-1.898,1.464-3.612,2.914-4.915l20.197-18.132c3.922-3.521,9.956-3.195,13.476,0.726
	c3.521,3.922,3.195,9.955-0.727,13.476l-17.969,16.132l-12.197,51.804C188.504,202.663,184.586,205.627,180.258,205.627z"/>
<path style="fill:#80391B;" d="M363.453,210.458c0-11.868-9.621-21.489-21.489-21.489H153.559c-11.868,0-21.489,9.621-21.489,21.489
	v4.438c0,11.868,9.621,21.489,21.489,21.489l33.27,266.189c0.673,5.378,5.242,9.426,10.663,9.426c23.274,0,76.87,0,100.538,0
	c5.432,0,9.99-4.036,10.663-9.426l33.27-266.189c11.868,0,21.489-9.621,21.489-21.489v-4.438H363.453z"/>
<g>
	<path style="fill:#662D16;" d="M363.453,210.458c0-11.868-9.621-21.489-21.489-21.489h-94.202V512c19.217,0,38.465,0,50.269,0
		c5.432,0,9.99-4.036,10.663-9.426l33.27-266.189c11.868,0,21.489-9.621,21.489-21.488v-4.439H363.453z"/>
	<path style="fill:#662D16;" d="M153.65,237.106l33.181,265.469c0.673,5.384,5.25,9.426,10.676,9.426h100.51
		c5.427,0,10.004-4.041,10.676-9.426l33.181-265.469H153.65z"/>
</g>
<path style="fill:#592713;" d="M247.762,237.106V512c19.217,0,38.465,0,50.269,0c5.432,0,9.989-4.036,10.662-9.427l33.18-265.468
	H247.762z"/>
<g>
</g>
<g>
</g>
<g>
</g>
<g>
</g>
<g>
</g>
<g>
</g>
<g>
</g>
<g>
</g>
<g>
</g>
<g>
</g>
<g>
</g>
<g>
</g>
<g>
</g>
<g>
</g>
<g>
</g>
</svg>
