<svg xmlns="http://www.w3.org/2000/svg" width="25.352" height="29.003" viewBox="0 0 25.352 29.003"><defs>
<style>.a-jar{fill:#fff;}</style></defs><g transform="translate(0 0)">
<path class="a-jar" d="M22.384,12.1H21.1a4.237,4.237,0,0,0-.775.074V9.262a2.49,2.49,0,0,0-.047-.463A3.429,3.429,0,0,0,17.6,2.666a3.572,3.572,0,0,0-2.754-1.112,3.57,3.57,0,0,0-5.464-.515A3.546,3.546,0,0,0,8.837.866L8.6.821A3.8,3.8,0,0,0,8.065.774a4.76,4.76,0,0,0-.778,0H7.218V.781a3.915,3.915,0,0,0-3.3,2.308A3.221,3.221,0,0,0,2.68,8.9a2.475,2.475,0,0,0-.035.358V26.68A2.326,2.326,0,0,0,4.966,29H18A2.326,2.326,0,0,0,20.32,26.68V23.122a4.237,4.237,0,0,0,.775.075h1.289a4.264,4.264,0,0,0,4.258-4.259V16.36A4.265,4.265,0,0,0,22.384,12.1ZM18.77,26.68a.773.773,0,0,1-.774.774H4.966a.774.774,0,0,1-.774-.774V9.262a.774.774,0,0,1,.774-.774H18a.773.773,0,0,1,.774.774V26.68Zm.689-19.208h0A2.3,2.3,0,0,0,18,6.938H4.966a2.307,2.307,0,0,0-1.533.59,1.661,1.661,0,0,1-.6-1.271A1.678,1.678,0,0,1,4.509,4.582l.634,0,.123-.621a2.277,2.277,0,0,1,2.055-1.63h.853a2.023,2.023,0,0,1,.975.331l.64.423.429-.635a2.032,2.032,0,0,1,1.685-.9,2.012,2.012,0,0,1,1.828,1.165l.26.548.594-.122a2.049,2.049,0,0,1,2.091.845l.338.5.566-.208a1.881,1.881,0,0,1,1.878,3.2ZM24.32,18.938a1.938,1.938,0,0,1-1.936,1.936H21.1a1.918,1.918,0,0,1-.775-.164V14.588a1.918,1.918,0,0,1,.775-.164h1.289A1.938,1.938,0,0,1,24.32,16.36Z" transform="translate(-1.29 0)"/>
<rect class="a-jar" width="13.033" height="15.355" transform="translate(3.676 11.325)"/></g></svg>