<?xml version="1.0" encoding="iso-8859-1"?>
<!-- Generator: Adobe Illustrator 19.0.0, SVG Export Plug-In . SVG Version: 6.00 Build 0)  -->
<svg version="1.1" id="Capa_1" xmlns="http://www.w3.org/2000/svg" xmlns:xlink="http://www.w3.org/1999/xlink" x="0px" y="0px"
	 viewBox="0 0 512 512" style="enable-background:new 0 0 512 512;" xml:space="preserve">
<g>
	<path style="fill:#373C41;" d="M385.671,90.854c-6.694-8.927-19.359-10.739-28.286-4.043l-64.07,48.045l-42.317-30.024
		c-6.95-4.931-15.261-7.58-23.782-7.58h-30.242v0.01c-9.625,0-18.78,0-23.658,0c-0.004,0-0.009,0-0.013,0h-0.072h-53.855h-0.396
		c-26.233,0-47.683,21.341-47.815,47.676v59.241c0,11.159,9.046,20.205,20.205,20.205h28.006v68.169h53.855h53.855V137.662h0.349
		l54.518,38.681c7.137,5.063,16.763,4.973,23.813-0.314l75.862-56.888C390.556,112.446,392.365,99.782,385.671,90.854z
		 M111.576,183.974V145.04c0.021-4.062,3.342-7.367,7.405-7.367h0.396v46.302L111.576,183.974L111.576,183.974z"/>
	<path style="fill:#373C41;" d="M202.684,512c-13.477,0-24.402-10.925-24.402-24.402V292.553c0-13.477,10.925-24.402,24.402-24.402
		s24.402,10.925,24.402,24.402v195.045C227.086,501.075,216.161,512,202.684,512z"/>
</g>
<path style="fill:#43484C;" d="M143.779,512c-13.477,0-24.402-10.925-24.402-24.402V292.553c0-13.477,10.925-24.402,24.402-24.402
	s24.402,10.925,24.402,24.402v195.045C168.18,501.075,157.255,512,143.779,512z"/>
<path style="fill:#272A2E;" d="M385.671,90.854c-6.694-8.927-19.359-10.739-28.286-4.043l-64.07,48.045l-42.317-30.024
	c-6.95-4.931-15.261-7.58-23.782-7.58h-30.242v0.01c-9.678,0-18.886,0-23.743,0v195.29h53.855v-154.89h0.349l54.518,38.681
	c7.137,5.063,16.763,4.973,23.813-0.314l75.862-56.888C390.556,112.446,392.365,99.782,385.671,90.854z"/>
<path style="fill:#FFFFFF;" d="M385.671,90.854c-6.694-8.927-19.359-10.739-28.286-4.043l-7.97,5.977l23.733,32.712l8.48-6.359
	C390.556,112.446,392.365,99.782,385.671,90.854z"/>
<path style="fill:#FFB69E;" d="M385.671,90.854c-6.694-8.927-19.359-10.739-28.286-4.043l24.244,32.329
	C390.556,112.446,392.365,99.782,385.671,90.854z"/>
<polygon style="fill:#FFFFFF;" points="136.007,97.263 173.229,178.688 210.451,97.263 "/>
<circle style="fill:#FFB69E;" cx="173.221" cy="42.14" r="42.14"/>
<path style="fill:#1C1F21;" d="M194.802,94.453c0-2.394-2.614-3.881-4.671-2.656l-15.308,9.109c-0.984,0.586-2.21,0.586-3.194,0
	l-15.308-9.109c-2.057-1.224-4.671,0.262-4.671,2.656v23.367c0,2.394,2.614,3.88,4.671,2.656l15.308-9.109
	c0.984-0.586,2.21-0.586,3.194,0l15.308,9.109c2.057,1.224,4.671-0.262,4.671-2.656V94.453z"/>
<circle style="fill:#B4D7DC;" cx="369.231" cy="28.484" r="12.762"/>
<path style="fill:#A5C8CD;" d="M307.452,88.071c0.18-32.938,27.764-59.587,61.773-59.587s61.593,26.649,61.773,59.587H307.452z"/>
<path style="fill:#6C9BAA;" d="M430.999,107.923H307.452c-5.433,0-9.837-4.404-9.837-9.837s4.404-9.837,9.837-9.837h123.546
	c5.433,0,9.837,4.404,9.837,9.837C440.836,103.519,436.431,107.923,430.999,107.923z"/>
<path style="fill:#272A2E;" d="M189.994,204.179c0-11.159-9.046-20.205-20.205-20.205h-50.413v40.41h50.413
	C180.949,224.384,189.994,215.339,189.994,204.179z"/>
<path style="fill:#FFB69E;" d="M189.994,204.179c0-11.159-9.046-20.205-20.205-20.205v40.41
	C180.949,224.384,189.994,215.339,189.994,204.179z"/>
<rect x="119.381" y="183.97" style="fill:#E4F2F6;" width="50.41" height="120.78"/>
<g>
</g>
<g>
</g>
<g>
</g>
<g>
</g>
<g>
</g>
<g>
</g>
<g>
</g>
<g>
</g>
<g>
</g>
<g>
</g>
<g>
</g>
<g>
</g>
<g>
</g>
<g>
</g>
<g>
</g>
</svg>
