<svg xmlns="http://www.w3.org/2000/svg" width="41.751" height="43.439" viewBox="0 0 41.751 43.439">
<defs><style>.a-navbar{fill:#291563;}.b-navbar{fill:#ffba00;}</style></defs>
<path class="a-navbar" d="M325.224,257.724h0a3.459,3.459,0,0,0,0-4.891l-29.895-29.895a3.459,3.459,0,0,0-4.891,0h0a3.459,3.459,0,0,0,0,4.891l29.9,29.895A3.4,3.4,0,0,0,325.224,257.724Z" transform="translate(-284.762 -221.925)"/><path class="b-navbar" d="M281.743,302.057h0a3.282,3.282,0,0,0,4.636,0l17.265-17.265-4.891-4.891-17.01,17.01A3.635,3.635,0,0,0,281.743,302.057Z" transform="translate(-280.675 -259.576)"/><path class="b-navbar" d="M363.223,230.733h0a3.283,3.283,0,0,0-4.636,0L347.6,241.72l4.891,4.891,10.732-10.731A3.635,3.635,0,0,0,363.223,230.733Z" transform="translate(-322.54 -228.378)"/></svg>