<?xml version="1.0" encoding="iso-8859-1"?>
<!-- Generator: Adobe Illustrator 19.0.0, SVG Export Plug-In . SVG Version: 6.00 Build 0)  -->
<svg version="1.1" id="Capa_1" xmlns="http://www.w3.org/2000/svg" xmlns:xlink="http://www.w3.org/1999/xlink" x="0px" y="0px"
	 viewBox="0 0 512 512" style="enable-background:new 0 0 512 512;" xml:space="preserve">
<path style="fill:#373C41;" d="M158.661,512c-12.676,0-22.952-10.276-22.952-22.952v-183.46c0-12.676,10.276-22.952,22.952-22.952
	s22.952,10.276,22.952,22.952v183.46C181.614,501.724,171.338,512,158.661,512z"/>
<path style="fill:#43484C;" d="M103.254,512c-12.676,0-22.952-10.276-22.952-22.952v-183.46c0-12.676,10.276-22.952,22.952-22.952
	s22.952,10.276,22.952,22.952v183.46C126.207,501.724,115.931,512,103.254,512z"/>
<path style="fill:#373C41;" d="M228.266,166.934c-0.125-24.833-20.746-45.036-45.969-45.036c-10.238,0-40.939,0-51.26,0h-0.08
	H79.614c-25.222,0-45.844,20.203-45.969,45.036c0,0.032,0,0.064,0,0.096v140.518c0,10.563,8.563,19.127,19.127,19.127
	s19.127-8.563,19.127-19.127V167.093c0.04-3.637,3.708-6.942,7.715-6.942h0.688v145.437h50.656h50.656V160.151h0.684
	c4.008,0,7.675,3.305,7.715,6.942v140.455c0,10.563,8.563,19.127,19.127,19.127s19.127-8.563,19.127-19.127V167.03
	C228.266,166.998,228.266,166.966,228.266,166.934z"/>
<path style="fill:#272A2E;" d="M228.266,166.934c-0.125-24.833-20.746-45.036-45.969-45.036c-10.263,0-41.094,0-51.339,0v183.69
	h50.656V160.151h0.684c4.008,0,7.675,3.305,7.715,6.942v140.455c0,10.563,8.563,19.127,19.127,19.127s19.127-8.563,19.127-19.127
	V167.03C228.266,166.998,228.266,166.966,228.266,166.934z"/>
<polygon style="fill:#FFFFFF;" points="95.945,121.898 130.956,198.486 165.966,121.898 "/>
<circle style="fill:#FFB69E;" cx="130.95" cy="70.05" r="39.641"/>
<g>
	<path style="fill:#FFFFFF;" d="M33.639,298.114v9.866c0,10.564,8.563,19.127,19.127,19.127s19.127-8.563,19.127-19.127v-9.866
		H33.639z"/>
	<path style="fill:#FFFFFF;" d="M190.006,298.114v9.866c0,10.564,8.563,19.127,19.127,19.127s19.127-8.563,19.127-19.127v-9.866
		H190.006z"/>
</g>
<g>
	<path style="fill:#FFB69E;" d="M33.639,307.487v0.492c0,10.564,8.563,19.127,19.127,19.127s19.127-8.563,19.127-19.127v-0.492
		H33.639z"/>
	<path style="fill:#FFB69E;" d="M190.006,307.487v0.492c0,10.564,8.563,19.127,19.127,19.127s19.127-8.563,19.127-19.127v-0.492
		H190.006z"/>
</g>
<g>
	<path style="fill:#373C41;" d="M151.247,119.254c0-2.252-2.458-3.65-4.394-2.498l-14.399,8.568c-0.926,0.551-2.079,0.551-3.005,0
		l-14.399-8.568c-1.935-1.152-4.394,0.246-4.394,2.498v21.979c0,2.252,2.458,3.65,4.394,2.498l14.399-8.568
		c0.926-0.551,2.079-0.551,3.005,0l14.399,8.568c1.935,1.152,4.394-0.246,4.394-2.498V119.254z"/>
	<path style="fill:#373C41;" d="M387.696,512c-12.012,0-21.75-9.738-21.75-21.75V317.643c0-12.012,9.738-21.75,21.75-21.75
		s21.75,9.738,21.75,21.75V490.25C409.446,502.262,399.708,512,387.696,512z"/>
</g>
<path style="fill:#43484C;" d="M335.184,512c-12.012,0-21.75-9.738-21.75-21.75V317.643c0-12.012,9.738-21.75,21.75-21.75
	s21.75,9.738,21.75,21.75V490.25C356.934,502.262,347.196,512,335.184,512z"/>
<path style="fill:#C8E6EB;" d="M477.254,300.61c-0.295-0.807-29.677-81.195-42.617-118.85c-8.369-24.353-22.41-36.701-41.732-36.701
	h-62.64c-19.321,0-33.362,12.348-41.732,36.702c-12.939,37.651-42.322,118.042-42.617,118.85
	c-3.438,9.402,1.397,19.809,10.799,23.247c9.397,3.436,19.809-1.395,23.247-10.799c0.249-0.682,21.162-57.898,35.569-98.665
	l-25.487,133.413c-1.201,6.2,3.555,11.909,9.815,11.909c27.785,0,95.359,0,123.165,0c6.255,0,11.011-5.731,9.814-11.909
	l-25.641-134.669c14.417,40.838,35.76,99.232,36.012,99.921c3.443,9.416,13.859,14.232,23.247,10.799
	C475.857,320.419,480.692,310.011,477.254,300.61z"/>
<path style="fill:#EEF8FF;" d="M288.533,181.76c-12.939,37.651-42.322,118.042-42.617,118.85
	c-3.438,9.402,1.397,19.809,10.799,23.247c9.397,3.436,19.809-1.395,23.247-10.799c0.249-0.682,21.162-57.898,35.569-98.665
	l-25.487,133.413c-1.201,6.2,3.555,11.909,9.815,11.909c19.095,0,56.982,0,87.839,0V158.097l-46.258-13.039h-11.173
	C310.944,145.058,296.903,157.407,288.533,181.76z"/>
<g>
	<path style="fill:#FFB69E;" d="M245.916,300.61c-3.438,9.402,1.397,19.809,10.799,23.247c9.397,3.436,19.809-1.395,23.247-10.799
		C280.054,312.803,245.972,300.457,245.916,300.61z"/>
	<path style="fill:#FFB69E;" d="M443.208,313.058c3.443,9.415,13.859,14.232,23.247,10.799c9.402-3.437,14.237-13.845,10.799-23.247
		C477.198,300.457,443.115,312.803,443.208,313.058z"/>
	<circle style="fill:#FFB69E;" cx="361.44" cy="94.47" r="37.3"/>
</g>
<g>
	<circle style="fill:#696E73;" cx="346.64" cy="184.12" r="6.238"/>
	<circle style="fill:#696E73;" cx="346.64" cy="219.23" r="6.238"/>
	<circle style="fill:#696E73;" cx="346.64" cy="254.34" r="6.238"/>
</g>
<g>
	<circle style="fill:#50555A;" cx="376.24" cy="184.12" r="6.238"/>
	<circle style="fill:#50555A;" cx="376.24" cy="219.23" r="6.238"/>
	<circle style="fill:#50555A;" cx="376.24" cy="254.34" r="6.238"/>
</g>
<path style="fill:#C8E6EB;" d="M410.511,27.903c0-11.046-8.955-20.001-20.001-20.001c-4.107,0-7.922,1.242-11.098,3.364
	C376.166,4.603,369.349,0,361.44,0c-7.91,0-14.727,4.603-17.972,11.266c-3.176-2.123-6.991-3.364-11.098-3.364
	c-11.046,0-20.001,8.955-20.001,20.001c0,8.111,4.836,15.078,11.775,18.217v45.604h74.592V46.12
	C405.674,42.981,410.511,36.014,410.511,27.903z"/>
<g>
</g>
<g>
</g>
<g>
</g>
<g>
</g>
<g>
</g>
<g>
</g>
<g>
</g>
<g>
</g>
<g>
</g>
<g>
</g>
<g>
</g>
<g>
</g>
<g>
</g>
<g>
</g>
<g>
</g>
</svg>
