<?xml version="1.0" encoding="iso-8859-1"?>
<!-- Generator: Adobe Illustrator 19.0.0, SVG Export Plug-In . SVG Version: 6.00 Build 0)  -->
<svg version="1.1" id="Capa_1" xmlns="http://www.w3.org/2000/svg" xmlns:xlink="http://www.w3.org/1999/xlink" x="0px" y="0px"
	 viewBox="0 0 512 512" style="enable-background:new 0 0 512 512;" xml:space="preserve">
<path style="fill:#C8D2DC;" d="M86.244,274.835l10.269-76.054c0.666-4.931,5.203-8.389,10.134-7.723l102.039,13.777
	c4.931,0.666,8.389,5.203,7.723,10.134l-10.269,76.054c-0.666,4.931-5.203,8.389-10.134,7.723L93.967,284.969
	C89.036,284.304,85.579,279.766,86.244,274.835z"/>
<path style="fill:#5F6E9B;" d="M200.904,512c-13.477,0-24.402-10.925-24.402-24.402V292.553c0-13.477,10.925-24.402,24.402-24.402
	s24.402,10.925,24.402,24.402v195.045C225.306,501.075,214.381,512,200.904,512z"/>
<g>
	<path style="fill:#414B82;" d="M259.81,512c-13.477,0-24.402-10.925-24.402-24.402V292.553c0-13.477,10.925-24.402,24.402-24.402
		s24.402,10.925,24.402,24.402v195.045C284.212,501.075,273.287,512,259.81,512z"/>
	<path style="fill:#414B82;" d="M403.031,164.295c-5.936-9.561-18.498-12.5-28.061-6.563l-41.272,25.625v-38.103
		c-0.133-26.457-21.957-47.981-48.415-47.981h-1.068v-0.009H175.771c-26.815,0-48.739,21.479-48.872,47.88c0,0.034,0,0.069,0,0.103
		v149.391c0,11.231,9.104,20.335,20.335,20.335c11.23,0,20.335-9.104,20.335-20.335V145.313c0.043-3.867,3.942-7.381,8.202-7.381
		h0.732v154.621h107.709V138.027h1.072c4.097,0,7.822,3.333,7.843,7.431v74.525c0.037,7.379,4.06,14.161,10.518,17.731
		c3.073,1.699,6.469,2.544,9.86,2.544c3.734,0,7.464-1.026,10.749-3.066l72.216-44.837
		C406.029,186.419,408.968,173.856,403.031,164.295z"/>
</g>
<path style="fill:#1E2D64;" d="M403.031,164.295c-5.936-9.561-18.498-12.5-28.061-6.563l-41.272,25.625v-38.103
	c-0.133-26.457-21.957-47.981-48.415-47.981h-1.068v-0.009h-53.859v195.29h53.854V138.027h1.072c4.097,0,7.822,3.333,7.843,7.431
	v74.525c0.037,7.379,4.06,14.161,10.518,17.731c3.073,1.699,6.469,2.544,9.86,2.544c3.734,0,7.464-1.026,10.749-3.066l72.216-44.837
	C406.029,186.419,408.968,173.856,403.031,164.295z"/>
<path style="fill:#FFB69E;" d="M403.031,164.295c-5.936-9.561-18.497-12.5-28.061-6.563l21.498,34.625
	C406.029,186.42,408.968,173.856,403.031,164.295z"/>
<rect x="361.715" y="172.924" transform="matrix(-0.5226 -0.8526 0.8526 -0.5226 430.6356 595.6722)" style="fill:#FFFFFF;" width="40.756" height="8.687"/>
<circle style="fill:#FFB69E;" cx="230.35" cy="42.14" r="42.14"/>
<g>
	<rect x="126.89" y="284.23" style="fill:#FFFFFF;" width="40.669" height="9.869"/>
	<polygon style="fill:#FFFFFF;" points="230.368,97.263 199.32,97.263 230.368,178.732 261.416,97.263 	"/>
</g>
<path style="fill:#FF3C3C;" d="M244.716,130.803c0.387-1.938,0.077-3.951-0.875-5.683l-6.911-12.57l5.998-10.908
	c1.081-1.966-0.343-4.38-2.59-4.38h-19.939c-2.244,0-3.672,2.411-2.59,4.38l5.998,10.908l-6.911,12.57
	c-0.952,1.732-1.262,3.745-0.875,5.683l3.632,19.81l10.716,28.119l10.716-28.119L244.716,130.803z"/>
<path style="fill:#DC1428;" d="M240.337,97.263c2.244,0,3.672,2.411,2.59,4.38l-5.998,10.908l6.911,12.57
	c0.952,1.732,1.262,3.745,0.875,5.683l-3.632,19.81l-10.716,28.119v-81.47H240.337z"/>
<path style="fill:#FFB69E;" d="M126.882,294.102v0.523c0,11.237,9.109,20.346,20.346,20.346s20.346-9.109,20.346-20.346v-0.523
	H126.882z"/>
<rect x="247.15" y="163.81" style="fill:#414B82;" width="24.1" height="7.03"/>
<path style="fill:#C8D2DC;" d="M208.686,204.835l-32.184-4.345v92.063v3.56l19.504,2.634c4.931,0.666,9.469-2.792,10.134-7.723
	l10.269-76.054C217.075,210.039,213.618,205.501,208.686,204.835z"/>
<path style="fill:#1C9585;" d="M389.106,200.24h-20.479l-8.276-68.657c-0.184-1.524,0.294-3.055,1.313-4.203
	c1.019-1.149,2.481-1.806,4.016-1.806h21.01c2.895,0,5.652,1.24,7.573,3.406c1.921,2.166,2.822,5.052,2.476,7.926L389.106,200.24z"
	/>
<path style="fill:#55C7A6;" d="M425.838,253.625c0,30.237-21.03,40.234-46.971,40.234c-25.942,0-46.971-9.997-46.971-40.234
	s21.03-73.135,46.971-73.135C404.808,180.49,425.838,223.388,425.838,253.625z"/>
<circle style="fill:#DAFFFB;" cx="378.87" cy="240.18" r="29.953"/>
<path style="fill:#177D74;" d="M377.424,259.223c-6.293-0.21-11.432-3.461-11.432-6.817c0-1.783,1.573-4.405,3.566-4.405
	c2.202,0,3.985,3.094,7.866,3.776v-8.495c-4.824-1.835-10.488-4.09-10.488-10.803c0-6.66,4.929-9.859,10.488-10.645v-1.468
	c0-0.734,0.839-1.416,1.993-1.416c0.996,0,1.993,0.682,1.993,1.416v1.311c3.251,0.105,9.387,0.944,9.387,4.562
	c0,1.416-0.944,4.3-3.251,4.3c-1.73,0-2.727-1.678-6.135-1.94v7.656c4.772,1.783,10.331,4.248,10.331,11.327
	c0,6.502-4.195,10.435-10.331,11.432v1.521c0,0.734-0.996,1.416-1.993,1.416c-1.154,0-1.993-0.682-1.993-1.416L377.424,259.223
	L377.424,259.223z M377.949,234.996v-6.24c-2.36,0.472-3.356,1.678-3.356,2.937C374.592,233.213,375.956,234.157,377.949,234.996z
	 M380.885,244.697v7.027c1.783-0.42,3.199-1.416,3.199-3.304C384.084,246.69,382.773,245.589,380.885,244.697z"/>
<g>
</g>
<g>
</g>
<g>
</g>
<g>
</g>
<g>
</g>
<g>
</g>
<g>
</g>
<g>
</g>
<g>
</g>
<g>
</g>
<g>
</g>
<g>
</g>
<g>
</g>
<g>
</g>
<g>
</g>
</svg>
