<?xml version="1.0" encoding="iso-8859-1"?>
<!-- Generator: Adobe Illustrator 19.0.0, SVG Export Plug-In . SVG Version: 6.00 Build 0)  -->
<svg version="1.1" id="Capa_1" xmlns="http://www.w3.org/2000/svg" xmlns:xlink="http://www.w3.org/1999/xlink" x="0px" y="0px"
	 viewBox="0 0 512 512" style="enable-background:new 0 0 512 512;" xml:space="preserve">
<path style="fill:#292D30;" d="M447.029,496.267c-6.223,0-12.216-3.434-15.193-9.377l-91.65-182.932l-91.65,182.932
	c-4.201,8.383-14.403,11.775-22.785,7.575c-8.383-4.201-11.774-14.402-7.575-22.785l106.831-213.23
	c2.879-5.745,8.754-9.374,15.18-9.374s12.302,3.629,15.18,9.374l106.831,213.23c4.2,8.383,0.809,18.585-7.575,22.785
	C452.181,495.687,449.585,496.267,447.029,496.267z"/>
<path style="fill:#E4F2F6;" d="M464.769,331.683c12.64,0,22.887-10.247,22.887-22.887V122.921c0-12.64-10.247-22.887-22.887-22.887
	H215.602c-12.64,0-22.887,10.247-22.887,22.887v185.876c0,12.64,10.247,22.887,22.887,22.887L464.769,331.683L464.769,331.683z"/>
<path style="fill:#838387;" d="M58.377,152.365c-9.066,0-17.446-5.882-20.211-15.005c-3.383-11.167,2.926-22.96,14.093-26.344
	l75.988-23.024c1.733-0.525,3.527-0.825,5.337-0.893l82.686-3.09c11.65-0.438,21.464,8.663,21.9,20.322s-8.663,21.464-20.322,21.9
	l-79.96,2.988L64.511,151.45C62.468,152.07,60.406,152.365,58.377,152.365z"/>
<path style="fill:#78BEFF;" d="M107.181,512c-13.4,0.001-24.264-11.918-24.265-26.622V264.912
	c-0.001-14.703,10.845-26.625,24.245-26.626c13.4-0.001,24.279,11.918,24.28,26.622v220.468
	C131.444,500.079,120.581,511.999,107.181,512z"/>
<path style="fill:#93CBFF;" d="M48.609,512c-0.021,0-0.042,0-0.063,0c-13.4-0.038-24.235-11.987-24.2-26.692v-217.23
	c0.034-14.681,11.398-26.555,24.769-26.555c0.021,0,0.042,0,0.063,0c13.4,0.038,23.728,11.988,23.694,26.692v217.231
	C72.836,500.126,61.979,512,48.609,512z"/>
<path style="fill:#838387;" d="M131.443,288.544H24.344V129.173c0-17.155,12.674-31.062,28.308-31.062h50.481
	c15.635,0,28.308,13.907,28.308,31.062V288.544z"/>
<circle style="fill:#BA6746;" cx="74.634" cy="43.793" r="43.793"/>
<path style="fill:#C8A06E;" d="M269.531,243.563c0,4.506-3.653,8.159-8.159,8.159h-81.794c-4.506,0-8.159-3.653-8.159-8.159
	c0-4.506,3.653-8.159,8.159-8.159h81.794C265.877,235.403,269.531,239.056,269.531,243.563z"/>
<path style="fill:#919196;" d="M176.438,260.854c-2.763,0-5.573-0.52-8.293-1.617l-72.163-29.11
	c-4.607-1.858-8.456-5.208-10.932-9.514l-45.016-78.271c-6.109-10.622-2.451-24.185,8.171-30.294
	c10.624-6.109,24.185-2.45,30.294,8.171l41.193,71.624l65.053,26.242c11.363,4.584,16.859,17.512,12.275,28.876
	C193.534,255.604,185.219,260.854,176.438,260.854z"/>
<g>
	<path style="fill:#BA6746;" d="M238.17,104.331c-0.435-11.659-10.251-20.759-21.9-20.322l1.578,42.223
		C229.506,125.796,238.605,115.991,238.17,104.331z"/>
	<path style="fill:#BA6746;" d="M184.746,218.084l-16.6,41.152c2.72,1.097,5.53,1.616,8.293,1.616
		c8.781,0,17.096-5.249,20.583-13.893C201.605,235.597,196.109,222.67,184.746,218.084z"/>
</g>
<path style="fill:#C8E6EB;" d="M464.769,100.034H338.674v231.65h126.095c12.64,0,22.887-10.247,22.887-22.887V122.921
	C487.656,110.28,477.409,100.034,464.769,100.034z"/>
<path style="fill:#FF3C3C;" d="M425.321,217.944c-2.041,0-4.107-0.552-5.967-1.709l-52.366-32.573l-47.919,12.664
	c-3.016,0.798-6.224,0.314-8.87-1.332l-30.853-19.191l-37.072,20.712c-5.457,3.048-12.354,1.096-15.402-4.361
	c-3.048-5.457-1.096-12.353,4.361-15.402l42.902-23.969c3.597-2.009,8.001-1.906,11.499,0.27l32.376,20.138l47.919-12.664
	c3.014-0.798,6.223-0.315,8.87,1.332l56.514,35.152c5.308,3.302,6.935,10.282,3.634,15.59
	C432.799,216.049,429.103,217.944,425.321,217.944z"/>
<path style="fill:#39AE96;" d="M240.34,287.789c-5.537,0-10.377-4.068-11.189-9.709c-0.89-6.188,3.404-11.925,9.592-12.816
	l114.276-16.439c0.962-0.139,1.937-0.151,2.903-0.042l71.635,8.22c6.211,0.712,10.667,6.325,9.955,12.535
	c-0.713,6.21-6.319,10.676-12.535,9.955l-70.182-8.053l-112.829,16.231C241.419,287.752,240.876,287.789,240.34,287.789z"/>
<g>
	
		<rect x="207.354" y="84.189" transform="matrix(-0.9993 0.0373 -0.0373 -0.9993 428.1929 202.6414)" style="fill:#FFFFFF;" width="9.704" height="42.253"/>
	
		<rect x="166.626" y="214.576" transform="matrix(-0.9274 -0.3741 0.3741 -0.9274 242.4056 520.5758)" style="fill:#FFFFFF;" width="10.194" height="44.374"/>
</g>
<path style="fill:#DC1428;" d="M431.311,197.012l-56.514-35.152c-2.648-1.647-5.857-2.129-8.87-1.332l-27.253,7.202v23.414
	l28.315-7.483l52.366,32.573c1.86,1.158,3.926,1.709,5.967,1.709c3.782,0,7.478-1.895,9.622-5.342
	C438.245,207.293,436.62,200.314,431.311,197.012z"/>
<path style="fill:#177D74;" d="M427.557,257.005l-71.635-8.22c-0.965-0.109-1.94-0.097-2.903,0.042l-14.345,2.063v22.871
	l16.121-2.319l70.182,8.053c6.216,0.721,11.823-3.744,12.536-9.955C438.224,263.329,433.768,257.716,427.557,257.005z"/>
<g>
</g>
<g>
</g>
<g>
</g>
<g>
</g>
<g>
</g>
<g>
</g>
<g>
</g>
<g>
</g>
<g>
</g>
<g>
</g>
<g>
</g>
<g>
</g>
<g>
</g>
<g>
</g>
<g>
</g>
</svg>
