<?xml version="1.0" encoding="iso-8859-1"?>
<!-- Generator: Adobe Illustrator 19.0.0, SVG Export Plug-In . SVG Version: 6.00 Build 0)  -->
<svg version="1.1" id="Capa_1" xmlns="http://www.w3.org/2000/svg" xmlns:xlink="http://www.w3.org/1999/xlink" x="0px" y="0px"
	 viewBox="0 0 511.999 511.999" style="enable-background:new 0 0 511.999 511.999;" xml:space="preserve">
<path style="fill:#466E28;" d="M56.765,94.878V42.324c0-2.818-2.285-5.104-5.104-5.104H38.441c-2.818,0-5.104,2.285-5.104,5.104
	v52.554l-9.894,9.874c-3.04,3.034-4.747,7.151-4.747,11.445v70.211c0,4.142,3.358,7.5,7.5,7.5h37.711c4.142,0,7.5-3.358,7.5-7.5
	v-70.211c0-4.294-1.709-8.411-4.747-11.445L56.765,94.878z"/>
<path style="fill:#FFE65A;" d="M56.765,57.337V42.324c0-2.818-2.285-5.104-5.104-5.104H38.441c-2.818,0-5.104,2.285-5.104,5.104
	v15.012h23.428V57.337z"/>
<rect x="18.696" y="123.772" style="fill:#FFB478;" width="52.711" height="42.247"/>
<rect x="102.24" y="135.743" style="fill:#B4D7DC;" width="15.419" height="50.455"/>
<g>
	<path style="fill:#C8E6EB;" d="M109.953,146.026L109.953,146.026c10.804,0,19.56-8.758,19.56-19.56V92.389
		c0-2.898-2.349-5.246-5.246-5.246H95.639c-2.898,0-5.246,2.349-5.246,5.246v34.075C90.393,137.268,99.151,146.026,109.953,146.026z
		"/>
	<path style="fill:#C8E6EB;" d="M123.347,193.907H96.56c-4.258,0-7.709-3.452-7.709-7.709s3.451-7.709,7.709-7.709h26.787
		c4.258,0,7.709,3.452,7.709,7.709S127.605,193.907,123.347,193.907z"/>
</g>
<path style="fill:#87AFB9;" d="M141.849,224.743H15.419C6.903,224.743,0,217.84,0,209.326c0-8.516,6.903-15.419,15.419-15.419
	H141.85c8.516,0,15.419,6.903,15.419,15.419C157.267,217.84,150.364,224.743,141.849,224.743z"/>
<path style="fill:#43484C;" d="M179.542,482.762c11.268,0,20.401-9.134,20.401-20.401V358.322l11.008-97.002
	c1.271-11.196-6.775-21.302-17.971-22.572c-11.189-1.273-21.302,6.775-22.571,17.971l-11.138,98.148
	c-0.087,0.764-0.13,1.531-0.13,2.3v105.192C159.14,473.628,168.274,482.762,179.542,482.762z"/>
<path style="fill:#373C41;" d="M240.849,482.762c-11.971,0-21.674-9.704-21.674-21.674V287.844c0-11.971,9.704-21.674,21.674-21.674
	s21.674,9.704,21.674,21.674v173.243C262.523,473.058,252.82,482.762,240.849,482.762z"/>
<path style="fill:#272A2E;" d="M166.854,287.844h95.67V151.461c0-15.517-12.578-28.095-28.095-28.095h-39.48
	c-15.517,0-28.095,12.578-28.095,28.095L166.854,287.844L166.854,287.844z"/>
<circle style="fill:#BA6746;" cx="204.131" cy="69.074" r="39.836"/>
<path style="fill:#FFFFFF;" d="M194.641,244.341l-80.413,3.354c-11.033,0.46-20.35-8.11-20.81-19.143
	c-0.461-11.032,8.11-20.351,19.143-20.809l65.473-2.731l15.225-60.942c2.676-10.714,13.533-17.227,24.245-14.552
	c10.712,2.676,17.228,13.531,14.551,24.244l-18.851,75.45C211.069,237.765,203.545,243.97,194.641,244.341z"/>
<path style="fill:#BA6746;" d="M114.228,247.696c-11.033,0.46-20.35-8.11-20.81-19.143c-0.461-11.032,8.11-20.351,19.143-20.809
	L114.228,247.696z"/>
<path style="fill:#E4F2F6;" d="M422.264,249.342c-7.751,0-14.974-4.908-17.558-12.667c-3.228-9.699,2.016-20.178,11.714-23.407
	l47.364-15.769l-27.135-37.747h-46.652c-10.222,0-18.508-8.286-18.508-18.508c0-10.222,8.286-18.508,18.508-18.508h51.298
	c8.998,0,17.445,4.331,22.697,11.637l44.526,61.941c3.435,4.778,4.393,10.905,2.58,16.503c-1.813,5.599-6.179,10.002-11.762,11.861
	l-71.226,23.712C426.173,249.036,424.202,249.342,422.264,249.342z"/>
<path style="fill:#FFB69E;" d="M449.186,323.129v138.338c0,11.76-9.534,21.295-21.295,21.295s-21.295-9.533-21.295-21.295V323.129
	H449.186z"/>
<path style="fill:#F2A085;" d="M397.403,323.129v138.338c0,11.76-9.534,21.295-21.295,21.295s-21.295-9.533-21.295-21.295V323.129
	H397.403z"/>
<path style="fill:#373C41;" d="M472.406,322.673l-37.175-199.936c0,0-6.542,0.001-14.476,0c0.778,10.743-8.931,19.601-18.802,19.601
	c-10.881,0-18.797-9.151-18.876-19.47c-6.737,0-11.474,0-11.819,0.001c-18.994,0-32.799,12.148-41.031,36.106
	c-12.76,37.133-41.736,116.406-42.027,117.203c-3.366,9.204,1.368,19.394,10.573,22.76c9.19,3.36,19.389-1.353,22.76-10.572
	c0.246-0.676,35.267-97.838,35.267-97.838l-25.205,132.146c-1.183,6.108,3.501,11.744,9.679,11.744h121.455
	C468.884,334.418,473.588,328.777,472.406,322.673z"/>
<path style="fill:#E4F2F6;" d="M371.258,122.868c-18.994,0-32.799,12.148-41.031,36.106
	c-12.76,37.133-41.736,116.406-42.027,117.203c-3.366,9.204,1.368,19.394,10.573,22.76c9.19,3.36,19.389-1.353,22.76-10.572
	c0.246-0.676,35.267-97.838,35.267-97.838L371.258,122.868z"/>
<g>
	<circle style="fill:#FFB69E;" cx="401.996" cy="72.697" r="36.779"/>
	<path style="fill:#FFB69E;" d="M321.532,288.364c-3.37,9.217-13.569,13.934-22.76,10.572c-9.205-3.366-13.938-13.555-10.573-22.76
		C288.235,276.08,321.613,288.147,321.532,288.364z"/>
</g>
<path style="fill:#C8E6EB;" d="M388.176,128.277c0.254-2.922,2.605-11.436,2.605-11.436c-2.86,1.386-5.821,2.057-8.878,7.191
	c-5.155,9.457,2.17,17.698,1.508,25.156c-0.258,2.909-2.594,11.388-2.594,11.388c0.808-0.42,9.64-3.026,10.805-13.199
	C392.429,140.155,387.659,134.226,388.176,128.277z"/>
<path style="fill:#73C8F0;" d="M351.997,169.292c-0.001,0.137-0.01,0.273-0.01,0.41c0,18.677,15.14,33.817,33.817,33.817
	s33.817-15.14,33.817-33.817c0-0.137-0.009-0.273-0.01-0.41H351.997z"/>
<path style="fill:#87AFB9;" d="M438.188,229.216H333.422c-7.096,0-12.848-5.753-12.848-12.848c0-7.096,5.753-12.848,12.848-12.848
	h104.766c7.096,0,12.848,5.753,12.848,12.848C451.036,223.464,445.283,229.216,438.188,229.216z"/>
<path style="fill:#E4F2F6;" d="M449.995,202.091l-33.575,11.178c-9.699,3.229-14.942,13.708-11.714,23.407
	c2.583,7.758,9.806,12.667,17.558,12.667c1.939,0,3.909-0.306,5.849-0.953l28.71-9.558L449.995,202.091z"/>
<path style="fill:#FFB69E;" d="M416.42,213.269c-9.699,3.229-14.942,13.708-11.714,23.407c3.239,9.729,13.738,14.934,23.407,11.714
	L416.42,213.269z"/>
<g>
</g>
<g>
</g>
<g>
</g>
<g>
</g>
<g>
</g>
<g>
</g>
<g>
</g>
<g>
</g>
<g>
</g>
<g>
</g>
<g>
</g>
<g>
</g>
<g>
</g>
<g>
</g>
<g>
</g>
</svg>
